<svg width="247" height="60" viewBox="0 0 247 60" fill="none" xmlns="http://www.w3.org/2000/svg">
<path d="M97.7155 27.0097H86.1653L84.6023 31.3297H78.9382L89.2943 5.24707H94.6584L105.011 31.3203H99.3504L97.7155 27.0097ZM88.1033 22.0926H95.84L91.967 11.6646L88.1033 22.0926Z" fill="white"/>
<path d="M129.6 15.9094C128.478 12.3334 125.796 10.2484 122.145 10.2484C117.603 10.2484 114.474 13.7494 114.474 18.3758C114.474 22.6958 117.528 26.4187 122.145 26.4187C125.796 26.4187 128.478 24.3338 129.594 20.6827L134.811 22.2456C133.248 27.6847 128.106 31.4077 122.145 31.4077C114.921 31.4077 108.885 25.8217 108.885 18.3726C108.885 11.0705 114.621 5.33447 122.145 5.33447C127.881 5.33447 133.023 8.46038 134.736 14.2746L129.6 15.9094Z" fill="white"/>
<path d="M147.027 5.24707V19.4762C147.021 20.3065 147.127 21.1338 147.34 21.9363C148.012 24.3933 149.8 26.3313 152.854 26.3313C155.908 26.3313 157.696 24.3933 158.365 21.9363C158.588 21.1359 158.694 20.3071 158.677 19.4762V5.24707H164.113V19.4012C164.095 20.529 163.961 21.6519 163.713 22.7522C162.522 27.8161 158.499 31.3922 152.838 31.3922C147.177 31.3922 143.148 27.8161 141.96 22.7522C141.718 21.6503 141.594 20.5261 141.588 19.3981V5.24707H147.027Z" fill="white"/>
<path d="M177.943 5.24707V26.3313H190.831V31.3953H172.504V5.33147H177.943V5.24707Z" fill="white"/>
<path d="M203.418 5.24707V26.3313H216.307V31.3953H197.982V5.33147H203.418V5.24707Z" fill="white"/>
<path d="M239.698 27.0097H228.151L226.588 31.3297H220.927L231.28 5.24707H236.644L247 31.3203H241.336L239.698 27.0097ZM230.089 22.0926H237.835L233.962 11.6646L230.089 22.0926Z" fill="white"/>
<path d="M91.4645 46.6779C90.7924 44.5148 89.2295 43.2394 86.9945 43.2394C84.2374 43.2394 82.3744 45.3275 82.3744 48.0815C82.3744 50.6885 84.2499 52.9235 86.9945 52.9235C89.1545 52.9235 90.7924 51.6731 91.4645 49.485L94.5904 50.454C93.6214 53.7331 90.5674 55.965 86.9913 55.965C82.6713 55.965 79.0203 52.614 79.0203 48.1502C79.0203 43.7552 82.4588 40.3354 86.9913 40.3354C90.4298 40.3354 93.4713 42.211 94.5904 45.6995L91.4645 46.6779Z" fill="white"/>
<path d="M107.025 53.3861H100.094L99.1253 55.9963H95.6868L101.87 40.3511H105.074L111.257 55.9963H107.818L107.025 53.3861ZM101.288 50.4071H105.977L103.667 44.1553L101.288 50.4071Z" fill="white"/>
<path d="M127.805 40.3447V55.9899H124.529V48.9128H117.527V55.9899H114.248V40.3447H117.527V45.9307H124.529V40.3447H127.805Z" fill="white"/>
<path d="M144.792 40.3447V43.3987H139.653V55.9899H136.374V43.3987H131.235V40.3447H144.792Z" fill="white"/>
<path d="M159.318 40.3447V43.3237H151.572V45.9307H157.455V48.9128H151.572V53.0078H159.318V55.9899H148.293V40.3447H159.318Z" fill="white"/>
<path d="M167.811 47.7187L162.447 40.3447H166.486L169.69 45.0336L172.891 40.3447H176.914L171.55 47.7187L177.511 55.9899H173.472L169.612 50.3258L165.739 55.9899H161.703L167.811 47.7187Z" fill="white"/>
<path d="M194.107 40.3447V55.9899H190.831V48.9128H183.829V55.9899H180.553V40.3447H183.832V45.9307H190.834V40.3447H194.107Z" fill="white"/>
<path d="M209.229 55.9899V46.0808L200.142 55.9899H198.37V40.3447H201.646V50.2601L210.736 40.351H212.524V55.9961L209.229 55.9899Z" fill="white"/>
<path d="M228.747 40.3447L223.086 47.1967L230.013 56.0618H225.99L220.104 48.3158V56.0618H216.828V40.4322H220.104V46.3902L224.874 40.4322H228.747V40.3447Z" fill="white"/>
<path d="M242.602 53.3861H235.675L234.706 55.9963H231.267L237.45 40.3511H240.654L246.837 55.9963H243.399L242.602 53.3861ZM236.794 50.4071H241.483L239.173 44.1553L236.794 50.4071Z" fill="white"/>
<path d="M52.9404 18.9103V47.0842C52.9404 48.7096 52.6202 50.3191 51.9981 51.8208C51.376 53.3225 50.4641 54.6869 49.3146 55.8361C48.1651 56.9853 46.8005 57.8968 45.2987 58.5185C43.7968 59.1403 42.1873 59.4601 40.5618 59.4597H12.3786C9.34709 59.46 6.42085 58.3478 4.15478 56.3341C1.88872 54.3204 0.440373 51.5451 0.0843996 48.5346C0.0279793 48.0532 -0.000201037 47.5689 1.07948e-06 47.0842V18.9103C1.07948e-06 15.6273 1.30417 12.4788 3.62561 10.1573C5.94705 7.83591 9.0956 6.53174 12.3786 6.53174H40.5493C40.8932 6.53174 41.2339 6.53174 41.5684 6.57238C43.6476 6.73993 45.6503 7.43259 47.3888 8.58546C49.0948 9.71152 50.4945 11.2435 51.4623 13.0439C52.4302 14.8443 52.9359 16.8569 52.9342 18.901L52.9404 18.9103Z" fill="#414141"/>
<path d="M69.5484 1.2583C62.5339 3.02131 56.4759 8.26347 52.481 15.5562C49.2957 21.3704 47.4201 28.485 47.4201 36.1872C47.3879 42.2287 48.6043 48.2118 50.993 53.7611C49.8744 55.513 48.3322 56.9547 46.509 57.9529C44.6858 58.9511 42.6404 59.4736 40.5619 59.4721H12.3786C10.0647 59.4753 7.79694 58.8251 5.83612 57.5966C8.11647 51.9984 10.834 46.5885 13.9635 41.4169C14.3542 40.7917 14.745 40.1446 15.1451 39.5163C15.5452 38.888 15.9484 38.266 16.3579 37.6408C16.6413 37.2136 16.9279 36.7884 17.2176 36.3654C17.7781 35.5527 18.3481 34.7503 18.9274 33.9584C19.5068 33.1707 20.0944 32.3913 20.6904 31.6203C21.003 31.2327 21.2969 30.8482 21.6001 30.4668C22.2044 29.7103 22.8181 28.9664 23.4412 28.2349C25 26.401 26.614 24.6443 28.2833 22.9646C28.6188 22.6312 28.9543 22.2978 29.2898 21.9643C30.4756 20.8098 31.6832 19.697 32.9128 18.6259L33.9631 17.7256C34.1944 17.5318 34.4257 17.338 34.6601 17.1473C35.1415 16.7503 35.626 16.3627 36.1137 15.9782C37.3328 15.0217 38.5727 14.1037 39.8335 13.2243C40.2524 12.9305 40.6744 12.646 41.1026 12.3615C41.359 12.1927 41.6122 12.0208 41.8716 11.8583C43.6701 10.6892 45.5039 9.60553 47.3732 8.60732C50.2444 7.07765 53.2168 5.74603 56.2696 4.62178C57.0979 4.30919 57.9294 4.03412 58.7703 3.76529C59.3298 3.58398 59.8925 3.41206 60.452 3.24638C61.0897 3.06091 61.7284 2.88378 62.3682 2.71498C63.4373 2.43573 64.5136 2.18358 65.5973 1.95851C66.2475 1.8241 66.9008 1.70219 67.5572 1.58653C68.2137 1.47087 68.8857 1.35208 69.5484 1.2583Z" fill="#969696"/>
<path d="M69.5834 1.24892H69.5521C68.2267 1.43647 66.9169 1.66779 65.6134 1.93662C64.5319 2.15752 63.4555 2.40967 62.3844 2.69309C61.7436 2.85876 61.1028 3.03694 60.4682 3.2245C55.9353 4.5554 51.5523 6.35195 47.3894 8.58543C45.2513 9.72535 43.1673 10.9757 41.1376 12.3365C39.4371 13.4681 37.7699 14.6737 36.1361 15.9532C35.6485 16.3346 35.164 16.7243 34.6826 17.1223C34.4481 17.313 34.2168 17.5068 33.9855 17.7006C33.6354 17.9975 33.2822 18.2976 32.9352 18.6008C31.7036 19.6741 30.4959 20.7869 29.3123 21.9393C28.9747 22.2707 28.6391 22.6041 28.3057 22.9396C26.6386 24.6068 25.0245 26.3635 23.4637 28.2099C22.8385 28.9414 22.2248 29.6853 21.6225 30.4418C21.3099 30.8232 21.013 31.2076 20.7129 31.5953C20.1169 32.3642 19.5292 33.1436 18.9499 33.9334C18.3726 34.7233 17.8027 35.5256 17.24 36.3404C16.9524 36.7572 16.6659 37.1823 16.3804 37.6158C15.5614 38.8453 14.7632 40.0956 13.9859 41.3669C10.8564 46.5385 8.1389 51.9484 5.85855 57.5466C4.28081 56.5643 2.94451 55.2393 1.94881 53.67C0.953108 52.1007 0.323558 50.3273 0.106873 48.4814C9.96912 29.1977 24.489 14.2996 41.5908 6.51921C50.1051 2.60245 59.3612 0.559982 68.7331 0.529962H69.5146C69.6099 0.520843 69.705 0.549967 69.7788 0.610934C69.8527 0.671901 69.8993 0.75972 69.9085 0.85506C69.9176 0.9504 69.8884 1.04545 69.8275 1.11931C69.7665 1.19318 69.6787 1.2398 69.5834 1.24892Z" fill="#AAAAAA"/>
</svg>
