<svg width="166" height="100" viewBox="0 0 166 100" fill="none" xmlns="http://www.w3.org/2000/svg">
<path d="M3.65869 34.0333C3.65869 32.6186 4.97233 31.5828 6.3365 31.886L20.8371 35.069C21.8476 35.2964 22.5802 36.1806 22.5802 37.2163V62.605C22.5802 63.6407 21.8728 64.5249 20.8623 64.7523L6.36176 68.1122C4.97233 68.4406 3.65869 67.3796 3.65869 65.9649V34.0333Z" fill="white"/>
<path d="M11.667 31.5072C11.667 30.0925 12.9806 29.0314 14.3701 29.3599L30.6895 33.0734C31.7 33.3008 32.4074 34.185 32.4074 35.2207V64.5756C32.4074 65.5861 31.7 66.4955 30.7148 66.7229L14.3953 70.6385C13.0059 70.9669 11.667 69.9312 11.667 68.4912V31.5072Z" fill="white"/>
<path fill-rule="evenodd" clip-rule="evenodd" d="M11.667 66.8999V33.0483L20.8372 35.0693C21.8477 35.2967 22.5803 36.1809 22.5803 37.2166V62.6053C22.5803 63.641 21.873 64.5252 20.8625 64.7526L11.667 66.8999Z" fill="#09090A"/>
<path d="M55.4964 43.3458C59.0836 43.5227 62.014 45.5942 62.014 48.8025C62.014 52.0361 59.0836 54.0066 55.4964 54.2592V55.6739H52.6417V54.2592C49.206 54.1834 46.124 51.9856 46.124 48.8025C46.124 45.5689 49.0545 43.6237 52.6417 43.3458V41.9312H55.4964V43.3458ZM52.6417 45.9731C50.6965 46.1247 49.0039 47.0847 49.0039 48.8025C49.0039 50.5203 50.6207 51.4803 52.6417 51.6319V45.9731ZM55.4964 51.6572C57.4668 51.5056 59.1594 50.5456 59.1594 48.8278C59.1594 47.1352 57.5426 46.15 55.4964 45.9984V51.6572Z" fill="white"/>
<path d="M75.7079 53.3741H69.6449L68.8113 55.6478H65.8303L71.2617 41.9556H74.0911L79.5225 55.6478H76.5416L75.7079 53.3741ZM70.6302 50.7974H74.7227L72.7017 45.3155L70.6302 50.7974Z" fill="white"/>
<path d="M94.4013 47.5374C93.8202 45.668 92.4055 44.5565 90.4856 44.5565C88.0857 44.5565 86.4436 46.4006 86.4436 48.8006C86.4436 51.0742 88.0604 53.0446 90.4856 53.0446C92.4055 53.0446 93.8202 51.9331 94.4265 50.0131L97.1548 50.8468C96.3212 53.7267 93.6434 55.6466 90.5109 55.6466C86.6962 55.6466 83.5132 52.7162 83.5132 48.8006C83.5132 44.9607 86.5447 41.9292 90.5109 41.9292C93.5423 41.9292 96.2201 43.5965 97.1296 46.6533L94.4013 47.5374Z" fill="white"/>
<path d="M102.812 55.673V41.9556H112.462V44.6081H105.667V55.673H102.812Z" fill="white"/>
<path d="M118.274 55.6736V41.9814H124.994C126.156 41.9814 126.964 42.2088 127.621 42.613C128.733 43.2951 129.44 44.5077 129.44 46.0739C129.44 47.5644 128.733 48.8023 127.596 49.5096C126.939 49.9138 126.156 50.1412 124.994 50.1412H121.129V55.6484H118.274V55.6736ZM124.615 47.5139C125.171 47.5139 125.423 47.4634 125.651 47.3876C126.181 47.1602 126.61 46.7308 126.61 46.0739C126.61 45.4424 126.206 44.9624 125.651 44.7603C125.423 44.6593 125.171 44.6087 124.59 44.6087H121.129V47.5139H124.615Z" fill="white"/>
<path d="M142.4 53.3741H136.337L135.503 55.6478H132.522L137.953 41.9556H140.783L146.214 55.6478H143.233L142.4 53.3741ZM137.322 50.7974H141.414L139.393 45.3155L137.322 50.7974Z" fill="white"/>
<path d="M163.62 53.0205H165.489V58.5024H162.635V55.673H153.49V58.5024H150.61V53.0205H152.227C152.985 51.6058 153.389 50.0395 153.616 48.3975C153.919 46.2754 153.919 44.0271 153.97 41.9556H163.62V53.0205ZM156.774 44.6081C156.774 45.947 156.698 47.2859 156.471 48.7006C156.243 50.09 155.89 51.53 155.283 53.0205H160.74V44.6081H156.774Z" fill="white"/>
</svg>
