<svg width="168" height="58" viewBox="0 0 168 58" fill="none" xmlns="http://www.w3.org/2000/svg">
<path d="M0.491943 14.6948L5.1136 17.3921L5.1136 45.9062L0.491943 43.3409L0.491943 14.6948Z" fill="white"/>
<path d="M0.491944 20.0199L0.491944 14.6954L25.5359 28.9524L25.5359 34.347L0.491944 20.0199Z" fill="white"/>
<path d="M0.491943 43.3409L0.491944 37.8291L25.5359 51.9545V57.4664L0.491943 43.3409Z" fill="white"/>
<path d="M25.5356 28.9541L30.1596 26.2571V54.7709L25.5356 57.4682L25.5356 28.9541Z" fill="white"/>
<path d="M50.1967 14.6973L50.1967 20.4764L39.7929 36.6601L36.7098 35.1195L49.8111 14.9191L50.1967 14.6973Z" fill="white"/>
<path d="M50.1967 41.6694L50.1968 45.5225L36.7099 39.358L36.7102 35.1194L50.1967 41.6694Z" fill="white"/>
<path d="M27.4619 40.5139L36.7098 35.119V39.3576L27.4619 44.7522L27.4619 40.5139Z" fill="white"/>
<path d="M0.489258 14.6946L5.4985 11.9973L30.1594 26.2544L25.5355 28.9516L0.489258 14.6946Z" fill="#414141"/>
<path d="M45.5728 11.9977L50.1967 14.695L25.5358 28.9521L20.7133 26.2131L45.5728 11.9977Z" fill="#414141"/>
<path d="M20.7144 2.81L25.4878 0.0540733L42.9658 10.145L38.1924 12.9009L20.7144 2.81Z" fill="#414141"/>
<path d="M25.4678 0.0517578L30.2412 2.80769L12.7632 12.8986L7.98975 10.1427L25.4678 0.0517578Z" fill="#414141"/>
<path d="M71.2871 26.8815C69.8578 26.8815 68.5621 26.5742 67.4 25.9598C66.2512 25.3319 65.3428 24.4704 64.6749 23.375C64.0204 22.2663 63.6931 21.0173 63.6931 19.6281C63.6931 18.2389 64.0204 16.9966 64.6749 15.9012C65.3428 14.7925 66.2512 13.9309 67.4 13.3164C68.5621 12.6886 69.8645 12.3747 71.3072 12.3747C72.5227 12.3747 72.9578 12.3747 74.2452 12.3747C75.2922 12.3747 74.2316 12.3747 75.21 12.3747V15.1398C73.6479 15.1398 72.87 15.1398 71.4675 15.1398C70.5992 15.1398 69.8244 15.3335 69.1432 15.7209C68.4619 16.0949 67.9276 16.6225 67.5402 17.3038C67.1662 17.9851 66.9792 18.7598 66.9792 19.6281C66.9792 20.4964 67.1662 21.2711 67.5402 21.9524C67.9276 22.6336 68.4619 23.168 69.1432 23.5553C69.8244 23.9294 70.5992 24.1164 71.4675 24.1164C72.87 24.1164 73.3539 24.1164 75.21 24.1164V26.8815C74.3087 26.8815 75.5081 26.8815 74.5036 26.8815C73.4991 26.8815 72.5027 26.8815 71.2871 26.8815Z" fill="white"/>
<path d="M88.1169 18.4259H84.4702V26.641H81.3645V18.4259H77.7177V15.8611H88.1169V18.4259Z" fill="white"/>
<path d="M94.3716 15.7008C96.0413 15.7008 97.3237 16.1016 98.2187 16.9031C99.1137 17.6912 99.5612 18.8867 99.5612 20.4897V26.641H96.6358V25.2985C96.048 26.3004 94.9527 26.8013 93.3497 26.8013C92.5215 26.8013 91.8002 26.6611 91.1857 26.3805C90.5846 26.1 90.1238 25.7126 89.8032 25.2184C89.4826 24.7242 89.3223 24.1631 89.3223 23.5353C89.3223 22.5334 89.6963 21.7453 90.4443 21.1709C91.2057 20.5965 92.3746 20.3093 93.9508 20.3093H96.4354C96.4354 19.6281 96.2283 19.1071 95.8143 18.7465C95.4002 18.3724 94.779 18.1854 93.9508 18.1854C93.3764 18.1854 92.8087 18.2789 92.2477 18.4659C91.7 18.6396 91.2325 18.88 90.8451 19.1873L89.723 17.0032C90.3108 16.5891 91.0121 16.2686 91.8269 16.0415C92.6551 15.8144 93.5033 15.7008 94.3716 15.7008ZM94.1311 24.6974C94.6655 24.6974 95.1397 24.5772 95.5538 24.3368C95.9679 24.083 96.2617 23.7156 96.4354 23.2347V22.1327H94.2914C93.0091 22.1327 92.3679 22.5535 92.3679 23.395C92.3679 23.7958 92.5215 24.1164 92.8287 24.3568C93.1493 24.5839 93.5835 24.6974 94.1311 24.6974Z" fill="white"/>
<path d="M113.016 15.8611V26.641H109.891V18.4259H106.484L106.384 20.3294C106.331 21.7453 106.197 22.9208 105.983 23.8559C105.77 24.7909 105.422 25.5256 104.941 26.06C104.461 26.5943 103.793 26.8614 102.938 26.8614C102.484 26.8614 101.943 26.7813 101.315 26.621L101.475 24.0563C101.689 24.083 101.842 24.0963 101.936 24.0963C102.403 24.0963 102.751 23.9294 102.978 23.5954C103.218 23.2481 103.379 22.814 103.459 22.293C103.539 21.7587 103.599 21.0574 103.639 20.1891L103.799 15.8611H113.016Z" fill="white"/>
<path d="M122.254 19.3075C123.656 19.3209 124.732 19.6414 125.48 20.2693C126.228 20.8837 126.602 21.7587 126.602 22.8941C126.602 24.083 126.181 25.0114 125.339 25.6793C124.511 26.3338 123.342 26.6611 121.833 26.6611L116.423 26.641V15.8611H119.529V19.3075H122.254ZM121.552 24.437C122.153 24.4503 122.614 24.3234 122.935 24.0563C123.256 23.7891 123.416 23.3884 123.416 22.854C123.416 22.3331 123.256 21.9524 122.935 21.7119C122.628 21.4715 122.167 21.3446 121.552 21.3312L119.529 21.3112V24.437H121.552Z" fill="white"/>
<path d="M128.955 15.8611H132.061V20.0689H136.75V15.8611H139.876V26.641H136.75V22.6136H132.061V26.641H128.955V15.8611Z" fill="white"/>
<path d="M148.318 26.8013C147.182 26.8013 146.161 26.5676 145.252 26.1C144.357 25.6191 143.656 24.9579 143.148 24.1164C142.641 23.2748 142.387 22.3197 142.387 21.2511C142.387 20.1824 142.641 19.2273 143.148 18.3858C143.656 17.5442 144.357 16.8897 145.252 16.4222C146.161 15.9413 147.182 15.7008 148.318 15.7008C149.453 15.7008 150.468 15.9413 151.363 16.4222C152.258 16.8897 152.96 17.5442 153.467 18.3858C153.975 19.2273 154.229 20.1824 154.229 21.2511C154.229 22.3197 153.975 23.2748 153.467 24.1164C152.96 24.9579 152.258 25.6191 151.363 26.1C150.468 26.5676 149.453 26.8013 148.318 26.8013ZM148.318 24.2366C149.119 24.2366 149.774 23.9694 150.281 23.4351C150.802 22.8874 151.063 22.1594 151.063 21.2511C151.063 20.3427 150.802 19.6214 150.281 19.0871C149.774 18.5394 149.119 18.2656 148.318 18.2656C147.516 18.2656 146.855 18.5394 146.334 19.0871C145.813 19.6214 145.553 20.3427 145.553 21.2511C145.553 22.1594 145.813 22.8874 146.334 23.4351C146.855 23.9694 147.516 24.2366 148.318 24.2366Z" fill="white"/>
<path d="M156.779 15.8611H159.885V22.273L165.135 15.8611H168V26.641H164.894V20.2292L159.665 26.641H156.779V15.8611ZM162.189 14.699C159.838 14.699 158.656 13.6637 158.643 11.5933H160.687C160.7 12.0608 160.827 12.4281 161.067 12.6953C161.321 12.9491 161.688 13.076 162.169 13.076C162.65 13.076 163.018 12.9491 163.271 12.6953C163.539 12.4281 163.672 12.0608 163.672 11.5933H165.756C165.743 13.6637 164.554 14.699 162.189 14.699Z" fill="white"/>
<path d="M69.1632 41.4345H67.5402V45.522H64.4144V34.7421H67.5402V38.9298H69.2233L72.1487 34.7421H75.4749L71.7079 39.9117L75.7353 45.522H72.0485L69.1632 41.4345Z" fill="white"/>
<path d="M84.0227 34.5818C85.0245 34.5818 85.9328 34.8156 86.7477 35.2831C87.5759 35.7373 88.2237 36.3852 88.6913 37.2267C89.1588 38.0549 89.3926 39.0234 89.3926 40.1321C89.3926 41.2408 89.1588 42.2159 88.6913 43.0575C88.2237 43.8857 87.5759 44.5335 86.7477 45.0011C85.9328 45.4552 85.0245 45.6823 84.0227 45.6823C82.6468 45.6823 81.5648 45.2482 80.7767 44.3799V49.4092H77.6509V34.7421H80.6364V35.9844C81.4112 35.0494 82.5399 34.5818 84.0227 34.5818ZM83.4817 43.1176C84.2831 43.1176 84.9377 42.8504 85.4453 42.3161C85.9662 41.7684 86.2267 41.0404 86.2267 40.1321C86.2267 39.2237 85.9662 38.5024 85.4453 37.9681C84.9377 37.4204 84.2831 37.1466 83.4817 37.1466C82.6802 37.1466 82.019 37.4204 81.498 37.9681C80.9904 38.5024 80.7366 39.2237 80.7366 40.1321C80.7366 41.0404 80.9904 41.7684 81.498 42.3161C82.019 42.8504 82.6802 43.1176 83.4817 43.1176Z" fill="white"/>
<path d="M102.463 40.1721C102.463 40.2122 102.443 40.4927 102.403 41.0137H94.2482C94.3952 41.6816 94.7425 42.2092 95.2902 42.5966C95.8378 42.984 96.5191 43.1777 97.3339 43.1777C97.895 43.1777 98.3892 43.0975 98.8167 42.9372C99.2575 42.7636 99.6649 42.4964 100.039 42.1358L101.702 43.9391C100.687 45.1012 99.204 45.6823 97.2538 45.6823C96.0382 45.6823 94.9629 45.4485 94.0278 44.981C93.0928 44.5001 92.3714 43.8389 91.8638 42.9974C91.3562 42.1558 91.1024 41.2007 91.1024 40.1321C91.1024 39.0768 91.3496 38.1284 91.8438 37.2868C92.3514 36.4319 93.0393 35.7707 93.9076 35.3032C94.7892 34.8223 95.771 34.5818 96.853 34.5818C97.9083 34.5818 98.8634 34.8089 99.7183 35.2631C100.573 35.7173 101.241 36.3718 101.722 37.2267C102.216 38.0683 102.463 39.0501 102.463 40.1721ZM96.8731 36.9462C96.1651 36.9462 95.5707 37.1466 95.0898 37.5473C94.6089 37.948 94.315 38.4957 94.2082 39.1903H99.518C99.4111 38.5091 99.1172 37.9681 98.6363 37.5673C98.1554 37.1532 97.5677 36.9462 96.8731 36.9462Z" fill="white"/>
<path d="M115.98 34.7421V45.522H112.854V37.3069H108.366V45.522H105.26V34.7421H115.98Z" fill="white"/>
<path d="M129.857 40.1721C129.857 40.2122 129.837 40.4927 129.797 41.0137H121.642C121.789 41.6816 122.136 42.2092 122.684 42.5966C123.231 42.984 123.913 43.1777 124.727 43.1777C125.288 43.1777 125.783 43.0975 126.21 42.9372C126.651 42.7636 127.058 42.4964 127.432 42.1358L129.095 43.9391C128.08 45.1012 126.598 45.6823 124.647 45.6823C123.432 45.6823 122.356 45.4485 121.421 44.981C120.486 44.5001 119.765 43.8389 119.257 42.9974C118.75 42.1558 118.496 41.2007 118.496 40.1321C118.496 39.0768 118.743 38.1284 119.237 37.2868C119.745 36.4319 120.433 35.7707 121.301 35.3032C122.183 34.8223 123.165 34.5818 124.247 34.5818C125.302 34.5818 126.257 34.8089 127.112 35.2631C127.967 35.7173 128.635 36.3718 129.116 37.2267C129.61 38.0683 129.857 39.0501 129.857 40.1721ZM124.267 36.9462C123.559 36.9462 122.964 37.1466 122.483 37.5473C122.002 37.948 121.709 38.4957 121.602 39.1903H126.911C126.805 38.5091 126.511 37.9681 126.03 37.5673C125.549 37.1532 124.961 36.9462 124.267 36.9462Z" fill="white"/>
<path d="M143.04 41.4345H141.537V45.522H138.451V41.4345H136.949L134.664 45.522H130.978L134.364 39.9517L131.218 34.7421H134.524L136.909 38.9298H138.451V34.7421H141.537V38.9298H143.06L145.464 34.7421H148.77L145.625 39.9517L149.031 45.522H145.324L143.04 41.4345Z" fill="white"/>
</svg>
