<svg width="143" height="46" viewBox="0 0 143 46" fill="none" xmlns="http://www.w3.org/2000/svg">
<path d="M9.26566 23.3321C7.65683 23.3321 6.09766 23.1037 4.58814 22.6469C3.09848 22.19 1.91669 21.5842 1.04276 20.8295L2.38345 17.8204C3.23752 18.4957 4.28028 19.0518 5.51172 19.4888C6.76303 19.9059 8.01434 20.1145 9.26566 20.1145C10.8149 20.1145 11.9669 19.8662 12.7217 19.3696C13.4963 18.8731 13.8836 18.2176 13.8836 17.4033C13.8836 16.8074 13.6651 16.3208 13.2281 15.9434C12.811 15.5462 12.2748 15.2383 11.6193 15.0198C10.9639 14.8014 10.0701 14.5531 8.93793 14.275C7.34897 13.8976 6.05793 13.5202 5.06483 13.1429C4.09159 12.7655 3.24745 12.1796 2.53241 11.3851C1.83724 10.5707 1.48966 9.47832 1.48966 8.10783C1.48966 6.95583 1.79752 5.91308 2.41324 4.97956C3.04883 4.02618 3.99228 3.27142 5.24359 2.71528C6.51476 2.15914 8.064 1.88108 9.89131 1.88108C11.1625 1.88108 12.4138 2.03997 13.6452 2.35777C14.8767 2.67556 15.9393 3.13239 16.8331 3.72825L15.6116 6.73735C14.6979 6.20108 13.7446 5.7939 12.7514 5.51584C11.7583 5.23777 10.795 5.09873 9.86152 5.09873C8.33214 5.09873 7.19007 5.35694 6.43531 5.87335C5.70041 6.38977 5.33297 7.07501 5.33297 7.92908C5.33297 8.52494 5.54152 9.01156 5.95862 9.38894C6.39559 9.76632 6.94179 10.0642 7.59724 10.2827C8.25269 10.5012 9.14648 10.7495 10.2786 11.0276C11.8279 11.3851 13.099 11.7625 14.0921 12.1597C15.0852 12.5371 15.9294 13.123 16.6246 13.9175C17.3396 14.712 17.6971 15.7845 17.6971 17.1351C17.6971 18.2871 17.3793 19.3299 16.7437 20.2634C16.128 21.1969 15.1846 21.9418 13.9134 22.4979C12.6422 23.054 11.093 23.3321 9.26566 23.3321ZM30.2074 6.9459C32.2135 6.9459 33.8223 7.53183 35.0339 8.7037C36.2455 9.87556 36.8513 11.6135 36.8513 13.9175V23.0342H33.1271V14.3942C33.1271 13.0038 32.7994 11.9611 32.144 11.2659C31.4885 10.5509 30.555 10.1934 29.3434 10.1934C27.9729 10.1934 26.8904 10.6105 26.096 11.4447C25.3015 12.259 24.9042 13.4408 24.9042 14.99V23.0342H21.1801V0.927697H24.9042V8.97183C25.52 8.31639 26.2747 7.81984 27.1685 7.48218C28.0822 7.12466 29.0951 6.9459 30.2074 6.9459ZM41.5756 7.12466H45.2997V23.0342H41.5756V7.12466ZM43.4525 4.50287C42.7772 4.50287 42.2112 4.29432 41.7543 3.87721C41.2975 3.44025 41.0691 2.90397 41.0691 2.26839C41.0691 1.6328 41.2975 1.10646 41.7543 0.689351C42.2112 0.252387 42.7772 0.0339043 43.4525 0.0339043C44.1279 0.0339043 44.6939 0.242456 45.1507 0.659558C45.6076 1.0568 45.836 1.56328 45.836 2.17901C45.836 2.83445 45.6076 3.39059 45.1507 3.84742C44.7138 4.28439 44.1477 4.50287 43.4525 4.50287ZM59.215 6.9459C61.221 6.9459 62.8299 7.53183 64.0414 8.7037C65.253 9.87556 65.8588 11.6135 65.8588 13.9175V23.0342H62.1347V14.3942C62.1347 13.0038 61.807 11.9611 61.1515 11.2659C60.4961 10.5509 59.5625 10.1934 58.351 10.1934C56.9805 10.1934 55.898 10.6105 55.1035 11.4447C54.309 12.259 53.9118 13.4408 53.9118 14.99V23.0342H50.1876V7.12466H53.733V9.18039C54.3487 8.44549 55.1234 7.88935 56.0569 7.51197C56.9904 7.13459 58.0431 6.9459 59.215 6.9459ZM85.6847 15.1688C85.6847 15.427 85.6649 15.7945 85.6251 16.2711H73.1418C73.3603 17.443 73.9264 18.3765 74.84 19.0717C75.7736 19.747 76.9256 20.0847 78.296 20.0847C80.0439 20.0847 81.4839 19.5087 82.616 18.3567L84.6122 20.6507C83.8971 21.5048 82.9934 22.1503 81.901 22.5873C80.8086 23.0242 79.5771 23.2427 78.2067 23.2427C76.4588 23.2427 74.9195 22.8951 73.5887 22.2C72.258 21.5048 71.2251 20.5415 70.4902 19.31C69.7752 18.0587 69.4177 16.6485 69.4177 15.0794C69.4177 13.5302 69.7653 12.1398 70.4604 10.9084C71.1755 9.65708 72.1587 8.68383 73.41 7.98866C74.6613 7.29349 76.0715 6.9459 77.6406 6.9459C79.1898 6.9459 80.5702 7.29349 81.7818 7.98866C83.0133 8.66397 83.9667 9.62728 84.642 10.8786C85.3371 12.11 85.6847 13.5401 85.6847 15.1688ZM77.6406 9.92521C76.4489 9.92521 75.4359 10.2827 74.6017 10.9978C73.7873 11.6929 73.2908 12.6265 73.112 13.7983H82.1393C81.9804 12.6463 81.4938 11.7128 80.6795 10.9978C79.8651 10.2827 78.8522 9.92521 77.6406 9.92521ZM6.22676 43.1236C5.19393 43.1236 4.26041 42.8951 3.42621 42.4383C2.60193 41.9815 1.95145 41.3509 1.47476 40.5465C1.008 39.7321 0.774621 38.8234 0.774621 37.8204C0.774621 36.8174 1.008 35.9136 1.47476 35.1092C1.95145 34.2949 2.6069 33.6593 3.4411 33.2025C4.27531 32.7456 5.20883 32.5172 6.24166 32.5172C7.01628 32.5172 7.73131 32.6463 8.38676 32.9045C9.04221 33.1627 9.59834 33.5401 10.0552 34.0367L9.35503 34.7368C8.54069 33.9125 7.51283 33.5004 6.27145 33.5004C5.44717 33.5004 4.69738 33.6891 4.02207 34.0665C3.34676 34.4438 2.81545 34.9602 2.42814 35.6157C2.05076 36.2711 1.86207 37.006 1.86207 37.8204C1.86207 38.6347 2.05076 39.3696 2.42814 40.0251C2.81545 40.6805 3.34676 41.1969 4.02207 41.5743C4.69738 41.9517 5.44717 42.1404 6.27145 42.1404C7.52276 42.1404 8.55062 41.7233 9.35503 40.8891L10.0552 41.5892C9.59834 42.0858 9.03724 42.4681 8.37186 42.7362C7.71641 42.9945 7.00138 43.1236 6.22676 43.1236ZM12.1817 31.9809H13.2393V43.0342H12.1817V31.9809ZM23.0048 39.4441H16.4503C16.5099 40.2585 16.8227 40.9189 17.3888 41.4254C17.9549 41.9219 18.6699 42.1702 19.5339 42.1702C20.0205 42.1702 20.4674 42.0858 20.8746 41.9169C21.2818 41.7382 21.6343 41.48 21.9323 41.1423L22.5281 41.8276C22.1805 42.2447 21.7436 42.5625 21.2172 42.7809C20.7008 42.9994 20.1298 43.1087 19.5041 43.1087C18.6997 43.1087 17.9847 42.9398 17.359 42.6022C16.7433 42.2546 16.2616 41.7779 15.9141 41.1721C15.5665 40.5663 15.3927 39.8811 15.3927 39.1164C15.3927 38.3517 15.5565 37.6665 15.8843 37.0607C16.2219 36.4549 16.6787 35.9831 17.2547 35.6455C17.8407 35.3078 18.4961 35.139 19.2211 35.139C19.9461 35.139 20.5965 35.3078 21.1725 35.6455C21.7485 35.9831 22.2004 36.4549 22.5281 37.0607C22.8558 37.6565 23.0197 38.3418 23.0197 39.1164L23.0048 39.4441ZM19.2211 36.0477C18.4663 36.0477 17.8307 36.291 17.3143 36.7776C16.8078 37.2543 16.5198 37.88 16.4503 38.6546H22.0067C21.9372 37.88 21.6443 37.2543 21.1278 36.7776C20.6214 36.291 19.9858 36.0477 19.2211 36.0477ZM27.6952 35.139C28.7181 35.139 29.5027 35.3972 30.0489 35.9136C30.5951 36.4201 30.8682 37.1749 30.8682 38.1779V43.0342H29.8552V41.8127C29.6169 42.2198 29.2644 42.5376 28.7976 42.766C28.3408 42.9945 27.7946 43.1087 27.159 43.1087C26.285 43.1087 25.5899 42.9001 25.0735 42.483C24.557 42.0659 24.2988 41.5147 24.2988 40.8295C24.2988 40.1641 24.5372 39.6278 25.0139 39.2207C25.5005 38.8135 26.2701 38.6099 27.3228 38.6099H29.8106V38.1332C29.8106 37.4579 29.6219 36.9465 29.2445 36.5989C28.8671 36.2414 28.3159 36.0626 27.591 36.0626C27.0944 36.0626 26.6177 36.147 26.1609 36.3158C25.7041 36.4747 25.3118 36.6982 24.9841 36.9862L24.5074 36.1967C24.9046 35.859 25.3813 35.6008 25.9375 35.422C26.4936 35.2334 27.0795 35.139 27.6952 35.139ZM27.3228 42.2745C27.9187 42.2745 28.4301 42.1404 28.8572 41.8722C29.2842 41.5942 29.602 41.1969 29.8106 40.6805V39.3994H27.3526C26.0119 39.3994 25.3416 39.8662 25.3416 40.7997C25.3416 41.2565 25.5154 41.619 25.863 41.8871C26.2106 42.1454 26.6972 42.2745 27.3228 42.2745ZM37.7332 35.139C38.7164 35.139 39.496 35.427 40.072 36.003C40.6579 36.5691 40.9509 37.3983 40.9509 38.4907V43.0342H39.8932V38.595C39.8932 37.7807 39.6896 37.16 39.2824 36.7329C38.8753 36.3059 38.2943 36.0924 37.5395 36.0924C36.6954 36.0924 36.0251 36.3456 35.5285 36.8521C35.0419 37.3487 34.7986 38.0389 34.7986 38.9227V43.0342H33.7409V35.1986H34.7539V36.6436C35.0419 36.1669 35.4391 35.7994 35.9456 35.5412C36.462 35.2731 37.0579 35.139 37.7332 35.139ZM43.8223 35.1986H44.8799V43.0342H43.8223V35.1986ZM44.3586 33.4855C44.1401 33.4855 43.9563 33.411 43.8074 33.262C43.6584 33.1131 43.5839 32.9343 43.5839 32.7258C43.5839 32.5271 43.6584 32.3534 43.8074 32.2044C43.9563 32.0554 44.1401 31.9809 44.3586 31.9809C44.577 31.9809 44.7608 32.0554 44.9097 32.2044C45.0587 32.3434 45.1332 32.5122 45.1332 32.7109C45.1332 32.9294 45.0587 33.1131 44.9097 33.262C44.7608 33.411 44.577 33.4855 44.3586 33.4855ZM51.8151 35.139C52.7983 35.139 53.5779 35.427 54.1539 36.003C54.7398 36.5691 55.0327 37.3983 55.0327 38.4907V43.0342H53.9751V38.595C53.9751 37.7807 53.7715 37.16 53.3643 36.7329C52.9572 36.3059 52.3762 36.0924 51.6214 36.0924C50.7773 36.0924 50.107 36.3456 49.6104 36.8521C49.1238 37.3487 48.8805 38.0389 48.8805 38.9227V43.0342H47.8228V35.1986H48.8358V36.6436C49.1238 36.1669 49.521 35.7994 50.0275 35.5412C50.5439 35.2731 51.1398 35.139 51.8151 35.139ZM65.1879 35.1986V42.0808C65.1879 43.4116 64.8602 44.3947 64.2047 45.0303C63.5592 45.6758 62.581 45.9986 61.2701 45.9986C60.5451 45.9986 59.8549 45.8894 59.1995 45.6709C58.554 45.4623 58.0276 45.1694 57.6204 44.792L58.1567 43.9876C58.5341 44.3252 58.9909 44.5884 59.5272 44.7771C60.0734 44.9658 60.6444 45.0601 61.2403 45.0601C62.2334 45.0601 62.9633 44.8267 63.4301 44.36C63.8969 43.9031 64.1302 43.1881 64.1302 42.2149V41.2168C63.8025 41.7134 63.3705 42.0907 62.8342 42.3489C62.3079 42.6071 61.722 42.7362 61.0764 42.7362C60.3415 42.7362 59.6712 42.5774 59.0654 42.2596C58.4695 41.9318 57.9978 41.48 57.6502 40.904C57.3126 40.318 57.1438 39.6576 57.1438 38.9227C57.1438 38.1878 57.3126 37.5324 57.6502 36.9564C57.9978 36.3804 58.4695 35.9335 59.0654 35.6157C59.6613 35.2979 60.3316 35.139 61.0764 35.139C61.7418 35.139 62.3426 35.2731 62.8789 35.5412C63.4152 35.8094 63.8472 36.1967 64.1749 36.7031V35.1986H65.1879ZM61.1807 41.7978C61.7468 41.7978 62.2582 41.6786 62.7151 41.4402C63.1719 41.192 63.5244 40.8494 63.7727 40.4124C64.0309 39.9754 64.16 39.4789 64.16 38.9227C64.16 38.3666 64.0309 37.875 63.7727 37.448C63.5244 37.011 63.1719 36.6734 62.7151 36.435C62.2682 36.1867 61.7567 36.0626 61.1807 36.0626C60.6146 36.0626 60.1032 36.1818 59.6464 36.4201C59.1995 36.6585 58.8469 36.9961 58.5887 37.4331C58.3404 37.87 58.2163 38.3666 58.2163 38.9227C58.2163 39.4789 58.3404 39.9754 58.5887 40.4124C58.8469 40.8494 59.1995 41.192 59.6464 41.4402C60.1032 41.6786 60.6146 41.7978 61.1807 41.7978ZM76.7963 43.1236C75.7634 43.1236 74.8299 42.8951 73.9957 42.4383C73.1714 41.9815 72.521 41.3509 72.0443 40.5465C71.5775 39.7321 71.3441 38.8234 71.3441 37.8204C71.3441 36.8174 71.5775 35.9136 72.0443 35.1092C72.521 34.2949 73.1764 33.6593 74.0106 33.2025C74.8448 32.7456 75.7783 32.5172 76.8112 32.5172C77.5858 32.5172 78.3008 32.6463 78.9563 32.9045C79.6117 33.1627 80.1678 33.5401 80.6247 34.0367L79.9245 34.7368C79.1102 33.9125 78.0823 33.5004 76.841 33.5004C76.0167 33.5004 75.2669 33.6891 74.5916 34.0665C73.9163 34.4438 73.385 34.9602 72.9976 35.6157C72.6203 36.2711 72.4316 37.006 72.4316 37.8204C72.4316 38.6347 72.6203 39.3696 72.9976 40.0251C73.385 40.6805 73.9163 41.1969 74.5916 41.5743C75.2669 41.9517 76.0167 42.1404 76.841 42.1404C78.0923 42.1404 79.1201 41.7233 79.9245 40.8891L80.6247 41.5892C80.1678 42.0858 79.6067 42.4681 78.9414 42.7362C78.2859 42.9945 77.5709 43.1236 76.7963 43.1236ZM85.6048 43.1087C84.85 43.1087 84.1697 42.9398 83.564 42.6022C82.9582 42.2546 82.4815 41.7779 82.1339 41.1721C81.7863 40.5663 81.6125 39.8811 81.6125 39.1164C81.6125 38.3517 81.7863 37.6665 82.1339 37.0607C82.4815 36.4549 82.9582 35.9831 83.564 35.6455C84.1697 35.3078 84.85 35.139 85.6048 35.139C86.3595 35.139 87.0398 35.3078 87.6456 35.6455C88.2514 35.9831 88.7231 36.4549 89.0608 37.0607C89.4084 37.6665 89.5822 38.3517 89.5822 39.1164C89.5822 39.8811 89.4084 40.5663 89.0608 41.1721C88.7231 41.7779 88.2514 42.2546 87.6456 42.6022C87.0398 42.9398 86.3595 43.1087 85.6048 43.1087ZM85.6048 42.1702C86.1609 42.1702 86.6575 42.046 87.0944 41.7978C87.5413 41.5396 87.8889 41.1771 88.1372 40.7103C88.3855 40.2436 88.5096 39.7122 88.5096 39.1164C88.5096 38.5205 88.3855 37.9892 88.1372 37.5225C87.8889 37.0557 87.5413 36.6982 87.0944 36.4499C86.6575 36.1917 86.1609 36.0626 85.6048 36.0626C85.0486 36.0626 84.5471 36.1917 84.1002 36.4499C83.6633 36.6982 83.3157 37.0557 83.0575 37.5225C82.8092 37.9892 82.6851 38.5205 82.6851 39.1164C82.6851 39.7122 82.8092 40.2436 83.0575 40.7103C83.3157 41.1771 83.6633 41.5396 84.1002 41.7978C84.5471 42.046 85.0486 42.1702 85.6048 42.1702ZM101.514 35.139C102.497 35.139 103.266 35.422 103.823 35.9881C104.389 36.5542 104.672 37.3884 104.672 38.4907V43.0342H103.614V38.595C103.614 37.7807 103.415 37.16 103.018 36.7329C102.631 36.3059 102.08 36.0924 101.365 36.0924C100.55 36.0924 99.9097 36.3456 99.443 36.8521C98.9762 37.3487 98.7428 38.0389 98.7428 38.9227V43.0342H97.6852V38.595C97.6852 37.7807 97.4866 37.16 97.0893 36.7329C96.702 36.3059 96.1459 36.0924 95.4209 36.0924C94.6165 36.0924 93.9759 36.3456 93.4993 36.8521C93.0325 37.3487 92.7991 38.0389 92.7991 38.9227V43.0342H91.7415V35.1986H92.7544V36.6287C93.0325 36.152 93.4198 35.7845 93.9164 35.5263C94.4129 35.2681 94.9839 35.139 95.6295 35.139C96.2849 35.139 96.851 35.278 97.3277 35.5561C97.8143 35.8342 98.1768 36.2463 98.4151 36.7925C98.7031 36.2761 99.1153 35.8739 99.6515 35.5859C100.198 35.288 100.818 35.139 101.514 35.139ZM111.577 35.139C112.312 35.139 112.977 35.3078 113.573 35.6455C114.169 35.9732 114.636 36.44 114.973 37.0458C115.311 37.6516 115.48 38.3418 115.48 39.1164C115.48 39.9009 115.311 40.5961 114.973 41.2019C114.636 41.8077 114.169 42.2794 113.573 42.6171C112.987 42.9448 112.322 43.1087 111.577 43.1087C110.941 43.1087 110.365 42.9796 109.849 42.7214C109.342 42.4532 108.925 42.0659 108.598 41.5594V45.9241H107.54V35.1986H108.553V36.7478C108.871 36.2314 109.288 35.8342 109.804 35.5561C110.331 35.278 110.921 35.139 111.577 35.139ZM111.502 42.1702C112.049 42.1702 112.545 42.046 112.992 41.7978C113.439 41.5396 113.787 41.1771 114.035 40.7103C114.293 40.2436 114.422 39.7122 114.422 39.1164C114.422 38.5205 114.293 37.9942 114.035 37.5374C113.787 37.0706 113.439 36.7081 112.992 36.4499C112.545 36.1917 112.049 36.0626 111.502 36.0626C110.946 36.0626 110.445 36.1917 109.998 36.4499C109.561 36.7081 109.213 37.0706 108.955 37.5374C108.707 37.9942 108.583 38.5205 108.583 39.1164C108.583 39.7122 108.707 40.2436 108.955 40.7103C109.213 41.1771 109.561 41.5396 109.998 41.7978C110.445 42.046 110.946 42.1702 111.502 42.1702ZM120.333 35.139C121.356 35.139 122.141 35.3972 122.687 35.9136C123.233 36.4201 123.506 37.1749 123.506 38.1779V43.0342H122.493V41.8127C122.255 42.2198 121.902 42.5376 121.436 42.766C120.979 42.9945 120.432 43.1087 119.797 43.1087C118.923 43.1087 118.228 42.9001 117.711 42.483C117.195 42.0659 116.937 41.5147 116.937 40.8295C116.937 40.1641 117.175 39.6278 117.652 39.2207C118.138 38.8135 118.908 38.6099 119.961 38.6099H122.448V38.1332C122.448 37.4579 122.26 36.9465 121.882 36.5989C121.505 36.2414 120.954 36.0626 120.229 36.0626C119.732 36.0626 119.256 36.147 118.799 36.3158C118.342 36.4747 117.95 36.6982 117.622 36.9862L117.145 36.1967C117.543 35.859 118.019 35.6008 118.575 35.422C119.132 35.2334 119.717 35.139 120.333 35.139ZM119.961 42.2745C120.557 42.2745 121.068 42.1404 121.495 41.8722C121.922 41.5942 122.24 41.1969 122.448 40.6805V39.3994H119.991C118.65 39.3994 117.98 39.8662 117.98 40.7997C117.98 41.2565 118.153 41.619 118.501 41.8871C118.848 42.1454 119.335 42.2745 119.961 42.2745ZM130.371 35.139C131.354 35.139 132.134 35.427 132.71 36.003C133.296 36.5691 133.589 37.3983 133.589 38.4907V43.0342H132.531V38.595C132.531 37.7807 132.328 37.16 131.92 36.7329C131.513 36.3059 130.932 36.0924 130.177 36.0924C129.333 36.0924 128.663 36.3456 128.166 36.8521C127.68 37.3487 127.437 38.0389 127.437 38.9227V43.0342H126.379V35.1986H127.392V36.6436C127.68 36.1669 128.077 35.7994 128.584 35.5412C129.1 35.2731 129.696 35.139 130.371 35.139ZM142.899 35.1986L138.981 43.9727C138.663 44.7076 138.296 45.2289 137.879 45.5368C137.462 45.8447 136.96 45.9986 136.374 45.9986C135.997 45.9986 135.644 45.939 135.317 45.8198C134.989 45.7007 134.706 45.5219 134.468 45.2836L134.959 44.494C135.356 44.8913 135.833 45.0899 136.389 45.0899C136.747 45.0899 137.05 44.9906 137.298 44.792C137.556 44.5934 137.794 44.2557 138.013 43.779L138.356 43.0193L134.855 35.1986H135.957L138.907 41.8574L141.856 35.1986H142.899Z" fill="white"/>
</svg>
