<svg width="84" height="102" viewBox="0 0 84 102" fill="none" xmlns="http://www.w3.org/2000/svg">
<path d="M18.4129 56.4204C19.5053 57.9908 20.8709 59.2881 22.4413 60.3805C14.9307 59.9708 7.48833 57.5811 0.933594 53.2113C5.50825 52.5285 10.4243 51.2312 15.4086 49.3877C15.9548 51.9823 16.9107 54.3721 18.4129 56.4204Z" fill="white"/>
<path d="M17.5245 56.9659C18.7535 58.6729 20.2557 60.0385 21.9627 61.2675C22.1675 60.653 22.3039 59.9702 22.5087 59.3557C14.9981 58.946 7.76064 56.488 1.5473 52.323C1.47902 52.9375 1.41081 53.552 1.27425 54.1665C6.1903 53.4155 11.038 52.1182 15.7492 50.3429C15.3396 50.1381 14.9299 49.865 14.5202 49.6602C14.9981 52.2547 16.0223 54.781 17.5245 56.9659C18.2755 58.0584 20.0508 57.0342 19.2997 55.9417C17.8658 53.8934 16.91 51.6402 16.432 49.1822C16.3638 48.7042 15.6809 48.2945 15.203 48.4994C10.4918 50.2063 5.71232 51.572 0.727989 52.323C-0.227909 52.4596 -0.159647 53.7569 0.454859 54.1665C7.00959 58.4681 14.5884 61.0626 22.5087 61.4723C23.6012 61.5406 23.8061 60.1068 23.055 59.5605C21.6212 58.6046 20.3922 57.3756 19.368 56.01C18.5487 54.8493 16.7734 55.8735 17.5245 56.9659Z" fill="#363636"/>
<path d="M55.0632 24.5049C56.4076 36.6336 50.754 47.9725 39.7222 54.4242C33.4434 58.0962 26.423 59.2882 19.7183 58.3268C18.6212 57.3934 17.6658 56.2984 16.9452 55.0662C15.9499 53.3645 15.4341 51.5398 15.2704 49.5094C21.3165 47.8634 27.7237 45.2188 34.0024 41.5468C42.8044 36.3992 50.094 30.9548 55.0632 24.5049Z" fill="#CE2020"/>
<path d="M54.0261 24.4812C54.8272 32.0452 52.864 39.7296 48.1096 45.7389C42.9644 52.2917 35.0913 56.7386 26.759 57.4378C25.5799 57.5761 24.3908 57.5628 23.2017 57.5495C22.5607 57.5306 21.9197 57.5117 21.303 57.3998C21.0583 57.3854 20.755 57.4053 20.476 57.3323C20.104 57.2348 20.011 57.2105 19.6877 56.927C17.6695 54.9573 16.5217 52.3212 16.2151 49.5079C15.9317 49.8312 15.7412 50.1788 15.4577 50.5021C21.7142 48.8119 27.7007 46.2558 33.3439 43.113C38.8941 39.9458 44.2385 36.4266 49.0536 32.2718C51.5027 30.1307 53.7558 27.7893 55.72 25.2231C56.536 24.1946 55.0713 22.7674 54.2553 23.7959C50.7765 28.3504 46.4208 32.079 41.7662 35.4311C36.4662 39.1608 30.8086 42.5482 24.8809 45.0699C21.6823 46.468 18.3465 47.6315 14.9663 48.5845C14.5456 48.6731 14.1791 49.1237 14.209 49.5787C14.4468 52.2746 15.3158 54.8376 16.9819 57.0132C17.6827 57.9422 18.6236 59.2818 19.8227 59.4468C21.0217 59.6118 22.1864 59.7182 23.3755 59.7315C28.259 59.868 33.1559 58.8154 37.5624 56.7896C45.3679 53.1698 51.5749 46.5473 54.4871 38.4654C56.0871 34.0646 56.5368 29.3129 56.0765 24.6209C55.9526 23.1971 53.9121 23.2091 54.0261 24.4812Z" fill="#363636"/>
<path d="M24.3747 30.0099C18.9807 21.5434 23.692 2.08398 23.692 2.08398C23.692 2.08398 32.9095 10.9602 37.1428 12.9403C39.1911 13.8279 24.3747 30.0099 24.3747 30.0099Z" fill="white"/>
<path d="M25.2622 29.4638C20.8241 21.8849 22.736 10.4141 24.6478 2.28901C24.1016 2.42556 23.487 2.56209 22.9407 2.76692C25.2622 5.02011 27.7202 7.20502 30.1782 9.25337C31.7486 10.5507 33.3874 11.9162 35.1626 12.9404C35.4357 13.077 36.1868 13.4184 36.3916 13.6232C36.8013 14.0329 36.3916 12.9404 36.1868 13.5549C36.0502 14.1012 35.5722 14.6474 35.2991 15.1253C32.0218 20.2462 27.7203 24.8209 23.6236 29.259C22.736 30.2149 24.1697 31.6487 25.0574 30.6928C26.9692 28.5762 28.881 26.4595 30.7245 24.2746C33.1142 21.4069 36.1868 18.3344 37.7572 14.9205C39.1911 11.848 36.3233 11.37 34.1384 9.79963C30.6562 7.20505 27.4472 4.26908 24.3064 1.26483C23.7602 0.718601 22.8042 0.923403 22.5993 1.74274C20.551 10.4824 18.6393 22.3628 23.4187 30.4879C24.1015 31.6487 25.8767 30.6245 25.2622 29.4638Z" fill="#363636"/>
<mask id="mask0" mask-type="alpha" maskUnits="userSpaceOnUse" x="6" y="8" width="77" height="44">
<path d="M56.1931 51.4501C48.2045 51.4501 40.4889 48.5823 34.4122 43.4615C31.8176 45.3733 29.7694 47.1486 28.7452 47.9679C28.4038 48.241 27.9941 48.4458 27.5161 48.4458C27.0382 48.4458 26.6285 48.3093 26.2871 47.9679C24.3753 46.3292 14.4067 37.9309 7.37399 35.8826C6.48637 35.6095 5.94014 34.7901 6.00842 33.9025C6.69121 27.0064 9.76367 14.8528 11.061 9.93676C11.2658 9.11742 12.0169 8.57119 12.8363 8.57119C13.3825 8.57119 13.8604 8.77604 14.2018 9.18571L21.7125 17.3109H33.1149L40.7621 9.11745C41.1035 8.70778 41.5814 8.50293 42.1277 8.50293C42.947 8.50293 43.6298 8.98091 43.903 9.73197C44.7906 12.3266 46.9072 18.8813 47.8631 25.0946C50.526 24.4118 53.3253 24.0704 56.1247 24.0704C66.2982 24.0704 75.9255 28.5085 82.4803 36.3606C83.0265 37.0434 83.0948 38.0675 82.4803 38.7503C76.1304 46.8754 66.5031 51.4501 56.1931 51.4501Z" fill="#DA2127"/>
</mask>
<g mask="url(#mask0)">
<path d="M56.1931 51.4501C48.2045 51.4501 40.4889 48.5823 34.4122 43.4615C31.8176 45.3733 29.7694 47.1486 28.7452 47.9679C28.4038 48.241 27.9941 48.4458 27.5161 48.4458C27.0382 48.4458 26.6285 48.3093 26.2871 47.9679C24.3753 46.3292 14.4067 37.9309 7.37399 35.8826C6.48637 35.6095 5.94014 34.7901 6.00842 33.9025C6.69121 27.0064 9.76367 14.8528 11.061 9.93676C11.2658 9.11742 12.0169 8.57119 12.8363 8.57119C13.3825 8.57119 13.8604 8.77604 14.2018 9.18571L21.7125 17.3109H33.1149L40.7621 9.11745C41.1035 8.70778 41.5814 8.50293 42.1277 8.50293C42.947 8.50293 43.6298 8.98091 43.903 9.73197C44.7906 12.3266 46.9072 18.8813 47.8631 25.0946C50.526 24.4118 53.3253 24.0704 56.1247 24.0704C66.2982 24.0704 75.9255 28.5085 82.4803 36.3606C83.0265 37.0434 83.0948 38.0675 82.4803 38.7503C76.1304 46.8754 66.5031 51.4501 56.1931 51.4501Z" fill="#F1F1F1"/>
<path d="M27.8094 42.5502L29.4484 41.239C29.8172 40.9522 29.9402 40.4195 29.6943 40.0098L29.6533 39.9688C29.4894 39.641 29.1616 39.4771 28.7928 39.4771H25.5557C25.1869 39.4771 24.8591 39.682 24.6952 40.0098C24.4903 40.4195 24.5723 40.9112 24.9411 41.198L26.5391 42.5502C26.9489 42.8371 27.4406 42.8371 27.8094 42.5502Z" fill="#363636"/>
<path d="M19.877 19.1208L10.2422 8.84366L13.3147 -2.76367H41.9917C42.5379 -2.76367 50.6403 4.97455 54.6232 8.84366L89.4452 28.303C90.9246 35.9274 96.273 52.2005 80.9104 37.5206C67.9688 25.1542 52.12 26.8393 47.4461 27.6776C46.6947 27.8124 45.9395 27.3537 45.7579 26.6123L42.2947 12.4709C42.1651 11.9416 41.498 11.77 41.1291 12.171L34.7482 19.1067C34.3604 19.5283 33.8137 19.7682 33.2408 19.7682H21.3714C20.8052 19.7682 20.2643 19.5339 19.877 19.1208Z" fill="#F8F8F8"/>
</g>
<path d="M42.1954 9.52687C42.5368 9.52687 42.8782 9.73174 43.0147 10.0731C43.9706 12.8043 46.0873 19.359 46.9749 25.504C47.0432 25.9137 47.3845 26.1868 47.7942 26.1868C47.8625 26.1868 47.9308 26.1868 47.9991 26.1868C50.5937 25.504 53.3931 25.1626 56.1925 25.1626C66.4343 25.1626 75.6518 29.8056 81.7969 37.0431C82.07 37.3162 82.07 37.7942 81.7969 38.1356C75.7884 45.6462 66.5708 50.4257 56.1925 50.4257C48.0674 50.4257 40.6932 47.4897 34.9578 42.5737C34.8213 42.4371 34.6164 42.3688 34.4116 42.3688C34.2067 42.3688 34.0702 42.4371 33.9337 42.5054C31.2025 44.5537 29.0177 46.3289 28.0618 47.1483C27.9253 47.2848 27.7204 47.3531 27.5156 47.3531C27.3107 47.3531 27.1058 47.2848 26.9693 47.1483C24.5795 45.0999 14.8158 36.9748 7.71481 34.8582C7.30513 34.7216 7.032 34.3803 7.10028 33.9706C7.85135 27.0062 10.9921 14.4429 12.0846 10.2097C12.2211 9.79998 12.5626 9.59513 12.9039 9.59513C13.1088 9.59513 13.3136 9.66343 13.5185 9.86826L21.0974 18.0617C21.2339 18.1982 21.507 18.3348 21.7119 18.3348H27.5156H33.3192C33.5241 18.3348 33.7971 18.2665 33.9337 18.0617L41.6492 9.8C41.7857 9.59516 41.9906 9.52687 42.1954 9.52687ZM42.1954 7.47852C41.3761 7.47852 40.6249 7.81992 40.0787 8.43443L32.773 16.3547H27.5156H22.2581L15.0206 8.57095C14.4743 7.95645 13.7233 7.61504 12.9039 7.61504C11.6067 7.61504 10.4459 8.50271 10.1046 9.8C8.80726 14.716 5.73471 26.9378 5.05193 33.9022C4.91537 35.2678 5.80299 36.5651 7.10028 36.9748C13.9281 39.0231 23.6919 47.2165 25.6037 48.8552C26.15 49.3332 26.7645 49.538 27.5156 49.538C28.1983 49.538 28.8811 49.2649 29.359 48.8552C30.2467 48.0359 32.0902 46.5337 34.3434 44.8268C40.4885 49.8111 48.2039 52.5423 56.1925 52.5423C66.8439 52.5423 76.7443 47.7628 83.3673 39.5011C84.255 38.4087 84.1866 36.9065 83.299 35.8141C76.5394 27.8255 66.639 23.1826 56.1241 23.1826C53.5978 23.1826 51.1399 23.4557 48.6819 23.9336C47.6577 17.9934 45.6776 11.9166 44.8582 9.45861C44.5168 8.29787 43.4244 7.47852 42.1954 7.47852Z" fill="#363636"/>
<path d="M15.8403 55.6196C-0.134255 49.0346 1.69485 32.5723 1.69485 32.5723C1.69485 32.5723 6.26772 35.8647 19.1328 36.8403C16.1451 43.5472 14.7429 49.8882 15.8403 55.6196Z" fill="#FCFCFC"/>
<path d="M16.0836 54.7061C11.2059 52.694 7.18182 49.1576 4.86489 44.3409C3.40157 41.2923 2.60891 37.9388 2.54794 34.5854C2.54794 33.9147 2.54792 33.1831 2.60889 32.5124C2.12112 32.7563 1.69436 33.0611 1.20659 33.305C1.93825 33.8537 2.85281 34.2196 3.70641 34.5244C6.26723 35.5609 8.94997 36.2316 11.6937 36.7804C14.1935 37.2072 16.6934 37.512 19.1933 37.7559C18.9494 37.2681 18.6445 36.8414 18.4006 36.3536C15.7178 42.4508 13.8019 48.908 15.0213 55.6149C15.2042 56.7734 16.9373 56.4742 16.7544 55.3158C15.6569 49.1576 17.486 42.8776 19.9249 37.2682C20.2297 36.5975 20.2832 35.9946 19.0539 35.7897C15.2737 35.4849 11.5108 35.0122 7.85245 33.9757C6.08427 33.4879 4.37709 32.9392 2.85279 32.0856C2.60891 31.9636 2.36504 31.8417 2.18212 31.6587C1.5724 31.2319 0.901683 31.8417 0.77974 32.4514C0.535853 34.5244 0.779784 36.7194 1.20659 38.7315C1.99922 43.1824 4.01124 47.4504 7.18178 50.7429C9.55967 53.2427 12.4863 55.0719 15.6569 56.4133C16.1446 56.5962 16.6324 56.2304 16.7544 55.8036C16.8763 55.3158 16.5104 54.889 16.0836 54.7061Z" fill="#363636"/>
<mask id="mask1" mask-type="alpha" maskUnits="userSpaceOnUse" x="15" y="36" width="46" height="29">
<path d="M60.6539 64.7059C60.6539 64.7059 31.8143 62.2061 15.8397 55.6211C14.7422 49.8898 16.1445 43.5488 19.1321 36.9028C32.0581 37.9394 45.1671 40.9879 49.3742 44.5243C53.5812 48.0607 60.6539 64.7059 60.6539 64.7059Z" fill="#DA2127"/>
</mask>
<g mask="url(#mask1)">
<path d="M60.6539 64.7059C60.6539 64.7059 31.8143 62.2061 15.8397 55.6211C14.7422 49.8898 16.1445 43.5488 19.1321 36.9028C32.0581 37.9394 45.1671 40.9879 49.3742 44.5243C53.5812 48.0607 60.6539 64.7059 60.6539 64.7059Z" fill="#F1F1F1"/>
<path d="M8.19385 55.2554L25.3042 67.0917C25.3042 67.0917 29.9661 51.3124 27.3118 53.8765C24.6575 56.4405 16.9789 56.4456 12.9111 48.4361L8.19385 55.2554Z" fill="#CECECE"/>
<path d="M32.1174 58.5183L51.8572 51.9453C51.8572 51.9453 51.3091 41.9684 44.723 41.9599C38.1369 41.9513 24.2402 48.0737 19.4602 54.9008L32.1174 58.5183Z" fill="#CECECE"/>
<path d="M19.6436 34.9302L67.292 46.4927L66.1582 50.1162C47.7668 43.4874 37.4058 40.7018 18.9526 37.7776L19.6436 34.9302Z" fill="#DDDDDD"/>
</g>
<path d="M60.6534 63.7903C57.117 63.4854 53.5806 63.0586 50.1053 62.5708C42.6667 61.5343 35.2891 60.3149 27.9725 58.4857C23.9483 57.5102 19.9242 56.2907 16.083 54.7054C16.2659 54.8884 16.5098 55.1322 16.6927 55.3152C15.5952 49.157 17.4244 42.8769 19.8633 37.2675C19.6194 37.3895 19.3145 37.5724 19.0706 37.6943C24.741 38.1211 30.3504 38.9138 35.8378 40.1942C39.801 41.1087 44.0691 42.1453 47.5445 44.2793C49.8004 45.6816 51.2027 48.1205 52.5441 50.3765C54.2513 53.3031 55.7756 56.4127 57.2389 59.4613C58.0925 61.2904 58.9462 63.1805 59.7388 65.0706C59.9217 65.5584 60.5924 65.6194 61.0192 65.3755C61.507 65.1316 61.568 64.5829 61.3241 64.0951C59.251 59.2783 57.056 54.5225 54.4342 49.9497C53.0319 47.5108 51.5686 44.828 49.2516 43.1208C47.8493 42.0843 46.2031 41.4136 44.6178 40.8039C42.4838 39.9503 40.2888 39.3406 38.0938 38.7918C31.8138 37.2066 25.4117 36.292 19.0097 35.8042C18.7048 35.8042 18.3389 35.9871 18.217 36.231C15.5952 42.0843 13.7051 48.4863 14.6807 54.9493C14.8026 55.803 14.5701 55.9935 15.3628 56.2984C15.8505 56.4813 16.8146 56.8395 17.3024 57.0224C18.3999 57.4492 19.4365 57.815 20.5339 58.1199C22.9118 58.8515 25.3507 59.5222 27.7286 60.1319C36.5696 62.3269 45.5324 63.7293 54.5562 64.7658C56.5073 65.0097 58.4584 65.2536 60.4705 65.3755C61.8118 65.7413 61.8119 63.9122 60.6534 63.7903Z" fill="#363636"/>
<path d="M32.6779 48.6004C14.7889 55.9745 16.8372 74.4097 16.8372 74.4097C16.8372 74.4097 21.9581 70.7226 36.3648 69.6302C33.0192 62.1195 31.4489 55.0186 32.6779 48.6004Z" fill="#FCFCFC"/>
<path d="M32.9502 49.6248C27.4879 51.878 22.9816 55.8381 20.3871 61.2321C18.7484 64.646 17.8607 68.4014 17.7924 72.1567C17.7924 72.9077 17.7924 73.727 17.8607 74.4781C17.3145 74.205 16.8366 73.8636 16.2903 73.5905C17.1097 72.976 18.1338 72.5663 19.0897 72.2249C21.9574 71.0642 24.9617 70.3131 28.0342 69.6986C30.8336 69.2207 33.6331 68.8793 36.4325 68.6062C36.1594 69.1524 35.8179 69.6303 35.5448 70.1766C32.5406 63.3487 30.3837 56.2971 31.7493 48.7865C31.9541 47.4892 33.9062 47.6447 33.7013 48.942C32.4723 55.8381 34.5207 62.8708 37.2518 69.1524C37.5932 69.9035 37.1835 70.6545 36.3641 70.7228C32.1309 71.0642 27.8293 71.6787 23.7326 72.8395C21.7526 73.3857 19.8408 74.0002 18.1338 74.9561C17.8607 75.0926 17.5876 75.2292 17.3828 75.434C16.7 75.912 15.9489 75.2292 15.8123 74.5464C15.5392 72.2249 15.8124 69.7669 16.2903 67.5137C17.178 62.5294 19.4311 57.7499 22.9816 54.0629C25.6444 51.2635 28.8816 49.2644 32.4321 47.7623C32.9783 47.5574 33.5648 47.9178 33.7013 48.3957C33.8379 48.942 33.4282 49.4199 32.9502 49.6248Z" fill="#363636"/>
<mask id="mask2" mask-type="alpha" maskUnits="userSpaceOnUse" x="32" y="38" width="51" height="32">
<path d="M82.8626 38.429C82.8626 38.429 50.5669 41.2284 32.6779 48.6025C31.4489 55.0207 33.0193 62.1216 36.3649 69.564C50.8399 68.4032 65.5199 64.9893 70.2311 61.0292C74.9423 57.069 82.8626 38.429 82.8626 38.429Z" fill="#DA2127"/>
</mask>
<g mask="url(#mask2)">
<path d="M82.8626 38.429C82.8626 38.429 50.5669 41.2284 32.6779 48.6025C31.4489 55.0207 33.0193 62.1216 36.3649 69.564C50.8399 68.4032 65.5199 64.9893 70.2311 61.0292C74.9423 57.069 82.8626 38.429 82.8626 38.429Z" fill="#F1F1F1"/>
<path d="M32.7744 47.2373L80.6903 36.8386L81.2521 40.5935C61.8119 42.6586 51.2743 44.6757 33.3958 50.1007L32.7744 47.2373Z" fill="white" fill-opacity="0.3"/>
<path d="M33.6484 70.9565L81.3566 59.643C81.3566 59.643 76.4725 55.0014 75.1069 56.6394C73.7413 58.2775 51.4406 65.2777 32.9723 68.1055L33.6484 70.9565Z" fill="#F8F8F8"/>
</g>
<path d="M82.8623 39.4519C78.9022 39.7933 74.942 40.2712 71.0501 40.8175C62.7202 41.9782 54.4584 43.3438 46.265 45.3921C41.7587 46.4846 37.2523 47.8501 32.9507 49.6254C33.1556 49.4206 33.4287 49.1474 33.6335 48.9426C32.4045 55.8387 34.4529 62.8714 37.184 69.153C36.9109 69.0164 36.5695 68.8116 36.2964 68.675C42.6463 68.1971 48.9279 67.3095 55.073 65.8756C59.5111 64.8515 64.2906 63.6907 68.1825 61.301C70.7088 59.7306 72.2792 56.9994 73.7813 54.4731C75.6931 51.1958 77.4 47.7136 79.0387 44.2996C79.9946 42.2513 80.9506 40.1347 81.8382 38.0181C82.043 37.4718 82.9084 37.1552 83.3863 37.4283C83.9325 37.7014 84.0692 38.3163 83.7961 38.8625C81.4746 44.2565 78.8339 49.8302 75.8979 54.9511C74.3275 57.6822 72.6888 60.6865 70.0942 62.5983C68.5238 63.759 66.6803 64.5101 64.9051 65.1929C62.5153 66.1488 60.0573 66.8315 57.5993 67.446C50.5666 69.2213 42.6135 70.277 35.4443 70.8232C33.6004 70.8232 35.477 70.5869 35.3405 70.3137C32.4045 63.759 30.2879 56.5898 31.3804 49.3523C31.5169 48.3964 31.7217 48.055 32.6093 47.7136C33.1556 47.5087 33.7701 47.2356 34.3163 47.0308C35.5453 46.5528 36.7061 46.1432 37.9351 45.8018C40.598 44.9824 43.3291 44.2314 45.992 43.5486C55.8924 41.0906 65.9293 39.5202 76.0345 38.3594C78.2194 38.0863 80.4043 37.8132 82.6575 37.6767C84.1596 37.267 84.1596 39.3153 82.8623 39.4519Z" fill="#363636"/>
<path d="M22.258 26.8688C21.5752 26.4591 20.7559 26.1177 20.0048 25.9812C18.2296 25.6398 16.4544 25.9812 14.884 26.9371C14.406 27.2102 14.2012 27.893 14.5426 28.3709C14.8157 28.8489 15.4302 29.0537 15.9764 28.7123C16.6592 28.3026 17.2737 28.0295 18.093 27.893C17.8882 27.893 18.1613 27.893 18.2295 27.893C18.2978 27.893 18.4344 27.893 18.5027 27.893C18.6392 27.893 18.7758 27.893 18.9807 27.893C19.049 27.893 19.1854 27.893 19.2537 27.893C19.322 27.893 19.5952 27.9613 19.3221 27.893C19.4586 27.893 19.5952 27.9612 19.7317 27.9612C20.0048 28.0295 20.2097 28.0978 20.4828 28.1661C20.551 28.1661 20.6876 28.2344 20.8242 28.3026C20.7559 28.2344 20.6193 28.2344 20.7559 28.3026C20.8242 28.3026 20.8241 28.3709 20.8924 28.3709C21.0973 28.4392 21.2339 28.5075 21.3704 28.644C21.8484 28.9171 22.5311 28.7806 22.8042 28.3026C22.9408 27.7564 22.7359 27.2102 22.258 26.8688Z" fill="#363636"/>
<path d="M41.104 26.8688C40.4212 26.4591 39.6019 26.1177 38.8508 25.9812C37.0756 25.6398 35.3003 25.9812 33.7299 26.9371C33.252 27.2102 33.0471 27.893 33.3885 28.3709C33.6616 28.8489 34.2762 29.0537 34.8224 28.7123C35.5052 28.3026 36.1198 28.0295 36.9391 27.893C36.7343 27.893 37.0074 27.893 37.0757 27.893C37.1439 27.893 37.2804 27.893 37.3487 27.893C37.4853 27.893 37.6218 27.893 37.8266 27.893C37.8949 27.893 38.0316 27.893 38.0998 27.893C38.1681 27.893 38.4411 27.9613 38.168 27.893C38.3046 27.893 38.4412 27.9612 38.5777 27.9612C38.8509 28.0295 39.0558 28.0978 39.3289 28.1661C39.3972 28.1661 39.5337 28.2344 39.6703 28.3026C39.602 28.2344 39.4654 28.2344 39.6019 28.3026C39.6702 28.3026 39.6702 28.3709 39.7385 28.3709C39.9433 28.4392 40.0798 28.5075 40.2164 28.644C40.6943 28.9171 41.3772 28.7806 41.6503 28.3026C41.7186 27.7564 41.582 27.2102 41.104 26.8688Z" fill="#363636"/>
<path d="M11.2747 95.3457C11.5586 95.589 11.7005 95.8526 11.7005 96.1365C11.7005 96.4406 11.594 96.6991 11.3811 96.912C11.1683 97.1147 10.9047 97.2161 10.5904 97.2161C10.337 97.2161 10.1089 97.1451 9.90614 97.0032L7.67081 95.0112L5.86127 93.4145L5.84606 94.3573C5.83592 94.7831 5.83086 95.3508 5.83086 96.0604C5.83086 96.395 5.72948 96.6687 5.52673 96.8816C5.32398 97.0843 5.05534 97.1857 4.7208 97.1857C4.33557 97.1857 4.05679 97.1147 3.88445 96.9728C3.71211 96.8207 3.62595 96.5572 3.62595 96.1821C3.62595 95.7462 3.63608 95.0822 3.65636 94.19C3.68677 93.4601 3.70198 92.6593 3.70198 91.7875C3.70198 91.1285 3.69184 90.3226 3.67156 89.3697L3.65636 87.4689C3.65636 87.185 3.75773 86.9519 3.96048 86.7694C4.17337 86.5869 4.44708 86.4957 4.78162 86.4957C5.11616 86.4957 5.37974 86.592 5.57235 86.7846C5.7751 86.9671 5.87647 87.2104 5.87647 87.5145L5.89168 89.7954C6.70268 89.2075 7.31093 88.7614 7.71643 88.4573L8.75046 87.7122L10.1494 86.6934C10.3522 86.5514 10.5854 86.4805 10.8489 86.4805C11.1835 86.4805 11.4521 86.5768 11.6549 86.7694C11.8576 86.962 11.959 87.2104 11.959 87.5145C11.959 87.8186 11.8475 88.0619 11.6244 88.2444C11.3913 88.4269 11.0517 88.6651 10.6056 88.9591C10.1697 89.2429 9.86052 89.4457 9.67804 89.5673L9.02417 89.9779C8.4362 90.3631 7.89891 90.7078 7.41231 91.0119C6.93584 91.3161 6.67227 91.4833 6.62158 91.5137C7.05749 91.8584 7.42245 92.1524 7.71643 92.3957C8.01042 92.6289 8.24865 92.8215 8.43113 92.9735L8.87211 93.3385C8.82142 93.2979 9.1002 93.5311 9.70846 94.038C10.3268 94.5753 10.8489 95.0112 11.2747 95.3457ZM18.7441 95.1328C19.3929 95.143 19.7173 95.4724 19.7173 96.1212C19.7173 96.7903 19.3878 97.1249 18.7289 97.1249L14.167 97.064C13.8324 97.0539 13.5942 96.9525 13.4523 96.7599C13.3205 96.5673 13.2546 96.3392 13.2546 96.0756C13.2546 95.7411 13.3408 95.4927 13.5131 95.3305C13.6956 95.1582 13.9135 95.072 14.167 95.072L15.4291 95.0872C15.5609 92.8468 15.6319 90.6014 15.642 88.3508C15.2061 88.3813 14.8411 88.4117 14.5471 88.4421L14.0453 88.4725C13.7615 88.4725 13.5435 88.3863 13.3915 88.214C13.2495 88.0416 13.1786 87.7983 13.1786 87.4841C13.1786 87.1597 13.2495 86.9215 13.3915 86.7694C13.5435 86.6173 13.7615 86.521 14.0453 86.4805C14.2684 86.4501 14.6637 86.4196 15.2314 86.3892C15.7991 86.3588 16.3668 86.3436 16.9345 86.3436C17.4819 86.3436 18.1206 86.374 18.8505 86.4348C19.1344 86.4551 19.3473 86.5565 19.4892 86.739C19.6412 86.9113 19.7173 87.1394 19.7173 87.4233C19.7173 88.0619 19.3979 88.3813 18.7593 88.3813C18.6072 88.3813 18.3031 88.366 17.8469 88.3356C17.8266 91.093 17.7506 93.3537 17.6188 95.1176L18.7441 95.1328ZM27.8795 86.6325C28.1836 86.6629 28.4218 86.7542 28.5942 86.9062C28.7665 87.0482 28.8527 87.2915 28.8527 87.6361C28.8527 87.991 28.7513 88.2495 28.5486 88.4117C28.3559 88.5739 28.0772 88.6448 27.7122 88.6246C26.9823 88.5739 26.3842 88.5485 25.9179 88.5485C25.8368 89.6941 25.781 90.8396 25.7506 91.9851C25.7202 93.1205 25.705 94.5601 25.705 96.3037C25.705 96.6788 25.6289 96.9424 25.4769 97.0944C25.335 97.2364 25.0562 97.3073 24.6405 97.3073C24.2046 97.3073 23.8904 97.2313 23.6978 97.0792C23.5051 96.9272 23.4088 96.6737 23.4088 96.3189C23.4088 94.8389 23.4443 93.3943 23.5153 91.9851L23.6978 88.5637C23.2517 88.584 22.8918 88.6043 22.6181 88.6246L21.949 88.6702C21.9085 88.6803 21.8477 88.6854 21.7666 88.6854C21.4726 88.6854 21.2343 88.5891 21.0519 88.3965C20.8694 88.2038 20.7781 87.9504 20.7781 87.6361C20.7781 87.3422 20.8542 87.1242 21.0062 86.9823C21.1684 86.8404 21.3915 86.7491 21.6753 86.7086C22.0403 86.6579 22.5522 86.6173 23.2112 86.5869C23.8701 86.5565 24.4783 86.5413 25.0359 86.5413C25.4921 86.5413 26.0091 86.5514 26.5869 86.5717C27.1749 86.5818 27.6058 86.6021 27.8795 86.6325ZM34.2178 97.1705C33.4574 97.1705 32.7732 97.0133 32.1649 96.6991C31.5668 96.3747 31.0954 95.954 30.7507 95.437C30.4162 94.9098 30.2489 94.3472 30.2489 93.7491C30.2489 93.3638 30.3452 93.0851 30.5378 92.9127C30.7406 92.7404 30.9991 92.6542 31.3134 92.6542C32.0534 92.6542 32.4386 92.9634 32.469 93.5818C32.4995 94.0988 32.687 94.4992 33.0317 94.7831C33.3763 95.0568 33.7717 95.1937 34.2178 95.1937C34.603 95.1937 34.9477 95.1075 35.2518 94.9352C35.5559 94.7628 35.708 94.5094 35.708 94.1748C35.708 93.9113 35.6117 93.6933 35.4191 93.521C35.2264 93.3385 34.9984 93.2016 34.7348 93.1104C34.4813 93.009 34.1265 92.8924 33.6703 92.7607C33.0824 92.5985 32.5603 92.4211 32.1041 92.2284C31.6479 92.0358 31.2171 91.7266 30.8116 91.3009C30.4162 90.8649 30.2185 90.3074 30.2185 89.6282C30.2185 89.0098 30.3858 88.4522 30.7203 87.9555C31.065 87.4587 31.5263 87.0735 32.1041 86.7998C32.6819 86.5159 33.3155 86.374 34.0049 86.374C34.7246 86.374 35.3734 86.5261 35.9513 86.8302C36.5393 87.1242 37.0005 87.5196 37.335 88.0163C37.6696 88.513 37.8369 89.0351 37.8369 89.5825C37.8369 90.2516 37.4719 90.5862 36.742 90.5862C36.4277 90.5862 36.1895 90.5101 36.0273 90.3581C35.8752 90.206 35.7536 89.9576 35.6624 89.613C35.5711 89.2683 35.3836 88.9692 35.0997 88.7158C34.826 88.4624 34.4611 88.3356 34.0049 88.3356C33.5588 88.3356 33.1837 88.4573 32.8796 88.7006C32.5755 88.9337 32.4234 89.2531 32.4234 89.6586C32.4234 89.9424 32.5349 90.1502 32.758 90.282C32.9911 90.4138 33.4321 90.576 34.0809 90.7686C34.1417 90.7889 34.2127 90.8143 34.2938 90.8447C34.3749 90.8649 34.4611 90.8903 34.5523 90.9207C35.1099 91.093 35.6218 91.2907 36.0881 91.5137C36.5545 91.7368 36.9752 92.0662 37.3503 92.5022C37.7253 92.9381 37.9129 93.4804 37.9129 94.1292C37.9129 94.7172 37.7456 95.2444 37.4111 95.7107C37.0867 96.1669 36.6406 96.5267 36.0729 96.7903C35.5154 97.0438 34.897 97.1705 34.2178 97.1705ZM48.4049 90.647C48.4353 91.9851 48.4505 93.7795 48.4505 96.03C48.4505 96.4558 48.3592 96.7599 48.1768 96.9424C47.9943 97.1249 47.7155 97.2161 47.3404 97.2161C46.9653 97.2161 46.6865 97.135 46.5041 96.9728C46.3317 96.8005 46.2456 96.5217 46.2456 96.1365V95.8323C45.9617 96.2176 45.5765 96.5369 45.0899 96.7903C44.6134 97.0336 44.0609 97.1553 43.4324 97.1553C42.7126 97.1553 42.0841 96.988 41.5468 96.6535C41.0095 96.3189 40.599 95.8526 40.3151 95.2545C40.0313 94.6462 39.8893 93.9518 39.8893 93.1712C39.8893 91.9142 39.9147 90.1705 39.9654 87.9403L39.9806 87.4081C39.9907 87.1242 40.0921 86.8961 40.2847 86.7238C40.4875 86.5413 40.7662 86.4501 41.1211 86.4501C41.4657 86.4501 41.7293 86.5312 41.9118 86.6934C42.0943 86.8556 42.1855 87.0938 42.1855 87.4081C42.1855 88.0873 42.1754 88.9743 42.1551 90.0691C42.1348 91.2451 42.1247 92.2791 42.1247 93.1712C42.1247 93.7896 42.2818 94.2762 42.5961 94.631C42.9205 94.9858 43.3057 95.1633 43.7517 95.1633C44.1471 95.1633 44.5323 95.0264 44.9074 94.7527C45.2926 94.4688 45.6069 94.0887 45.8502 93.6122C46.0935 93.1256 46.2152 92.5934 46.2152 92.0156V90.9815C46.205 90.4138 46.1999 89.1973 46.1999 87.332C46.1999 86.6832 46.5446 86.3588 47.234 86.3588C47.5888 86.3588 47.8676 86.445 48.0703 86.6173C48.2731 86.7795 48.3744 87.0178 48.3744 87.332C48.3744 87.9301 48.3846 88.8881 48.4049 90.206V90.647Z" fill="white"/>
<path d="M53.2423 89.4776L53.3488 91.2719C55.6449 91.4088 58.0931 91.4088 59.9635 91.2872C60.2068 91.8042 60.4957 92.3364 60.815 92.8686C60.3588 92.823 59.5377 92.747 58.899 92.6861L58.747 94.1307C59.857 94.2524 61.4993 94.4501 62.3509 94.6173L63.2784 93.2183C63.0047 92.9598 62.7918 92.7317 62.5942 92.4428C62.3205 92.0475 62.0619 91.5761 61.8034 91.0895C62.7158 90.9678 63.537 90.8006 64.2364 90.6181L63.9323 88.8237C63.1872 89.0214 62.2748 89.2799 61.0279 89.432C60.9367 89.1887 60.8454 88.9606 60.7694 88.7477C60.6934 88.5196 60.6174 88.2763 60.5413 88.033C61.5449 87.8962 62.5029 87.6985 63.3393 87.4704L63.096 85.7217C62.1228 86.0258 61.1496 86.2387 60.1003 86.3755C59.9939 85.8585 59.9027 85.3263 59.8266 84.7789L57.789 85.007C57.9715 85.5392 58.1235 86.0258 58.2756 86.5124C56.8766 86.558 55.3256 86.4972 53.516 86.2843L53.6225 88.033C55.5385 88.2155 57.3176 88.2459 58.747 88.1699C58.8382 88.4284 58.9295 88.7173 59.0511 89.067C59.1119 89.2343 59.1728 89.4168 59.2488 89.5993C57.5609 89.7057 55.508 89.6905 53.2423 89.4776ZM56.1619 93.0055L54.2763 92.6405C53.9266 93.3704 53.5921 94.1155 53.6225 95.0887C53.6529 97.2632 55.5385 98.1604 58.5797 98.1604C59.8266 98.1604 61.2104 98.0539 62.2748 97.8715L62.3813 95.9403C61.3016 96.1532 60.0091 96.2748 58.5645 96.2748C56.5573 96.2748 55.4928 95.8186 55.4928 94.6934C55.4928 94.0395 55.797 93.5073 56.1619 93.0055ZM67.0496 88.8694L67.9164 90.9982C69.4978 90.314 73.1017 88.7933 75.337 88.7933C77.1618 88.7933 78.1502 89.8882 78.1502 91.3176C78.1502 93.9635 74.9265 95.1495 70.8056 95.256L71.6875 97.2784C77.0401 97.0047 80.3247 94.7998 80.3247 91.348C80.3247 88.5348 78.1654 86.9534 75.4131 86.9534C73.1929 86.9534 70.0909 88.0482 68.92 88.4132C68.3726 88.5652 67.6122 88.7781 67.0496 88.8694Z" fill="white"/>
</svg>
