<svg width="172" height="46" viewBox="0 0 172 46" fill="none" xmlns="http://www.w3.org/2000/svg">
<path d="M14.5731 45.0105C6.52077 45.0105 0 38.4898 0 30.4374C0 22.3851 9.88558 16.2588 14.5731 0.966309C19.2606 17.3959 29.1462 22.4315 29.1462 30.4606C29.1462 38.4898 22.6023 45.0105 14.5731 45.0105Z" fill="#414141"/>
<path d="M23.577 32.874C24.923 25.0305 16.2441 18.4633 14.2716 1.84812C14.3644 1.54645 14.4572 1.24478 14.5501 0.966309C19.2376 17.3959 29.1232 22.4315 29.1232 30.4606C29.1232 38.513 22.6024 45.0337 14.5501 45.0337C13.5754 45.0337 12.6472 44.9409 11.7422 44.7553C17.6364 43.711 22.5096 39.0931 23.577 32.874Z" fill="#414141"/>
<path d="M1.83324 32.4571C1.20669 25.1937 8.81813 18.7658 12.7399 5.93311C7.70426 17.7215 0 23.3373 0 30.4614C0 36.8662 4.1306 42.3195 9.88559 44.2688C5.49973 42.0642 2.29736 37.7016 1.83324 32.4571Z" fill="#414141"/>
<path d="M16.0811 41.4379C8.88734 41.4379 3.06274 35.6133 3.06274 28.4196C3.06274 27.8627 3.13235 27.3057 3.22517 26.7488C3.38761 25.9366 3.68929 25.1476 4.03737 24.3818C3.29479 25.6349 2.62183 27.0041 2.32015 28.4196C2.20413 28.9533 2.15771 29.4871 2.15771 30.044C2.15771 37.0289 7.81988 42.6911 14.8048 42.6911C18.3784 42.6911 21.604 41.2059 23.9014 38.8157C21.72 40.4633 19.0282 41.4379 16.0811 41.4379Z" fill="#FEFEFE"/>
<path d="M50.0781 34.1274L46.3188 28.7205H46.0867H42.165V34.1274H37.6631V14.6812H46.0867C51.2848 14.6812 54.5336 17.373 54.5336 21.7357C54.5336 24.6596 53.0716 26.7945 50.5422 27.8851L54.9048 34.1274H50.0781ZM45.8547 18.3476H42.1882V25.1237H45.8547C48.6161 25.1237 49.9853 23.8474 49.9853 21.7357C49.9853 19.6007 48.5929 18.3476 45.8547 18.3476Z" fill="white"/>
<path d="M72.3545 27.8853H61.0533C61.471 29.7418 63.049 30.8788 65.3232 30.8788C66.9011 30.8788 68.0382 30.4147 69.0825 29.4401L71.3798 31.9463C69.9875 33.5243 67.899 34.3597 65.2071 34.3597C60.0323 34.3597 56.6675 31.1109 56.6675 26.6554C56.6675 22.1767 60.0787 18.9512 64.6502 18.9512C69.0361 18.9512 72.4241 21.8983 72.4241 26.7018C72.4473 27.0499 72.3777 27.514 72.3545 27.8853ZM60.9837 25.3559H68.3631C68.0614 23.4763 66.6459 22.2464 64.6966 22.2464C62.7241 22.2464 61.3086 23.4299 60.9837 25.3559Z" fill="white"/>
<path d="M73.8867 32.7353L75.3255 29.6257C76.6482 30.4843 78.6903 31.0645 80.5235 31.0645C82.5192 31.0645 83.285 30.5308 83.285 29.6954C83.285 27.2588 74.258 29.7418 74.258 23.7779C74.258 20.9469 76.8106 18.9512 81.1733 18.9512C83.2386 18.9512 85.5127 19.4153 86.9283 20.2507L85.4895 23.337C84.0276 22.5016 82.5424 22.2232 81.1733 22.2232C79.224 22.2232 78.3886 22.8265 78.3886 23.6155C78.3886 26.1681 87.4156 23.7083 87.4156 29.5793C87.4156 32.364 84.8398 34.3365 80.3611 34.3365C77.8317 34.3597 75.2791 33.6635 73.8867 32.7353Z" fill="white"/>
<path d="M105.145 19.1829V34.1273H101.037V32.3404C99.9002 33.64 98.2294 34.3361 96.3962 34.3361C92.6369 34.3361 90.0146 32.2244 90.0146 27.6065V19.1597H94.3541V26.9567C94.3541 29.4629 95.468 30.5768 97.394 30.5768C99.3897 30.5768 100.828 29.3005 100.828 26.539V19.1597H105.145V19.1829Z" fill="white"/>
<path d="M118.465 18.9512V22.9425C118.094 22.9193 117.815 22.8961 117.49 22.8961C115.1 22.8961 113.522 24.1956 113.522 27.0731V34.1276H109.183V19.1832H113.313V21.1557C114.381 19.717 116.144 18.9512 118.465 18.9512Z" fill="white"/>
<path d="M119.648 32.7353L121.087 29.6257C122.409 30.4843 124.452 31.0645 126.285 31.0645C128.28 31.0645 129.046 30.5308 129.046 29.6954C129.046 27.2588 120.019 29.7418 120.019 23.7779C120.019 20.9469 122.572 18.9512 126.935 18.9512C129 18.9512 131.274 19.4153 132.689 20.2507L131.251 23.337C129.789 22.5016 128.304 22.2232 126.935 22.2232C124.985 22.2232 124.15 22.8265 124.15 23.6155C124.15 26.1681 133.177 23.7083 133.177 29.5793C133.177 32.364 130.601 34.3365 126.122 34.3365C123.593 34.3597 121.04 33.6635 119.648 32.7353Z" fill="white"/>
<path d="M134.94 24.4045C134.94 18.6263 139.442 14.3564 145.592 14.3564C151.695 14.3564 156.243 18.6031 156.243 24.4045C156.243 30.2059 151.718 34.4525 145.592 34.4525C139.442 34.4757 134.94 30.1827 134.94 24.4045ZM151.648 24.4045C151.648 20.7148 149.026 18.1854 145.569 18.1854C142.111 18.1854 139.489 20.7148 139.489 24.4045C139.489 28.0942 142.111 30.6236 145.569 30.6236C149.026 30.6236 151.648 28.0942 151.648 24.4045Z" fill="#8D8D8D"/>
<path d="M158.772 14.6815C158.772 13.3123 159.863 12.2681 161.464 12.2681C163.066 12.2681 164.156 13.2659 164.156 14.6118C164.156 16.0506 163.066 17.118 161.464 17.118C159.863 17.0948 158.772 16.0506 158.772 14.6815ZM159.306 19.1833H163.646V34.1277H159.306V19.1833Z" fill="#8D8D8D"/>
<path d="M167.661 13.521H172V34.1276H167.661V13.521Z" fill="#8D8D8D"/>
</svg>
