<svg width="298" height="30" viewBox="0 0 298 30" fill="none" xmlns="http://www.w3.org/2000/svg">
<path d="M296.552 26.6809L296.701 26.3842L296.523 26.6539C293.16 25.3056 291.195 24.2808 290.66 23.6066C289.827 22.5819 288.398 20.6672 285.452 15.8401C282 10.177 279.738 6.34769 279.946 4.7836C280.095 3.51615 281.642 3.08467 282.773 2.78804C283.19 2.68017 283.666 2.54533 283.785 2.43746C283.904 2.32959 283.964 2.24869 283.934 2.19476C283.934 2.16779 283.845 1.92509 282.773 1.65542C282 1.46665 280.095 1.70935 278.101 1.97902C276.791 2.14082 275.452 2.32959 274.173 2.43746C271.821 2.62623 269.441 2.43746 266.703 2.19476C265.453 2.08689 264.203 1.97902 262.804 1.89812C260.096 1.73632 257.804 1.65542 257.179 2.22173C257.09 2.30263 256.971 2.46443 257.031 2.84197C257.09 3.38131 258.429 3.73188 259.59 4.05549C261.048 4.46 262.536 4.8645 262.893 5.80835C263.518 7.53424 262.149 10.7164 260.602 12.2265C258.727 14.0333 256.763 12.9816 255.929 12.5501C254.977 12.0377 248.936 11.1748 244.918 12.9007C243.222 13.6288 242.299 14.7075 242.537 15.6783C242.775 16.757 244.263 17.4851 246.436 17.593C248.846 17.7278 249.561 17.2424 249.769 16.9727C250.007 16.6222 249.769 16.1637 249.769 16.1637L249.709 16.0828V16.0019C249.709 15.948 249.769 15.5165 250.275 15.139C250.959 14.6266 252.15 14.4648 253.757 14.6805C255.364 14.8693 256.227 15.2738 256.465 15.921C256.792 16.8379 255.751 18.0244 254.054 19.5076C251.287 21.9347 248.698 22.9055 245.067 22.9055C241.644 22.9055 238.668 20.1818 238.014 18.6986C237.716 18.0244 237.805 17.4042 237.865 16.8649C237.954 16.2446 238.014 15.7592 237.567 15.3008C236.883 14.5457 234.859 14.5187 233.073 14.4918C232.657 14.4918 232.24 14.4648 231.853 14.4648C230.484 14.4109 229.74 14.1681 229.502 13.7097C229.413 13.5749 229.353 13.2513 229.681 12.9007C229.919 12.6041 230.633 12.5232 232.746 12.2805C234.413 12.0917 236.496 11.849 238.311 11.3905C242.15 10.4467 246.198 8.28932 246.138 6.5904C246.049 4.7027 244.263 2.4105 240.454 1.57452C236.496 0.711569 231.526 0.900339 228.074 2.08689C226.407 2.6532 225.871 3.65098 225.752 4.37909C225.544 5.45778 226.08 6.72523 227.032 7.45334C228.044 8.23539 229.324 7.74998 230.693 7.23761C231.466 6.94097 232.27 6.64433 233.014 6.61736C234.561 6.56343 235.008 7.1567 235.097 7.42638C235.305 7.88482 235.097 8.42416 234.591 8.82866C233.639 9.58374 224.473 12.3344 220.395 13.1704C216.527 13.9794 215.485 13.9254 214.979 13.5749C214.83 13.467 214.681 13.2782 214.681 12.9546V6.64433C214.681 5.18811 217.33 4.27123 219.473 3.51615C220.276 3.21951 221.11 2.94984 221.318 2.76107C221.467 2.62623 221.616 2.43746 221.526 2.19476C221.407 1.92509 220.961 1.57452 220.009 1.46665C218.848 1.35878 216.288 1.62845 213.818 1.92509C212.688 2.05992 211.616 2.16779 210.694 2.24869C208.521 2.43746 206.468 2.16779 204.95 1.97902C204.325 1.89812 203.789 1.84419 203.343 1.81722C203.164 1.81722 202.956 1.79025 202.718 1.76329C201.379 1.65542 198.224 1.43968 197.629 2.03296C197.599 2.08689 197.569 2.11386 197.569 2.22173C197.748 3.16557 199.325 3.43525 200.456 3.65098C200.724 3.70492 200.962 3.75885 201.17 3.78582C202.361 4.08246 204.117 5.91622 204.117 7.83088C204.117 8.26235 204.117 9.1253 204.117 10.2579C204.146 13.7636 204.176 19.6425 204.087 21.1526C203.997 23.2561 202.093 25.6292 201.14 25.6292C200.635 25.6292 200.069 25.3056 199.266 24.8471C198.789 24.5774 198.254 24.2538 197.629 23.9572C195.903 23.1212 193.76 21.8807 193.224 20.5594C192.867 19.6425 193.433 18.9683 193.849 18.4829C194.057 18.2402 194.266 17.9975 194.266 17.8357C194.266 17.5121 194.057 17.3233 193.046 17.1885C192.331 17.1076 183.909 16.8379 182.629 16.8379C181.499 16.8379 181.201 16.5143 181.112 16.2446C181.082 16.1367 181.052 15.7862 181.588 15.5435C181.915 15.4086 182.421 15.4356 183.463 15.4626C184.832 15.5165 186.885 15.5974 189.772 15.3277C194.742 14.8963 197.212 13.8176 199.593 12.2535C200.754 11.4714 201.438 10.177 201.379 8.82866C201.289 7.12974 200.039 5.56565 197.897 4.43303C193.76 2.27566 184.118 -0.0704766 170.517 0.603701C158.047 1.22394 152.214 5.70048 151.589 6.56343C151.381 6.8331 151.322 7.0758 151.411 7.29154C151.53 7.69605 152.125 8.10055 153.048 8.42416C154.446 8.93653 156.44 10.231 156.44 11.2557C156.44 11.5523 156.44 12.4423 156.47 13.5479C156.5 15.3547 156.53 17.593 156.53 18.8335V19.4267C156.559 23.0134 156.411 24.5235 155.548 24.6314C154.536 24.7392 153.821 23.9302 153.196 23.2021C152.482 22.3661 145.727 11.1209 145.191 9.98825C145.102 9.77251 144.923 9.50284 144.744 9.17924C143.911 7.77695 142.512 5.40384 144.209 3.97459C145.429 2.92287 146.828 2.92287 147.661 2.8959C147.84 2.8959 148.018 2.8959 148.137 2.86894C148.107 2.4105 147.929 1.68238 145.012 1.54755C143.078 1.43968 140.935 1.73632 138.882 2.03296C137.394 2.22173 135.876 2.43746 134.388 2.51836C130.846 2.68017 126.204 2.00599 126.144 2.00599L125.728 1.95206L125.876 1.60148C125.936 1.43968 125.995 1.08911 125.936 0.954273C125.906 0.927306 125.906 0.900339 125.847 0.873372C125.162 0.711569 123.793 0.657635 123.376 0.98124C122.573 1.60148 120.133 2.16779 118.228 2.51836C115.52 3.03074 108.169 2.7341 100.342 1.73632C95.4314 1.11608 89.6877 1.08911 83.2594 1.62845H83.1404C81.5036 1.76329 81.4441 3.08467 81.4441 3.21951C81.4441 3.30041 81.325 4.32516 79.8965 5.70048C79.0632 6.50949 77.9919 7.34547 77.2181 7.91178L76.8609 8.18145L76.6824 7.77695C76.4145 7.18367 76.236 6.69826 76.1169 6.34769C75.8789 5.51171 75.9979 4.7027 76.4741 4.05549C76.9502 3.43525 77.724 3.03074 78.7061 2.8959C80.0453 2.7341 80.2834 2.5723 80.3132 2.4914C80.3132 2.4914 80.3429 2.4105 80.1644 2.11386C79.8668 1.54755 78.2002 1.52058 76.355 1.52058C75.4027 1.52058 74.242 1.70935 72.873 1.95206C70.9684 2.27566 68.7959 2.62623 66.5341 2.5723C62.5462 2.4914 58.7666 2.03296 57.7548 1.87115C56.0584 1.60148 53.7966 1.52058 53.0824 2.11386C52.9038 2.24869 52.8443 2.43746 52.874 2.6532C52.9931 3.81278 53.7669 3.94762 55.1061 4.08246C55.4037 4.10942 55.731 4.13639 56.0287 4.19032C57.9631 4.51393 58.1119 5.59261 57.7548 7.58818C57.4869 8.99047 56.3263 10.6355 55.4037 11.7411C54.9275 12.3074 54.0942 12.6041 53.3205 12.4423C52.9633 12.3614 52.5764 12.2805 52.1598 12.1996C50.9991 11.9299 42.9043 11.1209 39.958 12.9277C38.6486 13.7636 38.0236 14.9232 38.351 15.921C38.7081 16.9188 39.958 17.5121 41.6544 17.4851C44.8685 17.4042 45.1661 16.5143 45.3447 15.9749C45.3744 15.8401 45.4339 15.7322 45.4935 15.6244C45.8804 15.0581 47.5469 14.5996 49.8683 14.8693C51.0884 15.0041 51.8324 15.3547 52.13 15.894C52.3384 16.2716 52.2788 16.73 51.9515 17.1885C51.3265 18.1053 48.2017 21.0178 43.7078 22.2852C40.4044 23.2291 38.6783 22.5549 36.982 21.9077C36.238 21.6111 35.494 21.3414 34.6012 21.1796C31.8632 20.6942 30.1966 22.1774 30.1073 22.2313L29.5121 22.7437L29.4824 21.9886C29.4824 21.5841 29.3038 12.1996 29.3931 10.8242C29.5121 8.99047 30.4049 7.80391 32.1013 7.1567C33.0834 6.77917 34.2738 6.6713 35.9106 6.53646C37.4582 6.40163 39.3926 6.21286 41.8627 5.75442C46.8327 4.81057 50.1361 2.46443 50.2254 1.25091C50.2551 0.954273 50.1361 0.738536 49.8683 0.603701C49.3326 0.307063 48.3505 0.414931 48.0826 0.576734C47.2493 1.08911 44.5709 2.05992 39.958 2.46443C36.8629 2.7341 32.0418 2.38353 26.4468 1.97902C22.9946 1.73632 19.3936 1.46665 15.8819 1.33181C8.32271 1.08911 6.53708 1.79025 6.20971 1.95206C6.12043 2.27566 5.82283 3.16557 5.28714 3.70492C4.84074 4.19032 2.69799 6.23982 1.92421 6.64433C1.47781 6.88703 0.227871 8.07359 0.0195482 8.8826C-0.0102122 8.99047 -0.0102121 9.15227 0.0493087 9.23317L0.0790691 9.2871C0.108829 9.34104 0.674278 10.4467 2.57894 10.1501C3.8884 9.93432 5.73355 8.85563 7.22157 7.99268C8.14414 7.45334 8.88815 6.9949 9.36432 6.86007C10.2869 6.5904 21.3875 5.78138 22.5779 6.53646C22.7565 6.6713 22.7863 6.80613 22.7863 6.88703C22.7863 7.64211 21.7744 7.83088 20.3459 8.07359C19.6019 8.20842 18.7389 8.34326 17.8163 8.58596C15.1974 9.2871 14.6022 9.85341 14.4534 10.1501C14.3938 10.2579 14.3938 10.3658 14.4831 10.5006C14.6914 10.8512 15.5247 11.2827 16.2092 11.6332C17.1913 12.1456 17.8758 12.4962 17.8758 12.9816C17.8758 13.0895 17.8758 13.44 17.8758 13.9254C17.9056 16.0828 17.9353 21.1257 17.8758 22.7437C17.7865 24.3887 16.0307 25.1977 14.6022 25.8719C14.0962 26.1146 13.6201 26.3303 13.2927 26.546C12.9653 26.7618 12.8463 26.9775 12.9356 27.1663C13.0546 27.436 13.5308 27.7056 13.9474 27.7056H29.5121L29.5716 27.7326C29.6609 27.7596 38.5295 31.6968 46.4458 27.7326C50.0766 25.8988 54.868 22.9864 57.0405 19.4537C57.2191 19.1301 57.4572 18.8604 57.8143 18.8335C58.3202 18.8065 58.7369 19.3189 59.5701 20.3436C60.0165 20.9099 60.1058 21.4493 60.2249 21.9347C60.4034 22.7707 60.5225 23.283 62.3974 23.4448C65.1353 23.6606 66.177 22.6358 67.4864 21.3144C67.6352 21.1526 67.8138 20.9908 67.9626 20.829C69.153 19.6964 70.0756 19.3189 70.7898 19.3189C71.2362 19.3189 71.5934 19.4537 71.891 19.6425C72.8433 20.2897 73.8254 23.5527 73.9444 24.0111C74.1825 25.0089 73.1409 26.1685 71.5041 26.7348C71.2958 26.8157 70.8196 27.0045 70.9089 27.3281C70.9684 27.6247 71.4148 27.9483 72.0695 27.9483H97.098L97.1576 27.9753C97.1873 27.9753 98.4968 28.4068 99.7467 28.7573L99.9848 28.8382C101.562 29.2967 106.383 30.7259 113.615 27.7326C119.18 25.4134 121.978 22.1234 123.466 20.3436C124.12 19.5616 124.448 19.1571 124.805 19.1031C126.055 18.8604 126.739 19.993 127.216 21.1257C127.275 21.2875 127.335 21.4493 127.424 21.5841C127.87 22.6628 128.198 23.4718 129.983 23.5257C132.156 23.6066 132.9 23.2561 134.477 21.3953C136.292 19.2649 138.167 18.7795 139.09 19.4267C140.251 20.2088 141.054 23.5797 141.143 23.9572C141.441 25.2786 140.578 25.6831 139.804 26.0337C139.417 26.1955 139.03 26.3842 138.763 26.6809C138.465 26.9775 138.316 27.2742 138.405 27.436C138.525 27.6787 139.12 27.8944 140.37 27.7865C140.727 27.7596 151.441 27.8135 164.327 27.8944C169.059 27.9214 172.779 27.9483 173.344 27.9483C173.939 27.9483 174.326 27.8405 174.356 27.6247C174.416 27.2202 173.642 26.4382 172.868 26.2224C172.422 26.1146 168.493 25.0359 168.493 23.1212V10.204C168.493 8.07359 170.993 5.64655 176.499 5.34991C181.618 5.08024 187.748 6.02409 189.207 8.66686C189.712 9.55678 189.742 10.4197 189.296 11.1748C188.582 12.3883 186.647 13.2513 183.85 13.5749C180.07 14.0063 176.231 12.8737 174.981 11.5523C174.445 10.9591 174.267 10.4737 174.445 10.0422C174.713 9.44891 175.636 9.1253 177.421 9.01743C178.731 8.93653 179.475 9.09834 179.772 9.55678C180.1 10.0692 179.653 10.6624 179.475 10.9051C179.445 10.9591 179.445 11.0939 179.564 11.2827C179.892 11.7411 180.844 12.1456 182.481 11.9029C183.612 11.7141 184.415 11.2018 184.623 10.5006C184.832 9.85341 184.534 9.09834 183.85 8.55899C182.421 7.42638 176.677 5.99712 172.065 8.42416C170.785 9.09833 170.1 9.88038 170.041 10.7164C169.952 11.9838 171.231 13.5209 173.82 15.2738C174.832 15.948 175.695 16.5143 176.439 17.0267C178.88 18.6447 180.219 19.5346 181.856 21.1526C183.939 23.2021 183.85 25.3325 182.719 26.3842C182.243 26.8157 182.243 27.3281 182.362 27.6247C182.421 27.7326 182.57 28.0292 182.927 28.0292H221.229C221.348 28.0292 221.407 28.0023 221.407 28.0023C221.556 27.7865 220.693 26.546 219.205 25.764C219.175 25.737 214.711 23.337 214.711 22.0156V18.2132C214.711 17.3772 215.009 16.73 215.574 16.2985C216.437 15.6513 217.896 15.4895 220.009 15.8131C223.312 16.3525 227.538 19.0492 229.651 21.9616C230.871 23.6606 231.288 24.6314 231.079 25.3325C230.931 25.8449 230.454 26.1415 229.978 26.3303C229.264 26.6539 228.907 27.1124 228.847 27.436C228.818 27.5708 228.847 27.6517 228.937 27.7326C229.175 27.9214 230.782 27.8135 231.853 27.7326C232.627 27.6787 233.46 27.6247 234.175 27.6247C234.978 27.6247 235.514 27.8405 236.139 28.0562C237.24 28.4607 238.728 29 242.716 29C248.519 29 253.846 26.6809 257.031 22.7707L257.775 21.8538C260.215 18.8335 261.048 17.8357 262.328 18.3211C263.221 18.6717 263.608 19.4267 264.173 20.5594C264.441 21.0987 264.738 21.7189 265.185 22.447C265.572 23.0943 266.167 23.4448 266.941 23.5527C268.25 23.7145 269.857 23.1212 270.572 22.447C270.869 22.1774 271.196 21.7998 271.524 21.3953C272.506 20.2357 273.607 18.9144 275.036 19.211C276.762 19.5616 277.297 21.7459 277.714 23.337L277.803 23.6875C278.25 25.4134 276.851 26.3033 275.512 27.0045C275.095 27.2202 275.036 27.382 275.036 27.409C275.065 27.5169 275.422 27.7056 275.809 27.7056H296.731C297.296 27.7056 297.415 27.5978 297.445 27.5708C297.653 27.4629 297.088 26.8966 296.552 26.6809ZM67.3674 17.2424C66.1472 17.9705 65.0758 18.5908 64.183 18.5908C64.1235 18.5908 64.0937 18.5908 64.0342 18.5908C63.558 18.5638 63.1414 18.1862 62.5759 17.6469C61.8915 17.0267 60.9689 16.1907 59.5701 15.5435C59.4511 15.4895 59.3023 15.3547 59.3618 15.0311C59.5106 14.2221 62.5759 8.39719 63.4985 8.31629C64.5104 8.23539 67.9328 13.7097 68.2007 14.3839C68.6768 15.4895 68.8852 16.3255 67.3674 17.2424ZM96.4731 8.07359C96.1159 8.10055 95.7886 8.12752 95.5803 8.18145L95.3719 8.23539C90.521 9.31407 90.5805 9.90735 90.5805 9.90735C90.6698 10.2849 91.5626 10.8782 92.2173 11.2827C93.0506 11.822 93.6458 12.1995 93.6458 12.658C93.6458 12.7928 93.6458 13.3052 93.6756 14.0063C93.7351 16.4334 93.8244 20.9639 93.7351 22.501C93.6458 24.6853 91.9495 25.8449 90.4019 25.8449C88.9734 25.8449 86.414 23.7415 86.1164 23.4988L86.0569 23.4179C86.0272 23.3909 83.7951 20.1279 81.0572 15.6513C79.6882 13.4131 78.4978 11.3636 77.6347 9.71858L77.4264 9.34104L77.8728 9.26014C79.1227 9.07137 80.3132 8.72079 81.3845 8.23539C84.3606 6.94097 85.1939 6.80613 88.2294 6.56343C90.6698 6.34769 97.5147 6.29376 98.2587 6.914C98.348 6.9949 98.4075 7.10277 98.4075 7.21064C98.4373 7.91178 97.4254 7.99268 96.4731 8.07359ZM124.031 10.0152C123.257 11.4175 122.722 12.3074 121.71 12.6041C121.293 12.7389 120.668 12.631 119.627 12.4692C118.168 12.2265 115.936 11.8759 112.782 11.9299C108.645 12.0108 106.264 12.9546 105.907 14.7075C105.818 15.1929 105.937 15.6513 106.234 16.0289C106.8 16.7031 107.961 17.1885 109.538 17.3772C111.978 17.6739 113.02 17.2694 113.198 16.8109C113.228 16.757 113.169 16.5952 113.139 16.4873C113.05 16.1637 112.96 15.7592 113.258 15.3547C113.556 14.9772 114.151 14.7614 115.133 14.6536C117.067 14.4648 118.466 14.6536 119.21 15.1929C119.537 15.4356 119.716 15.7322 119.746 16.0558C119.865 17.1885 117.633 19.5076 113.794 21.3414C111.353 22.501 109.746 22.7976 108.586 22.7976C107.871 22.7976 107.306 22.6898 106.8 22.5819C105.342 22.2852 104.776 21.7459 104.746 21.692L104.657 21.6111V11.7681C104.657 10.8512 104.985 9.96128 105.61 9.23317L105.967 8.8017C107.544 7.37244 109.151 7.29154 112.097 7.12974L112.663 7.10277C115.728 6.94097 120.281 5.16114 121.799 4.59483L121.978 4.51393C122.752 4.21729 123.555 3.97459 124.18 4.24426C124.597 4.40606 124.865 4.7836 125.043 5.32294C125.46 6.69826 124.805 8.6399 124.031 10.0152ZM134.834 17.2424C133.614 17.9705 132.543 18.5908 131.65 18.5908C131.59 18.5908 131.561 18.5908 131.501 18.5908C131.025 18.5638 130.608 18.1862 130.043 17.6469C129.358 17.0267 128.436 16.1907 127.037 15.5435C126.918 15.4895 126.769 15.3547 126.829 15.0311C126.977 14.2221 130.043 8.39719 130.965 8.31629C131.977 8.23539 135.4 13.7097 135.668 14.3839C136.144 15.4895 136.352 16.3255 134.834 17.2424ZM271.821 17.2424C270.601 17.9705 269.53 18.5908 268.637 18.5908C268.607 18.5908 268.548 18.5908 268.488 18.5908C268.012 18.5638 267.595 18.1862 267.03 17.6469C266.346 17.0267 265.423 16.1907 264.024 15.5435C263.905 15.4895 263.756 15.3547 263.816 15.0311C263.965 14.2221 267.03 8.39719 267.953 8.31629H267.982C269.024 8.31629 272.387 13.7097 272.655 14.3839C273.131 15.4895 273.339 16.3255 271.821 17.2424Z" fill="white"/>
</svg>
