<svg width="101" height="100" viewBox="0 0 101 100" fill="none" xmlns="http://www.w3.org/2000/svg">
<path fill-rule="evenodd" clip-rule="evenodd" d="M63.2407 63.2964C63.557 64.1799 63.5748 65.1277 63.2847 66.0529C62.9126 67.2396 62.1034 68.1676 60.9783 68.6976C52.6377 72.6269 42.9334 72.6192 34.5991 68.6768C33.4749 68.145 32.6672 67.2157 32.2969 66.0285C31.9287 64.8477 32.0664 63.6117 32.6857 62.541L32.9543 62.0767C32.0045 62.1229 31.0747 61.8578 30.272 61.3016C24.2465 57.1269 19.9318 50.9688 18.0409 43.8894C15.9203 35.9502 17.032 27.5537 21.147 20.4393C29.1915 6.53108 46.6025 1.08983 61.1169 7.97363C62.0294 8.40638 62.7326 9.10098 63.1624 9.98273C63.7712 9.25598 64.5896 8.75933 65.5449 8.54598C66.7521 8.27643 67.9724 8.51558 68.9883 9.22103C76.5702 14.4856 81.4062 22.8769 82.1599 32.0765C82.2614 33.3148 81.8599 34.4809 81.0176 35.3943C80.4082 36.0553 79.6468 36.4973 78.8016 36.6906C79.4927 37.562 79.8163 38.633 79.7225 39.7571C78.9542 48.9555 74.105 57.3392 66.5149 62.5918C65.5401 63.2663 64.3964 63.5113 63.2407 63.2964Z" fill="#292929"/>
<path fill-rule="evenodd" clip-rule="evenodd" d="M47.9007 35.9139L34.6583 58.8088C34.3402 59.3587 33.8588 59.7121 33.2388 59.8508C32.6189 59.9895 32.0328 59.8755 31.5108 59.5137C19.3392 51.0806 15.485 34.5731 23.0299 21.5286C30.5749 8.48412 46.8056 3.59377 60.1847 9.93917C60.7587 10.2114 61.1497 10.6624 61.3386 11.269C61.5276 11.8756 61.4612 12.469 61.1431 13.019L47.9007 35.9139Z" fill="white"/>
<path fill-rule="evenodd" clip-rule="evenodd" d="M19.1658 35.8831C21.8586 38.7856 24.875 41.4181 28.1829 43.7197C29.1954 44.4242 30.3328 44.6482 31.5369 44.3805C32.7409 44.1128 33.6763 43.4278 34.2948 42.3607L54.2759 7.89199C42.3211 5.16828 29.4908 10.358 23.0298 21.5284C20.4106 26.0569 19.1664 31.0026 19.1658 35.8831Z" fill="#E3E3E3"/>
<path fill-rule="evenodd" clip-rule="evenodd" d="M45.9091 44.0237L34.5688 63.6299C34.2506 64.1802 34.1844 64.7739 34.3736 65.3808C34.5629 65.9876 34.9548 66.4385 35.5293 66.7103C43.2859 70.3794 52.2891 70.3865 60.0514 66.7296C60.6264 66.4587 61.019 66.0085 61.2092 65.4019C61.3994 64.7954 61.3342 64.2016 61.0168 63.6508L49.7073 44.0267C49.3053 43.329 48.6143 42.9294 47.8091 42.9287C47.0039 42.9281 46.3122 43.3267 45.9091 44.0237Z" fill="white"/>
<path fill-rule="evenodd" clip-rule="evenodd" d="M53.2584 31.3172L64.5986 11.711C64.9169 11.1607 65.3986 10.8073 66.019 10.6688C66.6393 10.5302 67.2256 10.6451 67.7477 11.0076C74.7958 15.9015 79.2913 23.702 79.992 32.2539C80.0439 32.8874 79.8494 33.4523 79.4185 33.9196C78.9875 34.3869 78.4402 34.6264 77.8046 34.6259L55.1549 34.6081C54.3497 34.6074 53.6587 34.2078 53.2567 33.5101C52.8546 32.8125 52.8552 32.0142 53.2584 31.3172Z" fill="white"/>
<path fill-rule="evenodd" clip-rule="evenodd" d="M50.8199 40.4705L62.1292 60.0946C62.4466 60.6453 62.9278 60.9995 63.5479 61.139C64.168 61.2785 64.7545 61.1646 65.2772 60.8029C72.333 55.9201 76.8407 48.1267 77.5549 39.5759C77.6078 38.9425 77.4142 38.3773 76.984 37.9094C76.5538 37.4414 76.0069 37.201 75.3713 37.2005L52.7216 37.1826C51.9164 37.182 51.2248 37.5806 50.8216 38.2776C50.4185 38.9746 50.4178 39.7729 50.8199 40.4705Z" fill="white"/>
<path d="M7.88966 93.9403V82.692C7.88966 81.4847 8.87436 80.5 10.0817 80.5H17.7364C18.9437 80.5 19.9283 81.4847 19.9283 82.692V93.9403H18.3954C17.1881 93.9403 16.2035 92.9556 16.2035 91.7483V83.7641H11.6146V91.7483C11.6146 92.9556 10.6299 93.9403 9.4226 93.9403H7.88965H7.88966ZM46.0467 94.074L46.0175 94.0743C45.2077 94.0743 44.5512 93.4178 44.5512 92.608C44.5512 91.4007 45.5447 91.4269 46.012 90.7147C46.1464 90.5098 46.252 90.2154 46.3288 89.8314C46.4056 89.4473 46.4728 88.8937 46.5304 88.1706C46.5845 87.4919 46.6132 86.6806 46.6165 85.7371C46.6208 84.5325 47.6039 83.5529 48.8085 83.5529H53.3914C54.5987 83.5529 55.5834 84.5375 55.5834 85.7448V93.9403H54.1273C52.92 93.9403 51.9353 92.9556 51.9353 91.7483V86.4521H50.0152C50.0152 87.6059 49.9864 88.7555 49.8136 89.8986C49.6792 90.7882 49.5032 91.4986 49.2856 92.0298C49.0681 92.5611 48.7865 92.9835 48.4409 93.2971C48.0952 93.6107 47.7433 93.8187 47.3848 93.9211C46.9501 94.0453 46.4971 94.0764 46.0471 94.0744L46.0467 94.074ZM25.074 94.1707C24.05 94.1707 23.2116 93.8859 22.5588 93.3163C21.9059 92.7467 21.5795 91.9498 21.5795 90.9258C21.5795 89.8762 21.9443 89.0698 22.6739 88.5065C23.4035 87.9434 24.3956 87.6618 25.65 87.6618C26.5588 87.6618 27.3909 87.7962 28.1461 88.065V87.8922C28.1461 86.7657 27.4548 86.2026 26.0724 86.2026C25.138 86.2026 24.1843 86.3945 23.2116 86.7786L23.0775 86.3179C22.8952 85.6919 22.9818 85.0822 23.3309 84.5315C23.68 83.9809 24.1946 83.6426 24.8386 83.5404C25.4315 83.4464 26.0411 83.3993 26.6676 83.3993C28.4597 83.3993 29.7781 83.8217 30.6229 84.6665C31.3653 85.3962 31.7365 86.4969 31.7365 87.969V91.7483C31.7365 92.9556 30.7519 93.9403 29.5446 93.9403H28.1268V92.8651C27.346 93.7355 26.3284 94.1707 25.074 94.1707V94.1707ZM26.3796 91.8858C26.9172 91.8858 27.3524 91.729 27.6852 91.4154C28.0181 91.1019 28.1844 90.689 28.1844 90.177V89.697C27.762 89.5178 27.2884 89.4282 26.7637 89.4282C26.2388 89.4282 25.8292 89.5466 25.5348 89.7834C25.2404 90.0202 25.0932 90.3434 25.0932 90.753C25.0932 91.0986 25.2116 91.3738 25.4484 91.5787C25.6852 91.7835 25.9956 91.8858 26.3796 91.8858H26.3796ZM33.5989 91.7483V85.7448C33.5989 84.5376 34.5836 83.5529 35.7909 83.5529H39.7622C41.0295 83.5529 41.9767 83.8665 42.6038 84.4937C43.0519 84.9161 43.276 85.4793 43.276 86.1833C43.276 87.2586 42.7383 88.0329 41.6631 88.5065C42.3287 88.7242 42.8247 89.0346 43.1511 89.4378C43.4775 89.841 43.6408 90.3882 43.6408 91.0795C43.6408 91.9754 43.2951 92.6762 42.6038 93.1818C41.9127 93.6875 40.9463 93.9403 39.7046 93.9403H35.7909C34.5836 93.9403 33.5989 92.9556 33.5989 91.7483V91.7483ZM37.151 91.5787H38.6486C39.0711 91.5787 39.4006 91.4922 39.6374 91.3194C39.8743 91.1466 39.9926 90.9066 39.9926 90.5994C39.9926 90.3178 39.8743 90.0874 39.6374 89.9082C39.4006 89.7289 39.0582 89.6394 38.6102 89.6394H37.151V91.5787V91.5787ZM37.151 87.681H38.3798C38.7894 87.681 39.1094 87.5977 39.3398 87.4314C39.5703 87.2649 39.6854 87.0409 39.6854 86.7593C39.6854 86.4906 39.5766 86.2761 39.3591 86.1161C39.1414 85.9561 38.8342 85.8761 38.4374 85.8761H37.151V87.6809V87.681ZM62.8411 94.1898C61.2026 94.1898 59.8393 93.6619 58.7513 92.6059C57.6633 91.5499 57.1194 90.2666 57.1194 88.7562C57.1194 87.2586 57.6666 85.9785 58.761 84.9161C59.8554 83.8537 61.2282 83.3225 62.8795 83.3225C64.5179 83.3225 65.8811 83.8505 66.9691 84.9065C68.0571 85.9626 68.6012 87.2458 68.6012 88.7562C68.6012 90.2538 68.054 91.5338 66.9595 92.5963C65.8651 93.6587 64.4923 94.1898 62.8411 94.1898H62.8411ZM62.8795 91.0986C63.5323 91.0986 64.0571 90.8747 64.4539 90.4266C64.8507 89.9786 65.0491 89.4218 65.0491 88.7562C65.0491 88.1162 64.8379 87.5658 64.4155 87.105C63.9931 86.6442 63.4683 86.4138 62.8411 86.4138C62.1882 86.4138 61.6634 86.6377 61.2666 87.0858C60.8698 87.5338 60.6714 88.0905 60.6714 88.7562C60.6714 89.3962 60.8826 89.9466 61.305 90.4074C61.7274 90.8682 62.2523 91.0986 62.8795 91.0986ZM70.1371 91.7483V85.7448C70.1371 84.5376 71.1218 83.5529 72.3291 83.5529H76.3005C77.5677 83.5529 78.5149 83.8665 79.1421 84.4937C79.5901 84.9161 79.8142 85.4793 79.8142 86.1833C79.8142 87.2586 79.2765 88.0329 78.2013 88.5065C78.8669 88.7242 79.363 89.0346 79.6893 89.4378C80.0158 89.841 80.179 90.3882 80.179 91.0795C80.179 91.9754 79.8333 92.6762 79.1421 93.1818C78.4509 93.6875 77.4845 93.9403 76.2428 93.9403H72.3291C71.1218 93.9403 70.1371 92.9556 70.1371 91.7483L70.1371 91.7483ZM73.6892 91.5787H75.1869C75.6093 91.5787 75.9389 91.4922 76.1757 91.3194C76.4125 91.1466 76.5309 90.9066 76.5309 90.5994C76.5309 90.3178 76.4125 90.0874 76.1757 89.9082C75.9389 89.7289 75.5965 89.6394 75.1485 89.6394H73.6892V91.5787L73.6892 91.5787ZM73.6892 87.681H74.9181C75.3276 87.681 75.6477 87.5977 75.8781 87.4314C76.1085 87.2649 76.2237 87.0409 76.2237 86.7593C76.2237 86.4906 76.1149 86.2761 75.8973 86.1161C75.6797 85.9561 75.3725 85.8761 74.9757 85.8761H73.6892V87.6809V87.681ZM87.1295 94.1898C85.491 94.1898 84.1278 93.6619 83.0398 92.6059C81.9518 91.5499 81.4078 90.2666 81.4078 88.7562C81.4078 87.2586 81.955 85.9785 83.0494 84.9161C84.1438 83.8537 85.5166 83.3225 87.1679 83.3225C88.8063 83.3225 90.1696 83.8505 91.2576 84.9065C92.3456 85.9626 92.8896 87.2458 92.8896 88.7562C92.8896 90.2538 92.3425 91.5338 91.2479 92.5963C90.1535 93.6587 88.7807 94.1898 87.1295 94.1898H87.1295ZM87.1679 91.0986C87.8207 91.0986 88.3456 90.8747 88.7424 90.4266C89.1391 89.9786 89.3376 89.4218 89.3376 88.7562C89.3376 88.1162 89.1264 87.5658 88.704 87.105C88.2815 86.6442 87.7567 86.4138 87.1295 86.4138C86.4767 86.4138 85.9518 86.6377 85.5551 87.0858C85.1583 87.5338 84.9598 88.0905 84.9598 88.7562C84.9598 89.3962 85.171 89.9466 85.5935 90.4074C86.0159 90.8682 86.5407 91.0986 87.1679 91.0986Z" fill="white"/>
</svg>
