<svg width="101" height="100" viewBox="0 0 101 100" fill="none" xmlns="http://www.w3.org/2000/svg">
<path d="M54.8496 56.7637C54.6645 56.7637 54.2481 56.7637 53.9704 56.3703H53.9473C53.8894 56.3356 53.8547 56.3124 53.7969 56.3009C53.6696 56.2314 53.5887 56.0926 53.5771 55.9653V55.8727C53.554 55.757 53.554 55.6529 53.554 55.5371C53.554 52.2508 53.554 48.9761 53.554 45.6782C53.554 44.8798 53.8894 44.5211 54.6992 44.5211H61.8021C62.5309 44.5211 62.9011 44.8913 62.9011 45.6088V45.8518C63.1094 45.6435 63.3176 45.4352 63.5142 45.2501L63.549 45.2153L63.5837 45.1806L64.8793 43.9656L64.9371 43.9309L65.0528 43.8615C65.1107 43.8268 65.1454 43.8036 65.1801 43.7689C66.0593 43.1093 67.0541 42.7043 68.0721 42.5539C68.558 42.496 69.067 42.4613 69.5876 42.4613C70.3395 42.4613 71.1609 42.5308 72.0748 42.6696C72.4912 42.7275 72.873 42.7853 73.2894 42.8432C74.053 42.9589 74.8743 43.063 75.6609 43.2019C76.0774 43.2598 76.4592 43.4218 76.8062 43.63C77.5928 44.1739 77.9862 44.9261 77.9862 45.8749L78.6803 45.5741C79.224 45.3542 79.7677 45.1112 80.323 44.8798L80.8782 44.6368C82.4631 43.9656 84.0595 43.2945 85.6444 42.6349L86.9747 42.0332L87.1598 41.9753C87.2524 41.9406 87.3449 41.9059 87.4606 41.8596C87.7035 41.7439 87.9812 41.686 88.2588 41.686C88.9645 41.686 89.6239 42.0448 89.9362 42.6233C90.4568 43.5375 90.237 44.6483 89.3809 45.2616C88.3513 46.0138 87.3218 46.7544 86.2806 47.5297C85.0081 48.4438 83.7356 49.358 82.4862 50.2952C81.2716 51.1747 79.8487 52.2161 78.472 53.2691C77.6276 53.9287 76.6211 54.218 75.3833 54.218C75.3139 54.218 75.2098 54.218 75.1404 54.218C73.0118 54.1601 70.8832 54.0907 68.7431 54.0444C68.4655 54.0213 68.1878 54.0213 67.8871 54.0097C67.3433 53.9866 66.7881 53.975 66.2444 53.975C65.8857 53.975 65.5503 53.975 65.2495 53.9981C64.6942 54.0328 64.1274 54.1486 63.549 54.2759C63.3292 54.3337 63.0978 54.3684 62.8896 54.4263C62.8896 54.8891 62.8896 55.3404 62.8896 55.7917C62.8664 56.3934 62.4962 56.7869 61.9178 56.7869C60.8535 56.7869 59.7893 56.7869 58.725 56.7869H55.2314C55.1272 56.7637 54.8496 56.7637 54.8496 56.7637Z" fill="white"/>
<path d="M61.0032 54.8197V53.1187C61.0032 50.8738 61.0032 48.6521 61.0264 46.4072C59.7307 46.4072 58.4698 46.4072 57.1741 46.4072H55.5083V54.8197H61.0032Z" fill="#FEFEFE"/>
<path d="M77.0245 61.4613C76.5039 61.4381 76.0527 61.0101 76.0527 60.4664C76.0527 60.2235 76.1453 59.9574 76.3535 59.7607C76.5386 59.5756 76.8047 59.46 77.0476 59.46C77.3137 59.46 77.5566 59.5756 77.7417 59.7607C77.9499 59.9458 78.0541 60.2119 78.0541 60.4664C78.0309 61.0217 77.6029 61.4613 77.0476 61.4613H77.0245Z" fill="#FEFEFE"/>
<path d="M77.0359 61.2763C76.5848 61.2763 76.2146 60.9177 76.2146 60.4781C76.2146 60.0501 76.6079 59.6567 77.0359 59.6567C77.4871 59.6336 77.8573 60.0269 77.8573 60.4781C77.8573 60.9408 77.5102 61.2763 77.0359 61.2763Z" fill="#FEFEFE"/>
<path d="M91.5083 61.4613C90.953 61.4381 90.5134 61.0101 90.5134 60.4664C90.5134 60.2003 90.6291 59.9458 90.8142 59.7607C90.9993 59.5756 91.2654 59.46 91.5083 59.46C91.7744 59.46 92.0289 59.5756 92.214 59.7607C92.3991 59.9458 92.5147 60.2119 92.5147 60.4664C92.5147 61.0101 92.0636 61.4613 91.5083 61.4613Z" fill="#FEFEFE"/>
<path d="M91.5084 61.276C91.0573 61.276 90.7102 60.9174 90.7102 60.4778C90.6871 60.0266 91.0804 59.6564 91.5084 59.6333C91.9596 59.6333 92.3529 60.0266 92.3529 60.4778C92.3298 60.9174 91.9596 61.276 91.5084 61.276Z" fill="#FEFEFE"/>
<path d="M84.2902 45.3195C83.6539 45.3195 82.9946 45.4352 82.3814 45.6203C79.8017 46.4419 78.078 48.7215 78.0086 51.4524C77.9855 52.1235 77.9855 52.8178 77.9855 53.4889C77.9855 53.7898 77.9855 54.0907 77.9855 54.4031C77.9855 54.5188 77.9855 54.6461 78.0086 54.6808C78.0086 54.6577 78.1359 54.6577 78.2516 54.6577H87.1707C88.235 54.6577 89.2993 54.6577 90.3635 54.6808C90.4908 54.6808 90.5371 54.6461 90.5371 54.6461C90.5371 54.6461 90.5718 54.6114 90.5718 54.4957C90.5486 53.9518 90.5486 53.408 90.5486 52.8641C90.5486 52.4359 90.5486 52.0194 90.5486 51.5912C90.5486 50.5498 90.3057 49.5662 89.843 48.6983C88.744 46.6155 86.6154 45.3195 84.2902 45.3195ZM77.0369 59.8186C76.8865 59.8186 76.7245 59.888 76.5857 60.0269C76.4585 60.1426 76.4006 60.3046 76.4006 60.4781C76.4006 60.8369 76.6783 61.1146 77.0369 61.1146C77.4071 61.1146 77.6963 60.8369 77.6963 60.4781C77.6963 60.3046 77.6269 60.1426 77.4881 60.0153C77.3608 59.888 77.2104 59.8186 77.0369 59.8186ZM91.5088 59.8186C91.3584 59.8186 91.1965 59.888 91.0576 60.0037C90.942 60.131 90.8726 60.3046 90.8726 60.4666C90.8726 60.8253 91.1502 61.103 91.5088 61.103C91.8674 61.103 92.1682 60.8253 92.1682 60.4666C92.1682 60.293 92.0988 60.131 91.96 60.0037C91.8443 59.888 91.6823 59.8186 91.5088 59.8186V59.6334V59.8186ZM70.2 82.6492C70.2232 82.6492 70.2232 82.6839 70.2232 82.7186C70.1538 84.0262 70.0959 85.3338 70.0149 86.6298C70.0149 86.7455 70.0149 86.8496 70.0149 86.8959C70.0381 86.8728 70.1653 86.8728 70.2347 86.8728H98.2763C98.4035 86.8728 98.5423 86.8728 98.577 86.8496C98.5539 86.8496 98.5539 86.7224 98.5423 86.6066C98.4845 85.5189 98.23 79.953 98.23 79.953C98.1606 78.5181 98.0796 77.0601 98.0102 75.6137C97.9523 74.6417 97.8945 73.6697 97.8598 72.6977C97.7904 71.5058 97.7094 70.2908 97.6516 69.0642C97.5937 67.9186 97.5359 66.7615 97.478 65.6043C97.4433 64.5745 97.3855 63.533 97.3508 62.5032C97.2929 61.589 97.2351 60.6749 97.2004 59.7723C97.1426 59.0201 97.1079 58.2796 97.0731 57.5274C97.05 57.2844 97.0731 57.0414 97.0731 56.7984C97.0731 56.7405 97.0731 56.6827 97.0731 56.6248H92.469V56.8447C92.469 57.2381 92.469 57.6431 92.4921 58.0366C92.5152 58.0366 92.5499 58.0713 92.6772 58.1523C93.6489 58.673 94.1117 59.4946 94.1001 60.5823C94.0654 61.9246 92.9086 63.0123 91.5204 63.0123C91.451 63.0123 91.37 63.0123 91.3121 63.0123C89.9702 62.8966 88.8828 61.6816 88.9522 60.3624C89.0101 59.3673 89.4728 58.6267 90.3404 58.1986C90.5255 58.0828 90.5833 58.0134 90.5833 57.8051C90.5486 57.4348 90.5602 57.053 90.5602 56.7174C90.5833 56.6248 90.5602 56.6017 90.5602 56.6017C90.5602 56.6017 90.5255 56.5785 90.4677 56.5785C90.1553 56.6017 89.8545 56.6017 89.5538 56.6017H88.4085H84.1514C82.1732 56.6017 80.1719 56.6017 78.1821 56.5785C78.0318 56.5785 77.9971 56.6133 77.9971 56.6133C77.9971 56.6133 77.9739 56.6364 77.9971 56.7637C78.0202 57.0993 78.0202 57.458 77.9971 57.8283C77.9739 58.0018 78.0318 58.0713 78.2053 58.1407C79.177 58.6498 79.6629 59.4714 79.6282 60.536C79.5703 61.9246 78.4367 63.0007 77.0253 63.0007C76.9675 63.0007 76.8981 63.0007 76.8171 63.0007C76.1577 62.9429 75.5446 62.6305 75.0934 62.0982C74.6423 61.5774 74.4225 60.9179 74.4803 60.2699C74.5497 59.321 75.024 58.592 75.8685 58.1754C76.0536 58.0597 76.1114 57.9903 76.1114 57.782C76.0767 57.5043 76.0883 57.2266 76.0883 56.9373V56.6364C76.0883 56.5785 76.0883 56.567 76.0883 56.567C75.2091 56.5901 74.3299 56.5901 73.4739 56.5901H71.5304L70.281 81.4805L70.2579 81.573L70.2347 81.9433C70.2579 82.0359 70.2579 82.1516 70.2579 82.2442C70.2579 82.2789 70.2579 82.3136 70.2579 82.3599C70.2579 82.3946 70.2347 82.4293 70.2232 82.4525L70.2 82.6492ZM69.0201 88.7821C68.7193 88.7589 68.4648 88.6664 68.2913 88.4812C68.1177 88.3077 68.0483 88.0647 68.0483 87.7754C68.083 87.0695 68.1177 86.3521 68.164 85.6462L68.2219 84.3502L68.1987 84.2808L68.407 80.5779C68.407 80.5779 68.407 80.5547 68.407 80.52L68.4648 79.1314C68.5342 77.523 68.6383 75.9146 68.7077 74.3293C68.7771 72.9291 68.8581 71.5289 68.9275 70.1172L69.0548 67.5136C69.1705 65.1762 69.2977 62.8387 69.4134 60.5013C69.4828 58.916 69.5638 57.3423 69.6332 55.757C69.6679 55.028 70.0265 54.6924 70.7553 54.6692H75.8222C75.9379 54.6692 76.0652 54.6692 76.0999 54.6692C76.0767 54.6461 76.0767 54.542 76.0767 54.4262C76.0767 54.1138 76.0767 53.813 76.0767 53.4889C76.0767 52.8178 76.0536 52.1004 76.0999 51.4176C76.2155 48.2239 77.731 45.8055 80.5999 44.2896C81.6873 43.6879 82.8789 43.4102 84.1514 43.4102C84.5678 43.4102 84.9959 43.4333 85.4239 43.5027C88.0962 43.8962 90.1553 45.3195 91.4972 47.7495C92.1335 48.8719 92.4458 50.1216 92.4458 51.4755C92.4458 51.8111 92.4458 52.1698 92.4458 52.5054C92.4458 53.1765 92.4458 53.8477 92.4458 54.5304C92.4458 54.6461 92.469 54.6577 92.469 54.6577C92.469 54.6577 92.4921 54.6924 92.6194 54.6924C93.3713 54.6692 94.1001 54.6692 94.8289 54.6692H97.7094C98.5539 54.6692 98.8894 55.0048 98.9241 55.8611C98.9935 57.3191 99.0745 58.8003 99.1439 60.2583L99.2596 62.6304L99.5025 67.2706L99.8611 74.2483L100.081 78.9C100.081 78.9 100.359 84.5238 100.416 85.8545C100.451 86.4909 100.486 87.1274 100.486 87.7638C100.509 88.0762 100.416 88.3192 100.243 88.4928C100.069 88.6779 99.7917 88.7705 99.4562 88.7705C95.4883 88.7705 91.5435 88.7705 87.5987 88.7705H69.0201V88.7821Z" fill="white"/>
<path d="M98.2761 87.0579C93.7182 87.0579 89.1372 87.0579 84.5677 87.0579C79.7784 87.0579 75.0123 87.0579 70.2346 87.0579C69.8181 87.0579 69.8181 87.0347 69.8413 86.6297C69.8991 85.3221 69.9685 84.0261 70.0264 82.7186V82.6491L70.0495 82.383H70.0726C70.0726 82.2557 70.1073 82.1053 70.0726 81.9895L70.0958 81.5035H70.1189C70.5354 73.1489 70.9634 64.8058 71.3683 56.4281C72.9531 56.4281 74.5264 56.4281 76.0766 56.4281C76.2617 56.4281 76.2848 56.5206 76.2848 56.6711C76.2848 57.0413 76.2617 57.4232 76.2848 57.7935C76.3079 58.0944 76.1922 58.2216 75.9493 58.3489C75.1511 58.7655 74.7346 59.4367 74.6537 60.3161C74.5611 61.589 75.5907 62.7461 76.8401 62.8387C78.2283 62.9544 79.3851 61.9245 79.4429 60.5591C79.4776 59.5639 79.0149 58.7771 78.1126 58.3374C77.8928 58.2216 77.8002 58.0944 77.8118 57.8514C77.8349 57.4926 77.8349 57.1455 77.8118 56.8099C77.7887 56.5091 77.8812 56.4396 78.182 56.4396C81.5831 56.4396 85.0073 56.4396 88.4084 56.4396C89.1024 56.4396 89.7734 56.4628 90.4444 56.4396C90.6873 56.4396 90.7451 56.5091 90.7451 56.7405C90.722 57.0992 90.722 57.4464 90.7451 57.8051C90.7683 58.0828 90.6757 58.2332 90.4097 58.3605C89.5883 58.7771 89.1719 59.4829 89.114 60.3855C89.0562 61.5658 89.9932 62.7461 91.3004 62.8503C92.6423 62.966 93.8801 61.9361 93.9033 60.5822C93.938 59.5755 93.4868 58.8002 92.5961 58.3142C92.4804 58.2564 92.3184 58.1638 92.3184 58.0712C92.2837 57.5274 92.2953 56.9835 92.2953 56.4396C93.9611 56.4396 95.5691 56.4396 97.2349 56.4396C97.2349 56.8099 97.235 57.1686 97.2581 57.5042C97.3275 59.1705 97.4432 60.8368 97.5242 62.48C97.6398 64.667 97.7324 66.8771 97.8249 69.0642C97.9406 71.228 98.0679 73.4266 98.1951 75.5905C98.2877 77.5692 98.3802 79.5364 98.4728 81.5035C98.5653 83.2046 98.6463 84.8824 98.7388 86.5719C98.7388 87.0579 98.7388 87.0579 98.2761 87.0579ZM77.0367 59.6449C77.4879 59.6218 77.8581 60.0152 77.8581 60.4665C77.8581 60.9294 77.4995 61.265 77.0367 61.265C76.5856 61.265 76.2154 60.9062 76.2154 60.4665C76.2154 60.0384 76.6087 59.6449 77.0367 59.6449ZM77.8234 51.4407C77.9159 48.652 79.6974 46.303 82.3234 45.4583C85.3312 44.5094 88.5125 45.8286 89.9932 48.6404C90.5022 49.5546 90.722 50.5613 90.7451 51.6143C90.7451 52.5632 90.722 53.5352 90.7451 54.5072C90.7451 54.7849 90.6526 54.8659 90.375 54.8659C88.3505 54.8659 86.3145 54.8659 84.3016 54.8659C82.2772 54.8659 80.2874 54.8659 78.263 54.8659C77.8349 54.8659 77.8118 54.8659 77.8349 54.4146C77.8234 53.4195 77.8002 52.4359 77.8234 51.4407ZM91.5086 59.6334C91.9598 59.6334 92.3531 60.0268 92.3531 60.4781C92.33 60.9294 91.9598 61.2765 91.5086 61.2765C91.0575 61.2765 90.7104 60.9178 90.7104 60.4781C90.6873 60.0268 91.0806 59.6449 91.5086 59.6334ZM100.254 85.866C100.139 83.5633 100.011 81.249 99.8957 78.9231C99.8262 77.3725 99.7453 75.8219 99.6759 74.2482C99.5602 71.9339 99.4329 69.608 99.3172 67.2706C99.2478 65.7316 99.1669 64.181 99.0974 62.6535C98.9818 60.3855 98.8545 58.1291 98.7388 55.8611C98.7157 55.1089 98.4612 54.8543 97.7092 54.8543C96.0087 54.8543 94.3313 54.8543 92.6192 54.8543C92.3531 54.8543 92.2606 54.7849 92.2606 54.4956C92.2837 53.4889 92.2606 52.4706 92.2837 51.4639C92.2837 50.1679 91.9714 48.9413 91.3467 47.8189C90.0395 45.4814 88.0729 44.0581 85.4006 43.6647C83.7348 43.4217 82.1499 43.6415 80.6692 44.4284C77.8812 45.9096 76.3889 48.247 76.2617 51.4176C76.227 52.4127 76.2617 53.3963 76.2617 54.4146C76.2617 54.8428 76.2617 54.8428 75.8105 54.8428C74.1331 54.8428 72.4326 54.8428 70.7436 54.8428C70.1073 54.8428 69.8297 55.1205 69.8066 55.7569C69.7371 57.3306 69.6562 58.9159 69.5868 60.5012C69.4595 62.8155 69.3438 65.153 69.2166 67.4904C69.1009 69.7584 68.9736 72.038 68.858 74.2945C68.7654 76.3542 68.6729 78.4255 68.5572 80.4853L68.5803 80.5547L68.3721 84.2344H68.3952C68.3374 85.3916 68.2795 86.5719 68.2217 87.729C68.1986 88.2497 68.4993 88.5506 69.0083 88.5506C69.1009 88.5506 69.1819 88.5506 69.2513 88.5506C75.3593 88.5506 81.4789 88.5506 87.6101 88.5506C91.5549 88.5506 95.4997 88.5506 99.4676 88.5506C100.023 88.5506 100.347 88.2729 100.324 87.7522C100.312 87.1504 100.301 86.5024 100.254 85.866Z" fill="white"/>
<path d="M76.2377 60.6399C76.2609 60.7324 76.3071 60.8481 76.365 60.9175C76.5154 61.1373 76.7583 61.2761 77.0359 61.2761C77.4987 61.2761 77.8573 60.9406 77.8573 60.4779C77.8573 60.3044 77.7995 60.1656 77.7069 60.0267C77.6375 59.8764 77.4987 59.7838 77.3483 59.7144C77.2557 59.6797 77.1401 59.645 77.0359 59.6566C76.8624 59.6566 76.7236 59.6913 76.5848 59.7838C76.4575 59.8764 76.3418 60.0036 76.284 60.154C76.2262 60.2697 76.2146 60.3622 76.2146 60.4663C76.2146 60.5242 76.2377 60.582 76.2377 60.6399Z" fill="#09090A"/>
<path d="M90.7566 60.7905C90.8838 61.0681 91.173 61.2763 91.5085 61.2763C91.682 61.2763 91.844 61.2416 91.9712 61.1491C92.0059 61.1144 92.0406 61.0912 92.0869 61.0565C92.1563 60.9871 92.2373 60.883 92.272 60.7905C92.3067 60.6979 92.3414 60.5822 92.3414 60.4781C92.3414 60.3046 92.2836 60.1658 92.191 60.027C92.1216 59.9113 92.0175 59.8187 91.9134 59.7609C91.844 59.703 91.763 59.6683 91.6705 59.6452C91.6126 59.6452 91.5548 59.6221 91.4969 59.6221C91.4391 59.6221 91.3812 59.6452 91.3465 59.6452C91.2309 59.6799 91.1383 59.7146 91.0458 59.7725C90.826 59.946 90.6756 60.1889 90.6871 60.4666C90.7103 60.5822 90.7219 60.6979 90.7566 60.7905Z" fill="#09090A"/>
<path d="M80.4255 46.4304C80.9807 46.0138 81.617 45.6783 82.3342 45.4584C82.635 45.3658 82.9358 45.308 83.2134 45.2501C83.9191 44.9493 84.6479 44.6484 85.3651 44.3475C85.7237 44.174 86.0708 44.0351 86.4294 43.8847C86.117 43.8153 85.7584 43.7343 85.423 43.6764C83.7571 43.4334 82.1723 43.6533 80.6915 44.4401C79.1067 45.2848 77.9614 46.4073 77.2095 47.7843L77.2789 47.7611C78.3316 47.3214 79.3727 46.8817 80.4255 46.4304Z" fill="white"/>
<path d="M77.7073 60.0267C77.6378 59.8763 77.499 59.7838 77.3486 59.7144C77.5106 59.7838 77.6378 59.8763 77.7073 60.0267Z" fill="white"/>
<path d="M76.5857 59.7842C76.4584 59.8767 76.3428 60.004 76.2849 60.1544C76.3428 60.004 76.4584 59.8767 76.5857 59.7842Z" fill="white"/>
<path d="M91.6814 59.645C91.7739 59.6682 91.8549 59.7029 91.9243 59.7607C91.8433 59.7029 91.7739 59.6682 91.6814 59.645Z" fill="white"/>
<path d="M90.7568 60.7905C90.8841 61.0682 91.1733 61.2764 91.5088 61.2764C91.1733 61.2764 90.8957 61.0682 90.7568 60.7905Z" fill="white"/>
<path d="M69.7251 44.3476C69.5516 44.3476 69.3896 44.3476 69.2161 44.3476C68.6724 44.3823 68.0709 44.4748 67.4577 44.66C66.7636 44.8451 66.2084 45.3196 65.6415 45.8171C65.306 46.1296 64.9706 46.4536 64.612 46.766C64.0567 47.2867 63.4898 47.8074 62.9114 48.3166L62.8767 48.3513C62.8998 49.3465 62.8998 50.33 62.8998 51.3483V52.4361C63.0734 52.4013 63.2122 52.3666 63.3857 52.3203C63.8947 52.2278 64.4153 52.112 64.9359 52.1005C65.3639 52.1005 65.7919 52.1005 66.2315 52.1005C67.0529 52.1005 67.8742 52.1005 68.6956 52.1236C69.1814 52.1236 69.6442 52.1468 70.13 52.1468H70.8588C71.5876 52.1699 72.3396 52.1699 73.0799 52.1815C73.4733 52.2046 73.8666 52.2162 74.2368 52.2393C74.6995 52.274 75.1738 52.2972 75.6365 52.2972H75.6944C76.2496 52.2972 76.7008 52.1699 77.0941 51.8806C78.1584 51.0822 79.2458 50.2722 80.3332 49.4853C81.7677 48.4439 83.1906 47.3909 84.6366 46.361L86.7305 44.822C87.2395 44.4517 87.7369 44.093 88.2459 43.7227C88.3038 43.6648 88.3154 43.607 88.3154 43.5723H88.2575L88.1881 43.5954L88.1187 43.6186L88.0493 43.6417L85.5043 44.7294L83.2832 45.6783C81.3628 46.4767 79.3731 47.3214 77.4296 48.1662C76.7355 48.467 76.0414 48.6174 75.3126 48.6174H75.1854C74.5491 48.5943 73.9128 48.5943 73.2766 48.5943C72.8486 48.5943 72.4205 48.5943 71.9809 48.5943C71.5414 48.5943 71.1249 48.5943 70.6737 48.5943H70.6043H70.5465C70.5118 48.5943 70.4771 48.6174 70.4308 48.6174C70.373 48.6174 70.2226 48.6174 70.0722 48.5017C69.8524 48.3513 69.6442 48.1893 69.5285 47.9579C69.3434 47.5413 69.4938 47.1016 69.8871 46.8701C70.13 46.7429 70.4077 46.6966 70.5928 46.6966C71.3447 46.6966 72.0735 46.6966 72.8139 46.6966H75.2085C75.6944 46.6966 76.0877 46.3263 76.0877 45.8519C76.0877 45.4006 75.7175 45.0303 75.2316 44.9956C74.4103 44.903 73.5889 44.8104 72.7792 44.66C71.7611 44.498 70.7547 44.3476 69.7251 44.3476Z" fill="#09090A"/>
<path d="M77.8239 51.8693C77.8239 51.7188 77.8239 51.5916 77.8239 51.4411C77.8933 49.4045 78.8651 47.5878 80.4268 46.4307C79.3856 46.882 78.3329 47.3332 77.2918 47.773L77.2224 47.7961C76.6787 48.8607 76.3432 50.0641 76.2853 51.4411C76.2853 51.8577 76.2622 52.2627 76.2622 52.6793C76.6555 52.6099 77.0257 52.471 77.3612 52.228C77.5116 52.0891 77.6735 51.985 77.8239 51.8693Z" fill="white"/>
<path d="M9.60406 16.205C9.60406 16.691 9.56936 17.1192 9.47681 17.501C9.38427 17.8829 9.16447 18.1722 8.78272 18.4152H11.0617V14.3536H9.60406V16.205ZM13.3406 12.4906V18.4152H14.2776V21.8404H12.2995V20.2898H7.92666V21.8404H5.94849V18.4152C5.98319 18.4152 6.0179 18.4152 6.06417 18.3921C6.09887 18.3921 6.12201 18.3921 6.15672 18.3689C6.46906 18.3111 6.76983 18.149 7.0359 17.8598C7.31354 17.582 7.46393 17.1655 7.49864 16.61C7.49864 16.5406 7.49864 16.4365 7.49864 16.3439C7.49864 16.2513 7.49864 16.1587 7.49864 16.0662C7.49864 16.0315 7.49864 16.0083 7.49864 15.9736C7.49864 15.9389 7.49864 15.9157 7.49864 15.881V12.479H13.3406V12.4906Z" fill="white"/>
<path d="M15.1807 12.4907H19.9699V14.3537H17.4596V15.4415H19.7154V17.1656H17.4596V18.4153H19.9699V20.2899H15.1807V12.4907Z" fill="white"/>
<path d="M28.1143 12.4909V20.2901H25.8354V14.3655H24.3778V17.432C24.3778 17.6055 24.3778 17.7675 24.3778 17.9758C24.3546 18.161 24.3199 18.3692 24.2852 18.5544C24.1927 19.0173 23.9498 19.4338 23.5796 19.8041C23.1862 20.1744 22.5384 20.3595 21.5551 20.3595L21.4394 20.3827C21.3238 20.3827 21.2196 20.3595 21.1271 20.3595C21.0345 20.3595 20.9536 20.3364 20.861 20.3364C20.8032 20.3133 20.7453 20.3133 20.7106 20.3017C20.6528 20.2785 20.595 20.2785 20.5371 20.2785V18.404H20.6528C20.7222 18.4271 20.78 18.4387 20.861 18.4387C20.9304 18.4618 21.0114 18.4618 21.0808 18.4734C21.5667 18.4502 21.8443 18.2882 21.9369 17.9527C22.0294 17.6171 22.0873 17.2237 22.0873 16.7724V12.4678H28.1143V12.4909Z" fill="white"/>
<path d="M31.8512 12.4907V16.992L34.7549 12.4907H36.9991V20.2899H34.7896V15.777L31.9322 20.2899H29.6301V12.4907H31.8512Z" fill="white"/>
<path d="M43.8934 20.1743C43.7431 20.2438 43.5811 20.3016 43.4307 20.3479C43.2225 20.4058 43.0374 20.4405 42.8292 20.4636C42.6441 20.4868 42.4358 20.4983 42.2507 20.4983H42.1351C41.0476 20.4983 40.1106 20.1396 39.3355 19.4106C38.5489 18.7048 38.1787 17.6865 38.1787 16.3789C38.1787 15.0366 38.572 14.0067 39.3934 13.3124C40.2147 12.6181 41.1171 12.271 42.1235 12.271H42.2392C42.3664 12.271 42.5052 12.2941 42.6556 12.2941C42.7829 12.3173 42.9333 12.3289 43.0837 12.3636C43.3035 12.3983 43.5348 12.4793 43.7431 12.5719C43.9628 12.6413 44.1711 12.757 44.3793 12.9074V15.1523H44.2636C44.2289 15.1176 44.1711 15.0597 44.1132 14.9787C44.0438 14.9209 43.986 14.863 43.905 14.7936C43.7315 14.6663 43.5348 14.5274 43.2919 14.4002C43.0721 14.2844 42.7829 14.2266 42.4705 14.215C41.869 14.2382 41.3831 14.458 41.0476 14.9093C40.7122 15.3606 40.5386 15.8582 40.5386 16.4599C40.5386 17.131 40.7237 17.6402 41.0939 17.9989C41.4872 18.3692 41.9384 18.5543 42.459 18.5543C42.8523 18.5543 43.2109 18.4618 43.5001 18.2766C43.8009 18.103 44.0438 17.9179 44.2521 17.7212H44.3677V19.9429C44.2058 20.0239 44.0438 20.1165 43.8934 20.1743Z" fill="white"/>
<path d="M48.683 18.7162C48.9953 18.7162 49.2614 18.6583 49.4696 18.5426C49.6779 18.4269 49.7704 18.2071 49.7704 17.883C49.7704 17.5822 49.6779 17.3623 49.4696 17.2466C49.2846 17.1309 49.0185 17.073 48.683 17.073H47.8617V18.7046H48.683V18.7162ZM45.5596 12.4907H47.8617V15.534H49.0069C49.1573 15.534 49.3655 15.534 49.62 15.5572C49.863 15.5803 50.129 15.615 50.4067 15.6845C50.8231 15.8117 51.1933 16.0432 51.5519 16.3556C51.8874 16.6912 52.0725 17.2003 52.0725 17.8946C52.0725 18.6005 51.8874 19.1096 51.5519 19.4452C51.1933 19.7576 50.8231 19.9891 50.4298 20.1164C50.1522 20.1858 49.8861 20.2436 49.6316 20.2436C49.3655 20.2668 49.1689 20.2784 49.0185 20.2784H45.5596V12.4907Z" fill="white"/>
<path d="M4.14483 27.6961C4.14483 28.2052 4.11013 28.6333 4.01758 29.0036C3.92504 29.3739 3.70524 29.6748 3.32349 29.9062H5.60244V25.8677H4.14483V27.6961ZM7.89296 23.9932V29.9062H8.82999V33.3314H6.85181V31.7808H2.46743V33.3314H0.489258V29.9062C0.523963 29.9062 0.558667 29.9062 0.604941 29.9062C0.628077 29.9062 0.662781 29.8831 0.697486 29.8831C1.00983 29.8252 1.31061 29.6632 1.57668 29.3739C1.85432 29.0962 2.0047 28.6796 2.03941 28.1242C2.03941 28.0316 2.03941 27.9391 2.03941 27.8581C2.03941 27.7655 2.03941 27.6498 2.03941 27.5572C2.03941 27.534 2.03941 27.4993 2.03941 27.4878C2.03941 27.453 2.03941 27.4183 2.03941 27.3952V23.9932H7.89296Z" fill="white"/>
<path d="M13.8269 30.1029C13.8963 30.1029 14.0005 30.0798 14.0699 30.0451C14.4285 29.9525 14.7408 29.7326 15.0416 29.3855C15.3424 29.0383 15.4928 28.5408 15.4928 27.8696C15.4928 27.1985 15.3424 26.6893 15.0416 26.3537C14.7408 26.0182 14.4285 25.7983 14.0699 25.6942C14.0005 25.671 13.8963 25.6594 13.8269 25.6363C13.7575 25.6132 13.6765 25.6132 13.6071 25.6132C13.5377 25.6132 13.4336 25.6132 13.3411 25.6363C13.2717 25.6594 13.1675 25.671 13.0981 25.7057C12.7395 25.7983 12.4387 26.0182 12.1495 26.3653C11.8719 26.7009 11.7215 27.21 11.7215 27.858C11.7215 28.5176 11.8719 29.0152 12.1495 29.3508C12.4503 29.6863 12.7511 29.9062 13.0981 30.0103C13.1675 30.0451 13.2485 30.0682 13.3411 30.0798C13.4336 30.1029 13.5146 30.1029 13.584 30.1029C13.6534 30.1029 13.7575 30.1261 13.8269 30.1029ZM10.4259 30.7625C9.72019 29.9409 9.36157 28.9805 9.36157 27.8812C9.36157 26.7935 9.72019 25.8214 10.4259 24.9999C11.12 24.1783 12.1611 23.7617 13.5493 23.7617H13.665C15.0532 23.7617 16.0943 24.1783 16.7884 24.9999C17.4941 25.8214 17.8527 26.7935 17.8527 27.8812C17.8527 28.9805 17.4941 29.9409 16.7884 30.7393C16.0943 31.5609 15.0532 31.9775 13.665 31.9891H13.5493C12.1842 31.9891 11.1547 31.5841 10.4259 30.7625Z" fill="white"/>
<path d="M22.1327 30.2186C22.4451 30.2186 22.7111 30.1608 22.9194 30.0451C23.1276 29.9294 23.2201 29.7095 23.2201 29.3855C23.2201 29.0731 23.1276 28.8648 22.9194 28.7491C22.7343 28.6333 22.4682 28.5639 22.1327 28.5639H21.3114V30.2071H22.1327V30.2186ZM19.0093 23.9932H24.8744V25.8677H21.2998V27.0249H22.4451C22.5954 27.0249 22.8037 27.048 23.0582 27.048C23.3011 27.0712 23.5672 27.1175 23.8448 27.1985C24.2613 27.3142 24.6315 27.534 24.9901 27.8696C25.3256 28.1821 25.5107 28.6912 25.5107 29.3623C25.5107 30.0682 25.3256 30.6005 24.9901 30.9129C24.6315 31.2485 24.2613 31.4684 23.868 31.6072C23.5903 31.6767 23.3242 31.7345 23.0697 31.7576C22.8037 31.7808 22.607 31.7808 22.4566 31.7808H19.0208V23.9932H19.0093Z" fill="white"/>
<path d="M28.9238 27.4878H29.4444C29.7567 27.4878 29.9881 27.4299 30.1385 27.3373C30.2889 27.2216 30.3814 27.1175 30.4393 27.0018C30.474 26.9323 30.4971 26.8282 30.4971 26.7588C30.4971 26.7009 30.5202 26.6315 30.5202 26.5852C30.5202 26.5389 30.5202 26.4926 30.4971 26.4579C30.4971 26.4 30.4971 26.3653 30.474 26.3306C30.4393 26.157 30.3583 26.0298 30.2079 25.9025C30.0575 25.7752 29.7914 25.6942 29.4444 25.6942H28.9238V27.4878ZM26.6333 23.9932H30.0112C30.8557 23.9932 31.4688 24.1667 31.8853 24.5139C32.3018 24.8726 32.5794 25.266 32.7066 25.6942C32.7645 25.8677 32.7992 26.0066 32.8223 26.157C32.8455 26.3075 32.857 26.4579 32.857 26.5852C32.857 26.7125 32.8339 26.8629 32.8223 27.0133C32.7992 27.1638 32.7645 27.3142 32.7066 27.4762C32.5794 27.9043 32.2902 28.2978 31.8853 28.6565C31.4688 29.0152 30.8557 29.2003 30.0112 29.2003H28.9123V31.7577H26.6333V23.9932Z" fill="white"/>
<path d="M38.0982 30.1029C38.1676 30.1029 38.2717 30.0798 38.3411 30.0451C38.6997 29.9525 39.0121 29.7326 39.3128 29.3855C39.6136 29.0383 39.764 28.5408 39.764 27.8696C39.764 27.1985 39.6136 26.6893 39.3128 26.3537C39.0121 26.0182 38.6997 25.7983 38.3411 25.6942C38.2717 25.671 38.1676 25.6594 38.0982 25.6363C38.0288 25.6132 37.9478 25.6132 37.8784 25.6132C37.809 25.6132 37.7048 25.6132 37.6123 25.6363C37.5429 25.6594 37.4388 25.671 37.3694 25.7057C37.0108 25.7983 36.71 26.0182 36.4208 26.3653C36.1431 26.7009 36.0043 27.21 36.0043 27.858C36.0043 28.5176 36.1316 29.0152 36.4208 29.3508C36.7215 29.6863 37.0223 29.9062 37.3694 30.0103C37.4388 30.0451 37.5429 30.0682 37.6123 30.0798C37.7048 30.1029 37.7858 30.1029 37.8552 30.1029C37.9246 30.1261 38.0288 30.1261 38.0982 30.1029ZM34.7202 30.7625C33.9914 29.9409 33.6328 28.9805 33.6328 27.8812C33.6328 26.7935 33.9914 25.8214 34.6971 24.9999C35.3912 24.1783 36.4323 23.7617 37.8205 23.7617H37.9362C39.3244 23.7617 40.3656 24.1783 41.0712 24.9999C41.7653 25.8214 42.1124 26.7935 42.1124 27.8812C42.1124 28.9805 41.7537 29.9409 41.0712 30.7393C40.3656 31.5609 39.3128 31.9775 37.9362 31.9891H37.8205C36.4555 31.9891 35.4259 31.5841 34.7202 30.7625Z" fill="white"/>
<path d="M43.8698 23.9932H46.1603L47.4675 28.5523L48.7863 23.9932H51.0768L52.2105 31.7692H50.001L49.4688 27.5225L48.231 31.7692H46.7156L45.4778 27.5225L44.9456 31.7692H42.7361L43.8698 23.9932Z" fill="white"/>
<path d="M66.0235 29.9757C66.3358 29.941 66.6597 29.86 66.9952 29.7558L67.0646 29.7211C67.7703 29.5128 68.4065 29.0847 69.0081 28.4251C69.5171 27.8812 69.7716 26.8398 69.7716 25.4281C69.7716 23.6692 69.3551 22.5121 68.5338 21.8988C67.8281 21.3781 66.9952 21.0425 66.0119 20.8921V29.9757H66.0235ZM48.4975 45.065C47.5026 45.2154 46.6697 45.551 45.9756 46.0717C45.1543 46.685 44.7378 47.8884 44.7378 49.601C44.7378 51.0243 45.0039 52.0542 45.5013 52.598C46.1029 53.2692 46.7391 53.6857 47.4448 53.9056L47.5142 53.9287C47.8497 54.0445 48.1736 54.1139 48.4859 54.1717V45.065H48.4975ZM48.1736 63.8224C43.0141 63.8224 39.2429 62.3065 36.9177 59.3211C34.7081 56.4629 33.6091 53.2113 33.6091 49.6126C33.6091 49.0571 33.667 48.2124 33.7827 47.009C33.8983 45.7014 34.2917 44.3012 34.9395 42.8779C35.7608 41.0033 37.2069 39.2908 39.185 37.7749C41.302 36.1665 44.2288 35.4027 48.1736 35.4027H55.1146V13.0118C55.1146 12.0167 55.9359 11.2183 56.9308 11.2183H66.3474C70.2921 11.2183 73.2305 11.982 75.3243 13.5789C77.3257 15.0947 78.7601 16.8304 79.6046 18.705C80.2409 20.1283 80.6342 21.5053 80.7499 22.8361C80.8656 24.0164 80.9234 24.8727 80.9234 25.4397C80.9234 29.0153 79.8244 32.2784 77.6149 35.125C75.3012 38.1336 71.5184 39.6495 66.3589 39.6495H59.4064V62.0172C59.4064 63.024 58.6082 63.834 57.6133 63.834H48.1736V63.8224Z" fill="#292929"/>
<path d="M70.3503 29.6395C69.5289 30.5421 68.615 31.1322 67.597 31.4562C67.0533 31.6414 66.5096 31.7571 65.989 31.8149C65.48 31.8497 65.0404 31.8844 64.6471 31.8844H64.2307V18.9706H64.6471C66.6716 18.9706 68.3142 19.4566 69.633 20.4286C70.9402 21.4237 71.5996 23.0785 71.5996 25.4159C71.5996 27.3368 71.1832 28.7369 70.3503 29.6395ZM50.2909 56.0573H49.8744C49.4811 56.0573 49.0299 56.0341 48.5325 55.9879C48.0119 55.9531 47.4682 55.8143 46.9245 55.6291C45.9181 55.3283 45.0042 54.7266 44.1597 53.8356C43.3383 52.933 42.9219 51.5212 42.9219 49.6119C42.9219 47.2745 43.5813 45.6082 44.8885 44.6362C46.1957 43.641 47.8615 43.155 49.8744 43.155H50.2909V56.0573ZM78.9455 22.9975C78.8298 21.875 78.4943 20.6831 77.9391 19.4219C77.2334 17.8134 75.9956 16.3554 74.2372 15.0131C72.4788 13.6824 69.8413 13.0112 66.3476 13.0112H56.9311V37.2073H48.1854C44.6918 37.2073 42.0543 37.8669 40.2959 39.2092C38.5375 40.5399 37.2997 42.0095 36.594 43.6179C36.0156 44.8676 35.6801 46.0479 35.5876 47.1704C35.4719 48.2928 35.4141 49.0912 35.4141 49.6004C35.4141 52.7941 36.4089 55.6639 38.364 58.198C40.3074 60.7438 43.5813 61.9935 48.1739 61.9935H57.5905V37.809H66.3361C70.9171 37.809 74.1909 36.5361 76.146 33.9904C78.1126 31.4447 79.0959 28.5865 79.0959 25.4043C79.119 24.9183 79.0612 24.1199 78.9455 22.9975Z" fill="white"/>
</svg>
