<svg width="156" height="100" viewBox="0 0 156 100" fill="none" xmlns="http://www.w3.org/2000/svg">
<path d="M119.806 61.1119C119.704 61.191 119.602 61.2668 119.496 61.3404C119.561 61.3656 119.623 61.3942 119.688 61.4249C119.739 61.448 119.788 61.4732 119.839 61.4985C119.874 61.5149 119.909 61.5325 119.942 61.549C120.144 61.6533 120.333 61.7664 120.516 61.8938C120.158 62.12 119.789 62.3396 119.42 62.5516C119.39 62.5658 119.368 62.5801 119.339 62.5944C119.269 62.6372 119.196 62.6789 119.118 62.7184C119.007 62.7832 118.891 62.8458 118.775 62.9073C117.783 63.4432 116.758 63.9242 115.71 64.3448C114.361 64.8927 112.965 65.344 111.534 65.691C110.873 65.8546 110.202 65.993 109.523 66.1061C108.687 66.2533 107.843 66.363 106.988 66.4333C106.212 66.5036 105.427 66.541 104.635 66.5465C103.843 66.541 103.055 66.5036 102.279 66.4333C101.425 66.363 100.58 66.2522 99.7478 66.1061C99.0662 65.993 98.3941 65.8546 97.7345 65.691C96.3032 65.344 94.9064 64.8916 93.559 64.3448C92.5104 63.9242 91.486 63.4443 90.494 62.9073C90.3807 62.8447 90.2643 62.7832 90.1511 62.7184C90.0724 62.6789 90.0001 62.6361 89.9298 62.5944C89.9004 62.5801 89.8784 62.5658 89.849 62.5516C89.4799 62.3396 89.1109 62.12 88.7522 61.8938C88.9358 61.7664 89.1245 61.6533 89.3268 61.549C89.3594 61.5325 89.394 61.5149 89.4296 61.4985C89.481 61.4732 89.5292 61.448 89.5806 61.4249C89.6456 61.3942 89.7096 61.3656 89.7746 61.3404C89.6666 61.2668 89.5639 61.191 89.4621 61.1119C89.2786 60.9791 89.1035 60.844 88.9231 60.7023C88.9011 60.6859 88.8749 60.6661 88.8561 60.6485C88.8529 60.6452 88.8529 60.6452 88.8529 60.643C88.0958 60.0479 87.3702 59.4088 86.6802 58.729C86.9958 58.673 87.3219 58.6445 87.6533 58.6445H87.6858C87.4247 58.1416 87.173 57.631 86.9476 57.1083C86.3625 55.8037 85.8906 54.4398 85.5247 53.0255C85.9724 53.0705 86.4013 53.1639 86.8134 53.3077C86.654 52.1448 86.5764 50.9589 86.5764 49.751C86.5764 49.6016 86.5764 49.4512 86.5816 49.3018C86.6005 47.8172 86.7515 46.3633 87.0053 44.949C87.474 45.0511 87.9197 45.2114 88.337 45.4233C88.4471 44.9434 88.5719 44.4691 88.7061 44.0035C89.1885 42.3464 89.8218 40.7597 90.6009 39.2663C90.6093 39.2465 90.6198 39.2234 90.6282 39.2037C90.7635 38.9522 90.8977 38.704 91.0403 38.4581C91.0917 38.5064 91.1399 38.5514 91.186 38.6019C91.5205 38.9325 91.8194 39.3025 92.07 39.7033C92.1455 39.4068 92.2294 39.1158 92.3238 38.8248C92.6499 37.7553 93.041 36.7187 93.4961 35.7161C93.5768 35.5382 93.6607 35.3636 93.7446 35.1879C93.9952 34.663 94.551 33.6462 94.551 33.6462C94.9557 34.07 95.2976 34.5521 95.5723 35.0858C95.6394 35.2153 95.6992 35.3515 95.761 35.4866C96.0337 34.8969 96.3273 34.3182 96.645 33.7527C97.3025 32.57 98.0554 31.4489 98.8828 30.3991C99.0631 30.6 99.2308 30.8164 99.3735 31.0426C99.4081 31.0909 99.4406 31.1381 99.4731 31.1897C99.4763 31.1952 99.4815 31.204 99.4836 31.2095C99.5109 31.2578 99.5402 31.305 99.5696 31.3533C99.5884 31.3171 99.6073 31.2797 99.6231 31.2435C100.116 30.2926 100.669 29.3833 101.276 28.5158C101.569 28.0952 101.874 27.6889 102.195 27.2903C102.217 27.2651 102.236 27.2365 102.257 27.2113C102.355 27.3441 102.462 27.4737 102.573 27.5978C102.597 27.6263 102.624 27.6538 102.648 27.6824C102.657 27.6934 102.667 27.7054 102.676 27.7164L102.756 27.7988C102.821 27.4715 102.91 27.152 103.021 26.8478V26.8445C103.137 26.5228 103.28 26.212 103.446 25.9188C103.481 25.8507 103.519 25.7837 103.563 25.7157C103.646 25.5806 103.736 25.4444 103.83 25.317C104.067 24.9843 104.34 24.6758 104.638 24.4023C104.935 24.6758 105.21 24.9843 105.447 25.317C105.538 25.4444 105.63 25.5795 105.711 25.7157C105.754 25.7837 105.792 25.8507 105.828 25.9188C105.994 26.212 106.14 26.5228 106.256 26.8445V26.8478C106.364 27.1531 106.454 27.4715 106.518 27.7988L106.598 27.7164C106.609 27.7054 106.617 27.6934 106.628 27.6824C106.65 27.6538 106.679 27.6263 106.7 27.5978C106.813 27.4737 106.918 27.3441 107.016 27.2113C107.038 27.2365 107.057 27.2651 107.081 27.2903C107.402 27.6878 107.706 28.0952 107.997 28.5158C108.603 29.3822 109.157 30.2915 109.65 31.2435C109.665 31.2797 109.684 31.3171 109.703 31.3533C109.733 31.305 109.763 31.2578 109.792 31.2095C109.796 31.204 109.798 31.1952 109.801 31.1897C109.833 31.1392 109.866 31.0909 109.9 31.0426C110.046 30.8164 110.213 30.5989 110.391 30.3991C111.218 31.4489 111.971 32.57 112.629 33.7527C112.946 34.3171 113.241 34.8958 113.516 35.4866C113.576 35.3515 113.638 35.2153 113.705 35.0858C113.977 34.5521 114.319 34.0689 114.724 33.6462C114.724 33.6462 115.28 34.663 115.53 35.1879C115.614 35.3625 115.697 35.5382 115.779 35.7161C116.234 36.7187 116.625 37.7542 116.954 38.8248C117.045 39.1158 117.129 39.4068 117.208 39.7033C117.457 39.3025 117.755 38.9325 118.09 38.6019C118.138 38.5514 118.187 38.5064 118.238 38.4581C118.378 38.704 118.513 38.9522 118.648 39.2037C118.658 39.2234 118.667 39.2465 118.677 39.2663C119.453 40.7597 120.09 42.3464 120.57 44.0035C120.705 44.4691 120.831 44.9434 120.939 45.4233C121.357 45.2114 121.802 45.0511 122.271 44.949C122.524 46.3633 122.675 47.8172 122.694 49.3018C122.703 49.4512 122.703 49.6016 122.703 49.751C122.703 50.9589 122.622 52.1448 122.466 53.3077C122.876 53.1639 123.305 53.0705 123.751 53.0255C123.384 54.4398 122.912 55.8037 122.33 57.1083C122.101 57.631 121.85 58.1416 121.592 58.6445H121.625C121.954 58.6445 122.282 58.673 122.596 58.729C121.906 59.4099 121.18 60.0479 120.423 60.643C120.423 60.6463 120.423 60.6463 120.42 60.6485C120.401 60.665 120.377 60.6848 120.353 60.7023C120.167 60.8429 119.99 60.9791 119.806 61.1119Z" fill="white"/>
<path d="M104.632 66.5463C104.632 66.5463 103.284 44.7368 104.631 33.4033" stroke="#09090A" stroke-width="1.15712" stroke-miterlimit="10"/>
<path d="M104.322 60.1947C104.322 60.1947 116.847 56.9883 118.465 54.4824" stroke="#09090A" stroke-width="0.867837" stroke-miterlimit="10"/>
<path d="M104.331 59.3408C104.331 59.3408 91.8057 56.1343 90.1877 53.6284" stroke="#09090A" stroke-width="0.867837" stroke-miterlimit="10"/>
<path d="M104.064 51.131C104.064 51.131 111.521 50.6358 113.745 48.165" stroke="#09090A" stroke-width="0.867837" stroke-miterlimit="10"/>
<path d="M104.064 50.1256C104.064 50.1256 96.6069 49.6304 94.3828 47.1597" stroke="#09090A" stroke-width="0.867837" stroke-miterlimit="10"/>
<path d="M104.082 42.3757C104.082 42.3757 108.488 41.9618 109.971 39.1001" stroke="#09090A" stroke-width="0.867837" stroke-miterlimit="10"/>
<path d="M104.033 41.2571C104.033 41.2571 99.627 40.8431 98.1443 37.9814" stroke="#09090A" stroke-width="0.867837" stroke-miterlimit="10"/>
<path d="M132.649 38.4194H135.879V47.2733H139.11V38.4194H142.339V64.9821H139.11V50.8155H135.879V64.9821H132.649V38.4194Z" fill="white"/>
<path d="M145.799 38.4194H149.029V47.2733H152.26V38.4194H155.489V64.9821H152.26V50.8155H149.029V64.9821H145.799V38.4194Z" fill="white"/>
<path d="M8.83177 48.4369C10.1006 46.103 10.6773 43.1138 10.6773 40.228V38.4575H0.988281V65.0271H10.6773V63.2565C10.6773 60.3823 10.1006 57.0022 8.90518 54.2889C8.38088 53.1162 7.68881 51.955 6.80799 51.0352C7.62589 50.3224 8.29699 49.4372 8.83177 48.4369ZM7.36377 61.486H4.21798V53.2542C4.84714 53.7715 5.45533 54.6223 5.99011 55.841C6.72413 57.4851 7.18551 59.52 7.36377 61.486ZM6.05303 46.6319C5.53921 47.5861 4.93103 48.2759 4.21798 48.6783H4.20748V41.9986H7.35328C7.17502 43.7691 6.72413 45.3902 6.05303 46.6319Z" fill="white"/>
<path d="M17.3677 41.9976V47.3207H17.3782V41.9976H17.3677Z" fill="white"/>
<path d="M33.7462 38.376V47.2287H30.5166V38.376H27.2869V64.9456H30.5166V50.7698H33.7462V64.9456H36.9759V38.376H33.7462Z" fill="white"/>
<path d="M46.8962 38.457V44.8149L43.6665 48.3559V38.457H40.4368V65.0266H43.6665V53.3572L46.8962 49.8161V65.0266H50.1258V38.457H46.8962Z" fill="white"/>
<path d="M61.8072 48.4134C63.0445 46.045 63.464 43.0443 63.464 40.2275V38.457H60.2343V40.2275C60.2343 42.7339 59.8463 45.0448 58.9969 46.6544C58.4726 47.6661 57.7805 48.4134 56.8158 48.8043V38.457H53.5862V65.0266H56.8158V53.0467C57.6757 53.5411 58.3783 54.4724 58.9445 55.806C59.8463 57.933 60.2343 60.7497 60.2343 63.2561V65.0266H63.464V63.2561C63.464 60.4508 63.0445 57.0707 61.8806 54.3114C61.3563 53.0927 60.6642 51.943 59.7624 51.0347C60.5908 50.3334 61.2724 49.4367 61.8072 48.4134Z" fill="white"/>
<path d="M73.3944 38.457V44.8149L70.1648 48.3559V38.457H66.9351V65.0266H70.1648V53.3572L73.3944 49.8161V65.0266H76.6241V38.457H73.3944Z" fill="white"/>
<path d="M17.3782 41.9976H17.3677V47.3207H17.3782V41.9976Z" fill="white"/>
<path d="M20.5975 41.9981H17.3678V47.3212H20.5975V50.8623H17.3678V61.4855H20.5975V56.1739H23.8272V65.0266H14.1382V48.9423C14.1382 48.5974 14.1381 48.2065 14.1486 47.7926V38.457H23.8272V45.5392H20.5975V41.9981Z" fill="white"/>
<path d="M17.3782 41.9976H17.3677V47.3207H17.3782V41.9976Z" fill="white"/>
</svg>
