<svg width="166" height="40" viewBox="0 0 166 40" fill="none" xmlns="http://www.w3.org/2000/svg">
<path d="M65.6711 17.9901H57.9086L56.8582 20.8935H53.0515L60.0115 3.36426H63.6165L70.5744 20.8871H66.7698L65.6711 17.9901ZM59.2111 14.6855H64.4106L61.8077 7.67723L59.2111 14.6855Z" fill="white"/>
<path d="M87.0998 10.5299C86.3456 8.12657 84.5431 6.72533 82.0894 6.72533C79.0369 6.72533 76.934 9.07824 76.934 12.1874C76.934 15.0908 78.9865 17.5928 82.0894 17.5928C84.5431 17.5928 86.3456 16.1916 87.0956 13.7379L90.6019 14.7883C89.5515 18.4437 86.0956 20.9457 82.0894 20.9457C77.2344 20.9457 73.1777 17.1916 73.1777 12.1853C73.1777 7.27784 77.0327 3.42285 82.0894 3.42285C85.9444 3.42285 89.4002 5.52367 90.5515 9.43118L87.0998 10.5299Z" fill="white"/>
<path d="M98.8117 3.36426V12.9272C98.808 13.4852 98.8786 14.0412 99.0218 14.5805C99.4734 16.2317 100.675 17.5343 102.728 17.5343C104.78 17.5343 105.982 16.2317 106.431 14.5805C106.582 14.0426 106.652 13.4856 106.641 12.9272V3.36426H110.295V12.8767C110.283 13.6347 110.193 14.3894 110.026 15.1288C109.225 18.5321 106.522 20.9355 102.717 20.9355C98.9125 20.9355 96.2046 18.5321 95.4062 15.1288C95.2439 14.3883 95.1601 13.6327 95.1562 12.8746V3.36426H98.8117Z" fill="white"/>
<path d="M119.589 3.36426V17.5343H128.251V20.9376H115.934V3.42098H119.589V3.36426Z" fill="white"/>
<path d="M136.71 3.36426V17.5343H145.372V20.9376H133.057V3.42098H136.71V3.36426Z" fill="white"/>
<path d="M161.092 17.9901H153.332L152.282 20.8935H148.477L155.435 3.36426H159.04L166 20.8871H162.193L161.092 17.9901ZM154.635 14.6855H159.84L157.237 7.67723L154.635 14.6855Z" fill="white"/>
<path d="M61.47 31.2083C61.0184 29.7546 59.968 28.8975 58.4659 28.8975C56.613 28.8975 55.3609 30.3008 55.3609 32.1516C55.3609 33.9037 56.6214 35.4058 58.4659 35.4058C59.9175 35.4058 61.0184 34.5655 61.47 33.0949L63.5708 33.7461C62.9196 35.9499 60.8671 37.4499 58.4638 37.4499C55.5604 37.4499 53.1067 35.1978 53.1067 32.1978C53.1067 29.2441 55.4176 26.9458 58.4638 26.9458C60.7747 26.9458 62.8188 28.2063 63.5708 30.5508L61.47 31.2083Z" fill="white"/>
<path d="M71.9273 35.7165H67.2698L66.6185 37.4706H64.3076L68.463 26.9561H70.6164L74.7718 37.4706H72.4609L71.9273 35.7165ZM68.0723 33.7144H71.2235L69.671 29.5127L68.0723 33.7144Z" fill="white"/>
<path d="M85.8935 26.9521V37.4667H83.6918V32.7105H78.986V37.4667H76.7822V26.9521H78.986V30.7063H83.6918V26.9521H85.8935Z" fill="white"/>
<path d="M97.3097 26.9521V29.0046H93.856V37.4667H91.6522V29.0046H88.1985V26.9521H97.3097Z" fill="white"/>
<path d="M107.072 26.9521V28.9542H101.866V30.7063H105.82V32.7105H101.866V35.4625H107.072V37.4667H99.6624V26.9521H107.072Z" fill="white"/>
<path d="M112.78 31.908L109.175 26.9521H111.889L114.043 30.1034L116.194 26.9521H118.898L115.293 31.908L119.299 37.4667H116.585L113.99 33.66L111.387 37.4667H108.675L112.78 31.908Z" fill="white"/>
<path d="M130.452 26.9521V37.4667H128.25V32.7105H123.545V37.4667H121.343V26.9521H123.547V30.7063H128.253V26.9521H130.452Z" fill="white"/>
<path d="M140.616 37.4667V30.8071L134.509 37.4667H133.317V26.9521H135.519V33.6159L141.628 26.9563H142.83V37.4709L140.616 37.4667Z" fill="white"/>
<path d="M153.733 26.9521L149.928 31.5571L154.584 37.515H151.88L147.924 32.3092V37.515H145.723V27.011H147.924V31.0151L151.13 27.011H153.733V26.9521Z" fill="white"/>
<path d="M163.044 35.7165H158.389L157.737 37.4706H155.427L159.582 26.9561H161.735L165.891 37.4706H163.58L163.044 35.7165ZM159.141 33.7144H162.292L160.739 29.5127L159.141 33.7144Z" fill="white"/>
<path d="M35.5794 12.5468V31.4814C35.5794 32.5738 35.3642 33.6555 34.9461 34.6647C34.528 35.6739 33.9152 36.5909 33.1426 37.3632C32.3701 38.1356 31.453 38.7482 30.4436 39.166C29.4343 39.5839 28.3526 39.7988 27.2602 39.7985H8.31923C6.28185 39.7987 4.31523 39.0513 2.79228 37.698C1.26934 36.3446 0.295959 34.4795 0.056722 32.4562C0.0188039 32.1326 -0.00013511 31.8072 7.25483e-07 31.4814V12.5468C7.25483e-07 10.3404 0.876487 8.22434 2.43664 6.66418C3.9968 5.10403 6.11283 4.22754 8.31923 4.22754H27.2518C27.4829 4.22754 27.7118 4.22754 27.9366 4.25485C29.334 4.36746 30.68 4.83297 31.8483 5.60778C32.9949 6.36456 33.9356 7.39415 34.586 8.60415C35.2365 9.81415 35.5764 11.1667 35.5752 12.5405L35.5794 12.5468Z" fill="#414141"/>
<path d="M46.7409 0.683594C42.0267 1.86845 37.9553 5.39152 35.2705 10.2927C33.1297 14.2002 31.8693 18.9817 31.8693 24.1581C31.8476 28.2184 32.6651 32.2394 34.2705 35.9689C33.5187 37.1463 32.4823 38.1152 31.2569 38.786C30.0316 39.4569 28.657 39.808 27.2601 39.8071H8.31912C6.76402 39.8092 5.23992 39.3722 3.92212 38.5466C5.45466 34.7842 7.28101 31.1484 9.38424 27.6728C9.64684 27.2526 9.90944 26.8177 10.1783 26.3955C10.4472 25.9732 10.7183 25.5551 10.9935 25.135C11.1839 24.8479 11.3765 24.5621 11.5712 24.2778C11.9479 23.7316 12.331 23.1924 12.7203 22.6602C13.1097 22.1308 13.5046 21.607 13.9052 21.0888C14.1153 20.8283 14.3127 20.5699 14.5165 20.3136C14.9227 19.8052 15.3351 19.3052 15.7539 18.8136C16.8015 17.5811 17.8862 16.4005 19.0081 15.2716C19.2336 15.0476 19.459 14.8235 19.6845 14.5994C20.4814 13.8235 21.2931 13.0756 22.1194 12.3557L22.8252 11.7507C22.9807 11.6204 23.1362 11.4902 23.2937 11.362C23.6173 11.0952 23.9429 10.8347 24.2706 10.5763C25.0899 9.93348 25.9232 9.31654 26.7706 8.72551C27.0521 8.52803 27.3357 8.33686 27.6235 8.14569C27.7958 8.03225 27.9659 7.9167 28.1403 7.80746C29.349 7.02175 30.5815 6.29347 31.8377 5.62261C33.7674 4.59457 35.765 3.69964 37.8167 2.94407C38.3734 2.73399 38.9322 2.54912 39.4973 2.36845C39.8734 2.2466 40.2515 2.13106 40.6275 2.01971C41.0561 1.89507 41.4854 1.77602 41.9153 1.66257C42.6338 1.4749 43.3572 1.30544 44.0855 1.15418C44.5225 1.06385 44.9615 0.981913 45.4027 0.904183C45.8439 0.826453 46.2955 0.746618 46.7409 0.683594Z" fill="#969696"/>
<path d="M46.7645 0.677159H46.7435C45.8527 0.803208 44.9725 0.958671 44.0964 1.13934C43.3696 1.2878 42.6462 1.45726 41.9263 1.64773C41.4956 1.75908 41.065 1.87883 40.6385 2.00488C37.5921 2.89933 34.6465 4.10673 31.8487 5.60777C30.4117 6.37387 29.0112 7.21419 27.6471 8.12875C26.5042 8.88924 25.3838 9.69946 24.2858 10.5594C23.958 10.8157 23.6324 11.0776 23.3089 11.3451C23.1513 11.4732 22.9959 11.6035 22.8404 11.7337C22.6051 11.9333 22.3677 12.135 22.1345 12.3388C21.3068 13.0601 20.4952 13.8079 19.6997 14.5824C19.4728 14.8051 19.2473 15.0292 19.0232 15.2547C17.9028 16.3751 16.8181 17.5558 15.7691 18.7967C15.3489 19.2883 14.9364 19.7883 14.5317 20.2967C14.3216 20.553 14.122 20.8114 13.9203 21.0719C13.5198 21.5887 13.1248 22.1125 12.7355 22.6433C12.3475 23.1741 11.9645 23.7133 11.5863 24.2609C11.3931 24.541 11.2005 24.8267 11.0086 25.118C10.4582 25.9444 9.92179 26.7847 9.39939 27.639C7.29617 31.1147 5.46982 34.7505 3.93728 38.5128C2.87693 37.8527 1.97886 36.9622 1.30968 35.9075C0.640502 34.8528 0.217404 33.661 0.0717773 32.4205C6.69985 19.4605 16.4581 9.44806 27.9517 4.21914C33.6738 1.58682 39.8945 0.21415 46.1931 0.193975H46.7183C46.7823 0.187846 46.8462 0.207419 46.8959 0.248393C46.9455 0.289366 46.9768 0.348386 46.983 0.412461C46.9891 0.476536 46.9695 0.540416 46.9285 0.590057C46.8876 0.639698 46.8285 0.67103 46.7645 0.677159Z" fill="#AAAAAA"/>
</svg>
