<svg width="100" height="100" viewBox="0 0 100 100" fill="none" xmlns="http://www.w3.org/2000/svg">
<path d="M3.16901 40.7588C3.16901 39.94 3.92929 39.3406 4.71881 39.516L13.1112 41.3582C13.696 41.4898 14.12 42.0015 14.12 42.601V57.2949C14.12 57.8944 13.7106 58.4061 13.1258 58.5377L4.73343 60.4822C3.92929 60.6723 3.16901 60.0582 3.16901 59.2395V40.7588Z" fill="white"/>
<path d="M7.80377 39.2971C7.80377 38.4783 8.56406 37.8642 9.3682 38.0543L18.8132 40.2035C19.3981 40.3351 19.8075 40.8469 19.8075 41.4463V58.4357C19.8075 59.0205 19.3981 59.5469 18.8279 59.6785L9.38282 61.9447C8.57868 62.1348 7.80377 61.5353 7.80377 60.7019V39.2971Z" fill="white"/>
<path fill-rule="evenodd" clip-rule="evenodd" d="M7.80377 59.7809V40.189L13.1111 41.3586C13.696 41.4902 14.12 42.0019 14.12 42.6014V57.2953C14.12 57.8948 13.7106 58.4065 13.1257 58.5381L7.80377 59.7809Z" fill="#09090A"/>
<path d="M33.1704 46.1488C35.2466 46.2512 36.9426 47.4501 36.9426 49.3069C36.9426 51.1784 35.2466 52.3188 33.1704 52.465V53.2838H31.5183V52.465C29.5298 52.4212 27.7461 51.1492 27.7461 49.3069C27.7461 47.4355 29.4421 46.3097 31.5183 46.1488V45.3301H33.1704V46.1488ZM31.5183 47.6694C30.3925 47.7571 29.4129 48.3127 29.4129 49.3069C29.4129 50.3012 30.3486 50.8567 31.5183 50.9445V47.6694ZM33.1704 50.9591C34.3108 50.8714 35.2904 50.3158 35.2904 49.3216C35.2904 48.342 34.3547 47.7717 33.1704 47.684V50.9591Z" fill="white"/>
<path d="M44.8681 51.9528H41.3591L40.8766 53.2687H39.1514L42.2948 45.3442H43.9324L47.0758 53.2687H45.3506L44.8681 51.9528ZM41.9293 50.4615H44.2979L43.1282 47.2888L41.9293 50.4615Z" fill="white"/>
<path d="M55.6871 48.5749C55.3509 47.493 54.5321 46.8497 53.4209 46.8497C52.0319 46.8497 51.0816 47.917 51.0816 49.306C51.0816 50.6218 52.0173 51.7623 53.4209 51.7623C54.5321 51.7623 55.3508 51.1189 55.7017 50.0078L57.2808 50.4902C56.7983 52.157 55.2485 53.2682 53.4355 53.2682C51.2278 53.2682 49.3856 51.5722 49.3856 49.306C49.3856 47.0836 51.1401 45.3291 53.4355 45.3291C55.19 45.3291 56.7398 46.2941 57.2662 48.0632L55.6871 48.5749Z" fill="white"/>
<path d="M60.5548 53.2833V45.3442H66.14V46.8794H62.207V53.2833H60.5548Z" fill="white"/>
<path d="M69.5037 53.2839V45.3594H73.3929C74.0654 45.3594 74.5333 45.491 74.9134 45.7249C75.5567 46.1197 75.9661 46.8215 75.9661 47.7279C75.9661 48.5906 75.5567 49.307 74.8988 49.7164C74.5187 49.9503 74.0654 50.0819 73.3929 50.0819H71.1559V53.2692H69.5037V53.2839ZM73.1735 48.5613C73.4952 48.5613 73.6414 48.5321 73.773 48.4882C74.08 48.3566 74.3286 48.1081 74.3286 47.7279C74.3286 47.3624 74.0947 47.0846 73.773 46.9677C73.6414 46.9092 73.4952 46.8799 73.1589 46.8799H71.1559V48.5613H73.1735Z" fill="white"/>
<path d="M83.4664 51.9528H79.9574L79.4749 53.2687H77.7496L80.8931 45.3442H82.5306L85.6741 53.2687H83.9489L83.4664 51.9528ZM80.5276 50.4615H82.8962L81.7265 47.2888L80.5276 50.4615Z" fill="white"/>
<path d="M95.748 51.7482H96.83V54.9209H95.1778V53.2833H89.8851V54.9209H88.2183V51.7482H89.154C89.5927 50.9294 89.8266 50.0229 89.9582 49.0725C90.1336 47.8444 90.1336 46.5431 90.1629 45.3442H95.748V51.7482ZM91.7858 46.8794C91.7858 47.6543 91.7419 48.4292 91.6103 49.248C91.4788 50.0521 91.2741 50.8855 90.9232 51.7482H94.0813V46.8794H91.7858Z" fill="white"/>
</svg>
