<svg width="101" height="100" viewBox="0 0 101 100" fill="none" xmlns="http://www.w3.org/2000/svg">
<path d="M54.7553 56.7637C54.5702 56.7637 54.1537 56.7637 53.8761 56.3703H53.8529C53.7951 56.3356 53.7604 56.3124 53.7026 56.3009C53.5753 56.2314 53.4943 56.0926 53.4828 55.9653V55.8727C53.4596 55.757 53.4596 55.6529 53.4596 55.5371C53.4596 52.2508 53.4596 48.9761 53.4596 45.6782C53.4596 44.8798 53.7951 44.5211 54.6049 44.5211H61.7078C62.4366 44.5211 62.8068 44.8913 62.8068 45.6088V45.8518C63.015 45.6435 63.2233 45.4352 63.4199 45.2501L63.4546 45.2153L63.4893 45.1806L64.785 43.9656L64.8428 43.9309L64.9585 43.8615C65.0163 43.8268 65.051 43.8036 65.0857 43.7689C65.9649 43.1093 66.9598 42.7043 67.9778 42.5539C68.4637 42.496 68.9727 42.4613 69.4933 42.4613C70.2452 42.4613 71.0666 42.5308 71.9804 42.6696C72.3969 42.7275 72.7787 42.7853 73.1951 42.8432C73.9586 42.9589 74.78 43.063 75.5666 43.2019C75.9831 43.2598 76.3648 43.4218 76.7119 43.63C77.4985 44.1739 77.8918 44.9261 77.8918 45.8749L78.5859 45.5741C79.1296 45.3542 79.6734 45.1112 80.2286 44.8798L80.7839 44.6368C82.3688 43.9656 83.9652 43.2945 85.55 42.6349L86.8804 42.0332L87.0655 41.9753C87.158 41.9406 87.2506 41.9059 87.3663 41.8596C87.6092 41.7439 87.8868 41.686 88.1645 41.686C88.8701 41.686 89.5295 42.0448 89.8419 42.6233C90.3624 43.5375 90.1426 44.6483 89.2866 45.2616C88.257 46.0138 87.2274 46.7544 86.1863 47.5297C84.9138 48.4438 83.6413 49.358 82.3919 50.2952C81.1772 51.1747 79.7543 52.2161 78.3777 53.2691C77.5332 53.9287 76.5268 54.218 75.289 54.218C75.2196 54.218 75.1155 54.218 75.046 54.218C72.9175 54.1601 70.7889 54.0907 68.6488 54.0444C68.3711 54.0213 68.0935 54.0213 67.7927 54.0097C67.249 53.9866 66.6937 53.975 66.15 53.975C65.7914 53.975 65.4559 53.975 65.1552 53.9981C64.5999 54.0328 64.033 54.1486 63.4546 54.2759C63.2348 54.3337 63.0035 54.3684 62.7952 54.4263C62.7952 54.8891 62.7952 55.3404 62.7952 55.7917C62.7721 56.3934 62.4019 56.7869 61.8235 56.7869C60.7592 56.7869 59.6949 56.7869 58.6306 56.7869H55.137C55.0329 56.7637 54.7553 56.7637 54.7553 56.7637Z" fill="white"/>
<path d="M60.909 54.8197V53.1187C60.909 50.8738 60.909 48.6521 60.9321 46.4072C59.6365 46.4072 58.3755 46.4072 57.0799 46.4072H55.414V54.8197H60.909Z" fill="#FEFEFE"/>
<path d="M76.9303 61.4613C76.4098 61.4381 75.9586 61.0101 75.9586 60.4664C75.9586 60.2235 76.0511 59.9574 76.2594 59.7607C76.4445 59.5756 76.7105 59.46 76.9535 59.46C77.2195 59.46 77.4625 59.5756 77.6476 59.7607C77.8558 59.9458 77.9599 60.2119 77.9599 60.4664C77.9368 61.0217 77.5087 61.4613 76.9535 61.4613H76.9303Z" fill="#FEFEFE"/>
<path d="M76.9418 61.2763C76.4906 61.2763 76.1204 60.9177 76.1204 60.4781C76.1204 60.0501 76.5137 59.6567 76.9418 59.6567C77.3929 59.6336 77.7631 60.0269 77.7631 60.4781C77.7631 60.9408 77.4161 61.2763 76.9418 61.2763Z" fill="#FEFEFE"/>
<path d="M91.4141 61.4613C90.8588 61.4381 90.4192 61.0101 90.4192 60.4664C90.4192 60.2003 90.5349 59.9458 90.72 59.7607C90.9051 59.5756 91.1712 59.46 91.4141 59.46C91.6802 59.46 91.9347 59.5756 92.1198 59.7607C92.3049 59.9458 92.4206 60.2119 92.4206 60.4664C92.4206 61.0101 91.9694 61.4613 91.4141 61.4613Z" fill="#FEFEFE"/>
<path d="M91.4142 61.276C90.963 61.276 90.616 60.9174 90.616 60.4778C90.5929 60.0266 90.9862 59.6564 91.4142 59.6333C91.8654 59.6333 92.2587 60.0266 92.2587 60.4778C92.2356 60.9174 91.8654 61.276 91.4142 61.276Z" fill="#FEFEFE"/>
<path d="M84.1961 45.3195C83.5598 45.3195 82.9004 45.4352 82.2873 45.6203C79.7076 46.4419 77.9839 48.7215 77.9145 51.4524C77.8914 52.1235 77.8914 52.8178 77.8914 53.4889C77.8914 53.7898 77.8914 54.0907 77.8914 54.4031C77.8914 54.5188 77.8914 54.6461 77.9145 54.6808C77.9145 54.6577 78.0417 54.6577 78.1574 54.6577H87.0766C88.1409 54.6577 89.2051 54.6577 90.2694 54.6808C90.3967 54.6808 90.4429 54.6461 90.4429 54.6461C90.4429 54.6461 90.4776 54.6114 90.4776 54.4957C90.4545 53.9518 90.4545 53.408 90.4545 52.8641C90.4545 52.4359 90.4545 52.0194 90.4545 51.5912C90.4545 50.5498 90.2116 49.5662 89.7488 48.6983C88.6499 46.6155 86.5213 45.3195 84.1961 45.3195ZM76.9428 59.8186C76.7924 59.8186 76.6304 59.888 76.4916 60.0269C76.3643 60.1426 76.3065 60.3046 76.3065 60.4781C76.3065 60.8369 76.5841 61.1146 76.9428 61.1146C77.3129 61.1146 77.6021 60.8369 77.6021 60.4781C77.6021 60.3046 77.5327 60.1426 77.3939 60.0153C77.2667 59.888 77.1163 59.8186 76.9428 59.8186ZM91.4147 59.8186C91.2643 59.8186 91.1023 59.888 90.9635 60.0037C90.8478 60.131 90.7784 60.3046 90.7784 60.4666C90.7784 60.8253 91.0561 61.103 91.4147 61.103C91.7733 61.103 92.0741 60.8253 92.0741 60.4666C92.0741 60.293 92.0047 60.131 91.8658 60.0037C91.7502 59.888 91.5882 59.8186 91.4147 59.8186V59.6334V59.8186ZM70.1059 82.6492C70.129 82.6492 70.129 82.6839 70.129 82.7186C70.0596 84.0262 70.0018 85.3338 69.9208 86.6298C69.9208 86.7455 69.9208 86.8496 69.9208 86.8959C69.944 86.8728 70.0712 86.8728 70.1406 86.8728H98.1821C98.3094 86.8728 98.4482 86.8728 98.4829 86.8496C98.4598 86.8496 98.4598 86.7224 98.4482 86.6066C98.3903 85.5189 98.1358 79.953 98.1358 79.953C98.0664 78.5181 97.9855 77.0601 97.916 75.6137C97.8582 74.6417 97.8004 73.6697 97.7657 72.6977C97.6962 71.5058 97.6153 70.2908 97.5574 69.0642C97.4996 67.9186 97.4417 66.7615 97.3839 65.6043C97.3492 64.5745 97.2914 63.533 97.2567 62.5032C97.1988 61.589 97.141 60.6749 97.1063 59.7723C97.0484 59.0201 97.0137 58.2796 96.979 57.5274C96.9559 57.2844 96.979 57.0414 96.979 56.7984C96.979 56.7405 96.979 56.6827 96.979 56.6248H92.3748V56.8447C92.3748 57.2381 92.3748 57.6431 92.398 58.0366C92.4211 58.0366 92.4558 58.0713 92.5831 58.1523C93.5548 58.673 94.0175 59.4946 94.006 60.5823C93.9713 61.9246 92.8144 63.0123 91.4262 63.0123C91.3568 63.0123 91.2759 63.0123 91.218 63.0123C89.8761 62.8966 88.7887 61.6816 88.8581 60.3624C88.9159 59.3673 89.3787 58.6267 90.2463 58.1986C90.4314 58.0828 90.4892 58.0134 90.4892 57.8051C90.4545 57.4348 90.4661 57.053 90.4661 56.7174C90.4892 56.6248 90.4661 56.6017 90.4661 56.6017C90.4661 56.6017 90.4314 56.5785 90.3735 56.5785C90.0612 56.6017 89.7604 56.6017 89.4596 56.6017H88.3144H84.0572C82.0791 56.6017 80.0778 56.6017 78.088 56.5785C77.9376 56.5785 77.9029 56.6133 77.9029 56.6133C77.9029 56.6133 77.8798 56.6364 77.9029 56.7637C77.9261 57.0993 77.9261 57.458 77.9029 57.8283C77.8798 58.0018 77.9376 58.0713 78.1112 58.1407C79.0829 58.6498 79.5688 59.4714 79.5341 60.536C79.4762 61.9246 78.3425 63.0007 76.9312 63.0007C76.8733 63.0007 76.8039 63.0007 76.723 63.0007C76.0636 62.9429 75.4504 62.6305 74.9993 62.0982C74.5481 61.5774 74.3283 60.9179 74.3862 60.2699C74.4556 59.321 74.9299 58.592 75.7744 58.1754C75.9595 58.0597 76.0173 57.9903 76.0173 57.782C75.9826 57.5043 75.9942 57.2266 75.9942 56.9373V56.6364C75.9942 56.5785 75.9942 56.567 75.9942 56.567C75.115 56.5901 74.2358 56.5901 73.3797 56.5901H71.4363L70.1869 81.4805L70.1637 81.573L70.1406 81.9433C70.1637 82.0359 70.1637 82.1516 70.1637 82.2442C70.1637 82.2789 70.1637 82.3136 70.1637 82.3599C70.1637 82.3946 70.1406 82.4293 70.129 82.4525L70.1059 82.6492ZM68.9259 88.7821C68.6252 88.7589 68.3707 88.6664 68.1971 88.4812C68.0236 88.3077 67.9542 88.0647 67.9542 87.7754C67.9889 87.0695 68.0236 86.3521 68.0699 85.6462L68.1277 84.3502L68.1046 84.2808L68.3128 80.5779C68.3128 80.5779 68.3128 80.5547 68.3128 80.52L68.3707 79.1314C68.4401 77.523 68.5442 75.9146 68.6136 74.3293C68.683 72.9291 68.764 71.5289 68.8334 70.1172L68.9606 67.5136C69.0763 65.1762 69.2036 62.8387 69.3193 60.5013C69.3887 58.916 69.4696 57.3423 69.5391 55.757C69.5738 55.028 69.9324 54.6924 70.6612 54.6692H75.7281C75.8438 54.6692 75.971 54.6692 76.0057 54.6692C75.9826 54.6461 75.9826 54.542 75.9826 54.4262C75.9826 54.1138 75.9826 53.813 75.9826 53.4889C75.9826 52.8178 75.9595 52.1004 76.0057 51.4176C76.1214 48.2239 77.6369 45.8055 80.5058 44.2896C81.5932 43.6879 82.7847 43.4102 84.0572 43.4102C84.4737 43.4102 84.9017 43.4333 85.3298 43.5027C88.002 43.8962 90.0612 45.3195 91.4031 47.7495C92.0394 48.8719 92.3517 50.1216 92.3517 51.4755C92.3517 51.8111 92.3517 52.1698 92.3517 52.5054C92.3517 53.1765 92.3517 53.8477 92.3517 54.5304C92.3517 54.6461 92.3748 54.6577 92.3748 54.6577C92.3748 54.6577 92.398 54.6924 92.5252 54.6924C93.2772 54.6692 94.006 54.6692 94.7348 54.6692H97.6153C98.4598 54.6692 98.7952 55.0048 98.8299 55.8611C98.8993 57.3191 98.9803 58.8003 99.0497 60.2583L99.1654 62.6304L99.4084 67.2706L99.767 74.2483L99.9868 78.9C99.9868 78.9 100.264 84.5238 100.322 85.8545C100.357 86.4909 100.392 87.1274 100.392 87.7638C100.415 88.0762 100.322 88.3192 100.149 88.4928C99.9752 88.6779 99.6976 88.7705 99.3621 88.7705C95.3942 88.7705 91.4494 88.7705 87.5046 88.7705H68.9259V88.7821Z" fill="white"/>
<path d="M98.1819 87.0579C93.624 87.0579 89.0429 87.0579 84.4734 87.0579C79.6842 87.0579 74.918 87.0579 70.1403 87.0579C69.7239 87.0579 69.7239 87.0347 69.747 86.6297C69.8049 85.3221 69.8743 84.0261 69.9321 82.7186V82.6491L69.9553 82.383H69.9784C69.9784 82.2557 70.0131 82.1053 69.9784 81.9895L70.0015 81.5035H70.0247C70.4411 73.1489 70.8691 64.8058 71.274 56.4281C72.8589 56.4281 74.4322 56.4281 75.9823 56.4281C76.1674 56.4281 76.1906 56.5206 76.1906 56.6711C76.1906 57.0413 76.1674 57.4232 76.1906 57.7935C76.2137 58.0944 76.098 58.2216 75.8551 58.3489C75.0569 58.7655 74.6404 59.4367 74.5594 60.3161C74.4669 61.589 75.4965 62.7461 76.7458 62.8387C78.134 62.9544 79.2909 61.9245 79.3487 60.5591C79.3834 59.5639 78.9207 58.7771 78.0183 58.3374C77.7985 58.2216 77.706 58.0944 77.7176 57.8514C77.7407 57.4926 77.7407 57.1455 77.7176 56.8099C77.6944 56.5091 77.787 56.4396 78.0878 56.4396C81.4888 56.4396 84.913 56.4396 88.3141 56.4396C89.0082 56.4396 89.6792 56.4628 90.3501 56.4396C90.5931 56.4396 90.6509 56.5091 90.6509 56.7405C90.6278 57.0992 90.6278 57.4464 90.6509 57.8051C90.674 58.0828 90.5815 58.2332 90.3154 58.3605C89.4941 58.7771 89.0776 59.4829 89.0198 60.3855C88.9619 61.5658 89.899 62.7461 91.2062 62.8503C92.5481 62.966 93.7859 61.9361 93.809 60.5822C93.8438 59.5755 93.3926 58.8002 92.5018 58.3142C92.3861 58.2564 92.2242 58.1638 92.2242 58.0712C92.1895 57.5274 92.2011 56.9835 92.2011 56.4396C93.8669 56.4396 95.4749 56.4396 97.1407 56.4396C97.1407 56.8099 97.1407 57.1686 97.1638 57.5042C97.2333 59.1705 97.3489 60.8368 97.4299 62.48C97.5456 64.667 97.6381 66.8771 97.7307 69.0642C97.8464 71.228 97.9736 73.4266 98.1009 75.5905C98.1934 77.5692 98.286 79.5364 98.3785 81.5035C98.4711 83.2046 98.552 84.8824 98.6446 86.5719C98.6446 87.0579 98.6446 87.0579 98.1819 87.0579ZM76.9425 59.6449C77.3937 59.6218 77.7638 60.0152 77.7638 60.4665C77.7638 60.9294 77.4052 61.265 76.9425 61.265C76.4913 61.265 76.1211 60.9062 76.1211 60.4665C76.1211 60.0384 76.5145 59.6449 76.9425 59.6449ZM77.7291 51.4407C77.8217 48.652 79.6032 46.303 82.2292 45.4583C85.2369 44.5094 88.4182 45.8286 89.899 48.6404C90.408 49.5546 90.6278 50.5613 90.6509 51.6143C90.6509 52.5632 90.6278 53.5352 90.6509 54.5072C90.6509 54.7849 90.5584 54.8659 90.2807 54.8659C88.2563 54.8659 86.2203 54.8659 84.2074 54.8659C82.1829 54.8659 80.1932 54.8659 78.1687 54.8659C77.7407 54.8659 77.7176 54.8659 77.7407 54.4146C77.7291 53.4195 77.706 52.4359 77.7291 51.4407ZM91.4144 59.6334C91.8656 59.6334 92.2589 60.0268 92.2589 60.4781C92.2358 60.9294 91.8656 61.2765 91.4144 61.2765C90.9632 61.2765 90.6162 60.9178 90.6162 60.4781C90.5931 60.0268 90.9864 59.6449 91.4144 59.6334ZM100.16 85.866C100.044 83.5633 99.9171 81.249 99.8014 78.9231C99.732 77.3725 99.651 75.8219 99.5816 74.2482C99.4659 71.9339 99.3387 69.608 99.223 67.2706C99.1536 65.7316 99.0726 64.181 99.0032 62.6535C98.8875 60.3855 98.7603 58.1291 98.6446 55.8611C98.6215 55.1089 98.3669 54.8543 97.615 54.8543C95.9145 54.8543 94.2371 54.8543 92.525 54.8543C92.2589 54.8543 92.1663 54.7849 92.1663 54.4956C92.1895 53.4889 92.1664 52.4706 92.1895 51.4639C92.1895 50.1679 91.8771 48.9413 91.2525 47.8189C89.9452 45.4814 87.9786 44.0581 85.3064 43.6647C83.6405 43.4217 82.0557 43.6415 80.5749 44.4284C77.787 45.9096 76.2947 48.247 76.1674 51.4176C76.1327 52.4127 76.1674 53.3963 76.1674 54.4146C76.1674 54.8428 76.1674 54.8428 75.7163 54.8428C74.0389 54.8428 72.3383 54.8428 70.6493 54.8428C70.0131 54.8428 69.7355 55.1205 69.7123 55.7569C69.6429 57.3306 69.5619 58.9159 69.4925 60.5012C69.3653 62.8155 69.2496 65.153 69.1223 67.4904C69.0067 69.7584 68.8794 72.038 68.7637 74.2945C68.6712 76.3542 68.5786 78.4255 68.4629 80.4853L68.4861 80.5547L68.2779 84.2344H68.301C68.2431 85.3916 68.1853 86.5719 68.1275 87.729C68.1043 88.2497 68.4051 88.5506 68.9141 88.5506C69.0067 88.5506 69.0876 88.5506 69.157 88.5506C75.2651 88.5506 81.3847 88.5506 87.5159 88.5506C91.4607 88.5506 95.4055 88.5506 99.3734 88.5506C99.9287 88.5506 100.253 88.2729 100.229 87.7522C100.218 87.1504 100.206 86.5024 100.16 85.866Z" fill="white"/>
<path d="M76.1436 60.6399C76.1667 60.7324 76.213 60.8481 76.2708 60.9175C76.4212 61.1373 76.6641 61.2761 76.9418 61.2761C77.4045 61.2761 77.7631 60.9406 77.7631 60.4779C77.7631 60.3044 77.7053 60.1656 77.6127 60.0267C77.5433 59.8764 77.4045 59.7838 77.2541 59.7144C77.1616 59.6797 77.0459 59.645 76.9418 59.6566C76.7682 59.6566 76.6294 59.6913 76.4906 59.7838C76.3634 59.8764 76.2477 60.0036 76.1898 60.154C76.132 60.2697 76.1204 60.3622 76.1204 60.4663C76.1204 60.5242 76.1436 60.582 76.1436 60.6399Z" fill="#09090A"/>
<path d="M90.6624 60.7905C90.7897 61.0681 91.0789 61.2763 91.4144 61.2763C91.5879 61.2763 91.7498 61.2416 91.8771 61.1491C91.9118 61.1144 91.9465 61.0912 91.9928 61.0565C92.0622 60.9871 92.1432 60.883 92.1779 60.7905C92.2126 60.6979 92.2473 60.5822 92.2473 60.4781C92.2473 60.3046 92.1894 60.1658 92.0969 60.027C92.0275 59.9113 91.9234 59.8187 91.8192 59.7609C91.7498 59.703 91.6689 59.6683 91.5763 59.6452C91.5185 59.6452 91.4606 59.6221 91.4028 59.6221C91.3449 59.6221 91.2871 59.6452 91.2524 59.6452C91.1367 59.6799 91.0442 59.7146 90.9516 59.7725C90.7318 59.946 90.5814 60.1889 90.593 60.4666C90.6161 60.5822 90.6277 60.6979 90.6624 60.7905Z" fill="#09090A"/>
<path d="M80.3312 46.4304C80.8864 46.0138 81.5227 45.6783 82.2399 45.4584C82.5407 45.3658 82.8415 45.308 83.1191 45.2501C83.8248 44.9493 84.5536 44.6484 85.2708 44.3475C85.6294 44.174 85.9765 44.0351 86.3351 43.8847C86.0227 43.8153 85.6641 43.7343 85.3287 43.6764C83.6628 43.4334 82.078 43.6533 80.5972 44.4401C79.0124 45.2848 77.8671 46.4073 77.1152 47.7843L77.1846 47.7611C78.2373 47.3214 79.2784 46.8817 80.3312 46.4304Z" fill="white"/>
<path d="M77.613 60.0267C77.5436 59.8763 77.4048 59.7838 77.2544 59.7144C77.4163 59.7838 77.5436 59.8763 77.613 60.0267Z" fill="white"/>
<path d="M76.4914 59.7842C76.3641 59.8767 76.2484 60.004 76.1906 60.1544C76.2484 60.004 76.3641 59.8767 76.4914 59.7842Z" fill="white"/>
<path d="M91.5871 59.645C91.6797 59.6682 91.7606 59.7029 91.8301 59.7607C91.7491 59.7029 91.6797 59.6682 91.5871 59.645Z" fill="white"/>
<path d="M90.6626 60.7905C90.7898 61.0682 91.079 61.2764 91.4145 61.2764C91.079 61.2764 90.8014 61.0682 90.6626 60.7905Z" fill="white"/>
<path d="M69.6308 44.3476C69.4573 44.3476 69.2954 44.3476 69.1218 44.3476C68.5781 44.3823 67.9766 44.4748 67.3634 44.66C66.6693 44.8451 66.1141 45.3196 65.5472 45.8171C65.2117 46.1296 64.8763 46.4536 64.5177 46.766C63.9624 47.2867 63.3955 47.8074 62.8171 48.3166L62.7824 48.3513C62.8055 49.3465 62.8055 50.33 62.8055 51.3483V52.4361C62.9791 52.4013 63.1179 52.3666 63.2914 52.3203C63.8004 52.2278 64.321 52.112 64.8416 52.1005C65.2696 52.1005 65.6976 52.1005 66.1372 52.1005C66.9586 52.1005 67.7799 52.1005 68.6013 52.1236C69.0871 52.1236 69.5499 52.1468 70.0357 52.1468H70.7645C71.4933 52.1699 72.2453 52.1699 72.9856 52.1815C73.379 52.2046 73.7723 52.2162 74.1425 52.2393C74.6052 52.274 75.0795 52.2972 75.5422 52.2972H75.6001C76.1553 52.2972 76.6065 52.1699 76.9998 51.8806C78.0641 51.0822 79.1515 50.2722 80.2389 49.4853C81.6734 48.4439 83.0963 47.3909 84.5423 46.361L86.6362 44.822C87.1452 44.4517 87.6426 44.093 88.1516 43.7227C88.2095 43.6648 88.2211 43.607 88.2211 43.5723H88.1632L88.0938 43.5954L88.0244 43.6186L87.955 43.6417L85.41 44.7294L83.1889 45.6783C81.2685 46.4767 79.2788 47.3214 77.3353 48.1662C76.6412 48.467 75.9471 48.6174 75.2183 48.6174H75.0911C74.4548 48.5943 73.8185 48.5943 73.1823 48.5943C72.7543 48.5943 72.3262 48.5943 71.8866 48.5943C71.4471 48.5943 71.0306 48.5943 70.5794 48.5943H70.51H70.4522C70.4175 48.5943 70.3828 48.6174 70.3365 48.6174C70.2787 48.6174 70.1283 48.6174 69.9779 48.5017C69.7581 48.3513 69.5499 48.1893 69.4342 47.9579C69.2491 47.5413 69.3995 47.1016 69.7928 46.8701C70.0357 46.7429 70.3134 46.6966 70.4985 46.6966C71.2504 46.6966 71.9792 46.6966 72.7196 46.6966H75.1142C75.6001 46.6966 75.9934 46.3263 75.9934 45.8519C75.9934 45.4006 75.6232 45.0303 75.1373 44.9956C74.316 44.903 73.4946 44.8104 72.6849 44.66C71.6668 44.498 70.6604 44.3476 69.6308 44.3476Z" fill="#09090A"/>
<path d="M77.7297 51.8693C77.7297 51.7188 77.7297 51.5916 77.7297 51.4411C77.7991 49.4045 78.7708 47.5878 80.3325 46.4307C79.2914 46.882 78.2387 47.3332 77.1975 47.773L77.1281 47.7961C76.5844 48.8607 76.2489 50.0641 76.1911 51.4411C76.1911 51.8577 76.168 52.2627 76.168 52.6793C76.5613 52.6099 76.9315 52.471 77.267 52.228C77.4173 52.0891 77.5793 51.985 77.7297 51.8693Z" fill="white"/>
<path d="M9.50984 16.205C9.50984 16.691 9.47514 17.1192 9.38259 17.501C9.29004 17.8829 9.07025 18.1722 8.68849 18.4152H10.9674V14.3536H9.50984V16.205ZM13.2464 12.4906V18.4152H14.1834V21.8404H12.2052V20.2898H7.83244V21.8404H5.85426V18.4152C5.88897 18.4152 5.92367 18.4152 5.96995 18.3921C6.00465 18.3921 6.02779 18.3921 6.06249 18.3689C6.37484 18.3111 6.67561 18.149 6.94168 17.8598C7.21932 17.582 7.36971 17.1655 7.40441 16.61C7.40441 16.5406 7.40441 16.4365 7.40441 16.3439C7.40441 16.2513 7.40441 16.1587 7.40441 16.0662C7.40441 16.0315 7.40441 16.0083 7.40441 15.9736C7.40441 15.9389 7.40441 15.9157 7.40441 15.881V12.479H13.2464V12.4906Z" fill="white"/>
<path d="M15.0865 12.4907H19.8758V14.3537H17.3655V15.4415H19.6213V17.1656H17.3655V18.4153H19.8758V20.2899H15.0865V12.4907Z" fill="white"/>
<path d="M28.02 12.4909V20.2901H25.7411V14.3655H24.2834V17.432C24.2834 17.6055 24.2834 17.7675 24.2834 17.9758C24.2603 18.161 24.2256 18.3692 24.1909 18.5544C24.0984 19.0173 23.8554 19.4338 23.4852 19.8041C23.0919 20.1744 22.4441 20.3595 21.4608 20.3595L21.3451 20.3827C21.2294 20.3827 21.1253 20.3595 21.0328 20.3595C20.9402 20.3595 20.8592 20.3364 20.7667 20.3364C20.7089 20.3133 20.651 20.3133 20.6163 20.3017C20.5585 20.2785 20.5006 20.2785 20.4428 20.2785V18.404H20.5585C20.6279 18.4271 20.6857 18.4387 20.7667 18.4387C20.8361 18.4618 20.9171 18.4618 20.9865 18.4734C21.4724 18.4502 21.75 18.2882 21.8425 17.9527C21.9351 17.6171 21.9929 17.2237 21.9929 16.7724V12.4678H28.02V12.4909Z" fill="white"/>
<path d="M31.757 12.4907V16.992L34.6606 12.4907H36.9048V20.2899H34.6953V15.777L31.8379 20.2899H29.5358V12.4907H31.757Z" fill="white"/>
<path d="M43.7993 20.1743C43.6489 20.2438 43.487 20.3016 43.3366 20.3479C43.1283 20.4058 42.9433 20.4405 42.735 20.4636C42.5499 20.4868 42.3417 20.4983 42.1566 20.4983H42.0409C40.9535 20.4983 40.0165 20.1396 39.2414 19.4106C38.4548 18.7048 38.0846 17.6865 38.0846 16.3789C38.0846 15.0366 38.4779 14.0067 39.2992 13.3124C40.1206 12.6181 41.0229 12.271 42.0294 12.271H42.145C42.2723 12.271 42.4111 12.2941 42.5615 12.2941C42.6888 12.3173 42.8391 12.3289 42.9895 12.3636C43.2093 12.3983 43.4407 12.4793 43.6489 12.5719C43.8687 12.6413 44.0769 12.757 44.2852 12.9074V15.1523H44.1695C44.1348 15.1176 44.0769 15.0597 44.0191 14.9787C43.9497 14.9209 43.8919 14.863 43.8109 14.7936C43.6374 14.6663 43.4407 14.5274 43.1978 14.4002C42.978 14.2844 42.6888 14.2266 42.3764 14.215C41.7749 14.2382 41.289 14.458 40.9535 14.9093C40.618 15.3606 40.4445 15.8582 40.4445 16.4599C40.4445 17.131 40.6296 17.6402 40.9998 17.9989C41.3931 18.3692 41.8443 18.5543 42.3648 18.5543C42.7582 18.5543 43.1168 18.4618 43.406 18.2766C43.7068 18.103 43.9497 17.9179 44.1579 17.7212H44.2736V19.9429C44.1117 20.0239 43.9497 20.1165 43.7993 20.1743Z" fill="white"/>
<path d="M48.5888 18.7162C48.9012 18.7162 49.1673 18.6583 49.3755 18.5426C49.5837 18.4269 49.6763 18.2071 49.6763 17.883C49.6763 17.5822 49.5837 17.3623 49.3755 17.2466C49.1904 17.1309 48.9243 17.073 48.5888 17.073H47.7675V18.7046H48.5888V18.7162ZM45.4654 12.4907H47.7675V15.534H48.9128C49.0631 15.534 49.2714 15.534 49.5259 15.5572C49.7688 15.5803 50.0349 15.615 50.3125 15.6845C50.729 15.8117 51.0992 16.0432 51.4578 16.3556C51.7933 16.6912 51.9783 17.2003 51.9783 17.8946C51.9783 18.6005 51.7933 19.1096 51.4578 19.4452C51.0992 19.7576 50.729 19.9891 50.3357 20.1164C50.058 20.1858 49.7919 20.2436 49.5374 20.2436C49.2714 20.2668 49.0747 20.2784 48.9243 20.2784H45.4654V12.4907Z" fill="white"/>
<path d="M4.0506 27.6961C4.0506 28.2052 4.01589 28.6333 3.92335 29.0036C3.8308 29.3739 3.611 29.6748 3.22925 29.9062H5.5082V25.8677H4.0506V27.6961ZM7.79872 23.9932V29.9062H8.73575V33.3314H6.75757V31.7808H2.3732V33.3314H0.39502V29.9062C0.429724 29.9062 0.464429 29.9062 0.510702 29.9062C0.533839 29.9062 0.568543 29.8831 0.603248 29.8831C0.915592 29.8252 1.21637 29.6632 1.48244 29.3739C1.76008 29.0962 1.91046 28.6796 1.94517 28.1242C1.94517 28.0316 1.94517 27.9391 1.94517 27.8581C1.94517 27.7655 1.94517 27.6498 1.94517 27.5572C1.94517 27.534 1.94517 27.4993 1.94517 27.4878C1.94517 27.453 1.94517 27.4183 1.94517 27.3952V23.9932H7.79872Z" fill="white"/>
<path d="M13.7328 30.1029C13.8022 30.1029 13.9063 30.0798 13.9757 30.0451C14.3343 29.9525 14.6467 29.7326 14.9474 29.3855C15.2482 29.0383 15.3986 28.5408 15.3986 27.8696C15.3986 27.1985 15.2482 26.6893 14.9474 26.3537C14.6467 26.0182 14.3343 25.7983 13.9757 25.6942C13.9063 25.671 13.8022 25.6594 13.7328 25.6363C13.6634 25.6132 13.5824 25.6132 13.513 25.6132C13.4436 25.6132 13.3394 25.6132 13.2469 25.6363C13.1775 25.6594 13.0734 25.671 13.004 25.7057C12.6453 25.7983 12.3446 26.0182 12.0554 26.3653C11.7777 26.7009 11.6273 27.21 11.6273 27.858C11.6273 28.5176 11.7777 29.0152 12.0554 29.3508C12.3561 29.6863 12.6569 29.9062 13.004 30.0103C13.0734 30.0451 13.1544 30.0682 13.2469 30.0798C13.3394 30.1029 13.4204 30.1029 13.4898 30.1029C13.5592 30.1029 13.6634 30.1261 13.7328 30.1029ZM10.3317 30.7625C9.62603 29.9409 9.26741 28.9805 9.26741 27.8812C9.26741 26.7935 9.62603 25.8214 10.3317 24.9999C11.0258 24.1783 12.0669 23.7617 13.4551 23.7617H13.5708C14.959 23.7617 16.0001 24.1783 16.6942 24.9999C17.3999 25.8214 17.7585 26.7935 17.7585 27.8812C17.7585 28.9805 17.3999 29.9409 16.6942 30.7393C16.0001 31.5609 14.959 31.9775 13.5708 31.9891H13.4551C12.0901 31.9891 11.0605 31.5841 10.3317 30.7625Z" fill="white"/>
<path d="M22.0384 30.2186C22.3508 30.2186 22.6169 30.1608 22.8251 30.0451C23.0333 29.9294 23.1259 29.7095 23.1259 29.3855C23.1259 29.0731 23.0333 28.8648 22.8251 28.7491C22.64 28.6333 22.3739 28.5639 22.0384 28.5639H21.2171V30.2071H22.0384V30.2186ZM18.915 23.9932H24.7801V25.8677H21.2055V27.0249H22.3508C22.5012 27.0249 22.7094 27.048 22.9639 27.048C23.2068 27.0712 23.4729 27.1175 23.7505 27.1985C24.167 27.3142 24.5372 27.534 24.8958 27.8696C25.2313 28.1821 25.4164 28.6912 25.4164 29.3623C25.4164 30.0682 25.2313 30.6005 24.8958 30.9129C24.5372 31.2485 24.167 31.4684 23.7737 31.6072C23.496 31.6767 23.23 31.7345 22.9755 31.7576C22.7094 31.7808 22.5127 31.7808 22.3624 31.7808H18.9266V23.9932H18.915Z" fill="white"/>
<path d="M28.8297 27.4878H29.3502C29.6626 27.4878 29.894 27.4299 30.0443 27.3373C30.1947 27.2216 30.2873 27.1175 30.3451 27.0018C30.3798 26.9323 30.403 26.8282 30.403 26.7588C30.403 26.7009 30.4261 26.6315 30.4261 26.5852C30.4261 26.5389 30.4261 26.4926 30.403 26.4579C30.403 26.4 30.403 26.3653 30.3798 26.3306C30.3451 26.157 30.2641 26.0298 30.1138 25.9025C29.9634 25.7752 29.6973 25.6942 29.3502 25.6942H28.8297V27.4878ZM26.5392 23.9932H29.9171C30.7616 23.9932 31.3747 24.1667 31.7912 24.5139C32.2076 24.8726 32.4852 25.266 32.6125 25.6942C32.6703 25.8677 32.705 26.0066 32.7282 26.157C32.7513 26.3075 32.7629 26.4579 32.7629 26.5852C32.7629 26.7125 32.7398 26.8629 32.7282 27.0133C32.705 27.1638 32.6703 27.3142 32.6125 27.4762C32.4852 27.9043 32.196 28.2978 31.7912 28.6565C31.3747 29.0152 30.7616 29.2003 29.9171 29.2003H28.8181V31.7577H26.5392V23.9932Z" fill="white"/>
<path d="M38.004 30.1029C38.0734 30.1029 38.1775 30.0798 38.2469 30.0451C38.6055 29.9525 38.9179 29.7326 39.2186 29.3855C39.5194 29.0383 39.6698 28.5408 39.6698 27.8696C39.6698 27.1985 39.5194 26.6893 39.2186 26.3537C38.9179 26.0182 38.6055 25.7983 38.2469 25.6942C38.1775 25.671 38.0734 25.6594 38.004 25.6363C37.9346 25.6132 37.8536 25.6132 37.7842 25.6132C37.7148 25.6132 37.6106 25.6132 37.5181 25.6363C37.4487 25.6594 37.3446 25.671 37.2752 25.7057C36.9165 25.7983 36.6158 26.0182 36.3266 26.3653C36.0489 26.7009 35.9101 27.21 35.9101 27.858C35.9101 28.5176 36.0374 29.0152 36.3266 29.3508C36.6273 29.6863 36.9281 29.9062 37.2752 30.0103C37.3446 30.0451 37.4487 30.0682 37.5181 30.0798C37.6106 30.1029 37.6916 30.1029 37.761 30.1029C37.8304 30.1261 37.9346 30.1261 38.004 30.1029ZM34.626 30.7625C33.8972 29.9409 33.5386 28.9805 33.5386 27.8812C33.5386 26.7935 33.8972 25.8214 34.6029 24.9999C35.297 24.1783 36.3381 23.7617 37.7263 23.7617H37.842C39.2302 23.7617 40.2713 24.1783 40.977 24.9999C41.6711 25.8214 42.0182 26.7935 42.0182 27.8812C42.0182 28.9805 41.6595 29.9409 40.977 30.7393C40.2713 31.5609 39.2186 31.9775 37.842 31.9891H37.7263C36.3613 31.9891 35.3317 31.5841 34.626 30.7625Z" fill="white"/>
<path d="M43.7756 23.9932H46.0661L47.3733 28.5523L48.6921 23.9932H50.9826L52.1163 31.7692H49.9067L49.3746 27.5225L48.1368 31.7692H46.6213L45.3835 27.5225L44.8514 31.7692H42.6419L43.7756 23.9932Z" fill="white"/>
<path d="M65.9292 29.9757C66.2415 29.941 66.5654 29.86 66.9009 29.7558L66.9703 29.7211C67.676 29.5128 68.3122 29.0847 68.9138 28.4251C69.4228 27.8812 69.6773 26.8398 69.6773 25.4281C69.6773 23.6692 69.2608 22.5121 68.4395 21.8988C67.7338 21.3781 66.9009 21.0425 65.9176 20.8921V29.9757H65.9292ZM48.4032 45.065C47.4083 45.2154 46.5754 45.551 45.8813 46.0717C45.06 46.685 44.6435 47.8884 44.6435 49.601C44.6435 51.0243 44.9096 52.0542 45.407 52.598C46.0086 53.2692 46.6448 53.6857 47.3505 53.9056L47.4199 53.9287C47.7554 54.0445 48.0793 54.1139 48.3917 54.1717V45.065H48.4032ZM48.0793 63.8224C42.9199 63.8224 39.1486 62.3065 36.8234 59.3211C34.6138 56.4629 33.5148 53.2113 33.5148 49.6126C33.5148 49.0571 33.5727 48.2124 33.6884 47.009C33.8041 45.7014 34.1974 44.3012 34.8452 42.8779C35.6665 41.0033 37.1126 39.2908 39.0908 37.7749C41.2078 36.1665 44.1345 35.4027 48.0793 35.4027H55.0203V13.0118C55.0203 12.0167 55.8416 11.2183 56.8365 11.2183H66.2531C70.1979 11.2183 73.1362 11.982 75.2301 13.5789C77.2314 15.0947 78.6658 16.8304 79.5103 18.705C80.1466 20.1283 80.5399 21.5053 80.6556 22.8361C80.7713 24.0164 80.8291 24.8727 80.8291 25.4397C80.8291 29.0153 79.7301 32.2784 77.5206 35.125C75.2069 38.1336 71.4241 39.6495 66.2646 39.6495H59.3121V62.0172C59.3121 63.024 58.5139 63.834 57.519 63.834H48.0793V63.8224Z" fill="#292929"/>
<path d="M70.2561 29.6395C69.4347 30.5421 68.5208 31.1322 67.5028 31.4562C66.9591 31.6414 66.4154 31.7571 65.8948 31.8149C65.3858 31.8497 64.9463 31.8844 64.5529 31.8844H64.1365V18.9706H64.5529C66.5774 18.9706 68.2201 19.4566 69.5389 20.4286C70.8461 21.4237 71.5055 23.0785 71.5055 25.4159C71.5055 27.3368 71.089 28.7369 70.2561 29.6395ZM50.1967 56.0573H49.7802C49.3869 56.0573 48.9358 56.0341 48.4383 55.9879C47.9177 55.9531 47.374 55.8143 46.8303 55.6291C45.8239 55.3283 44.91 54.7266 44.0655 53.8356C43.2442 52.933 42.8277 51.5212 42.8277 49.6119C42.8277 47.2745 43.4871 45.6082 44.7943 44.6362C46.1015 43.641 47.7674 43.155 49.7802 43.155H50.1967V56.0573ZM78.8513 22.9975C78.7356 21.875 78.4002 20.6831 77.8449 19.4219C77.1392 17.8134 75.9014 16.3554 74.143 15.0131C72.3847 13.6824 69.7471 13.0112 66.2535 13.0112H56.8369V37.2073H48.0913C44.5976 37.2073 41.9601 37.8669 40.2017 39.2092C38.4433 40.5399 37.2055 42.0095 36.4999 43.6179C35.9214 44.8676 35.586 46.0479 35.4934 47.1704C35.3777 48.2928 35.3199 49.0912 35.3199 49.6004C35.3199 52.7941 36.3148 55.6639 38.2698 58.198C40.2133 60.7438 43.4871 61.9935 48.0797 61.9935H57.4963V37.809H66.2419C70.8229 37.809 74.0968 36.5361 76.0518 33.9904C78.0184 31.4447 79.0017 28.5865 79.0017 25.4043C79.0248 24.9183 78.967 24.1199 78.8513 22.9975Z" fill="white"/>
</svg>
