<svg width="94" height="24" viewBox="0 0 94 24" fill="none" xmlns="http://www.w3.org/2000/svg">
<path d="M0.168945 2.75877C0.168945 1.94001 0.929228 1.34055 1.71875 1.516L10.1111 3.35823C10.6959 3.48981 11.1199 4.00154 11.1199 4.601V19.2949C11.1199 19.8944 10.7105 20.4061 10.1257 20.5377L1.73337 22.4822C0.929227 22.6723 0.168945 22.0582 0.168945 21.2395V2.75877Z" fill="white"/>
<path d="M4.80371 1.29706C4.80371 0.47829 5.56399 -0.135784 6.36814 0.0542869L15.8132 2.20355C16.398 2.33513 16.8074 2.84686 16.8074 3.44632V20.4357C16.8074 21.0205 16.398 21.5469 15.8278 21.6785L6.38276 23.9447C5.57861 24.1348 4.80371 23.5353 4.80371 22.7019V1.29706Z" fill="white"/>
<path fill-rule="evenodd" clip-rule="evenodd" d="M4.80371 21.7809V2.18896L10.1111 3.35863C10.6959 3.49022 11.1199 4.00195 11.1199 4.6014V19.2953C11.1199 19.8948 10.7105 20.4065 10.1257 20.5381L4.80371 21.7809Z" fill="#09090A"/>
<path d="M30.1704 8.14884C32.2466 8.25119 33.9426 9.45009 33.9426 11.3069C33.9426 13.1784 32.2466 14.3188 30.1704 14.465V15.2838H28.5183V14.465C26.5298 14.4212 24.7461 13.1492 24.7461 11.3069C24.7461 9.43547 26.4421 8.30967 28.5183 8.14884V7.33008H30.1704V8.14884ZM28.5183 9.66941C27.3925 9.75713 26.4129 10.3127 26.4129 11.3069C26.4129 12.3012 27.3486 12.8567 28.5183 12.9445V9.66941ZM30.1704 12.9591C31.3108 12.8714 32.2904 12.3158 32.2904 11.3216C32.2904 10.342 31.3547 9.77175 30.1704 9.68402V12.9591Z" fill="white"/>
<path d="M41.8681 13.9528H38.3591L37.8766 15.2687H36.1514L39.2948 7.34424H40.9324L44.0758 15.2687H42.3506L41.8681 13.9528ZM38.9293 12.4615H41.2979L40.1282 9.28881L38.9293 12.4615Z" fill="white"/>
<path d="M52.6872 10.5749C52.3509 9.49298 51.5321 8.84966 50.421 8.84966C49.032 8.84966 48.0816 9.91698 48.0816 11.306C48.0816 12.6218 49.0174 13.7623 50.421 13.7623C51.5321 13.7623 52.3509 13.1189 52.7018 12.0078L54.2809 12.4902C53.7984 14.157 52.2486 15.2682 50.4356 15.2682C48.2278 15.2682 46.3856 13.5722 46.3856 11.306C46.3856 9.0836 48.1401 7.3291 50.4356 7.3291C52.1901 7.3291 53.7399 8.29407 54.2662 10.0632L52.6872 10.5749Z" fill="white"/>
<path d="M57.5548 15.2833V7.34424H63.14V8.87942H59.207V15.2833H57.5548Z" fill="white"/>
<path d="M66.5038 15.2839V7.35938H70.3929C71.0655 7.35938 71.5333 7.49096 71.9135 7.7249C72.5568 8.11966 72.9662 8.82146 72.9662 9.72795C72.9662 10.5906 72.5568 11.307 71.8989 11.7164C71.5187 11.9503 71.0655 12.0819 70.3929 12.0819H68.1559V15.2692H66.5038V15.2839ZM70.1736 10.5613C70.4953 10.5613 70.6415 10.5321 70.7731 10.4882C71.0801 10.3566 71.3287 10.1081 71.3287 9.72795C71.3287 9.36243 71.0947 9.08463 70.7731 8.96766C70.6415 8.90918 70.4953 8.87994 70.159 8.87994H68.1559V10.5613H70.1736Z" fill="white"/>
<path d="M80.4664 13.9528H76.9574L76.4749 15.2687H74.7496L77.8931 7.34424H79.5306L82.6741 15.2687H80.9489L80.4664 13.9528ZM77.5276 12.4615H79.8962L78.7265 9.28881L77.5276 12.4615Z" fill="white"/>
<path d="M92.7481 13.7482H93.83V16.9209H92.1779V15.2833H86.8852V16.9209H85.2184V13.7482H86.1541C86.5927 12.9294 86.8267 12.0229 86.9583 11.0725C87.1337 9.8444 87.1337 8.54314 87.1629 7.34424H92.7481V13.7482ZM88.7859 8.87942C88.7859 9.65433 88.742 10.4292 88.6104 11.248C88.4788 12.0521 88.2741 12.8855 87.9232 13.7482H91.0813V8.87942H88.7859Z" fill="white"/>
</svg>
