<svg width="101" height="100" viewBox="0 0 101 100" fill="none" xmlns="http://www.w3.org/2000/svg">
<path fill-rule="evenodd" clip-rule="evenodd" d="M63.7398 63.2964C64.056 64.1799 64.0738 65.1277 63.7837 66.0529C63.4116 67.2396 62.6024 68.1676 61.4774 68.6976C53.1367 72.6269 43.4324 72.6192 35.0981 68.6768C33.9739 68.145 33.1662 67.2157 32.7959 66.0285C32.4277 64.8477 32.5654 63.6117 33.1847 62.541L33.4533 62.0767C32.5035 62.1229 31.5737 61.8578 30.771 61.3016C24.7456 57.1269 20.4308 50.9688 18.5399 43.8894C16.4194 35.9502 17.5311 27.5537 21.646 20.4393C29.6906 6.53108 47.1015 1.08983 61.6159 7.97363C62.5284 8.40638 63.2316 9.10098 63.6615 9.98273C64.2703 9.25598 65.0886 8.75933 66.044 8.54598C67.2511 8.27643 68.4714 8.51558 69.4874 9.22103C77.0693 14.4856 81.9052 22.8769 82.659 32.0765C82.7605 33.3148 82.3589 34.4809 81.5167 35.3943C80.9073 36.0553 80.1458 36.4973 79.3007 36.6906C79.9918 37.562 80.3154 38.633 80.2215 39.7571C79.4533 48.9555 74.6041 57.3392 67.0139 62.5918C66.0392 63.2663 64.8954 63.5113 63.7398 63.2964Z" fill="#292929"/>
<path fill-rule="evenodd" clip-rule="evenodd" d="M48.3998 35.9139L35.1573 58.8088C34.8392 59.3587 34.3579 59.7121 33.7378 59.8508C33.118 59.9895 32.5319 59.8755 32.0098 59.5137C19.8382 51.0806 15.984 34.5731 23.529 21.5286C31.0739 8.48412 47.3047 3.59377 60.6838 9.93917C61.2578 10.2114 61.6487 10.6624 61.8376 11.269C62.0266 11.8756 61.9603 12.469 61.6422 13.019L48.3998 35.9139Z" fill="white"/>
<path fill-rule="evenodd" clip-rule="evenodd" d="M19.6648 35.8831C22.3576 38.7856 25.374 41.4181 28.6819 43.7197C29.6944 44.4241 30.8318 44.6482 32.0359 44.3805C33.24 44.1128 34.1753 43.4278 34.7939 42.3607L54.7749 7.89199C42.8202 5.16828 29.9899 10.358 23.5288 21.5284C20.9096 26.0569 19.6654 31.0026 19.6648 35.8831Z" fill="#E3E3E3"/>
<path fill-rule="evenodd" clip-rule="evenodd" d="M46.4082 44.0237L35.0679 63.6299C34.7496 64.1802 34.6834 64.7739 34.8727 65.3808C35.0619 65.9876 35.4538 66.4385 36.0284 66.7103C43.7849 70.3794 52.7881 70.3865 60.5504 66.7296C61.1254 66.4587 61.518 66.0085 61.7082 65.4019C61.8984 64.7954 61.8332 64.2016 61.5158 63.6508L50.2064 44.0267C49.8043 43.329 49.1133 42.9294 48.3081 42.9287C47.5029 42.9281 46.8113 43.3267 46.4082 44.0237Z" fill="white"/>
<path fill-rule="evenodd" clip-rule="evenodd" d="M53.7574 31.3172L65.0977 11.711C65.4159 11.1607 65.8976 10.8073 66.518 10.6688C67.1383 10.5302 67.7246 10.6451 68.2467 11.0076C75.2948 15.9015 79.7903 23.702 80.491 32.2539C80.5429 32.8874 80.3484 33.4523 79.9175 33.9196C79.4866 34.3869 78.9393 34.6264 78.3036 34.6259L55.6539 34.6081C54.8487 34.6074 54.1577 34.2078 53.7557 33.5101C53.3536 32.8125 53.3542 32.0142 53.7574 31.3172Z" fill="white"/>
<path fill-rule="evenodd" clip-rule="evenodd" d="M51.3189 40.4705L62.6283 60.0946C62.9457 60.6453 63.4268 60.9995 64.047 61.139C64.6671 61.2785 65.2536 61.1646 65.7762 60.8029C72.832 55.9201 77.3398 48.1267 78.054 39.5759C78.1069 38.9425 77.9132 38.3773 77.4831 37.9094C77.0529 37.4414 76.506 37.201 75.8703 37.2005L53.2206 37.1826C52.4154 37.182 51.7238 37.5806 51.3206 38.2776C50.9175 38.9746 50.9168 39.7729 51.3189 40.4705Z" fill="white"/>
<path d="M8.38868 93.9403V82.692C8.38868 81.4847 9.37338 80.5 10.5807 80.5H18.2354C19.4427 80.5 20.4274 81.4847 20.4274 82.692V93.9403H18.8945C17.6872 93.9403 16.7025 92.9556 16.7025 91.7483V83.7641H12.1136V91.7483C12.1136 92.9556 11.1289 93.9403 9.92163 93.9403H8.38867H8.38868ZM46.5458 94.074L46.5165 94.0743C45.7067 94.0743 45.0502 93.4178 45.0502 92.608C45.0502 91.4007 46.0437 91.4269 46.511 90.7147C46.6455 90.5098 46.751 90.2154 46.8278 89.8314C46.9046 89.4473 46.9718 88.8937 47.0294 88.1706C47.0835 87.4919 47.1122 86.6806 47.1156 85.7371C47.1198 84.5325 48.1029 83.5529 49.3075 83.5529H53.8904C55.0977 83.5529 56.0824 84.5375 56.0824 85.7448V93.9403H54.6263C53.419 93.9403 52.4343 92.9556 52.4343 91.7483V86.4521H50.5142C50.5142 87.6059 50.4854 88.7555 50.3126 89.8986C50.1782 90.7882 50.0023 91.4986 49.7846 92.0298C49.5671 92.5611 49.2855 92.9835 48.9399 93.2971C48.5942 93.6107 48.2423 93.8187 47.8838 93.9211C47.4492 94.0453 46.9961 94.0764 46.5461 94.0744L46.5458 94.074ZM25.573 94.1707C24.549 94.1707 23.7106 93.8859 23.0578 93.3163C22.405 92.7467 22.0785 91.9498 22.0785 90.9258C22.0785 89.8762 22.4434 89.0698 23.1729 88.5065C23.9026 87.9434 24.8946 87.6618 26.149 87.6618C27.0578 87.6618 27.8899 87.7962 28.6451 88.065V87.8922C28.6451 86.7657 27.9539 86.2026 26.5714 86.2026C25.637 86.2026 24.6834 86.3945 23.7106 86.7786L23.5765 86.3179C23.3942 85.6919 23.4808 85.0822 23.8299 84.5315C24.179 83.9809 24.6936 83.6426 25.3376 83.5404C25.9305 83.4464 26.5402 83.3993 27.1666 83.3993C28.9587 83.3993 30.2771 83.8217 31.122 84.6665C31.8643 85.3962 32.2355 86.4969 32.2355 87.969V91.7483C32.2355 92.9556 31.2509 93.9403 30.0436 93.9403H28.6258V92.8651C27.845 93.7355 26.8274 94.1707 25.573 94.1707V94.1707ZM26.8786 91.8858C27.4163 91.8858 27.8514 91.729 28.1843 91.4154C28.5171 91.1019 28.6835 90.689 28.6835 90.177V89.697C28.261 89.5178 27.7874 89.4282 27.2627 89.4282C26.7379 89.4282 26.3282 89.5466 26.0338 89.7834C25.7394 90.0202 25.5923 90.3434 25.5923 90.753C25.5923 91.0986 25.7106 91.3738 25.9474 91.5787C26.1842 91.7835 26.4946 91.8858 26.8786 91.8858H26.8786ZM34.0979 91.7483V85.7448C34.0979 84.5376 35.0826 83.5529 36.2899 83.5529H40.2613C41.5285 83.5529 42.4757 83.8665 43.1029 84.4937C43.5509 84.9161 43.775 85.4793 43.775 86.1833C43.775 87.2586 43.2373 88.0329 42.1621 88.5065C42.8277 88.7242 43.3237 89.0346 43.6501 89.4378C43.9765 89.841 44.1398 90.3882 44.1398 91.0795C44.1398 91.9754 43.7941 92.6762 43.1029 93.1818C42.4117 93.6875 41.4453 93.9403 40.2036 93.9403H36.2899C35.0826 93.9403 34.0979 92.9556 34.0979 91.7483V91.7483ZM37.65 91.5787H39.1476C39.5701 91.5787 39.8996 91.4922 40.1364 91.3194C40.3733 91.1466 40.4917 90.9066 40.4917 90.5994C40.4917 90.3178 40.3733 90.0874 40.1364 89.9082C39.8996 89.7289 39.5572 89.6394 39.1092 89.6394H37.65V91.5787V91.5787ZM37.65 87.681H38.8788C39.2884 87.681 39.6084 87.5977 39.8388 87.4314C40.0693 87.2649 40.1845 87.0409 40.1845 86.7593C40.1845 86.4906 40.0756 86.2761 39.8581 86.1161C39.6405 85.9561 39.3332 85.8761 38.9364 85.8761H37.65V87.6809V87.681ZM63.3401 94.1898C61.7017 94.1898 60.3384 93.6619 59.2504 92.6059C58.1624 91.5499 57.6184 90.2666 57.6184 88.7562C57.6184 87.2586 58.1656 85.9785 59.26 84.9161C60.3544 83.8537 61.7272 83.3225 63.3785 83.3225C65.0169 83.3225 66.3801 83.8505 67.4682 84.9065C68.5562 85.9626 69.1002 87.2458 69.1002 88.7562C69.1002 90.2538 68.553 91.5338 67.4585 92.5963C66.3641 93.6587 64.9913 94.1898 63.3401 94.1898H63.3401ZM63.3785 91.0986C64.0313 91.0986 64.5561 90.8747 64.953 90.4266C65.3497 89.9786 65.5481 89.4218 65.5481 88.7562C65.5481 88.1162 65.3369 87.5658 64.9145 87.105C64.4921 86.6442 63.9673 86.4138 63.3401 86.4138C62.6872 86.4138 62.1624 86.6377 61.7657 87.0858C61.3688 87.5338 61.1704 88.0905 61.1704 88.7562C61.1704 89.3962 61.3816 89.9466 61.804 90.4074C62.2264 90.8682 62.7513 91.0986 63.3785 91.0986ZM70.6362 91.7483V85.7448C70.6362 84.5376 71.6208 83.5529 72.8281 83.5529H76.7995C78.0667 83.5529 79.0139 83.8665 79.6411 84.4937C80.0891 84.9161 80.3132 85.4793 80.3132 86.1833C80.3132 87.2586 79.7756 88.0329 78.7003 88.5065C79.3659 88.7242 79.862 89.0346 80.1883 89.4378C80.5148 89.841 80.678 90.3882 80.678 91.0795C80.678 91.9754 80.3323 92.6762 79.6411 93.1818C78.95 93.6875 77.9835 93.9403 76.7419 93.9403H72.8281C71.6208 93.9403 70.6361 92.9556 70.6361 91.7483L70.6362 91.7483ZM74.1882 91.5787H75.6859C76.1083 91.5787 76.4379 91.4922 76.6747 91.3194C76.9115 91.1466 77.0299 90.9066 77.0299 90.5994C77.0299 90.3178 76.9115 90.0874 76.6747 89.9082C76.4379 89.7289 76.0955 89.6394 75.6475 89.6394H74.1882V91.5787L74.1882 91.5787ZM74.1882 87.681H75.4171C75.8266 87.681 76.1467 87.5977 76.3771 87.4314C76.6075 87.2649 76.7227 87.0409 76.7227 86.7593C76.7227 86.4906 76.6139 86.2761 76.3963 86.1161C76.1787 85.9561 75.8715 85.8761 75.4747 85.8761H74.1882V87.6809V87.681ZM87.6285 94.1898C85.9901 94.1898 84.6268 93.6619 83.5388 92.6059C82.4508 91.5499 81.9068 90.2666 81.9068 88.7562C81.9068 87.2586 82.454 85.9785 83.5485 84.9161C84.6429 83.8537 86.0157 83.3225 87.667 83.3225C89.3054 83.3225 90.6686 83.8505 91.7566 84.9065C92.8446 85.9626 93.3887 87.2458 93.3887 88.7562C93.3887 90.2538 92.8415 91.5338 91.747 92.5963C90.6526 93.6587 89.2797 94.1898 87.6285 94.1898H87.6285ZM87.667 91.0986C88.3197 91.0986 88.8446 90.8747 89.2414 90.4266C89.6381 89.9786 89.8366 89.4218 89.8366 88.7562C89.8366 88.1162 89.6254 87.5658 89.203 87.105C88.7805 86.6442 88.2557 86.4138 87.6285 86.4138C86.9757 86.4138 86.4508 86.6377 86.0541 87.0858C85.6573 87.5338 85.4589 88.0905 85.4589 88.7562C85.4589 89.3962 85.67 89.9466 86.0925 90.4074C86.5149 90.8682 87.0397 91.0986 87.667 91.0986Z" fill="white"/>
</svg>
