<svg width="100" height="12" viewBox="0 0 100 12" fill="none" xmlns="http://www.w3.org/2000/svg">
<path d="M98.8748 10.2811L98.9243 10.1724L98.865 10.2712C97.7483 9.77703 97.0961 9.40148 96.9183 9.1544C96.6416 8.77885 96.1673 8.07715 95.189 6.30809C94.0427 4.23266 93.2917 2.82927 93.3609 2.25606C93.4103 1.79155 93.9241 1.63343 94.2996 1.52471C94.438 1.48518 94.5961 1.43576 94.6356 1.39623C94.6751 1.3567 94.6949 1.32705 94.685 1.30729C94.685 1.2974 94.6554 1.20846 94.2996 1.10963C94.0427 1.04044 93.4103 1.12939 92.7482 1.22822C92.3134 1.28752 91.8687 1.3567 91.4438 1.39623C90.6632 1.46541 89.8726 1.39623 88.9635 1.30729C88.5485 1.26775 88.1335 1.22822 87.669 1.19857C86.7698 1.13927 86.0089 1.10963 85.8014 1.31717C85.7717 1.34682 85.7322 1.40612 85.752 1.54448C85.7717 1.74214 86.2164 1.87062 86.6018 1.98921C87.086 2.13746 87.5801 2.2857 87.6987 2.63161C87.9062 3.26412 87.4516 4.43032 86.9378 4.98377C86.3152 5.64593 85.663 5.26049 85.3863 5.10236C85.0701 4.91459 83.0641 4.59833 81.7301 5.23084C81.1669 5.49769 80.8605 5.89301 80.9396 6.24879C81.0186 6.64412 81.5127 6.91096 82.2341 6.95049C83.0345 6.9999 83.2717 6.82201 83.3408 6.72318C83.4199 6.5947 83.3408 6.42669 83.3408 6.42669L83.3211 6.39704V6.36739C83.3211 6.34762 83.3408 6.1895 83.5088 6.05113C83.7361 5.86336 84.1314 5.80406 84.665 5.88312C85.1986 5.9523 85.4852 6.10055 85.5642 6.33774C85.6729 6.67376 85.3271 7.10862 84.7638 7.65218C83.8448 8.54165 82.9851 8.89744 81.7795 8.89744C80.6431 8.89744 79.655 7.89926 79.4376 7.35569C79.3388 7.10862 79.3684 6.88131 79.3882 6.68365C79.4178 6.45634 79.4376 6.27844 79.2893 6.11043C79.0621 5.83371 78.3901 5.82382 77.7972 5.81394C77.6589 5.81394 77.5205 5.80406 77.3921 5.80406C76.9375 5.78429 76.6905 5.69535 76.6114 5.52733C76.5818 5.47792 76.562 5.35932 76.6707 5.23084C76.7497 5.12213 76.9869 5.09248 77.6885 5.00353C78.2419 4.93435 78.9336 4.84541 79.5364 4.67739C80.8111 4.33149 82.155 3.54085 82.1353 2.91822C82.1056 2.22641 81.5127 1.38635 80.2479 1.07998C78.9336 0.763719 77.2834 0.832901 76.1371 1.26775C75.5837 1.4753 75.4058 1.84097 75.3663 2.10781C75.2971 2.50313 75.475 2.96763 75.7912 3.23447C76.1272 3.52108 76.5521 3.34319 77.0067 3.15541C77.2636 3.0467 77.5304 2.93798 77.7775 2.9281C78.2913 2.90833 78.4395 3.12576 78.4692 3.22459C78.5383 3.3926 78.4692 3.59026 78.3012 3.73851C77.985 4.01523 74.9414 5.0233 73.5876 5.32967C72.303 5.62616 71.9571 5.6064 71.7891 5.47792C71.7397 5.43839 71.6903 5.36921 71.6903 5.25061V2.93798C71.6903 2.4043 72.5698 2.06828 73.2813 1.79155C73.5481 1.68284 73.8248 1.58401 73.8939 1.51483C73.9434 1.46541 73.9928 1.39623 73.9631 1.30729C73.9236 1.20846 73.7754 1.07998 73.4592 1.04044C73.0738 1.00091 72.2239 1.09974 71.4038 1.20846C71.0283 1.25787 70.6725 1.2974 70.3662 1.32705C69.6448 1.39623 68.963 1.2974 68.459 1.22822C68.2515 1.19857 68.0736 1.17881 67.9254 1.16892C67.8661 1.16892 67.7969 1.15904 67.7179 1.14916C67.2732 1.10963 66.2258 1.03056 66.0281 1.24799C66.0182 1.26775 66.0084 1.27764 66.0084 1.31717C66.0676 1.66307 66.5914 1.7619 66.9669 1.84097C67.0558 1.86073 67.1349 1.8805 67.204 1.89038C67.5993 1.9991 68.1823 2.67114 68.1823 3.37284C68.1823 3.53096 68.1823 3.84722 68.1823 4.26231C68.1922 5.5471 68.2021 7.7016 68.1724 8.25505C68.1428 9.02592 67.5104 9.89563 67.1942 9.89563C67.0262 9.89563 66.8384 9.77703 66.5716 9.60902C66.4135 9.51019 66.2356 9.39159 66.0281 9.28288C65.455 8.97651 64.7435 8.52189 64.5656 8.03762C64.4471 7.7016 64.6348 7.45452 64.7731 7.27663C64.8423 7.18768 64.9115 7.09873 64.9115 7.03944C64.9115 6.92084 64.8423 6.85166 64.5063 6.80224C64.2692 6.77259 61.4727 6.67376 61.0478 6.67376C60.6722 6.67376 60.5734 6.55517 60.5438 6.45634C60.5339 6.41681 60.524 6.28833 60.7019 6.19938C60.8106 6.14996 60.9786 6.15985 61.3244 6.16973C61.779 6.1895 62.4608 6.21915 63.4194 6.12032C65.0696 5.96219 65.8898 5.56687 66.6803 4.99365C67.0657 4.70704 67.293 4.23266 67.2732 3.73851C67.2436 3.11588 66.8285 2.54266 66.1171 2.12758C64.7435 1.33693 61.5418 0.477112 57.0259 0.724187C52.8855 0.951497 50.9487 2.59208 50.7411 2.90833C50.672 3.00716 50.6522 3.09611 50.6819 3.17518C50.7214 3.32342 50.919 3.47167 51.2254 3.59026C51.6898 3.77804 52.3519 4.25242 52.3519 4.62798C52.3519 4.73669 52.3519 5.06283 52.3617 5.46804C52.3716 6.1302 52.3815 6.95049 52.3815 7.40511V7.62253C52.3914 8.93698 52.342 9.49042 52.0554 9.52996C51.7194 9.56949 51.4823 9.273 51.2748 9.00616C51.0376 8.69978 48.7945 4.57856 48.6166 4.16348C48.5869 4.08441 48.5277 3.98558 48.4684 3.86699C48.1917 3.35307 47.7272 2.48336 48.2905 1.95956C48.6956 1.57413 49.1601 1.57413 49.4368 1.56424C49.4961 1.56424 49.5553 1.56424 49.5949 1.55436C49.585 1.38635 49.5257 1.11951 48.5573 1.07009C47.915 1.03056 47.2035 1.13927 46.5217 1.24799C46.0276 1.31717 45.5236 1.39623 45.0295 1.42588C43.8536 1.48518 42.3121 1.2381 42.2923 1.2381L42.154 1.21834L42.2034 1.08986C42.2231 1.03056 42.2429 0.902082 42.2231 0.852667C42.2133 0.842784 42.2133 0.832901 42.1935 0.823018C41.9662 0.76372 41.5117 0.743953 41.3733 0.86255C41.1065 1.08986 40.2962 1.2974 39.6638 1.42588C38.7645 1.61366 36.3238 1.50495 33.7249 1.13927C32.0944 0.911965 30.1872 0.902082 28.0528 1.09974H28.0133C27.4698 1.14916 27.45 1.63343 27.45 1.68284C27.45 1.71249 27.4105 2.08804 26.9362 2.59208C26.6595 2.88857 26.3037 3.19494 26.0468 3.40249L25.9282 3.50132L25.8689 3.35307C25.78 3.13564 25.7207 2.95775 25.6812 2.82927C25.6021 2.5229 25.6417 2.22641 25.7998 1.98921C25.9579 1.7619 26.2148 1.61366 26.5409 1.56424C26.9856 1.50495 27.0646 1.44565 27.0745 1.416C27.0745 1.416 27.0844 1.38635 27.0251 1.27764C26.9263 1.07009 26.3729 1.06021 25.7602 1.06021C25.444 1.06021 25.0586 1.12939 24.6041 1.21834C23.9717 1.33693 23.2503 1.46541 22.4993 1.44565C21.1751 1.416 19.9202 1.24799 19.5842 1.18869C19.0209 1.08986 18.2699 1.06021 18.0328 1.27764C17.9735 1.32705 17.9537 1.39623 17.9636 1.4753C18.0031 1.90027 18.26 1.94968 18.7047 1.9991C18.8035 2.00898 18.9122 2.01886 19.0111 2.03863C19.6534 2.15723 19.7028 2.55255 19.5842 3.28389C19.4953 3.79781 19.1099 4.40067 18.8035 4.80587C18.6454 5.01342 18.3687 5.12213 18.1118 5.06283C17.9932 5.03318 17.8648 5.00353 17.7264 4.97389C17.341 4.87505 14.6532 4.57856 13.6749 5.24073C13.2401 5.5471 13.0326 5.97207 13.1413 6.33774C13.2599 6.70341 13.6749 6.92084 14.2382 6.91096C15.3054 6.88131 15.4042 6.55517 15.4635 6.35751C15.4734 6.30809 15.4932 6.26856 15.5129 6.22903C15.6414 6.02148 16.1948 5.85347 16.9655 5.9523C17.3707 6.00172 17.6177 6.1302 17.7166 6.32786C17.7857 6.46622 17.766 6.63423 17.6573 6.80224C17.4497 7.13827 16.4122 8.20563 14.92 8.67013C13.8232 9.01604 13.25 8.76896 12.6868 8.53177C12.4397 8.42306 12.1927 8.32423 11.8962 8.26493C10.9871 8.08704 10.4337 8.6306 10.4041 8.65037L10.2065 8.83815L10.1966 8.56142C10.1966 8.41318 10.1373 4.97389 10.1669 4.46985C10.2065 3.79781 10.5029 3.36295 11.0662 3.12576C11.3923 2.9874 11.7875 2.94787 12.331 2.89845C12.8449 2.84904 13.4872 2.77986 14.3074 2.61184C15.9576 2.26594 17.0545 1.40612 17.0841 0.96138C17.094 0.852667 17.0545 0.773603 16.9655 0.724187C16.7877 0.615474 16.4616 0.655006 16.3726 0.714304C16.096 0.902082 15.2066 1.25787 13.6749 1.40612C12.6472 1.50495 11.0464 1.37647 9.18866 1.22822C8.04238 1.13927 6.8467 1.04044 5.68066 0.991029C3.17071 0.902082 2.57781 1.15904 2.46911 1.21834C2.43946 1.33693 2.34065 1.66307 2.16278 1.86073C2.01455 2.03863 1.30307 2.78974 1.04615 2.93798C0.89792 3.02693 0.482889 3.46178 0.413717 3.75827C0.403836 3.79781 0.403836 3.8571 0.423599 3.88675L0.433481 3.90652C0.443362 3.92629 0.631115 4.33149 1.26354 4.22278C1.69834 4.14371 2.311 3.74839 2.80509 3.43213C3.11142 3.23447 3.35846 3.06646 3.51657 3.01705C3.8229 2.91822 7.50877 2.62173 7.90404 2.89845C7.96333 2.94787 7.97321 2.99728 7.97321 3.02693C7.97321 3.30366 7.63723 3.37284 7.16291 3.46178C6.91587 3.5112 6.6293 3.56061 6.32297 3.64956C5.45338 3.90652 5.25574 4.11406 5.20634 4.22278C5.18657 4.26231 5.18657 4.30184 5.21622 4.35125C5.28539 4.47973 5.56208 4.63786 5.78936 4.76634C6.11545 4.95412 6.34273 5.0826 6.34273 5.26049C6.34273 5.30002 6.34273 5.4285 6.34273 5.6064C6.35261 6.39704 6.36249 8.24516 6.34273 8.83815C6.31308 9.44101 5.73006 9.7375 5.25574 9.98458C5.08776 10.0735 4.92965 10.1526 4.82095 10.2317C4.71225 10.3107 4.67272 10.3898 4.70237 10.459C4.7419 10.5578 4.9 10.6566 5.03835 10.6566H10.2065L10.2262 10.6665C10.2559 10.6764 13.2006 12.1193 15.8292 10.6665C17.0347 9.99446 18.6257 8.92709 19.347 7.63242C19.4063 7.51382 19.4854 7.41499 19.604 7.40511C19.7719 7.39522 19.9103 7.583 20.187 7.95856C20.3352 8.1661 20.3648 8.36376 20.4044 8.54165C20.4637 8.84803 20.5032 9.03581 21.1257 9.0951C22.0348 9.17417 22.3807 8.79861 22.8155 8.31434C22.8649 8.25505 22.9242 8.19575 22.9736 8.13645C23.3689 7.72136 23.6752 7.583 23.9124 7.583C24.0606 7.583 24.1792 7.63242 24.278 7.7016C24.5942 7.93879 24.9203 9.13464 24.9598 9.30265C25.0389 9.66832 24.693 10.0933 24.1495 10.3008C24.0804 10.3305 23.9223 10.3997 23.9519 10.5183C23.9717 10.627 24.1199 10.7456 24.3373 10.7456H32.6478L32.6675 10.7555C32.6774 10.7555 33.1122 10.9136 33.5273 11.0421L33.6063 11.0717C34.13 11.2397 35.7309 11.7635 38.1321 10.6665C39.98 9.81656 40.9089 8.61084 41.403 7.95856C41.6204 7.67195 41.7291 7.5237 41.8476 7.50394C42.2627 7.41499 42.4899 7.83008 42.648 8.24516C42.6678 8.30446 42.6876 8.36376 42.7172 8.41318C42.8654 8.8085 42.9741 9.10499 43.567 9.12475C44.2884 9.1544 44.5354 9.02592 45.0592 8.34399C45.662 7.56324 46.2845 7.38534 46.5908 7.62253C46.9762 7.90914 47.243 9.14452 47.2727 9.28288C47.3715 9.76715 47.0849 9.91539 46.828 10.0439C46.6995 10.1032 46.5711 10.1724 46.4821 10.2811C46.3833 10.3898 46.3339 10.4985 46.3636 10.5578C46.4031 10.6467 46.6007 10.7258 47.0158 10.6863C47.1343 10.6764 50.6917 10.6962 54.9705 10.7258C56.5417 10.7357 57.7769 10.7456 57.9647 10.7456C58.1623 10.7456 58.2908 10.706 58.3006 10.627C58.3204 10.4787 58.0635 10.1921 57.8066 10.1131C57.6583 10.0735 56.354 9.6782 56.354 8.97651V4.24254C56.354 3.46178 57.184 2.57231 59.0121 2.4636C60.7118 2.36477 62.7474 2.71067 63.2316 3.67921C63.3996 4.00535 63.4095 4.32161 63.2612 4.59833C63.0241 5.04307 62.3818 5.35932 61.4529 5.47792C60.1979 5.63605 58.9232 5.22096 58.5082 4.73669C58.3303 4.51927 58.271 4.34137 58.3303 4.18324C58.4192 3.96582 58.7256 3.84722 59.3185 3.80769C59.7533 3.77804 60.0003 3.83734 60.0991 4.00535C60.2078 4.19313 60.0596 4.41055 60.0003 4.4995C59.9904 4.51927 59.9904 4.56868 60.0299 4.63786C60.1386 4.80587 60.4548 4.95412 60.9983 4.86517C61.3738 4.79599 61.6407 4.60821 61.7098 4.35125C61.779 4.11406 61.6802 3.83734 61.4529 3.63968C60.9786 3.22459 59.0714 2.70079 57.5398 3.59026C57.1148 3.83734 56.8876 4.12395 56.8678 4.43032C56.8382 4.89482 57.2631 5.45815 58.1228 6.10055C58.4587 6.34762 58.7453 6.55517 58.9924 6.74295C59.8027 7.33593 60.2473 7.66207 60.7908 8.25505C61.4825 9.00616 61.4529 9.78691 61.0774 10.1724C60.9193 10.3305 60.9193 10.5183 60.9588 10.627C60.9786 10.6665 61.028 10.7752 61.1466 10.7752H73.8643C73.9038 10.7752 73.9236 10.7653 73.9236 10.7653C73.973 10.6863 73.6864 10.2317 73.1923 9.94504C73.1825 9.93516 71.7002 9.05557 71.7002 8.5713V7.1778C71.7002 6.87142 71.799 6.63423 71.9868 6.4761C72.2734 6.23891 72.7575 6.17961 73.4592 6.29821C74.556 6.49587 75.9592 7.48417 76.6608 8.55154C77.066 9.17417 77.2043 9.52996 77.1351 9.78691C77.0857 9.97469 76.9276 10.0834 76.7695 10.1526C76.5324 10.2712 76.4138 10.4392 76.394 10.5578C76.3841 10.6072 76.394 10.6369 76.4237 10.6665C76.5027 10.7357 77.0363 10.6962 77.3921 10.6665C77.649 10.6467 77.9257 10.627 78.1628 10.627C78.4296 10.627 78.6075 10.706 78.815 10.7851C79.1806 10.9333 79.6747 11.131 80.9989 11.131C82.9258 11.131 84.6946 10.2811 85.752 8.84803L85.999 8.51201C86.8093 7.40511 87.086 7.03944 87.5109 7.21733C87.8074 7.34581 87.9358 7.62253 88.1236 8.03762C88.2125 8.23528 88.3113 8.46259 88.4595 8.72943C88.588 8.96662 88.7856 9.0951 89.0426 9.13464C89.4774 9.19393 90.011 8.97651 90.2481 8.72943C90.347 8.6306 90.4557 8.49224 90.5644 8.34399C90.8904 7.91902 91.2561 7.43476 91.7304 7.54347C92.3035 7.67195 92.4814 8.47247 92.6197 9.05557L92.6494 9.18405C92.7976 9.81656 92.3332 10.1427 91.8885 10.3997C91.7502 10.4787 91.7304 10.538 91.7304 10.5479C91.7403 10.5874 91.8588 10.6566 91.9873 10.6566H98.9341C99.1219 10.6566 99.1614 10.6171 99.1713 10.6072C99.2405 10.5677 99.0527 10.3601 98.8748 10.2811ZM22.776 6.82201C22.3708 7.08885 22.0151 7.31616 21.7186 7.31616C21.6989 7.31616 21.689 7.31616 21.6692 7.31616C21.5111 7.30628 21.3728 7.16791 21.185 6.97025C20.9577 6.74295 20.6514 6.43657 20.187 6.19938C20.1474 6.17961 20.098 6.1302 20.1178 6.0116C20.1672 5.71511 21.185 3.58038 21.4914 3.55073C21.8273 3.52108 22.9637 5.52733 23.0527 5.77441C23.2108 6.17961 23.2799 6.48599 22.776 6.82201ZM32.4403 3.46178C32.3217 3.47167 32.213 3.48155 32.1438 3.50132L32.0746 3.52108C30.4639 3.9164 30.4837 4.13383 30.4837 4.13383C30.5133 4.27219 30.8098 4.48962 31.0272 4.63786C31.3039 4.83552 31.5015 4.97389 31.5015 5.1419C31.5015 5.19131 31.5015 5.37909 31.5114 5.63605C31.5312 6.52552 31.5608 8.18587 31.5312 8.7492C31.5015 9.54972 30.9382 9.97469 30.4244 9.97469C29.9501 9.97469 29.1003 9.20382 29.0014 9.11487L28.9817 9.08522C28.9718 9.07534 28.2307 7.87949 27.3216 6.23891C26.867 5.41862 26.4717 4.66751 26.1852 4.06465L26.116 3.92629L26.2642 3.89664C26.6792 3.82746 27.0745 3.69898 27.4303 3.52108C28.4184 3.0467 28.6951 2.99728 29.703 2.90833C30.5133 2.82927 32.7861 2.8095 33.0332 3.03681C33.0628 3.06646 33.0826 3.10599 33.0826 3.14553C33.0925 3.40249 32.7565 3.43213 32.4403 3.46178ZM41.5907 4.17336C41.3338 4.68728 41.1559 5.01342 40.8199 5.12213C40.6816 5.17155 40.4741 5.13201 40.1282 5.07272C39.644 4.98377 38.9029 4.85529 37.8554 4.87505C36.4819 4.9047 35.6913 5.25061 35.5728 5.89301C35.5431 6.0709 35.5826 6.23891 35.6815 6.37727C35.8692 6.62435 36.2546 6.80224 36.7783 6.87142C37.5886 6.98014 37.9345 6.83189 37.9938 6.66388C38.0037 6.64412 37.9839 6.58482 37.974 6.54528C37.9444 6.42669 37.9147 6.27844 38.0135 6.1302C38.1124 5.99184 38.31 5.91277 38.6361 5.87324C39.2784 5.80406 39.7428 5.87324 39.9899 6.0709C40.0986 6.15985 40.1579 6.26856 40.1677 6.38716C40.2073 6.80224 39.4661 7.65218 38.1914 8.32423C37.3811 8.7492 36.8475 8.85791 36.4621 8.85791C36.225 8.85791 36.0372 8.81838 35.8692 8.77885C35.385 8.67013 35.1973 8.47247 35.1874 8.45271L35.1577 8.42306V4.81576C35.1577 4.47973 35.2664 4.15359 35.4739 3.88675L35.5925 3.72863C36.1163 3.20482 36.6499 3.17518 37.6282 3.11588L37.8159 3.10599C38.8337 3.0467 40.3456 2.39442 40.8496 2.18687L40.9089 2.15723C41.1658 2.04851 41.4326 1.95956 41.6401 2.05839C41.7785 2.11769 41.8674 2.25606 41.9267 2.45372C42.065 2.95775 41.8476 3.66933 41.5907 4.17336ZM45.1778 6.82201C44.7726 7.08885 44.4169 7.31616 44.1204 7.31616C44.1007 7.31616 44.0908 7.31616 44.071 7.31616C43.9129 7.30628 43.7746 7.16791 43.5868 6.97025C43.3595 6.74295 43.0532 6.43657 42.5888 6.19938C42.5492 6.17961 42.4998 6.1302 42.5196 6.0116C42.569 5.71511 43.5868 3.58038 43.8931 3.55073C44.2291 3.52108 45.3655 5.52733 45.4544 5.77441C45.6126 6.17961 45.6817 6.48599 45.1778 6.82201ZM90.6632 6.82201C90.258 7.08885 89.9023 7.31616 89.6058 7.31616C89.5959 7.31616 89.5762 7.31616 89.5564 7.31616C89.3983 7.30628 89.26 7.16791 89.0722 6.97025C88.8449 6.74295 88.5386 6.43657 88.0742 6.19938C88.0346 6.17961 87.9852 6.1302 88.005 6.0116C88.0544 5.71511 89.0722 3.58038 89.3785 3.55073H89.3884C89.7343 3.55073 90.8509 5.52733 90.9399 5.77441C91.098 6.17961 91.1671 6.48599 90.6632 6.82201Z" fill="white"/>
</svg>
