<svg width="100" height="12" viewBox="0 0 100 12" fill="none" xmlns="http://www.w3.org/2000/svg">
<path d="M98.8747 10.2811L98.9241 10.1724L98.8648 10.2712C97.7482 9.77703 97.096 9.40148 96.9182 9.1544C96.6415 8.77885 96.1671 8.07715 95.1889 6.30809C94.0426 4.23266 93.2916 2.82927 93.3607 2.25606C93.4102 1.79155 93.924 1.63343 94.2995 1.52471C94.4379 1.48518 94.596 1.43576 94.6355 1.39623C94.675 1.3567 94.6948 1.32705 94.6849 1.30729C94.6849 1.2974 94.6553 1.20846 94.2995 1.10963C94.0426 1.04044 93.4102 1.12939 92.7481 1.22822C92.3133 1.28752 91.8686 1.3567 91.4437 1.39623C90.663 1.46541 89.8725 1.39623 88.9634 1.30729C88.5484 1.26775 88.1333 1.22822 87.6689 1.19857C86.7697 1.13927 86.0088 1.10963 85.8013 1.31717C85.7716 1.34682 85.7321 1.40612 85.7518 1.54448C85.7716 1.74214 86.2163 1.87062 86.6017 1.98921C87.0859 2.13746 87.58 2.2857 87.6985 2.63161C87.9061 3.26412 87.4515 4.43032 86.9377 4.98377C86.3151 5.64593 85.6629 5.26049 85.3862 5.10236C85.07 4.91459 83.064 4.59833 81.73 5.23084C81.1667 5.49769 80.8604 5.89301 80.9395 6.24879C81.0185 6.64412 81.5126 6.91096 82.234 6.95049C83.0344 6.9999 83.2715 6.82201 83.3407 6.72318C83.4198 6.5947 83.3407 6.42669 83.3407 6.42669L83.3209 6.39704V6.36739C83.3209 6.34762 83.3407 6.1895 83.5087 6.05113C83.736 5.86336 84.1312 5.80406 84.6649 5.88312C85.1985 5.9523 85.485 6.10055 85.5641 6.33774C85.6728 6.67376 85.3269 7.10862 84.7637 7.65218C83.8447 8.54165 82.985 8.89744 81.7794 8.89744C80.643 8.89744 79.6548 7.89926 79.4374 7.35569C79.3386 7.10862 79.3683 6.88131 79.388 6.68365C79.4177 6.45634 79.4374 6.27844 79.2892 6.11043C79.0619 5.83371 78.39 5.82382 77.7971 5.81394C77.6587 5.81394 77.5204 5.80406 77.3919 5.80406C76.9374 5.78429 76.6903 5.69535 76.6113 5.52733C76.5816 5.47792 76.5619 5.35932 76.6706 5.23084C76.7496 5.12213 76.9868 5.09248 77.6884 5.00353C78.2418 4.93435 78.9335 4.84541 79.5363 4.67739C80.811 4.33149 82.1549 3.54085 82.1351 2.91822C82.1055 2.22641 81.5126 1.38635 80.2477 1.07998C78.9335 0.763719 77.2832 0.832901 76.137 1.26775C75.5836 1.4753 75.4057 1.84097 75.3662 2.10781C75.297 2.50313 75.4749 2.96763 75.7911 3.23447C76.1271 3.52108 76.552 3.34319 77.0066 3.15541C77.2635 3.0467 77.5303 2.93798 77.7773 2.9281C78.2912 2.90833 78.4394 3.12576 78.469 3.22459C78.5382 3.3926 78.469 3.59026 78.3011 3.73851C77.9848 4.01523 74.9413 5.0233 73.5875 5.32967C72.3029 5.62616 71.957 5.6064 71.789 5.47792C71.7396 5.43839 71.6902 5.36921 71.6902 5.25061V2.93798C71.6902 2.4043 72.5697 2.06828 73.2812 1.79155C73.548 1.68284 73.8247 1.58401 73.8938 1.51483C73.9432 1.46541 73.9926 1.39623 73.963 1.30729C73.9235 1.20846 73.7752 1.07998 73.459 1.04044C73.0736 1.00091 72.2238 1.09974 71.4036 1.20846C71.0281 1.25787 70.6724 1.2974 70.3661 1.32705C69.6447 1.39623 68.9629 1.2974 68.4589 1.22822C68.2514 1.19857 68.0735 1.17881 67.9253 1.16892C67.866 1.16892 67.7968 1.15904 67.7178 1.14916C67.2731 1.10963 66.2256 1.03056 66.028 1.24799C66.0181 1.26775 66.0082 1.27764 66.0082 1.31717C66.0675 1.66307 66.5913 1.7619 66.9668 1.84097C67.0557 1.86073 67.1348 1.8805 67.2039 1.89038C67.5992 1.9991 68.1822 2.67114 68.1822 3.37284C68.1822 3.53096 68.1822 3.84722 68.1822 4.26231C68.1921 5.5471 68.202 7.7016 68.1723 8.25505C68.1427 9.02592 67.5103 9.89563 67.194 9.89563C67.0261 9.89563 66.8383 9.77703 66.5715 9.60902C66.4134 9.51019 66.2355 9.39159 66.028 9.28288C65.4549 8.97651 64.7434 8.52189 64.5655 8.03762C64.4469 7.7016 64.6347 7.45452 64.773 7.27663C64.8422 7.18768 64.9114 7.09873 64.9114 7.03944C64.9114 6.92084 64.8422 6.85166 64.5062 6.80224C64.2691 6.77259 61.4725 6.67376 61.0476 6.67376C60.6721 6.67376 60.5733 6.55517 60.5437 6.45634C60.5338 6.41681 60.5239 6.28833 60.7018 6.19938C60.8105 6.14996 60.9785 6.15985 61.3243 6.16973C61.7789 6.1895 62.4607 6.21915 63.4192 6.12032C65.0695 5.96219 65.8897 5.56687 66.6802 4.99365C67.0656 4.70704 67.2929 4.23266 67.2731 3.73851C67.2434 3.11588 66.8284 2.54266 66.1169 2.12758C64.7434 1.33693 61.5417 0.477112 57.0258 0.724187C52.8854 0.951497 50.9485 2.59208 50.741 2.90833C50.6719 3.00716 50.6521 3.09611 50.6817 3.17518C50.7213 3.32342 50.9189 3.47167 51.2252 3.59026C51.6897 3.77804 52.3517 4.25242 52.3517 4.62798C52.3517 4.73669 52.3517 5.06283 52.3616 5.46804C52.3715 6.1302 52.3814 6.95049 52.3814 7.40511V7.62253C52.3913 8.93698 52.3419 9.49042 52.0553 9.52996C51.7193 9.56949 51.4822 9.273 51.2746 9.00616C51.0375 8.69978 48.7943 4.57856 48.6165 4.16348C48.5868 4.08441 48.5275 3.98558 48.4682 3.86699C48.1916 3.35307 47.7271 2.48336 48.2904 1.95956C48.6955 1.57413 49.16 1.57413 49.4366 1.56424C49.4959 1.56424 49.5552 1.56424 49.5948 1.55436C49.5849 1.38635 49.5256 1.11951 48.5572 1.07009C47.9149 1.03056 47.2034 1.13927 46.5215 1.24799C46.0275 1.31717 45.5235 1.39623 45.0294 1.42588C43.8535 1.48518 42.312 1.2381 42.2922 1.2381L42.1538 1.21834L42.2033 1.08986C42.223 1.03056 42.2428 0.902082 42.223 0.852667C42.2131 0.842784 42.2131 0.832901 42.1934 0.823018C41.9661 0.76372 41.5115 0.743953 41.3732 0.86255C41.1064 1.08986 40.2961 1.2974 39.6637 1.42588C38.7644 1.61366 36.3237 1.50495 33.7248 1.13927C32.0943 0.911965 30.1871 0.902082 28.0527 1.09974H28.0131C27.4697 1.14916 27.4499 1.63343 27.4499 1.68284C27.4499 1.71249 27.4104 2.08804 26.936 2.59208C26.6594 2.88857 26.3036 3.19494 26.0467 3.40249L25.9281 3.50132L25.8688 3.35307C25.7799 3.13564 25.7206 2.95775 25.6811 2.82927C25.602 2.5229 25.6415 2.22641 25.7997 1.98921C25.9578 1.7619 26.2147 1.61366 26.5408 1.56424C26.9855 1.50495 27.0645 1.44565 27.0744 1.416C27.0744 1.416 27.0843 1.38635 27.025 1.27764C26.9262 1.07009 26.3728 1.06021 25.7601 1.06021C25.4439 1.06021 25.0585 1.12939 24.604 1.21834C23.9715 1.33693 23.2502 1.46541 22.4992 1.44565C21.175 1.416 19.92 1.24799 19.5841 1.18869C19.0208 1.08986 18.2698 1.06021 18.0326 1.27764C17.9734 1.32705 17.9536 1.39623 17.9635 1.4753C18.003 1.90027 18.2599 1.94968 18.7046 1.9991C18.8034 2.00898 18.9121 2.01886 19.0109 2.03863C19.6532 2.15723 19.7026 2.55255 19.5841 3.28389C19.4951 3.79781 19.1097 4.40067 18.8034 4.80587C18.6453 5.01342 18.3686 5.12213 18.1117 5.06283C17.9931 5.03318 17.8647 5.00353 17.7263 4.97389C17.3409 4.87505 14.6531 4.57856 13.6748 5.24073C13.24 5.5471 13.0325 5.97207 13.1412 6.33774C13.2598 6.70341 13.6748 6.92084 14.2381 6.91096C15.3053 6.88131 15.4041 6.55517 15.4634 6.35751C15.4733 6.30809 15.493 6.26856 15.5128 6.22903C15.6413 6.02148 16.1946 5.85347 16.9654 5.9523C17.3706 6.00172 17.6176 6.1302 17.7164 6.32786C17.7856 6.46622 17.7658 6.63423 17.6571 6.80224C17.4496 7.13827 16.412 8.20563 14.9199 8.67013C13.823 9.01604 13.2499 8.76896 12.6867 8.53177C12.4396 8.42306 12.1926 8.32423 11.8961 8.26493C10.987 8.08704 10.4336 8.6306 10.404 8.65037L10.2063 8.83815L10.1965 8.56142C10.1965 8.41318 10.1372 4.97389 10.1668 4.46985C10.2063 3.79781 10.5028 3.36295 11.0661 3.12576C11.3921 2.9874 11.7874 2.94787 12.3309 2.89845C12.8448 2.84904 13.4871 2.77986 14.3072 2.61184C15.9575 2.26594 17.0544 1.40612 17.084 0.96138C17.0939 0.852667 17.0544 0.773603 16.9654 0.724187C16.7876 0.615474 16.4615 0.655006 16.3725 0.714304C16.0958 0.902082 15.2065 1.25787 13.6748 1.40612C12.6471 1.50495 11.0463 1.37647 9.18853 1.22822C8.04226 1.13927 6.84657 1.04044 5.68053 0.991029C3.17059 0.902082 2.57768 1.15904 2.46899 1.21834C2.43934 1.33693 2.34052 1.66307 2.16265 1.86073C2.01443 2.03863 1.30295 2.78974 1.04602 2.93798C0.897798 3.02693 0.482767 3.46178 0.413595 3.75827C0.403714 3.79781 0.403714 3.8571 0.423477 3.88675L0.433359 3.90652C0.44324 3.92629 0.630992 4.33149 1.26342 4.22278C1.69821 4.14371 2.31088 3.74839 2.80496 3.43213C3.1113 3.23447 3.35834 3.06646 3.51644 3.01705C3.82278 2.91822 7.50865 2.62173 7.90391 2.89845C7.9632 2.94787 7.97309 2.99728 7.97309 3.02693C7.97309 3.30366 7.63711 3.37284 7.16279 3.46178C6.91575 3.5112 6.62918 3.56061 6.32284 3.64956C5.45326 3.90652 5.25562 4.11406 5.20621 4.22278C5.18645 4.26231 5.18645 4.30184 5.2161 4.35125C5.28527 4.47973 5.56195 4.63786 5.78923 4.76634C6.11533 4.95412 6.34261 5.0826 6.34261 5.26049C6.34261 5.30002 6.34261 5.4285 6.34261 5.6064C6.35249 6.39704 6.36237 8.24516 6.34261 8.83815C6.31296 9.44101 5.72994 9.7375 5.25562 9.98458C5.08763 10.0735 4.92953 10.1526 4.82083 10.2317C4.71213 10.3107 4.6726 10.3898 4.70225 10.459C4.74177 10.5578 4.89988 10.6566 5.03823 10.6566H10.2063L10.2261 10.6665C10.2558 10.6764 13.2005 12.1193 15.829 10.6665C17.0346 9.99446 18.6255 8.92709 19.3469 7.63242C19.4062 7.51382 19.4853 7.41499 19.6038 7.40511C19.7718 7.39522 19.9102 7.583 20.1869 7.95856C20.3351 8.1661 20.3647 8.36376 20.4042 8.54165C20.4635 8.84803 20.5031 9.03581 21.1256 9.0951C22.0347 9.17417 22.3806 8.79861 22.8154 8.31434C22.8648 8.25505 22.9241 8.19575 22.9735 8.13645C23.3688 7.72136 23.6751 7.583 23.9122 7.583C24.0605 7.583 24.1791 7.63242 24.2779 7.7016C24.5941 7.93879 24.9202 9.13464 24.9597 9.30265C25.0388 9.66832 24.6929 10.0933 24.1494 10.3008C24.0802 10.3305 23.9221 10.3997 23.9518 10.5183C23.9715 10.627 24.1198 10.7456 24.3372 10.7456H32.6477L32.6674 10.7555C32.6773 10.7555 33.1121 10.9136 33.5271 11.0421L33.6062 11.0717C34.1299 11.2397 35.7307 11.7635 38.132 10.6665C39.9799 9.81656 40.9087 8.61084 41.4028 7.95856C41.6202 7.67195 41.7289 7.5237 41.8475 7.50394C42.2625 7.41499 42.4898 7.83008 42.6479 8.24516C42.6677 8.30446 42.6875 8.36376 42.7171 8.41318C42.8653 8.8085 42.974 9.10499 43.5669 9.12475C44.2883 9.1544 44.5353 9.02592 45.0591 8.34399C45.6618 7.56324 46.2844 7.38534 46.5907 7.62253C46.9761 7.90914 47.2429 9.14452 47.2726 9.28288C47.3714 9.76715 47.0848 9.91539 46.8279 10.0439C46.6994 10.1032 46.571 10.1724 46.482 10.2811C46.3832 10.3898 46.3338 10.4985 46.3634 10.5578C46.403 10.6467 46.6006 10.7258 47.0156 10.6863C47.1342 10.6764 50.6916 10.6962 54.9704 10.7258C56.5416 10.7357 57.7768 10.7456 57.9645 10.7456C58.1622 10.7456 58.2906 10.706 58.3005 10.627C58.3203 10.4787 58.0634 10.1921 57.8064 10.1131C57.6582 10.0735 56.3538 9.6782 56.3538 8.97651V4.24254C56.3538 3.46178 57.1839 2.57231 59.012 2.4636C60.7117 2.36477 62.7473 2.71067 63.2315 3.67921C63.3995 4.00535 63.4094 4.32161 63.2611 4.59833C63.024 5.04307 62.3817 5.35932 61.4528 5.47792C60.1978 5.63605 58.9231 5.22096 58.508 4.73669C58.3302 4.51927 58.2709 4.34137 58.3302 4.18324C58.4191 3.96582 58.7254 3.84722 59.3183 3.80769C59.7531 3.77804 60.0002 3.83734 60.099 4.00535C60.2077 4.19313 60.0595 4.41055 60.0002 4.4995C59.9903 4.51927 59.9903 4.56868 60.0298 4.63786C60.1385 4.80587 60.4547 4.95412 60.9982 4.86517C61.3737 4.79599 61.6405 4.60821 61.7097 4.35125C61.7789 4.11406 61.6801 3.83734 61.4528 3.63968C60.9785 3.22459 59.0713 2.70079 57.5396 3.59026C57.1147 3.83734 56.8874 4.12395 56.8677 4.43032C56.838 4.89482 57.2629 5.45815 58.1226 6.10055C58.4586 6.34762 58.7452 6.55517 58.9922 6.74295C59.8025 7.33593 60.2472 7.66207 60.7907 8.25505C61.4824 9.00616 61.4528 9.78691 61.0773 10.1724C60.9192 10.3305 60.9192 10.5183 60.9587 10.627C60.9785 10.6665 61.0279 10.7752 61.1464 10.7752H73.8642C73.9037 10.7752 73.9235 10.7653 73.9235 10.7653C73.9729 10.6863 73.6863 10.2317 73.1922 9.94504C73.1823 9.93516 71.7001 9.05557 71.7001 8.5713V7.1778C71.7001 6.87142 71.7989 6.63423 71.9867 6.4761C72.2732 6.23891 72.7574 6.17961 73.459 6.29821C74.5559 6.49587 75.9591 7.48417 76.6607 8.55154C77.0658 9.17417 77.2042 9.52996 77.135 9.78691C77.0856 9.97469 76.9275 10.0834 76.7694 10.1526C76.5322 10.2712 76.4137 10.4392 76.3939 10.5578C76.384 10.6072 76.3939 10.6369 76.4235 10.6665C76.5026 10.7357 77.0362 10.6962 77.3919 10.6665C77.6489 10.6467 77.9256 10.627 78.1627 10.627C78.4295 10.627 78.6074 10.706 78.8149 10.7851C79.1805 10.9333 79.6746 11.131 80.9988 11.131C82.9257 11.131 84.6945 10.2811 85.7518 8.84803L85.9989 8.51201C86.8092 7.40511 87.0859 7.03944 87.5108 7.21733C87.8072 7.34581 87.9357 7.62253 88.1235 8.03762C88.2124 8.23528 88.3112 8.46259 88.4594 8.72943C88.5879 8.96662 88.7855 9.0951 89.0424 9.13464C89.4772 9.19393 90.0109 8.97651 90.248 8.72943C90.3468 8.6306 90.4555 8.49224 90.5642 8.34399C90.8903 7.91902 91.256 7.43476 91.7303 7.54347C92.3034 7.67195 92.4813 8.47247 92.6196 9.05557L92.6493 9.18405C92.7975 9.81656 92.333 10.1427 91.8884 10.3997C91.75 10.4787 91.7303 10.538 91.7303 10.5479C91.7402 10.5874 91.8587 10.6566 91.9872 10.6566H98.934C99.1218 10.6566 99.1613 10.6171 99.1712 10.6072C99.2403 10.5677 99.0526 10.3601 98.8747 10.2811ZM22.7759 6.82201C22.3707 7.08885 22.015 7.31616 21.7185 7.31616C21.6987 7.31616 21.6889 7.31616 21.6691 7.31616C21.511 7.30628 21.3727 7.16791 21.1849 6.97025C20.9576 6.74295 20.6513 6.43657 20.1869 6.19938C20.1473 6.17961 20.0979 6.1302 20.1177 6.0116C20.1671 5.71511 21.1849 3.58038 21.4912 3.55073C21.8272 3.52108 22.9636 5.52733 23.0525 5.77441C23.2106 6.17961 23.2798 6.48599 22.7759 6.82201ZM32.4401 3.46178C32.3216 3.47167 32.2129 3.48155 32.1437 3.50132L32.0745 3.52108C30.4638 3.9164 30.4836 4.13383 30.4836 4.13383C30.5132 4.27219 30.8097 4.48962 31.0271 4.63786C31.3038 4.83552 31.5014 4.97389 31.5014 5.1419C31.5014 5.19131 31.5014 5.37909 31.5113 5.63605C31.531 6.52552 31.5607 8.18587 31.531 8.7492C31.5014 9.54972 30.9381 9.97469 30.4243 9.97469C29.95 9.97469 29.1001 9.20382 29.0013 9.11487L28.9816 9.08522C28.9717 9.07534 28.2305 7.87949 27.3214 6.23891C26.8669 5.41862 26.4716 4.66751 26.185 4.06465L26.1159 3.92629L26.2641 3.89664C26.6791 3.82746 27.0744 3.69898 27.4301 3.52108C28.4183 3.0467 28.695 2.99728 29.7029 2.90833C30.5132 2.82927 32.786 2.8095 33.033 3.03681C33.0627 3.06646 33.0825 3.10599 33.0825 3.14553C33.0923 3.40249 32.7564 3.43213 32.4401 3.46178ZM41.5906 4.17336C41.3337 4.68728 41.1558 5.01342 40.8198 5.12213C40.6815 5.17155 40.474 5.13201 40.1281 5.07272C39.6439 4.98377 38.9028 4.85529 37.8553 4.87505C36.4818 4.9047 35.6912 5.25061 35.5726 5.89301C35.543 6.0709 35.5825 6.23891 35.6813 6.37727C35.8691 6.62435 36.2545 6.80224 36.7782 6.87142C37.5885 6.98014 37.9344 6.83189 37.9937 6.66388C38.0035 6.64412 37.9838 6.58482 37.9739 6.54528C37.9442 6.42669 37.9146 6.27844 38.0134 6.1302C38.1122 5.99184 38.3099 5.91277 38.636 5.87324C39.2783 5.80406 39.7427 5.87324 39.9898 6.0709C40.0985 6.15985 40.1577 6.26856 40.1676 6.38716C40.2071 6.80224 39.466 7.65218 38.1913 8.32423C37.381 8.7492 36.8474 8.85791 36.462 8.85791C36.2248 8.85791 36.0371 8.81838 35.8691 8.77885C35.3849 8.67013 35.1971 8.47247 35.1873 8.45271L35.1576 8.42306V4.81576C35.1576 4.47973 35.2663 4.15359 35.4738 3.88675L35.5924 3.72863C36.1161 3.20482 36.6497 3.17518 37.628 3.11588L37.8158 3.10599C38.8336 3.0467 40.3455 2.39442 40.8495 2.18687L40.9087 2.15723C41.1657 2.04851 41.4325 1.95956 41.64 2.05839C41.7783 2.11769 41.8673 2.25606 41.9266 2.45372C42.0649 2.95775 41.8475 3.66933 41.5906 4.17336ZM45.1776 6.82201C44.7725 7.08885 44.4167 7.31616 44.1203 7.31616C44.1005 7.31616 44.0907 7.31616 44.0709 7.31616C43.9128 7.30628 43.7744 7.16791 43.5867 6.97025C43.3594 6.74295 43.0531 6.43657 42.5886 6.19938C42.5491 6.17961 42.4997 6.1302 42.5195 6.0116C42.5689 5.71511 43.5867 3.58038 43.893 3.55073C44.229 3.52108 45.3654 5.52733 45.4543 5.77441C45.6124 6.17961 45.6816 6.48599 45.1776 6.82201ZM90.663 6.82201C90.2579 7.08885 89.9022 7.31616 89.6057 7.31616C89.5958 7.31616 89.5761 7.31616 89.5563 7.31616C89.3982 7.30628 89.2598 7.16791 89.0721 6.97025C88.8448 6.74295 88.5385 6.43657 88.074 6.19938C88.0345 6.17961 87.9851 6.1302 88.0049 6.0116C88.0543 5.71511 89.0721 3.58038 89.3784 3.55073H89.3883C89.7342 3.55073 90.8508 5.52733 90.9397 5.77441C91.0978 6.17961 91.167 6.48599 90.663 6.82201Z" fill="white"/>
</svg>
