<svg width="101" height="100" viewBox="0 0 101 100" fill="none" xmlns="http://www.w3.org/2000/svg">
<path d="M76.7801 60.5411C76.7139 60.592 76.6483 60.6409 76.58 60.6883C76.6219 60.7046 76.6618 60.723 76.7038 60.7428C76.7369 60.7577 76.7679 60.7739 76.8011 60.7902C76.8234 60.8008 76.8463 60.8121 76.8673 60.8228C76.9977 60.89 77.1194 60.9629 77.2377 61.045C77.0065 61.1908 76.7686 61.3324 76.5307 61.469C76.5118 61.4782 76.4976 61.4874 76.4787 61.4966C76.4334 61.5242 76.3868 61.5511 76.3361 61.5765C76.2651 61.6183 76.1901 61.6586 76.1151 61.6983C75.4757 62.0437 74.8154 62.3537 74.1395 62.6247C73.2704 62.9779 72.3708 63.2688 71.4483 63.4925C71.0225 63.5979 70.5899 63.6871 70.1519 63.76C69.6133 63.8549 69.0692 63.9256 68.5184 63.9709C68.0183 64.0162 67.512 64.0403 67.0017 64.0438C66.4908 64.0403 65.9832 64.0162 65.4831 63.9709C64.9323 63.9256 64.3882 63.8541 63.8516 63.76C63.4122 63.6871 62.979 63.5979 62.5539 63.4925C61.6314 63.2688 60.7311 62.9772 59.8626 62.6247C59.1868 62.3537 58.5265 62.0444 57.8871 61.6983C57.8141 61.6579 57.7391 61.6183 57.6661 61.5765C57.6154 61.5511 57.5688 61.5235 57.5235 61.4966C57.5046 61.4874 57.4904 61.4782 57.4714 61.469C57.2335 61.3324 56.9956 61.1908 56.7645 61.045C56.8828 60.9629 57.0044 60.89 57.1349 60.8228C57.1558 60.8121 57.1781 60.8008 57.2011 60.7902C57.2342 60.7739 57.2653 60.7577 57.2984 60.7428C57.3403 60.723 57.3815 60.7046 57.4235 60.6883C57.3538 60.6409 57.2876 60.592 57.2221 60.5411C57.1038 60.4554 56.9909 60.3684 56.8746 60.2771C56.8605 60.2665 56.8436 60.2537 56.8314 60.2424C56.8294 60.2403 56.8294 60.2403 56.8294 60.2389C56.3414 59.8552 55.8737 59.4433 55.429 59.0052C55.6324 58.9691 55.8426 58.9507 56.0562 58.9507H56.0771C55.9088 58.6266 55.7467 58.2975 55.6013 57.9606C55.2242 57.1197 54.9201 56.2407 54.6842 55.3291C54.9728 55.3581 55.2492 55.4182 55.5148 55.511C55.4121 54.7614 55.3621 53.997 55.3621 53.2185C55.3621 53.1222 55.3621 53.0253 55.3655 52.929C55.3776 51.9721 55.475 51.035 55.6385 50.1234C55.9406 50.1893 56.2279 50.2926 56.4969 50.4292C56.5678 50.1199 56.6483 49.8141 56.7348 49.514C57.0457 48.446 57.4539 47.4233 57.956 46.4607C57.9615 46.448 57.9682 46.4331 57.9736 46.4204C58.0608 46.2583 58.1473 46.0983 58.2392 45.9398C58.2724 45.9709 58.3034 46 58.3332 46.0325C58.5488 46.2456 58.7414 46.4841 58.9029 46.7424C58.9516 46.5513 59.0057 46.3637 59.0665 46.1762C59.2767 45.4868 59.5288 44.8187 59.8221 44.1725C59.8741 44.0578 59.9282 43.9453 59.9823 43.8321C60.1438 43.4938 60.502 42.8384 60.502 42.8384C60.7629 43.1116 60.9832 43.4223 61.1603 43.7662C61.2035 43.8498 61.2421 43.9375 61.2819 44.0246C61.4577 43.6445 61.6469 43.2715 61.8517 42.907C62.2755 42.1447 62.7607 41.4221 63.294 40.7455C63.4102 40.875 63.5184 41.0144 63.6103 41.1602C63.6326 41.1914 63.6536 41.2218 63.6745 41.2551C63.6765 41.2586 63.6799 41.2643 63.6813 41.2678C63.6988 41.299 63.7177 41.3294 63.7367 41.3605C63.7488 41.3372 63.761 41.3131 63.7712 41.2898C64.0888 40.6768 64.445 40.0908 64.8363 39.5317C65.0255 39.2606 65.2222 38.9987 65.429 38.7418C65.4432 38.7255 65.4554 38.7071 65.4689 38.6908C65.5317 38.7765 65.6007 38.86 65.6723 38.94C65.6879 38.9584 65.7055 38.9761 65.721 38.9945C65.7264 39.0016 65.7332 39.0093 65.7386 39.0164L65.7906 39.0695C65.8325 38.8586 65.89 38.6526 65.9609 38.4566V38.4544C66.036 38.2471 66.1279 38.0468 66.2353 37.8578C66.2576 37.8139 66.2819 37.7707 66.3103 37.7269C66.3644 37.6398 66.4219 37.552 66.4827 37.4699C66.6354 37.2555 66.8111 37.0566 67.0038 36.8804C67.195 37.0566 67.3721 37.2555 67.5249 37.4699C67.5837 37.552 67.6431 37.6391 67.6952 37.7269C67.7229 37.7707 67.7472 37.8139 67.7702 37.8578C67.8777 38.0468 67.9716 38.2471 68.0466 38.4544V38.4566C68.1163 38.6533 68.1737 38.8586 68.2149 39.0695L68.267 39.0164C68.2737 39.0093 68.2791 39.0016 68.2859 38.9945C68.3001 38.9761 68.319 38.9584 68.3325 38.94C68.4055 38.86 68.4731 38.7765 68.536 38.6908C68.5502 38.7071 68.5623 38.7255 68.5779 38.7418C68.7847 38.998 68.9807 39.2606 69.1686 39.5317C69.5592 40.0901 69.9161 40.6761 70.2337 41.2898C70.2439 41.3131 70.256 41.3372 70.2682 41.3605C70.2871 41.3294 70.3067 41.299 70.3256 41.2678C70.3277 41.2643 70.329 41.2586 70.3311 41.2551C70.352 41.2225 70.3729 41.1914 70.3952 41.1602C70.4892 41.0144 70.5967 40.8743 70.7116 40.7455C71.2448 41.4221 71.7301 42.1447 72.1538 42.907C72.3586 43.2708 72.5485 43.6438 72.7256 44.0246C72.7641 43.9375 72.804 43.8498 72.8473 43.7662C73.023 43.4223 73.2433 43.1109 73.5042 42.8384C73.5042 42.8384 73.8624 43.4938 74.0239 43.8321C74.078 43.9446 74.1314 44.0578 74.1841 44.1725C74.4774 44.8187 74.7295 45.4861 74.9417 46.1762C75.0005 46.3637 75.0546 46.5513 75.1053 46.7424C75.2655 46.4841 75.4581 46.2456 75.6737 46.0325C75.7048 46 75.7366 45.9709 75.769 45.9398C75.8596 46.0983 75.9461 46.2583 76.0333 46.4204C76.0401 46.4331 76.0454 46.448 76.0522 46.4607C76.5523 47.4233 76.9626 48.446 77.2722 49.514C77.3593 49.8141 77.4404 50.1199 77.51 50.4292C77.7797 50.2926 78.0663 50.1893 78.3684 50.1234C78.5319 51.035 78.6292 51.9721 78.6414 52.929C78.6468 53.0253 78.6469 53.1222 78.6469 53.2185C78.6469 53.997 78.5948 54.7614 78.4941 55.511C78.7584 55.4182 79.0348 55.3581 79.3227 55.3291C79.0862 56.2407 78.782 57.1197 78.4069 57.9606C78.2589 58.2975 78.0974 58.6266 77.9311 58.9507H77.9521C78.1643 58.9507 78.3758 58.9691 78.5779 59.0052C78.1332 59.444 77.6655 59.8552 77.1775 60.2389C77.1775 60.241 77.1775 60.241 77.1755 60.2424C77.1633 60.253 77.1478 60.2657 77.1322 60.2771C77.0126 60.3677 76.8984 60.4554 76.7801 60.5411Z" fill="white"/>
<path d="M66.9995 64.044C66.9995 64.044 66.131 49.987 66.9988 42.6821" stroke="#09090A" stroke-width="0.745805" stroke-miterlimit="10"/>
<path d="M66.7997 59.9499C66.7997 59.9499 74.8729 57.8832 75.9157 56.2681" stroke="#09090A" stroke-width="0.559354" stroke-miterlimit="10"/>
<path d="M66.8059 59.3996C66.8059 59.3996 58.7328 57.3329 57.6899 55.7178" stroke="#09090A" stroke-width="0.559354" stroke-miterlimit="10"/>
<path d="M66.6334 54.1085C66.6334 54.1085 71.4402 53.7893 72.8737 52.1968" stroke="#09090A" stroke-width="0.559354" stroke-miterlimit="10"/>
<path d="M66.6338 53.46C66.6338 53.46 61.8271 53.1408 60.3936 51.5483" stroke="#09090A" stroke-width="0.559354" stroke-miterlimit="10"/>
<path d="M66.6454 48.4653C66.6454 48.4653 69.4853 48.1985 70.441 46.354" stroke="#09090A" stroke-width="0.559354" stroke-miterlimit="10"/>
<path d="M66.6137 47.7441C66.6137 47.7441 63.7737 47.4773 62.818 45.6328" stroke="#09090A" stroke-width="0.559354" stroke-miterlimit="10"/>
<path d="M85.0576 45.915H87.1393V51.6217H89.2216V45.915H91.3032V63.0357H89.2216V53.9048H87.1393V63.0357H85.0576V45.915Z" fill="white"/>
<path d="M93.5332 45.915H95.6149V51.6217H97.6972V45.915H99.7789V63.0357H97.6972V53.9048H95.6149V63.0357H93.5332V45.915Z" fill="white"/>
<path d="M5.25269 52.3725C6.07048 50.8682 6.44221 48.9416 6.44221 47.0816V45.9404H0.197266V63.0655H6.44221V61.9243C6.44221 60.0718 6.07049 57.8932 5.3 56.1443C4.96207 55.3885 4.51601 54.64 3.94828 54.0472C4.47545 53.5878 4.908 53.0172 5.25269 52.3725ZM4.30651 60.7832H2.27893V55.4774C2.68444 55.8109 3.07644 56.3592 3.42113 57.1447C3.89424 58.2044 4.19161 59.516 4.30651 60.7832ZM3.46168 51.2091C3.13051 51.8242 2.73851 52.2688 2.27893 52.5281H2.27216V48.2228H4.29974C4.18485 49.364 3.89423 50.4088 3.46168 51.2091Z" fill="white"/>
<path d="M10.7543 48.2217V51.6526H10.761V48.2217H10.7543Z" fill="white"/>
<path d="M21.3109 45.8872V51.5931H19.2292V45.8872H17.1476V63.0123H19.2292V53.8755H21.3109V63.0123H23.3925V45.8872H21.3109Z" fill="white"/>
<path d="M29.7865 45.9395V50.0373L27.7048 52.3197V45.9395H25.6232V63.0645H27.7048V55.5431L29.7865 53.2608V63.0645H31.8681V45.9395H29.7865Z" fill="white"/>
<path d="M39.3975 52.3567C40.195 50.8302 40.4654 48.8961 40.4654 47.0806V45.9395H38.3837V47.0806C38.3837 48.6961 38.1336 50.1855 37.5862 51.2229C37.2482 51.8751 36.8022 52.3567 36.1804 52.6087V45.9395H34.0988V63.0645H36.1804V55.343C36.7346 55.6617 37.1874 56.2619 37.5524 57.1215C38.1336 58.4924 38.3837 60.3079 38.3837 61.9234V63.0645H40.4654V61.9234C40.4654 60.1153 40.195 57.9366 39.4448 56.1582C39.1069 55.3727 38.6608 54.6317 38.0795 54.0463C38.6135 53.5942 39.0528 53.0162 39.3975 52.3567Z" fill="white"/>
<path d="M46.8657 45.9395V50.0373L44.7841 52.3197V45.9395H42.7024V63.0645H44.7841V55.5431L46.8657 53.2608V63.0645H48.9473V45.9395H46.8657Z" fill="white"/>
<path d="M10.761 48.2217H10.7543V51.6526H10.761V48.2217Z" fill="white"/>
<path d="M12.8361 48.2218H10.7545V51.6528H12.8361V53.9351H10.7545V60.7822H12.8361V57.3586H14.9178V63.0645H8.67285V52.6976C8.67285 52.4753 8.67282 52.2233 8.67958 51.9566V45.9395H14.9178V50.5042H12.8361V48.2218Z" fill="white"/>
<path d="M10.761 48.2217H10.7543V51.6526H10.761V48.2217Z" fill="white"/>
</svg>
