<svg width="101" height="100" viewBox="0 0 101 100" fill="none" xmlns="http://www.w3.org/2000/svg">
<path fill-rule="evenodd" clip-rule="evenodd" d="M63.7397 63.2964C64.0559 64.1799 64.0737 65.1277 63.7836 66.0529C63.4115 67.2396 62.6023 68.1676 61.4773 68.6976C53.1367 72.6269 43.4324 72.6192 35.098 68.6768C33.9739 68.145 33.1661 67.2157 32.7959 66.0285C32.4276 64.8477 32.5654 63.6117 33.1847 62.541L33.4532 62.0767C32.5034 62.1229 31.5736 61.8578 30.7709 61.3016C24.7455 57.1269 20.4308 50.9688 18.5399 43.8894C16.4193 35.9502 17.531 27.5537 21.646 20.4393C29.6905 6.53108 47.1015 1.08983 61.6159 7.97363C62.5283 8.40638 63.2315 9.10098 63.6614 9.98273C64.2702 9.25598 65.0885 8.75933 66.0439 8.54598C67.251 8.27643 68.4713 8.51558 69.4873 9.22103C77.0692 14.4856 81.9052 22.8769 82.6589 32.0765C82.7604 33.3148 82.3588 34.4809 81.5166 35.3943C80.9072 36.0553 80.1458 36.4973 79.3006 36.6906C79.9917 37.562 80.3153 38.633 80.2215 39.7571C79.4532 48.9555 74.604 57.3392 67.0138 62.5918C66.0391 63.2663 64.8953 63.5113 63.7397 63.2964Z" fill="#292929"/>
<path fill-rule="evenodd" clip-rule="evenodd" d="M48.3997 35.9139L35.1573 58.8088C34.8392 59.3587 34.3578 59.7121 33.7378 59.8508C33.1179 59.9895 32.5318 59.8755 32.0098 59.5137C19.8382 51.0806 15.984 34.5731 23.5289 21.5286C31.0739 8.48412 47.3046 3.59377 60.6837 9.93917C61.2577 10.2114 61.6487 10.6624 61.8376 11.269C62.0266 11.8756 61.9602 12.469 61.6421 13.019L48.3997 35.9139Z" fill="white"/>
<path fill-rule="evenodd" clip-rule="evenodd" d="M19.6647 35.8831C22.3576 38.7856 25.3739 41.4181 28.6818 43.7197C29.6943 44.4241 30.8317 44.6482 32.0358 44.3805C33.2399 44.1128 34.1752 43.4278 34.7938 42.3607L54.7748 7.89199C42.8201 5.16828 29.9898 10.358 23.5288 21.5284C20.9095 26.0569 19.6653 31.0026 19.6647 35.8831Z" fill="#E3E3E3"/>
<path fill-rule="evenodd" clip-rule="evenodd" d="M46.4081 44.0237L35.0678 63.6299C34.7495 64.1802 34.6833 64.7739 34.8726 65.3808C35.0618 65.9876 35.4537 66.4385 36.0283 66.7103C43.7848 70.3794 52.788 70.3865 60.5503 66.7296C61.1253 66.4587 61.5179 66.0085 61.7081 65.4019C61.8983 64.7954 61.8331 64.2016 61.5157 63.6508L50.2063 44.0267C49.8042 43.329 49.1132 42.9294 48.308 42.9287C47.5028 42.9281 46.8112 43.3267 46.4081 44.0237Z" fill="white"/>
<path fill-rule="evenodd" clip-rule="evenodd" d="M53.7573 31.3172L65.0976 11.711C65.4158 11.1607 65.8975 10.8073 66.5179 10.6688C67.1383 10.5302 67.7246 10.6451 68.2466 11.0076C75.2947 15.9015 79.7902 23.702 80.4909 32.2539C80.5429 32.8874 80.3483 33.4523 79.9174 33.9196C79.4865 34.3869 78.9392 34.6264 78.3035 34.6259L55.6538 34.6081C54.8486 34.6074 54.1576 34.2078 53.7556 33.5101C53.3536 32.8125 53.3542 32.0142 53.7573 31.3172Z" fill="white"/>
<path fill-rule="evenodd" clip-rule="evenodd" d="M51.3187 40.4705L62.6281 60.0946C62.9455 60.6453 63.4267 60.9995 64.0468 61.139C64.6669 61.2785 65.2534 61.1646 65.7761 60.8029C72.8319 55.9201 77.3396 48.1267 78.0538 39.5759C78.1067 38.9425 77.9131 38.3773 77.4829 37.9094C77.0527 37.4414 76.5058 37.201 75.8702 37.2005L53.2204 37.1826C52.4152 37.182 51.7236 37.5806 51.3205 38.2776C50.9173 38.9746 50.9167 39.7729 51.3187 40.4705Z" fill="white"/>
<path d="M8.38862 93.9403V82.692C8.38862 81.4847 9.37332 80.5 10.5806 80.5H18.2353C19.4426 80.5 20.4273 81.4847 20.4273 82.692V93.9403H18.8944C17.6871 93.9403 16.7024 92.9556 16.7024 91.7483V83.7641H12.1136V91.7483C12.1136 92.9556 11.1289 93.9403 9.92157 93.9403H8.38861H8.38862ZM46.5457 94.074L46.5165 94.0743C45.7066 94.0743 45.0502 93.4178 45.0502 92.608C45.0502 91.4007 46.0436 91.4269 46.511 90.7147C46.6454 90.5098 46.751 90.2154 46.8278 89.8314C46.9046 89.4473 46.9718 88.8937 47.0294 88.1706C47.0835 87.4919 47.1121 86.6806 47.1155 85.7371C47.1197 84.5325 48.1029 83.5529 49.3074 83.5529H53.8904C55.0977 83.5529 56.0824 84.5375 56.0824 85.7448V93.9403H54.6262C53.419 93.9403 52.4343 92.9556 52.4343 91.7483V86.4521H50.5142C50.5142 87.6059 50.4854 88.7555 50.3126 89.8986C50.1782 90.7882 50.0022 91.4986 49.7846 92.0298C49.567 92.5611 49.2855 92.9835 48.9398 93.2971C48.5942 93.6107 48.2422 93.8187 47.8837 93.9211C47.4491 94.0453 46.9961 94.0764 46.546 94.0744L46.5457 94.074ZM25.5729 94.1707C24.549 94.1707 23.7105 93.8859 23.0577 93.3163C22.4049 92.7467 22.0785 91.9498 22.0785 90.9258C22.0785 89.8762 22.4433 89.0698 23.1729 88.5065C23.9025 87.9434 24.8945 87.6618 26.1489 87.6618C27.0578 87.6618 27.8898 87.7962 28.645 88.065V87.8922C28.645 86.7657 27.9538 86.2026 26.5714 86.2026C25.637 86.2026 24.6833 86.3945 23.7105 86.7786L23.5764 86.3179C23.3942 85.6919 23.4807 85.0822 23.8298 84.5315C24.179 83.9809 24.6935 83.6426 25.3375 83.5404C25.9304 83.4464 26.5401 83.3993 27.1665 83.3993C28.9586 83.3993 30.277 83.8217 31.1219 84.6665C31.8643 85.3962 32.2354 86.4969 32.2354 87.969V91.7483C32.2354 92.9556 31.2508 93.9403 30.0435 93.9403H28.6258V92.8651C27.845 93.7355 26.8274 94.1707 25.5729 94.1707V94.1707ZM26.8786 91.8858C27.4162 91.8858 27.8514 91.729 28.1842 91.4154C28.517 91.1019 28.6834 90.689 28.6834 90.177V89.697C28.2609 89.5178 27.7874 89.4282 27.2626 89.4282C26.7378 89.4282 26.3282 89.5466 26.0338 89.7834C25.7394 90.0202 25.5922 90.3434 25.5922 90.753C25.5922 91.0986 25.7106 91.3738 25.9474 91.5787C26.1842 91.7835 26.4946 91.8858 26.8786 91.8858H26.8786ZM34.0978 91.7483V85.7448C34.0978 84.5376 35.0825 83.5529 36.2898 83.5529H40.2612C41.5285 83.5529 42.4756 83.8665 43.1028 84.4937C43.5508 84.9161 43.7749 85.4793 43.7749 86.1833C43.7749 87.2586 43.2372 88.0329 42.162 88.5065C42.8277 88.7242 43.3237 89.0346 43.65 89.4378C43.9765 89.841 44.1397 90.3882 44.1397 91.0795C44.1397 91.9754 43.7941 92.6762 43.1028 93.1818C42.4116 93.6875 41.4452 93.9403 40.2035 93.9403H36.2898C35.0825 93.9403 34.0978 92.9556 34.0978 91.7483V91.7483ZM37.6499 91.5787H39.1476C39.57 91.5787 39.8996 91.4922 40.1364 91.3194C40.3732 91.1466 40.4916 90.9066 40.4916 90.5994C40.4916 90.3178 40.3732 90.0874 40.1364 89.9082C39.8996 89.7289 39.5572 89.6394 39.1092 89.6394H37.6499V91.5787V91.5787ZM37.6499 87.681H38.8788C39.2884 87.681 39.6084 87.5977 39.8388 87.4314C40.0693 87.2649 40.1844 87.0409 40.1844 86.7593C40.1844 86.4906 40.0756 86.2761 39.858 86.1161C39.6404 85.9561 39.3332 85.8761 38.9364 85.8761H37.6499V87.6809V87.681ZM63.34 94.1898C61.7016 94.1898 60.3383 93.6619 59.2503 92.6059C58.1623 91.5499 57.6183 90.2666 57.6183 88.7562C57.6183 87.2586 58.1655 85.9785 59.2599 84.9161C60.3544 83.8537 61.7272 83.3225 63.3784 83.3225C65.0169 83.3225 66.3801 83.8505 67.4681 84.9065C68.5561 85.9626 69.1001 87.2458 69.1001 88.7562C69.1001 90.2538 68.553 91.5338 67.4585 92.5963C66.364 93.6587 64.9912 94.1898 63.34 94.1898H63.34ZM63.3784 91.0986C64.0312 91.0986 64.5561 90.8747 64.9529 90.4266C65.3496 89.9786 65.5481 89.4218 65.5481 88.7562C65.5481 88.1162 65.3369 87.5658 64.9145 87.105C64.492 86.6442 63.9672 86.4138 63.34 86.4138C62.6872 86.4138 62.1624 86.6377 61.7656 87.0858C61.3688 87.5338 61.1704 88.0905 61.1704 88.7562C61.1704 89.3962 61.3815 89.9466 61.804 90.4074C62.2264 90.8682 62.7512 91.0986 63.3784 91.0986ZM70.6361 91.7483V85.7448C70.6361 84.5376 71.6208 83.5529 72.828 83.5529H76.7994C78.0667 83.5529 79.0139 83.8665 79.6411 84.4937C80.0891 84.9161 80.3131 85.4793 80.3131 86.1833C80.3131 87.2586 79.7755 88.0329 78.7002 88.5065C79.3659 88.7242 79.8619 89.0346 80.1882 89.4378C80.5147 89.841 80.6779 90.3882 80.6779 91.0795C80.6779 91.9754 80.3323 92.6762 79.6411 93.1818C78.9499 93.6875 77.9834 93.9403 76.7418 93.9403H72.828C71.6207 93.9403 70.6361 92.9556 70.6361 91.7483L70.6361 91.7483ZM74.1882 91.5787H75.6858C76.1082 91.5787 76.4379 91.4922 76.6746 91.3194C76.9114 91.1466 77.0298 90.9066 77.0298 90.5994C77.0298 90.3178 76.9115 90.0874 76.6746 89.9082C76.4379 89.7289 76.0954 89.6394 75.6474 89.6394H74.1881V91.5787L74.1882 91.5787ZM74.1882 87.681H75.417C75.8266 87.681 76.1466 87.5977 76.377 87.4314C76.6075 87.2649 76.7226 87.0409 76.7226 86.7593C76.7226 86.4906 76.6138 86.2761 76.3962 86.1161C76.1787 85.9561 75.8715 85.8761 75.4746 85.8761H74.1882V87.6809V87.681ZM87.6285 94.1898C85.99 94.1898 84.6268 93.6619 83.5388 92.6059C82.4508 91.5499 81.9068 90.2666 81.9068 88.7562C81.9068 87.2586 82.454 85.9785 83.5484 84.9161C84.6428 83.8537 86.0156 83.3225 87.6669 83.3225C89.3053 83.3225 90.6685 83.8505 91.7565 84.9065C92.8446 85.9626 93.3886 87.2458 93.3886 88.7562C93.3886 90.2538 92.8414 91.5338 91.7469 92.5963C90.6525 93.6587 89.2797 94.1898 87.6285 94.1898H87.6285ZM87.6669 91.0986C88.3197 91.0986 88.8445 90.8747 89.2413 90.4266C89.6381 89.9786 89.8365 89.4218 89.8365 88.7562C89.8365 88.1162 89.6253 87.5658 89.2029 87.105C88.7805 86.6442 88.2556 86.4138 87.6285 86.4138C86.9756 86.4138 86.4508 86.6377 86.0541 87.0858C85.6572 87.5338 85.4588 88.0905 85.4588 88.7562C85.4588 89.3962 85.67 89.9466 86.0924 90.4074C86.5148 90.8682 87.0397 91.0986 87.6669 91.0986Z" fill="white"/>
</svg>
