<svg width="480" height="50" viewBox="0 0 480 50" fill="none" xmlns="http://www.w3.org/2000/svg">
<path d="M41.648 47L40.648 47.0063L40.6543 48H41.648V47ZM41.52 26.584L42.52 26.5777L42.4974 22.9791L40.6601 26.0735L41.52 26.584ZM31.792 42.968V43.968H32.3612L32.6519 43.4785L31.792 42.968ZM25.136 42.968L24.2863 43.4952L24.5796 43.968H25.136V42.968ZM15.408 27.288L16.2577 26.7608L14.408 23.7793V27.288H15.408ZM15.408 47V48H16.408V47H15.408ZM1.648 47H0.648V48H1.648V47ZM1.648 2.2V1.2H0.648V2.2H1.648ZM14.064 2.2L14.9172 1.67846L14.6248 1.2H14.064V2.2ZM28.656 26.072L27.8028 26.5935L28.6674 28.0081L29.5153 26.5834L28.656 26.072ZM42.864 2.2V1.2H42.2955L42.0047 1.68855L42.864 2.2ZM55.28 2.2L56.28 2.19714L56.2771 1.2H55.28V2.2ZM55.408 47V48H56.4109L56.408 46.9971L55.408 47ZM42.648 46.9937L42.52 26.5777L40.52 26.5903L40.648 47.0063L42.648 46.9937ZM40.6601 26.0735L30.9321 42.4575L32.6519 43.4785L42.3799 27.0945L40.6601 26.0735ZM31.792 41.968H25.136V43.968H31.792V41.968ZM25.9857 42.4408L16.2577 26.7608L14.5583 27.8152L24.2863 43.4952L25.9857 42.4408ZM14.408 27.288V47H16.408V27.288H14.408ZM15.408 46H1.648V48H15.408V46ZM2.648 47V2.2H0.648V47H2.648ZM1.648 3.2H14.064V1.2H1.648V3.2ZM13.2108 2.72154L27.8028 26.5935L29.5092 25.5505L14.9172 1.67846L13.2108 2.72154ZM29.5153 26.5834L43.7233 2.71144L42.0047 1.68855L27.7967 25.5606L29.5153 26.5834ZM42.864 3.2H55.28V1.2H42.864V3.2ZM54.28 2.20285L54.408 47.0029L56.408 46.9971L56.28 2.19714L54.28 2.20285ZM55.408 46H41.648V48H55.408V46ZM73.2065 45.016L73.6694 44.1296L73.2065 45.016ZM64.1825 36.696L63.3277 37.215L63.3305 37.2195L64.1825 36.696ZM64.1825 12.568L65.0345 13.0915L65.0373 13.087L64.1825 12.568ZM99.1905 4.184L99.6534 3.29759L99.1905 4.184ZM108.215 12.568L107.36 13.087L107.362 13.0915L108.215 12.568ZM108.215 36.696L109.067 37.2195L109.069 37.215L108.215 36.696ZM99.1905 45.016L99.6534 45.9024L99.1905 45.016ZM91.2545 34.456L91.769 35.3135L91.7759 35.3093L91.2545 34.456ZM94.9025 30.552L95.783 31.0261L95.7879 31.0168L94.9025 30.552ZM94.9025 18.712L94.0171 19.1769L94.022 19.1861L94.9025 18.712ZM91.2545 14.808L90.7223 15.6546L90.7363 15.6634L90.7506 15.6718L91.2545 14.808ZM81.0785 14.808L81.593 15.6655L81.6 15.6613L81.0785 14.808ZM77.4945 18.712L78.375 19.1861L78.3799 19.1768L77.4945 18.712ZM77.4945 30.552L76.6091 31.0169L76.614 31.0261L77.4945 30.552ZM81.0785 34.456L80.5463 35.3026L80.5603 35.3114L80.5746 35.3198L81.0785 34.456ZM86.1985 47.024C81.5199 47.024 77.351 46.0522 73.6694 44.1296L72.7436 45.9024C76.742 47.9905 81.2345 49.024 86.1985 49.024V47.024ZM73.6694 44.1296C69.9824 42.2042 67.1119 39.5533 65.0345 36.1725L63.3305 37.2195C65.6051 40.9214 68.7506 43.8172 72.7436 45.9024L73.6694 44.1296ZM65.0373 36.177C62.9628 32.7602 61.9185 28.91 61.9185 24.6H59.9185C59.9185 29.25 61.0502 33.4638 63.3277 37.215L65.0373 36.177ZM61.9185 24.6C61.9185 20.2899 62.9628 16.4631 65.0345 13.0915L63.3305 12.0445C61.0502 15.7556 59.9185 19.9501 59.9185 24.6H61.9185ZM65.0373 13.087C67.1154 9.66425 69.9855 6.99424 73.6694 5.07041L72.7436 3.29759C68.7475 5.38442 65.6016 8.30375 63.3277 12.049L65.0373 13.087ZM73.6694 5.07041C77.351 3.14781 81.5199 2.176 86.1985 2.176V0.175999C81.2345 0.175999 76.742 1.20952 72.7436 3.29759L73.6694 5.07041ZM86.1985 2.176C90.8771 2.176 95.046 3.14781 98.7276 5.07041L99.6534 3.29759C95.655 1.20952 91.1626 0.175999 86.1985 0.175999V2.176ZM98.7276 5.07041C102.412 6.99424 105.282 9.66425 107.36 13.087L109.069 12.049C106.795 8.30375 103.649 5.38442 99.6534 3.29759L98.7276 5.07041ZM107.362 13.0915C109.434 16.4631 110.479 20.2899 110.479 24.6H112.479C112.479 19.9501 111.347 15.7556 109.067 12.0445L107.362 13.0915ZM110.479 24.6C110.479 28.91 109.434 32.7602 107.36 36.177L109.069 37.215C111.347 33.4638 112.479 29.25 112.479 24.6H110.479ZM107.362 36.1725C105.285 39.5533 102.415 42.2042 98.7276 44.1296L99.6534 45.9024C103.646 43.8172 106.792 40.9214 109.067 37.2195L107.362 36.1725ZM98.7276 44.1296C95.046 46.0522 90.8771 47.024 86.1985 47.024V49.024C91.1626 49.024 95.655 47.9905 99.6534 45.9024L98.7276 44.1296ZM86.1985 36.8C88.2424 36.8 90.1081 36.31 91.769 35.3135L90.74 33.5985C89.4142 34.394 87.9092 34.8 86.1985 34.8V36.8ZM91.7759 35.3093C93.4708 34.2736 94.8074 32.838 95.783 31.0261L94.022 30.0779C93.2057 31.594 92.1102 32.7611 90.7331 33.6027L91.7759 35.3093ZM95.7879 31.0168C96.7712 29.1439 97.2465 26.9952 97.2465 24.6H95.2465C95.2465 26.7274 94.8258 28.5468 94.0171 30.0872L95.7879 31.0168ZM97.2465 24.6C97.2465 22.2056 96.7715 20.0737 95.783 18.2379L94.022 19.1861C94.8255 20.6783 95.2465 22.4718 95.2465 24.6H97.2465ZM95.7879 18.2472C94.8123 16.3889 93.47 14.9427 91.7584 13.9442L90.7506 15.6718C92.111 16.4653 93.2007 17.6218 94.0171 19.1768L95.7879 18.2472ZM91.7867 13.9614C90.1235 12.916 88.2515 12.4 86.1985 12.4V14.4C87.9002 14.4 89.3988 14.8227 90.7223 15.6546L91.7867 13.9614ZM86.1985 12.4C84.1454 12.4 82.257 12.9159 80.5571 13.9547L81.6 15.6613C82.972 14.8228 84.4969 14.4 86.1985 14.4V12.4ZM80.564 13.9505C78.8969 14.9508 77.581 16.3959 76.6091 18.2472L78.3799 19.1768C79.2 17.6147 80.2734 16.4572 81.593 15.6655L80.564 13.9505ZM76.614 18.2379C75.6255 20.0737 75.1505 22.2056 75.1505 24.6H77.1505C77.1505 22.4718 77.5715 20.6783 78.375 19.1861L76.614 18.2379ZM75.1505 24.6C75.1505 26.9952 75.6258 29.1439 76.6091 31.0168L78.3799 30.0872C77.5712 28.5468 77.1505 26.7274 77.1505 24.6H75.1505ZM76.614 31.0261C77.5859 32.8311 78.8962 34.2654 80.5463 35.3026L81.6107 33.6094C80.2741 32.7692 79.1951 31.6009 78.375 30.0779L76.614 31.0261ZM80.5746 35.3198C82.2722 36.31 84.1544 36.8 86.1985 36.8V34.8C84.488 34.8 82.9568 34.394 81.5824 33.5922L80.5746 35.3198ZM161.12 2.2H162.12V1.2H161.12V2.2ZM161.12 47V48H162.12V47H161.12ZM148.704 47L147.937 47.6416L148.237 48H148.704V47ZM131.68 26.648L132.448 26.0064L130.68 23.8939V26.648H131.68ZM131.68 47V48H132.68V47H131.68ZM116.961 47H115.961V48H116.961V47ZM116.961 2.2V1.2H115.961V2.2H116.961ZM129.376 2.2L130.144 1.55839L129.844 1.2H129.376V2.2ZM146.4 22.552L145.633 23.1936L147.4 25.3061V22.552H146.4ZM146.4 2.2V1.2H145.4V2.2H146.4ZM160.12 2.2V47H162.12V2.2H160.12ZM161.12 46H148.704V48H161.12V46ZM149.472 46.3584L132.448 26.0064L130.913 27.2896L147.937 47.6416L149.472 46.3584ZM130.68 26.648V47H132.68V26.648H130.68ZM131.68 46H116.961V48H131.68V46ZM117.961 47V2.2H115.961V47H117.961ZM116.961 3.2H129.376V1.2H116.961V3.2ZM128.609 2.8416L145.633 23.1936L147.168 21.9104L130.144 1.55839L128.609 2.8416ZM147.4 22.552V2.2H145.4V22.552H147.4ZM146.4 3.2H161.12V1.2H146.4V3.2ZM178.126 13.912H179.126V12.912H178.126V13.912ZM165.006 13.912H164.006V14.912H165.006V13.912ZM165.006 2.2V1.2H164.006V2.2H165.006ZM206.35 2.2H207.35V1.2H206.35V2.2ZM206.35 13.912V14.912H207.35V13.912H206.35ZM193.23 13.912V12.912H192.23V13.912H193.23ZM193.23 47V48H194.23V47H193.23ZM178.126 47H177.126V48H178.126V47ZM178.126 12.912H165.006V14.912H178.126V12.912ZM166.006 13.912V2.2H164.006V13.912H166.006ZM165.006 3.2H206.35V1.2H165.006V3.2ZM205.35 2.2V13.912H207.35V2.2H205.35ZM206.35 12.912H193.23V14.912H206.35V12.912ZM192.23 13.912V47H194.23V13.912H192.23ZM193.23 46H178.126V48H193.23V46ZM179.126 47V13.912H177.126V47H179.126ZM216.097 46.808L215.86 47.7795L215.867 47.7812L215.874 47.7828L216.097 46.808ZM207.457 43.416L206.542 43.0118L206.191 43.806L206.928 44.2649L207.457 43.416ZM212.321 32.408L212.823 31.543L211.857 30.9831L211.406 32.0038L212.321 32.408ZM219.489 35.416L219.21 36.3763L219.217 36.3784L219.225 36.3804L219.489 35.416ZM231.585 35.928L231.979 36.8471L231.997 36.8394L232.015 36.8309L231.585 35.928ZM231.137 31.96L230.76 32.8862L230.771 32.8908L231.137 31.96ZM225.377 30.424L225.172 31.4027L225.175 31.4034L225.377 30.424ZM216.737 28.12L216.39 29.0577L216.397 29.0606L216.405 29.0633L216.737 28.12ZM210.721 24.024L209.974 24.6884L209.981 24.6967L210.721 24.024ZM210.529 8.6L211.354 9.16523L210.529 8.6ZM217.569 3.16L217.183 2.23765L217.178 2.23955L217.569 3.16ZM238.049 2.2L237.823 3.17415L237.831 3.17604L237.839 3.1778L238.049 2.2ZM245.921 5.08L246.845 5.46346L247.184 4.64584L246.414 4.20974L245.921 5.08ZM241.377 16.024L240.926 16.9167L241.888 17.402L242.301 16.4075L241.377 16.024ZM224.801 17.56L224.424 18.4861L224.439 18.4922L224.454 18.4977L224.801 17.56ZM230.497 18.968L230.307 19.9498L230.313 19.9509L230.497 18.968ZM239.137 21.208L238.795 22.1478L238.803 22.1506L238.81 22.1532L239.137 21.208ZM245.217 25.24L244.477 25.9127L244.485 25.9217L245.217 25.24ZM245.473 40.6L246.293 41.1724L246.298 41.1652L245.473 40.6ZM238.369 46.04L238.76 46.9605L238.766 46.9579L238.369 46.04ZM226.977 47.024C223.338 47.024 219.787 46.6268 216.32 45.8332L215.874 47.7828C219.49 48.6106 223.192 49.024 226.977 49.024V47.024ZM216.334 45.8365C212.905 45 210.131 43.9032 207.986 42.5671L206.928 44.2649C209.305 45.7448 212.292 46.9093 215.86 47.7795L216.334 45.8365ZM208.372 43.8202L213.236 32.8122L211.406 32.0038L206.542 43.0118L208.372 43.8202ZM211.819 33.273C214.03 34.5555 216.496 35.5883 219.21 36.3763L219.768 34.4557C217.191 33.7077 214.878 32.7352 212.823 31.543L211.819 33.273ZM219.225 36.3804C221.945 37.1264 224.573 37.504 227.105 37.504V35.504C224.773 35.504 222.323 35.1563 219.753 34.4516L219.225 36.3804ZM227.105 37.504C229.211 37.504 230.882 37.3172 231.979 36.8471L231.191 35.0089C230.496 35.3068 229.18 35.504 227.105 35.504V37.504ZM232.015 36.8309C232.57 36.5665 233.056 36.21 233.403 35.7305C233.758 35.2398 233.929 34.6743 233.929 34.072H231.929C231.929 34.2804 231.876 34.4295 231.783 34.5575C231.682 34.6966 231.496 34.8629 231.155 35.0251L232.015 36.8309ZM233.929 34.072C233.929 33.37 233.698 32.729 233.244 32.193C232.804 31.6756 232.197 31.302 231.503 31.0292L230.771 32.8908C231.272 33.0874 231.56 33.3004 231.718 33.487C231.861 33.655 231.929 33.8353 231.929 34.072H233.929ZM231.514 31.0339C230.271 30.5273 228.273 30.0005 225.579 29.4446L225.175 31.4034C227.857 31.9568 229.699 32.454 230.76 32.8861L231.514 31.0339ZM225.582 29.4453C222.152 28.7254 219.318 27.968 217.069 27.1767L216.405 29.0633C218.764 29.8934 221.69 30.6719 225.172 31.4027L225.582 29.4453ZM217.084 27.1823C214.936 26.3864 213.063 25.1141 211.461 23.3513L209.981 24.6967C211.792 26.6885 213.93 28.1469 216.39 29.0577L217.084 27.1823ZM211.468 23.3596C209.964 21.6669 209.161 19.3442 209.161 16.28H207.161C207.161 19.7011 208.065 22.5411 209.974 24.6884L211.468 23.3596ZM209.161 16.28C209.161 13.664 209.89 11.3013 211.354 9.16523L209.704 8.03477C208.01 10.5067 207.161 13.264 207.161 16.28H209.161ZM211.354 9.16523C212.804 7.0491 214.983 5.34443 217.96 4.08044L217.178 2.23955C213.925 3.6209 211.411 5.5429 209.704 8.03477L211.354 9.16523ZM217.955 4.08233C220.959 2.82411 224.639 2.176 229.025 2.176V0.175999C224.451 0.175999 220.494 0.850556 217.183 2.23766L217.955 4.08233ZM229.025 2.176C232.022 2.176 234.954 2.50894 237.823 3.17415L238.275 1.22584C235.256 0.525721 232.172 0.175999 229.025 0.175999V2.176ZM237.839 3.1778C240.744 3.80016 243.269 4.72814 245.428 5.95025L246.414 4.20974C244.05 2.87185 241.328 1.87983 238.259 1.22219L237.839 3.1778ZM244.997 4.69653L240.453 15.6405L242.301 16.4075L246.845 5.46346L244.997 4.69653ZM241.828 15.1313C237.328 12.8596 233.014 11.696 228.897 11.696V13.696C232.631 13.696 236.637 14.7511 240.926 16.9167L241.828 15.1313ZM228.897 11.696C226.907 11.696 225.269 11.9314 224.094 12.4997C223.492 12.7904 222.977 13.1852 222.614 13.7124C222.245 14.2476 222.073 14.8607 222.073 15.512H224.073C224.073 15.2247 224.144 15.0164 224.26 14.8476C224.382 14.6708 224.595 14.4789 224.964 14.3003C225.73 13.9299 227.004 13.696 228.897 13.696V11.696ZM222.073 15.512C222.073 16.1952 222.3 16.8185 222.741 17.3409C223.166 17.8448 223.753 18.213 224.424 18.4861L225.178 16.6339C224.697 16.4376 224.42 16.2299 224.269 16.0511C224.134 15.8908 224.073 15.7248 224.073 15.512H222.073ZM224.454 18.4977C225.688 18.9549 227.656 19.4366 230.307 19.9498L230.687 17.9862C228.048 17.4753 226.218 17.0184 225.148 16.6222L224.454 18.4977ZM230.313 19.9509C233.692 20.5844 236.515 21.3187 238.795 22.1478L239.479 20.2682C237.065 19.3906 234.129 18.6316 230.681 17.9851L230.313 19.9509ZM238.81 22.1532C240.995 22.9079 242.881 24.1566 244.477 25.9127L245.957 24.5673C244.14 22.5688 241.972 21.1295 239.464 20.2628L238.81 22.1532ZM244.485 25.9217C246.02 27.5687 246.841 29.8609 246.841 32.92H248.841C248.841 29.4938 247.913 26.6659 245.949 24.5583L244.485 25.9217ZM246.841 32.92C246.841 35.536 246.112 37.8987 244.648 40.0348L246.298 41.1652C247.992 38.6933 248.841 35.936 248.841 32.92H246.841ZM244.653 40.0276C243.204 42.1032 241.001 43.8123 237.972 45.1221L238.766 46.9579C242.052 45.537 244.585 43.6195 246.293 41.1724L244.653 40.0276ZM237.978 45.1196C235.02 46.3757 231.364 47.024 226.977 47.024V49.024C231.55 49.024 235.489 48.3496 238.76 46.9604L237.978 45.1196ZM289.583 35.608H290.583V34.608H289.583V35.608ZM289.583 47V48H290.583V47H289.583ZM252.335 47H251.335V48H252.335V47ZM252.335 2.2V1.2H251.335V2.2H252.335ZM288.751 2.2H289.751V1.2H288.751V2.2ZM288.751 13.592V14.592H289.751V13.592H288.751ZM267.184 13.592V12.592H266.184V13.592H267.184ZM267.184 18.84H266.184V19.84H267.184V18.84ZM286.128 18.84H287.128V17.84H286.128V18.84ZM286.128 29.72V30.72H287.128V29.72H286.128ZM267.184 29.72V28.72H266.184V29.72H267.184ZM267.184 35.608H266.184V36.608H267.184V35.608ZM288.583 35.608V47H290.583V35.608H288.583ZM289.583 46H252.335V48H289.583V46ZM253.335 47V2.2H251.335V47H253.335ZM252.335 3.2H288.751V1.2H252.335V3.2ZM287.751 2.2V13.592H289.751V2.2H287.751ZM288.751 12.592H267.184V14.592H288.751V12.592ZM266.184 13.592V18.84H268.184V13.592H266.184ZM267.184 19.84H286.128V17.84H267.184V19.84ZM285.128 18.84V29.72H287.128V18.84H285.128ZM286.128 28.72H267.184V30.72H286.128V28.72ZM266.184 29.72V35.608H268.184V29.72H266.184ZM267.184 36.608H289.583V34.608H267.184V36.608ZM314.598 35.736L315.426 35.1759L315.129 34.736H314.598V35.736ZM310.502 35.736V34.736H309.502V35.736H310.502ZM310.502 47V48H311.502V47H310.502ZM295.398 47H294.398V48H295.398V47ZM295.398 2.2V1.2H294.398V2.2H295.398ZM327.782 4.248L327.376 5.16181L327.782 4.248ZM334.886 10.136L334.048 10.681L334.886 10.136ZM335.206 27.48L334.351 26.961L335.206 27.48ZM328.934 33.176L328.476 32.2872L327.472 32.8048L328.107 33.7386L328.934 33.176ZM338.342 47V48H340.232L339.169 46.4374L338.342 47ZM322.214 47L321.386 47.5601L321.683 48H322.214V47ZM320.614 15.256L319.938 15.9932L319.947 16.001L319.956 16.0086L320.614 15.256ZM310.502 13.848V12.848H309.502V13.848H310.502ZM310.502 24.344H309.502V25.344H310.502V24.344ZM320.614 23L321.273 23.7526L321.281 23.745L321.29 23.7372L320.614 23ZM314.598 34.736H310.502V36.736H314.598V34.736ZM309.502 35.736V47H311.502V35.736H309.502ZM310.502 46H295.398V48H310.502V46ZM296.398 47V2.2H294.398V47H296.398ZM295.398 3.2H316.966V1.2H295.398V3.2ZM316.966 3.2C320.996 3.2 324.458 3.86484 327.376 5.16181L328.188 3.33419C324.962 1.90049 321.213 1.2 316.966 1.2V3.2ZM327.376 5.16181C330.29 6.45683 332.5 8.29936 334.048 10.681L335.724 9.59101C333.945 6.85264 331.418 4.76983 328.188 3.33419L327.376 5.16181ZM334.048 10.681C335.594 13.0601 336.382 15.8525 336.382 19.096H338.382C338.382 15.5128 337.506 12.3319 335.724 9.59101L334.048 10.681ZM336.382 19.096C336.382 22.14 335.694 24.7497 334.351 26.961L336.061 27.999C337.62 25.4316 338.382 22.452 338.382 19.096H336.382ZM334.351 26.961C333.005 29.1775 331.059 30.955 328.476 32.2872L329.392 34.0648C332.27 32.581 334.505 30.5611 336.061 27.999L334.351 26.961ZM328.107 33.7386L337.515 47.5626L339.169 46.4374L329.761 32.6134L328.107 33.7386ZM338.342 46H322.214V48H338.342V46ZM323.042 46.4399L315.426 35.1759L313.77 36.2961L321.386 47.5601L323.042 46.4399ZM323.15 19.096C323.15 17.2135 322.561 15.6309 321.273 14.5034L319.956 16.0086C320.715 16.6731 321.15 17.6505 321.15 19.096H323.15ZM321.29 14.5188C320.01 13.3461 318.188 12.848 316.006 12.848V14.848C317.92 14.848 319.17 15.2886 319.938 15.9932L321.29 14.5188ZM316.006 12.848H310.502V14.848H316.006V12.848ZM309.502 13.848V24.344H311.502V13.848H309.502ZM310.502 25.344H316.006V23.344H310.502V25.344ZM316.006 25.344C318.178 25.344 319.993 24.8718 321.273 23.7526L319.956 22.2474C319.187 22.9202 317.93 23.344 316.006 23.344V25.344ZM321.29 23.7372C322.561 22.5719 323.15 20.9801 323.15 19.096H321.15C321.15 20.5399 320.715 21.5508 319.938 22.2628L321.29 23.7372ZM362.285 35.736L363.114 35.1759L362.816 34.736H362.285V35.736ZM358.19 35.736V34.736H357.19V35.736H358.19ZM358.19 47V48H359.19V47H358.19ZM343.086 47H342.086V48H343.086V47ZM343.086 2.2V1.2H342.086V2.2H343.086ZM375.47 4.248L375.063 5.16181L375.47 4.248ZM382.573 10.136L381.735 10.681L382.573 10.136ZM382.893 27.48L382.039 26.961L382.893 27.48ZM376.621 33.176L376.163 32.2872L375.159 32.8048L375.795 33.7386L376.621 33.176ZM386.03 47V48H387.92L386.856 46.4374L386.03 47ZM369.901 47L369.073 47.5601L369.371 48H369.901V47ZM368.302 15.256L367.626 15.9932L367.634 16.001L367.643 16.0086L368.302 15.256ZM358.19 13.848V12.848H357.19V13.848H358.19ZM358.19 24.344H357.19V25.344H358.19V24.344ZM368.302 23L368.96 23.7526L368.969 23.745L368.977 23.7372L368.302 23ZM362.285 34.736H358.19V36.736H362.285V34.736ZM357.19 35.736V47H359.19V35.736H357.19ZM358.19 46H343.086V48H358.19V46ZM344.086 47V2.2H342.086V47H344.086ZM343.086 3.2H364.654V1.2H343.086V3.2ZM364.654 3.2C368.684 3.2 372.145 3.86484 375.063 5.16181L375.876 3.33419C372.65 1.90049 368.901 1.2 364.654 1.2V3.2ZM375.063 5.16181C377.977 6.45683 380.187 8.29936 381.735 10.681L383.412 9.59101C381.632 6.85264 379.106 4.76983 375.876 3.33419L375.063 5.16181ZM381.735 10.681C383.281 13.0601 384.07 15.8525 384.07 19.096H386.07C386.07 15.5128 385.194 12.3319 383.412 9.59101L381.735 10.681ZM384.07 19.096C384.07 22.14 383.381 24.7497 382.039 26.961L383.748 27.999C385.307 25.4316 386.07 22.452 386.07 19.096H384.07ZM382.039 26.961C380.693 29.1775 378.747 30.955 376.163 32.2872L377.08 34.0648C379.957 32.581 382.193 30.5611 383.748 27.999L382.039 26.961ZM375.795 33.7386L385.203 47.5626L386.856 46.4374L377.448 32.6134L375.795 33.7386ZM386.03 46H369.901V48H386.03V46ZM370.73 46.4399L363.114 35.1759L361.457 36.2961L369.073 47.5601L370.73 46.4399ZM370.837 19.096C370.837 17.2135 370.249 15.6309 368.96 14.5034L367.643 16.0086C368.402 16.6731 368.837 17.6505 368.837 19.096H370.837ZM368.977 14.5188C367.698 13.3461 365.875 12.848 363.694 12.848V14.848C365.608 14.848 366.857 15.2886 367.626 15.9932L368.977 14.5188ZM363.694 12.848H358.19V14.848H363.694V12.848ZM357.19 13.848V24.344H359.19V13.848H357.19ZM358.19 25.344H363.694V23.344H358.19V25.344ZM363.694 25.344C365.865 25.344 367.681 24.8718 368.96 23.7526L367.643 22.2474C366.874 22.9202 365.618 23.344 363.694 23.344V25.344ZM368.977 23.7372C370.248 22.5719 370.837 20.9801 370.837 19.096H368.837C368.837 20.5399 368.403 21.5508 367.626 22.2628L368.977 23.7372ZM421.301 39.192L422.234 38.8325L421.987 38.192H421.301V39.192ZM404.277 39.192V38.192H403.591L403.344 38.8325L404.277 39.192ZM401.269 47V48H401.955L402.202 47.3595L401.269 47ZM385.909 47L384.993 46.5995L384.38 48H385.909V47ZM405.493 2.2V1.2H404.839L404.577 1.79945L405.493 2.2ZM420.341 2.2L421.257 1.79945L420.995 1.2H420.341V2.2ZM439.925 47V48H441.454L440.841 46.5995L439.925 47ZM424.309 47L423.376 47.3595L423.623 48H424.309V47ZM417.141 28.312V29.312H418.599L418.074 27.9516L417.141 28.312ZM412.789 17.048L413.722 16.6876L412.789 14.2733L411.856 16.6876L412.789 17.048ZM408.437 28.312L407.504 27.9516L406.979 29.312H408.437V28.312ZM421.301 38.192H404.277V40.192H421.301V38.192ZM403.344 38.8325L400.336 46.6405L402.202 47.3595L405.21 39.5515L403.344 38.8325ZM401.269 46H385.909V48H401.269V46ZM386.825 47.4005L406.409 2.60054L404.577 1.79945L384.993 46.5995L386.825 47.4005ZM405.493 3.2H420.341V1.2H405.493V3.2ZM419.425 2.60054L439.009 47.4005L440.841 46.5995L421.257 1.79945L419.425 2.60054ZM439.925 46H424.309V48H439.925V46ZM425.242 46.6405L422.234 38.8325L420.368 39.5515L423.376 47.3595L425.242 46.6405ZM418.074 27.9516L413.722 16.6876L411.856 17.4084L416.208 28.6724L418.074 27.9516ZM411.856 16.6876L407.504 27.9516L409.37 28.6724L413.722 17.4084L411.856 16.6876ZM408.437 29.312H417.141V27.312H408.437V29.312ZM449.814 13.912H450.814V12.912H449.814V13.912ZM436.694 13.912H435.694V14.912H436.694V13.912ZM436.694 2.2V1.2H435.694V2.2H436.694ZM478.038 2.2H479.038V1.2H478.038V2.2ZM478.038 13.912V14.912H479.038V13.912H478.038ZM464.918 13.912V12.912H463.918V13.912H464.918ZM464.918 47V48H465.918V47H464.918ZM449.814 47H448.814V48H449.814V47ZM449.814 12.912H436.694V14.912H449.814V12.912ZM437.694 13.912V2.2H435.694V13.912H437.694ZM436.694 3.2H478.038V1.2H436.694V3.2ZM477.038 2.2V13.912H479.038V2.2H477.038ZM478.038 12.912H464.918V14.912H478.038V12.912ZM463.918 13.912V47H465.918V13.912H463.918ZM464.918 46H449.814V48H464.918V46ZM450.814 47V13.912H448.814V47H450.814Z" fill="white"/>
</svg>
