<svg width="226" height="52" viewBox="0 0 226 52" fill="none" xmlns="http://www.w3.org/2000/svg">
<path d="M63.7267 0.993329C63.5067 0.993329 63.2133 1.13999 62.8467 1.50666C62.1867 2.16667 62.1867 2.31333 62.7733 2.82666C63.36 3.26666 63.58 3.19333 63.9467 2.24C64.24 1.43333 64.0933 0.993329 63.7267 0.993329ZM63.14 3.92666C62.3333 3.92666 61.3067 4.73333 58.5933 7.52C56.4667 9.72 54.0467 11.9933 53.1667 12.6533C52.36 13.3133 51.6267 14.1933 51.6267 14.56C51.6267 15 51.48 15.1467 51.3333 15C50.82 14.4867 49.28 16.1733 49.28 17.2C49.28 17.7133 48.7667 18.2267 47.8867 18.52C46.9333 18.8867 46.5667 19.3267 46.5667 20.06C46.64 20.72 46.2733 21.16 45.6867 21.2333C44.22 21.5267 43.34 22.3333 44.0733 22.7733C44.88 23.2867 44.0733 24.24 43.12 23.9467C42.24 23.7267 41.4333 24.7533 42.02 25.34C42.8267 26.1467 45.9067 24.5333 45.9067 23.2867C45.9067 22.6267 46.42 22.6267 47.3 23.2133C47.8867 23.58 47.8867 23.8 47.1533 24.6067C46.64 25.1933 45.8333 25.6333 45.3933 25.6333C44.88 25.6333 44.5133 25.8533 44.5133 26.0733C44.5133 26.3667 44.7333 26.5867 44.9533 26.5867C45.2467 26.5867 45.4667 26.8067 45.4667 27.0267C45.4667 27.32 45.1 27.54 44.66 27.54C44.22 27.54 43.4867 27.9067 42.9733 28.3467C41.8 29.3733 41.2867 28.7133 42.3133 27.54C43.12 26.66 43.12 26.5867 42.1667 26.1467C41.2867 25.6333 40.9933 25.8533 39.6 27.32C38.7933 28.2733 37.7667 29.52 37.4 30.1067C36.3 31.6467 31.8267 37.1467 30.6533 38.3933C29.7 39.2733 29.6267 39.4933 30.2133 39.86C30.8733 40.3 30.8733 40.3733 30.2133 41.0333C29.8467 41.4 29.04 41.84 28.4533 41.9867C27.4267 42.28 27.3533 42.2067 27.3533 39.7867C27.2067 33.26 27.8667 26.1467 28.8933 22.6267C29.1867 21.5267 29.48 20.4267 29.5533 20.1333C29.6267 19.9133 30.14 18.3733 30.7267 16.8333C32.1933 12.8 32.34 11.5533 31.5333 10.4533C30.8733 9.5 26.6933 7.08 25.74 7.08C25.2267 7.08 24.86 8.32666 23.6133 13.1667L22.66 12.8L19.4333 16.32C17.6 18.2267 15.5467 20.72 14.8133 21.7467C14.08 22.7733 13.3467 23.8 13.1267 23.9467C12.9067 24.0933 10.9267 26.66 8.72667 29.6667C5.94 33.4067 4.84 35.3133 4.98667 35.9C5.20667 36.56 4.98667 36.8533 4.25333 37.0733C3.59333 37.22 2.71333 38.4667 1.61333 40.8133C0.733333 42.72 0 44.5533 0 44.7733C0 45.7267 2.56667 50.1267 3.44667 50.5667C4.54667 51.1533 5.64667 50.7867 5.64667 49.8333C5.64667 48.66 8.14 43.6733 10.6333 39.7867C13.4933 35.46 17.7467 30.4 21.78 26.44C21.2667 32.9667 21.4133 39.3467 22.2933 41.6933C23.6867 45.36 26.9133 50.3467 28.16 50.86C30.2867 51.6667 32.8533 50.4933 34.9067 47.78C37.62 44.1867 43.0467 36.1933 43.0467 35.8267C43.0467 35.5333 46.42 30.9867 48.7667 28.2C51.04 25.4133 51.8467 24.3867 54.9267 20.6467C56.6133 18.52 58.8867 15.88 59.9133 14.78C61.82 12.7267 63.58 10.0133 62.6267 10.6C62.3333 10.7467 62.04 10.6733 61.82 10.4533C61.6733 10.16 61.7467 9.93999 62.04 9.86666C62.3333 9.86666 62.8467 9.79333 63.14 9.79333C63.5067 9.72 63.7267 9.35333 63.7267 8.91333C63.7267 8.47333 63.9467 7.96 64.0933 7.74C64.6067 7.3 64.5333 6.71333 63.9467 6.34666C63.6533 6.19999 63.6533 5.76 63.9467 5.17333C64.3867 4.44 64.24 4.22 63.4333 4C63.36 3.92666 63.2133 3.92666 63.14 3.92666ZM61.2333 6.64C62.04 6.64 61.5267 8.4 60.4267 9.57333C59.7667 10.2333 59.2533 11.04 59.2533 11.26C59.2533 11.48 58.3733 12.5067 57.3467 13.5333C56.32 14.56 55.44 15.7333 55.44 16.1C55.44 16.54 54.56 17.3467 53.5333 18.0067C52.0667 18.96 51.7 19.4 51.92 20.2067C52.0667 20.7933 51.92 21.38 51.5533 21.6C51.1867 21.8933 51.04 21.7467 51.26 21.16C51.7733 19.9867 50.7467 20.2067 49.5 21.6733C48.7667 22.4067 48.0333 22.7733 47.5933 22.6267C46.5667 22.1867 46.7133 21.5267 48.18 20.4267C48.84 19.84 49.7933 18.8133 50.2333 18.1533C51.1133 16.6867 60.72 6.64 61.2333 6.64ZM49.3533 23.7267C49.6467 23.7267 49.3533 24.3867 48.4733 25.4867C47.8133 26.3667 47.0067 27.0267 46.7133 27.0267C46.42 27.0267 46.64 26.7333 47.2267 26.2933C47.8133 25.9267 48.3267 25.2667 48.3267 24.9C48.3267 24.5333 48.5467 24.0933 48.7667 23.9467C49.06 23.8 49.2067 23.7267 49.3533 23.7267ZM45.76 28.2C46.0533 28.2 45.8333 28.7133 45.1733 29.5933C44.8067 30.1067 44.3667 30.4 44.1467 30.18C44 30.0333 44.2933 29.3733 44.88 28.86C45.32 28.42 45.6133 28.2 45.76 28.2ZM41.6533 29.2267C41.7267 29.2267 41.8 29.2267 41.8733 29.2267C42.9 29.6667 42.7533 30.4733 41.4333 31.5733C40.7733 32.0867 40.26 32.82 40.26 33.1867C40.26 33.5533 39.2333 34.9467 37.9867 36.2667C36.74 37.66 35.42 39.1267 35.0533 39.64C34.54 40.52 34.54 40.4467 34.76 39.2C34.9067 38.3933 35.2 37.66 35.3467 37.5133C35.64 37.2933 36.1533 36.4867 37.5467 33.92C37.84 33.4067 38.3533 32.82 38.6467 32.6C39.0133 32.38 39.2333 31.94 39.3067 31.6467C39.3067 30.62 40.8467 29.1533 41.6533 29.2267ZM11.66 30.9867C12.0267 30.9867 11.8067 31.3533 10.9267 32.6C10.34 33.26 9.97333 33.9933 9.97333 34.2867C9.97333 34.58 9.75333 34.8 9.53333 34.8C9.24 34.8 8.65333 35.46 8.21333 36.1933C4.91333 41.3267 4.10667 42.4267 3.96 42.4267C3.81333 42.4267 4.10667 41.6933 4.54667 40.8867C5.35333 39.2733 11.2933 30.9867 11.66 30.9867ZM33.0733 42.28C33.9533 42.28 33.5867 43.6 32.6333 43.82C31.8267 44.04 31.7533 43.8933 32.1933 43.16C32.4133 42.6467 32.8533 42.28 33.0733 42.28ZM94.1428 6.34666C87.0295 6.27333 68.4028 8.76666 67.1561 10.0133C66.8628 10.3067 66.8628 11.5533 67.0095 12.8733C67.3028 15 67.5228 15.3667 68.6228 15.66C70.7495 16.2467 76.2495 16.0267 82.9228 15.1467C90.4028 14.12 104.556 14.1933 106.829 15.2933C107.489 15.66 108.369 15.8067 108.736 15.66C109.689 15.2933 109.543 13.02 108.516 11.5533C108.003 10.8933 107.636 10.0133 107.636 9.64667C107.636 8.32666 105.436 7.3 101.989 6.85999C100.156 6.64 98.6162 6.56667 98.6162 6.78666C98.6162 6.93333 96.0495 7.3 92.8228 7.44666C89.5961 7.66666 86.0028 7.96 84.7562 8.18C83.4361 8.32666 82.3362 8.32666 82.1895 8.10666C82.0428 7.88666 82.4095 7.66666 83.0695 7.66666C83.6562 7.59333 84.6828 7.52 85.3428 7.44666C86.0028 7.37333 89.1562 7.08 92.4562 6.85999L98.3962 6.42L94.1428 6.34666ZM94.0695 9.13333C96.0495 9.13333 98.3228 9.20666 100.669 9.42666C102.429 9.57333 103.896 9.93999 103.896 10.16C103.896 10.6733 104.703 10.6 94.7295 10.6733C90.1095 10.7467 86.2962 10.6733 86.2962 10.5267C86.2962 9.64667 89.5961 9.13333 94.0695 9.13333ZM82.1895 18.96C80.0628 18.96 77.2028 19.18 73.0228 19.6933C58.4295 21.2333 57.1095 21.5267 57.1095 23.2133C57.1095 23.7267 56.8895 24.24 56.6695 24.3867C56.5228 24.46 56.4495 25.6333 56.5961 26.88C56.8161 28.64 57.1095 29.3 58.0628 29.74C59.3828 30.4733 59.6028 30.4733 73.0228 28.7133C78.5228 28.0533 84.3895 27.4667 86.0762 27.54C87.7628 27.6133 89.4495 27.6133 89.7428 27.6133C90.4762 27.4667 90.0362 24.7533 89.0828 23.6533C88.7162 23.2867 88.4228 22.6267 88.4228 22.1867C88.4228 21.82 87.8362 20.94 87.1761 20.28C86.2228 19.4 84.9028 19.0333 82.1895 18.96ZM80.8695 22.26C85.1228 22.26 86.5161 22.6267 85.7095 23.4333C85.3428 23.8 77.3495 23.8 76.3961 23.4333C74.6361 22.7733 76.4695 22.26 80.8695 22.26ZM81.9695 33.7C76.9828 33.7 69.1361 34.0667 63.0495 34.8C49.3361 36.34 46.6961 37.0733 46.5495 39.42C46.4028 41.62 46.6961 43.9667 47.1361 44.8467C47.7228 45.9467 50.7295 46.02 55.2028 44.9933C65.4695 42.72 79.2561 41.4733 85.6362 42.3533C88.4962 42.72 89.7428 42.72 90.1828 42.3533C90.5495 42.06 90.8428 41.5467 90.8428 41.2533C90.8428 40.3733 89.5228 39.42 88.7162 39.7133C87.7628 40.08 87.3962 38.6133 87.7628 36.2667C87.9828 34.5067 87.9095 34.36 86.6628 33.9933C86.0028 33.7733 84.2428 33.7 81.9695 33.7ZM79.7695 34.8733C82.0428 34.8733 84.2428 35.0933 83.2161 35.3133C82.5562 35.46 80.9428 35.6067 79.5495 35.5333C78.1561 35.46 76.9095 35.6067 76.7628 35.8267C76.6162 36.0467 77.5695 36.1933 78.8162 36.2667H81.0895L79.1828 37.3667C77.3495 38.4667 76.6895 38.54 68.1095 38.76C63.1228 38.9067 59.0161 38.8333 59.0161 38.6133C59.0161 38.3933 59.7495 37.9533 60.6295 37.5867C61.5095 37.2933 62.1695 36.8533 62.0961 36.7067C61.9495 36.4867 63.0495 36.1933 64.5895 36.0467C66.0561 35.9 68.3295 35.6067 69.5761 35.46C71.0428 35.3133 71.8495 35.3867 71.8495 35.68C71.8495 35.9733 72.5828 36.2667 73.5362 36.2667C74.4895 36.2667 75.0762 36.0467 74.9295 35.7533C74.7828 35.5333 75.3695 35.1667 76.1761 35.02C76.9828 34.8733 78.3761 34.8733 79.7695 34.8733ZM57.5495 36.9267C57.8428 36.9267 58.0628 37 58.2095 37.1467C58.5761 37.5133 58.2095 37.66 57.0361 37.66C55.4961 37.5867 55.4961 37.5867 56.5961 37.1467C56.9628 37 57.2561 36.9267 57.5495 36.9267ZM111.207 45.6533C119.714 46.1667 124.04 45.7267 130.934 43.7467C132.547 43.3067 133.427 42.5733 132.987 42.1333C132.914 42.06 130.787 42.28 128.367 42.6467C123.6 43.38 121.694 43.16 121.914 42.06C122.06 41.3267 123.014 41.0333 128.147 40.2267C130.127 39.9333 132.694 39.1267 134.234 38.32L136.947 36.9267L133.794 37.22C132.034 37.3667 128.074 37.66 124.994 37.9533C118.614 38.54 110.767 38.2467 108.127 37.2933C106.44 36.7067 106.294 36.4867 106.147 34.8733C106 32.5267 107.54 29.3733 110.4 25.9267C113.554 22.26 114.36 21.6 119.127 19.1067C124.554 16.32 127.927 15.2933 132.18 15.22C134.087 15.1467 136.58 14.78 137.9 14.34L140.174 13.6067L139.88 11.92C139.44 9.64667 138.707 8.03333 137.974 7.44666C136.58 6.34666 134.16 5.90667 131.3 6.34666C126.607 7.08 125.8 7.3 123.747 8.25333C122.72 8.69333 121.694 9.13333 121.547 9.13333C121.4 9.13333 120.3 9.79333 119.127 10.6733C117.954 11.5533 116.854 12.2867 116.634 12.2867C116.414 12.2867 115.534 12.9467 114.654 13.7533C113.774 14.56 112.527 15.44 111.867 15.8067C110.254 16.6133 106.587 21.0133 104.9 24.02C103.067 27.1733 102.554 29.2267 102.48 33.1867C102.334 37.8067 102.994 39.7133 105.927 42.8667C108.347 45.5067 108.42 45.5067 111.207 45.6533ZM169.131 4.14666C167.957 4.14666 166.491 5.24666 163.851 7.59333C158.937 11.92 147.351 24.0933 146.471 25.7067C146.104 26.3667 145.664 26.88 145.517 26.88C145.297 26.88 144.564 27.8333 143.831 29.0067C143.097 30.18 142.217 31.3533 141.924 31.5C141.191 32.0133 139.211 34.7267 137.597 37.5133C136.497 39.4933 136.277 40.1533 136.571 41.9867C136.717 43.16 137.084 44.4067 137.377 44.7733C137.671 45.14 137.744 45.4333 137.597 45.4333C136.937 45.4333 138.404 47.4133 139.357 47.78C140.824 48.2933 141.484 47.6333 141.851 45.2867C142.291 42.72 145.151 38.3933 150.137 32.7467C150.431 33.3333 151.017 33.92 152.044 34.8733C153.291 36.0467 155.051 37.3667 155.931 37.8067C156.811 38.32 158.057 39.0533 158.644 39.5667C159.891 40.52 167.591 43.0867 171.331 43.82C172.651 44.04 175.511 44.5533 177.711 44.8467C179.984 45.2133 182.111 45.58 182.477 45.7267C183.504 46.1667 190.544 47.12 192.304 47.0467C194.064 47.0467 196.264 45.4333 196.264 44.1133C196.264 43.2333 196.191 43.2333 195.164 43.8933C192.891 45.36 179.691 44.5533 180.277 43.0133C180.424 42.6467 180.351 42.3533 180.131 42.3533C179.911 42.3533 179.617 42.5733 179.544 42.8667C179.397 43.3067 179.104 43.3067 178.371 42.8667C177.784 42.5733 176.831 42.3533 176.171 42.3533C175.511 42.3533 174.777 41.9867 174.411 41.62C174.117 41.2533 173.604 41.0333 173.311 41.18C172.577 41.4733 171.257 40.5933 171.771 40.08C172.284 39.5667 180.131 39.86 181.524 40.4467C181.671 40.52 181.964 40.5933 182.257 40.6667C182.551 40.74 182.844 40.8133 182.991 40.8867C183.137 40.96 183.724 41.1067 184.384 41.18C195.531 42.5733 197.657 42.4267 198.391 40.1533C198.684 39.42 199.124 38.6133 199.491 38.3933C200.664 37.66 200.077 37 198.537 37.22C193.037 38.1 192.964 38.1733 193.477 38.8333C193.844 39.2733 193.697 39.4933 192.744 39.7133C191.277 40.1533 185.704 39.3467 183.651 38.4667C182.917 38.1733 180.644 37.5133 178.664 37.0733C172.871 35.7533 168.177 34.36 164.877 33.04C164.364 32.82 163.777 32.5267 163.191 32.2333C163.411 32.16 163.557 32.0867 163.777 32.0867C164.804 31.6467 167.151 30.84 168.984 30.2533C170.817 29.5933 173.457 28.64 174.924 28.0533C176.317 27.4667 178.517 26.66 179.691 26.22C183.211 24.8267 187.391 22.5533 191.424 19.7667C192.891 18.6667 192.744 16.98 191.057 15.5133C190.251 14.8533 189.664 14.1933 189.737 13.9733C189.811 13.7533 189.371 13.0933 188.784 12.5067L187.684 11.4067L186.144 12.36C185.337 12.8733 182.404 14.4133 179.691 15.7333C176.904 17.0533 172.137 19.4 168.984 20.94C165.831 22.5533 162.164 24.02 160.917 24.24C159.744 24.46 158.497 24.7533 157.397 25.12C157.984 24.46 158.571 23.8733 159.231 23.2133C162.237 20.28 166.124 16.76 167.957 15.2933C169.791 13.8267 171.844 12.14 172.431 11.6267C173.311 10.8933 173.457 10.4533 173.164 9.20666C172.871 7.66666 172.651 7.22666 170.891 5.17333C170.304 4.51333 169.791 4.14666 169.131 4.14666ZM155.931 18.8133C156.811 18.8133 156.151 19.62 152.851 22.8467C149.184 26.44 146.031 30.1067 141.484 36.12C139.944 38.2467 138.477 40.0067 138.184 40.08C137.157 40.52 140.604 35.46 145.591 29.3C147.424 27.0267 155.564 18.8133 155.931 18.8133ZM176.684 21.4533C176.904 21.4533 177.051 21.4533 177.124 21.5267C177.197 21.6733 176.977 21.8933 176.537 22.04C176.097 22.26 175.584 22.26 175.511 22.1133C175.364 22.04 175.584 21.7467 176.024 21.6C176.244 21.5267 176.464 21.4533 176.684 21.4533ZM172.651 22.7733C173.017 22.7733 172.357 23.4333 170.964 24.0933C165.684 26.8067 162.824 27.9067 158.424 29.0067C158.277 29.0067 158.277 29.0067 158.204 29.0067C158.057 28.86 157.837 28.7133 157.691 28.64C159.451 27.6867 163.704 25.9267 168.251 24.3867C169.424 24.02 170.891 23.4333 171.477 23.2133C172.064 22.92 172.431 22.7733 172.651 22.7733ZM161.137 29.52C161.357 29.52 161.577 29.5933 161.724 29.6667C162.017 29.8133 161.797 29.8867 161.137 29.8867C160.477 29.8867 160.184 29.8133 160.551 29.6667C160.697 29.5933 160.917 29.52 161.137 29.52ZM146.104 31.6467C146.177 31.6467 146.397 31.94 146.471 32.2333C146.617 32.6 146.251 33.1133 145.591 33.4067C144.564 33.92 144.491 33.8467 145.224 32.7467C145.664 32.16 146.031 31.6467 146.104 31.6467ZM143.317 35.46C143.684 35.46 143.977 35.6067 143.977 35.8267C143.977 36.2667 142.071 37.44 141.704 37.1467C141.337 36.78 142.584 35.46 143.317 35.46ZM172.064 36.7067C172.431 36.7067 173.311 36.9267 173.971 37.0733C174.924 37.44 174.924 37.5133 174.191 37.5133C173.677 37.5133 172.797 37.2933 172.284 37.0733C171.697 36.8533 171.624 36.7067 172.064 36.7067ZM214.47 5.83333C212.27 5.83333 209.63 6.12666 208.676 6.42C206.11 7.22666 201.93 10.5267 200.683 12.7267C199.29 15.1467 198.776 21.5267 199.656 23.8733C201.123 27.8333 204.643 31.06 207.43 31.06C208.163 31.06 209.41 31.7933 210.583 32.8933C212.563 34.7267 212.563 34.7267 211.536 35.3133C209.116 36.56 198.776 37.88 193.643 37.5133C187.41 37.1467 184.623 36.4133 182.936 34.8C182.13 33.9933 181.543 33.48 181.543 33.7C181.543 33.92 181.763 35.46 182.056 37.1467C182.643 40.8867 183.963 43.6 185.43 44.4067C189.243 46.46 197.53 46.8267 205.303 45.2867C211.243 44.1133 213.516 43.2333 215.643 41.2533C216.963 40.08 217.183 39.5667 216.963 38.32C216.816 37.44 216.963 36.6333 217.183 36.4867C217.403 36.34 217.11 35.24 216.45 33.9933C215.79 32.7467 215.276 31.5 215.276 31.2067C215.276 30.4 211.536 27.32 209.263 26.2933C208.163 25.78 206.256 24.3867 204.936 23.2133C202.076 20.6467 202.076 19.9133 204.863 17.7133C208.823 14.56 213.59 13.7533 219.97 15.1467C223.71 16.0267 224.516 15.7333 224.883 13.5333C225.763 8.4 222.316 5.83333 214.47 5.83333ZM183.303 36.8533C183.523 36.8533 183.963 36.9267 184.623 37C190.93 38.1733 194.376 38.98 193.056 39.0533C192.25 39.1267 191.37 39.3467 191.223 39.64C191.003 40.0067 190.783 40.0067 190.49 39.4933C190.27 39.2 189.683 38.8333 189.243 38.8333C187.556 38.8333 184.55 38.0267 183.67 37.3667C183.083 37 182.936 36.8533 183.303 36.8533ZM208.31 38.32C208.383 38.32 208.383 38.32 208.456 38.32C208.823 38.76 207.21 39.5667 206.55 39.3467C206.036 39.1267 205.743 39.2733 205.743 39.7867C205.743 40.2267 205.67 40.52 205.596 40.5933C198.336 41.9867 190.783 42.4267 188.363 41.4733C187.703 41.2533 187.043 41.0333 186.823 41.1067C186.09 41.2533 183.89 40.4467 183.89 40.0067C183.89 39.7133 184.256 39.64 184.696 39.7867C188.143 40.74 192.396 40.52 203.543 38.8333C205.816 38.4667 207.796 38.2467 208.31 38.32Z" fill="white"/>
</svg>
