<svg width="54" height="54" viewBox="0 0 54 54" fill="none" xmlns="http://www.w3.org/2000/svg">
<mask id="path-1-inside-1" fill="white">
<path d="M52.65 27C53.3956 27 54.0035 26.3951 53.9663 25.6504C53.6869 20.0659 51.679 14.693 48.2036 10.2845C44.4489 5.52174 39.2002 2.16179 33.303 0.746012C27.4059 -0.669766 21.2038 -0.0589163 15.6962 2.48013C10.1886 5.01918 5.69615 9.33856 2.94283 14.7423C0.189504 20.146 -0.664369 26.3193 0.518797 32.2674C1.70196 38.2156 4.85326 43.5922 9.4649 47.531C14.0765 51.4697 19.8799 53.7411 25.94 53.9792C31.5494 54.1996 37.0763 52.6659 41.7585 49.6094C42.3829 49.2019 42.5149 48.3545 42.0767 47.7513C41.6384 47.1481 40.796 47.0179 40.1694 47.422C35.9797 50.1239 31.0493 51.4778 26.046 51.2813C20.592 51.067 15.3689 49.0227 11.2184 45.4779C7.06793 41.933 4.23177 37.0941 3.16692 31.7407C2.10207 26.3873 2.87055 20.8314 5.34854 15.968C7.82653 11.1047 11.8697 7.21727 16.8266 4.93212C21.7834 2.64698 27.3653 2.09721 32.6727 3.37141C37.9802 4.64561 42.704 7.66957 46.0832 11.956C49.1831 15.8882 50.9858 20.6728 51.2625 25.6506C51.3039 26.395 51.9044 27 52.65 27Z"/>
</mask>
<path d="M52.65 27C53.3956 27 54.0035 26.3951 53.9663 25.6504C53.6869 20.0659 51.679 14.693 48.2036 10.2845C44.4489 5.52174 39.2002 2.16179 33.303 0.746012C27.4059 -0.669766 21.2038 -0.0589163 15.6962 2.48013C10.1886 5.01918 5.69615 9.33856 2.94283 14.7423C0.189504 20.146 -0.664369 26.3193 0.518797 32.2674C1.70196 38.2156 4.85326 43.5922 9.4649 47.531C14.0765 51.4697 19.8799 53.7411 25.94 53.9792C31.5494 54.1996 37.0763 52.6659 41.7585 49.6094C42.3829 49.2019 42.5149 48.3545 42.0767 47.7513C41.6384 47.1481 40.796 47.0179 40.1694 47.422C35.9797 50.1239 31.0493 51.4778 26.046 51.2813C20.592 51.067 15.3689 49.0227 11.2184 45.4779C7.06793 41.933 4.23177 37.0941 3.16692 31.7407C2.10207 26.3873 2.87055 20.8314 5.34854 15.968C7.82653 11.1047 11.8697 7.21727 16.8266 4.93212C21.7834 2.64698 27.3653 2.09721 32.6727 3.37141C37.9802 4.64561 42.704 7.66957 46.0832 11.956C49.1831 15.8882 50.9858 20.6728 51.2625 25.6506C51.3039 26.395 51.9044 27 52.65 27Z" stroke="white" stroke-width="8" mask="url(#path-1-inside-1)"/>
<path d="M28.4849 37V27.8774H30.5L31.2575 24.3214H28.4849V22.0548C28.4849 21.0255 28.7608 20.3215 30.1815 20.3215H32V17.1402C31.1206 17.0437 30.2367 16.997 29.3524 17.0002C26.7395 17.0002 24.9517 18.6575 24.9517 21.7001V24.3214H22V27.8774H24.9517V37H28.4849Z" fill="white"/>
</svg>
