<svg width="45" height="46" viewBox="0 0 45 46" fill="none" xmlns="http://www.w3.org/2000/svg">
<path fill-rule="evenodd" clip-rule="evenodd" d="M22.672 14.8125C20.4483 14.8125 20.1699 14.8223 19.2966 14.8616C18.4233 14.9009 17.8294 15.0396 17.3087 15.2426C16.765 15.453 16.2712 15.7746 15.859 16.1869C15.4467 16.5991 15.1251 17.0929 14.9147 17.6366C14.7116 18.1573 14.5741 18.7523 14.5337 19.6245C14.4933 20.4968 14.4846 20.7762 14.4846 22.9999C14.4846 25.2237 14.4944 25.502 14.5337 26.3754C14.573 27.2487 14.7116 27.8425 14.9147 28.3633C15.1251 28.907 15.4467 29.4007 15.859 29.813C16.2712 30.2252 16.765 30.5469 17.3087 30.7573C17.8294 30.9603 18.4244 31.0979 19.2966 31.1383C20.1688 31.1786 20.4483 31.1874 22.672 31.1874C24.8957 31.1874 25.1741 31.1776 26.0474 31.1383C26.9208 31.099 27.5146 30.9603 28.0353 30.7573C28.579 30.5469 29.0728 30.2252 29.4851 29.813C29.8973 29.4007 30.2189 28.907 30.4293 28.3633C30.6324 27.8425 30.7699 27.2476 30.8103 26.3754C30.8507 25.5031 30.8595 25.2237 30.8595 22.9999C30.8595 20.7762 30.8496 20.4979 30.8103 19.6245C30.771 18.7512 30.6324 18.1573 30.4293 17.6366C30.2189 17.0929 29.8973 16.5991 29.4851 16.1869C29.0728 15.7746 28.579 15.453 28.0353 15.2426C27.5146 15.0396 26.9197 14.902 26.0474 14.8616C25.1752 14.8212 24.8957 14.8125 22.672 14.8125ZM22.6717 18.7961C21.8403 18.7961 21.0275 19.0426 20.3361 19.5046C19.6448 19.9665 19.1059 20.6231 18.7878 21.3913C18.4696 22.1594 18.3863 23.0047 18.5485 23.8202C18.7107 24.6357 19.1111 25.3848 19.6991 25.9727C20.287 26.5606 21.0361 26.961 21.8516 27.1232C22.6671 27.2855 23.5123 27.2022 24.2805 26.884C25.0487 26.5658 25.7053 26.027 26.1672 25.3357C26.6291 24.6443 26.8757 23.8315 26.8757 23.0001C26.8757 21.8851 26.4328 20.8158 25.6444 20.0274C24.856 19.239 23.7867 18.7961 22.6717 18.7961ZM22.6717 25.7292C22.132 25.7292 21.6043 25.5691 21.1555 25.2693C20.7067 24.9694 20.3569 24.5431 20.1503 24.0444C19.9438 23.5458 19.8897 22.997 19.995 22.4676C20.1003 21.9382 20.3603 21.4519 20.7419 21.0703C21.1236 20.6886 21.6099 20.4286 22.1393 20.3233C22.6687 20.218 23.2174 20.2721 23.7161 20.4786C24.2148 20.6852 24.641 21.035 24.9409 21.4838C25.2408 21.9326 25.4009 22.4603 25.4009 23.0001C25.4009 23.7239 25.1133 24.418 24.6015 24.9298C24.0897 25.4417 23.3955 25.7292 22.6717 25.7292ZM28.0246 18.6292C28.0246 19.1718 27.5847 19.6117 27.0421 19.6117C26.4995 19.6117 26.0596 19.1718 26.0596 18.6292C26.0596 18.0866 26.4995 17.6467 27.0421 17.6467C27.5847 17.6467 28.0246 18.0866 28.0246 18.6292Z" fill="white"/>
</svg>
