<svg width="54" height="54" viewBox="0 0 54 54" fill="none" xmlns="http://www.w3.org/2000/svg">
<mask id="path-1-inside-1" fill="white">
<path d="M11.5634 6.515C11.1147 5.91955 10.2658 5.79807 9.6935 6.27596C5.67792 9.62925 2.715 14.0845 1.17977 19.106C-0.487285 24.5587 -0.385339 30.3991 1.471 35.7903C3.32734 41.1815 6.84276 45.8467 11.5134 49.1171C16.1841 52.3875 21.7702 54.0954 27.4712 53.9959C33.1722 53.8964 38.6953 51.9946 43.249 48.5632C47.8027 45.1317 51.1532 40.3467 52.8202 34.894C54.4873 29.4413 54.3853 23.6009 52.529 18.2097C50.8195 13.2448 47.7029 8.89571 43.5727 5.6846C42.9841 5.22697 42.1399 5.37801 41.7122 5.98875C41.2846 6.5995 41.4357 7.43839 42.0218 7.89928C45.6861 10.781 48.4522 14.663 49.9761 19.0887C51.6468 23.9408 51.7386 29.1972 50.2382 34.1046C48.7379 39.0121 45.7224 43.3185 41.6241 46.4068C37.5258 49.4952 32.555 51.2067 27.4241 51.2963C22.2932 51.3859 17.2657 49.8488 13.0621 46.9054C8.85849 43.962 5.6946 39.7634 4.0239 34.9113C2.3532 30.0592 2.26144 24.8028 3.76179 19.8954C5.13029 15.4192 7.75928 11.443 11.3208 8.43517C11.8904 7.9541 12.0121 7.11045 11.5634 6.515Z"/>
</mask>
<path d="M11.5634 6.515C11.1147 5.91955 10.2658 5.79807 9.6935 6.27596C5.67792 9.62925 2.715 14.0845 1.17977 19.106C-0.487285 24.5587 -0.385339 30.3991 1.471 35.7903C3.32734 41.1815 6.84276 45.8467 11.5134 49.1171C16.1841 52.3875 21.7702 54.0954 27.4712 53.9959C33.1722 53.8964 38.6953 51.9946 43.249 48.5632C47.8027 45.1317 51.1532 40.3467 52.8202 34.894C54.4873 29.4413 54.3853 23.6009 52.529 18.2097C50.8195 13.2448 47.7029 8.89571 43.5727 5.6846C42.9841 5.22697 42.1399 5.37801 41.7122 5.98875C41.2846 6.5995 41.4357 7.43839 42.0218 7.89928C45.6861 10.781 48.4522 14.663 49.9761 19.0887C51.6468 23.9408 51.7386 29.1972 50.2382 34.1046C48.7379 39.0121 45.7224 43.3185 41.6241 46.4068C37.5258 49.4952 32.555 51.2067 27.4241 51.2963C22.2932 51.3859 17.2657 49.8488 13.0621 46.9054C8.85849 43.962 5.6946 39.7634 4.0239 34.9113C2.3532 30.0592 2.26144 24.8028 3.76179 19.8954C5.13029 15.4192 7.75928 11.443 11.3208 8.43517C11.8904 7.9541 12.0121 7.11045 11.5634 6.515Z" stroke="white" stroke-width="8" mask="url(#path-1-inside-1)"/>
<path fill-rule="evenodd" clip-rule="evenodd" d="M27 17C24.284 17 23.944 17.012 22.8773 17.06C21.8107 17.108 21.0853 17.2773 20.4493 17.5253C19.7853 17.7823 19.1822 18.1752 18.6787 18.6787C18.1752 19.1822 17.7823 19.7853 17.5253 20.4493C17.2773 21.0853 17.1093 21.812 17.06 22.8773C17.0107 23.9427 17 24.284 17 27C17 29.716 17.012 30.056 17.06 31.1227C17.108 32.1893 17.2773 32.9147 17.5253 33.5507C17.7823 34.2147 18.1752 34.8178 18.6787 35.3213C19.1822 35.8249 19.7853 36.2177 20.4493 36.4747C21.0853 36.7227 21.812 36.8907 22.8773 36.94C23.9427 36.9893 24.284 37 27 37C29.716 37 30.056 36.988 31.1227 36.94C32.1893 36.892 32.9147 36.7227 33.5507 36.4747C34.2147 36.2177 34.8178 35.8249 35.3213 35.3213C35.8249 34.8178 36.2177 34.2147 36.4747 33.5507C36.7227 32.9147 36.8907 32.188 36.94 31.1227C36.9893 30.0573 37 29.716 37 27C37 24.284 36.988 23.944 36.94 22.8773C36.892 21.8107 36.7227 21.0853 36.4747 20.4493C36.2177 19.7853 35.8249 19.1822 35.3213 18.6787C34.8178 18.1752 34.2147 17.7823 33.5507 17.5253C32.9147 17.2773 32.188 17.1093 31.1227 17.06C30.0573 17.0107 29.716 17 27 17ZM26.9997 21.8653C25.9841 21.8653 24.9914 22.1665 24.147 22.7307C23.3026 23.2949 22.6445 24.0968 22.2558 25.035C21.8672 25.9733 21.7655 27.0057 21.9637 28.0017C22.1618 28.9977 22.6508 29.9127 23.3689 30.6308C24.087 31.3488 25.0019 31.8379 25.9979 32.036C26.994 32.2341 28.0264 32.1324 28.9646 31.7438C29.9028 31.3552 30.7048 30.6971 31.269 29.8527C31.8332 29.0083 32.1343 28.0155 32.1343 27C32.1343 25.6382 31.5933 24.3322 30.6304 23.3692C29.6675 22.4063 28.3615 21.8653 26.9997 21.8653ZM26.9997 30.3333C26.3404 30.3333 25.6959 30.1378 25.1478 29.7716C24.5996 29.4053 24.1723 28.8847 23.9201 28.2756C23.6678 27.6665 23.6018 26.9963 23.7304 26.3497C23.859 25.7031 24.1765 25.1091 24.6426 24.643C25.1088 24.1768 25.7027 23.8593 26.3494 23.7307C26.996 23.6021 27.6662 23.6681 28.2753 23.9204C28.8843 24.1727 29.4049 24.5999 29.7712 25.1481C30.1375 25.6963 30.333 26.3407 30.333 27C30.333 27.884 29.9818 28.7319 29.3567 29.357C28.7316 29.9821 27.8837 30.3333 26.9997 30.3333ZM33.5375 21.6613C33.5375 22.3241 33.0003 22.8613 32.3375 22.8613C31.6748 22.8613 31.1375 22.3241 31.1375 21.6613C31.1375 20.9986 31.6748 20.4613 32.3375 20.4613C33.0003 20.4613 33.5375 20.9986 33.5375 21.6613Z" fill="white"/>
</svg>
