<svg width="54" height="54" viewBox="0 0 54 54" fill="none" xmlns="http://www.w3.org/2000/svg">
<path d="M36.5414 21.8244C36.6812 21.3488 36.5414 21 35.8807 21H33.6919C33.135 21 32.8805 21.3017 32.7407 21.6331C32.7407 21.6331 31.6279 24.4143 30.0509 26.2175C29.5419 26.7423 29.3093 26.908 29.0319 26.908C28.8931 26.908 28.6915 26.7423 28.6915 26.2666V21.8244C28.6915 21.2537 28.5308 21 28.0667 21H24.6273C24.28 21 24.0704 21.2639 24.0704 21.5155C24.0704 22.0556 24.8589 22.1804 24.9397 23.7024V27.0041C24.9397 27.7273 24.813 27.8592 24.5335 27.8592C23.7919 27.8592 21.9874 25.0679 20.9165 21.8725C20.7079 21.2516 20.4973 21.001 19.9384 21.001H17.7506C17.1248 21.001 17 21.3028 17 21.6342C17 22.2295 17.7416 25.1753 20.4544 29.0713C22.2629 31.7317 24.809 33.1739 27.1285 33.1739C28.5189 33.1739 28.6905 32.8538 28.6905 32.3014V30.2905C28.6905 29.6502 28.8233 29.5213 29.2634 29.5213C29.5868 29.5213 30.1437 29.6891 31.4422 30.9707C32.9254 32.4907 33.1709 33.1729 34.0043 33.1729H36.1921C36.8169 33.1729 37.1293 32.8527 36.9497 32.2206C36.753 31.5916 36.0444 30.6761 35.1042 29.5929C34.5932 28.9751 33.8296 28.3103 33.5971 27.9779C33.2727 27.5493 33.3665 27.3601 33.5971 26.9796C33.5981 26.9806 36.264 23.1326 36.5414 21.8244Z" fill="white"/>
<mask id="path-2-inside-1" fill="white">
<path d="M27 52.65C27 53.3956 27.6049 54.0035 28.3495 53.9663C33.5746 53.7048 38.6221 51.9299 42.8702 48.8435C47.4831 45.492 50.9166 40.7662 52.6785 35.3435C54.4405 29.9207 54.4405 24.0793 52.6785 18.6565C50.9166 13.2338 47.4831 8.508 42.8702 5.15654C38.2573 1.80508 32.7018 1.75585e-07 27 0C21.2982 -1.75585e-07 15.7427 1.80508 11.1298 5.15654C6.51691 8.508 3.08344 13.2338 1.32147 18.6565C-0.301157 23.6505 -0.429473 28.9994 0.936526 34.0495C1.1312 34.7693 1.89631 35.1567 2.6054 34.9263C3.31449 34.6959 3.69867 33.935 3.50799 33.2142C2.31581 28.7075 2.44292 23.9425 3.88933 19.4909C5.4751 14.6104 8.56522 10.3572 12.7168 7.34089C16.8684 4.32458 21.8683 2.7 27 2.7C32.1317 2.7 37.1316 4.32458 41.2832 7.34089C45.4348 10.3572 48.5249 14.6104 50.1107 19.4909C51.6964 24.3714 51.6964 29.6286 50.1107 34.5091C48.5249 39.3896 45.4348 43.6428 41.2832 46.6591C37.4964 49.4104 33.0039 51.0037 28.3494 51.2625C27.6049 51.3039 27 51.9044 27 52.65Z"/>
</mask>
<path d="M27 52.65C27 53.3956 27.6049 54.0035 28.3495 53.9663C33.5746 53.7048 38.6221 51.9299 42.8702 48.8435C47.4831 45.492 50.9166 40.7662 52.6785 35.3435C54.4405 29.9207 54.4405 24.0793 52.6785 18.6565C50.9166 13.2338 47.4831 8.508 42.8702 5.15654C38.2573 1.80508 32.7018 1.75585e-07 27 0C21.2982 -1.75585e-07 15.7427 1.80508 11.1298 5.15654C6.51691 8.508 3.08344 13.2338 1.32147 18.6565C-0.301157 23.6505 -0.429473 28.9994 0.936526 34.0495C1.1312 34.7693 1.89631 35.1567 2.6054 34.9263C3.31449 34.6959 3.69867 33.935 3.50799 33.2142C2.31581 28.7075 2.44292 23.9425 3.88933 19.4909C5.4751 14.6104 8.56522 10.3572 12.7168 7.34089C16.8684 4.32458 21.8683 2.7 27 2.7C32.1317 2.7 37.1316 4.32458 41.2832 7.34089C45.4348 10.3572 48.5249 14.6104 50.1107 19.4909C51.6964 24.3714 51.6964 29.6286 50.1107 34.5091C48.5249 39.3896 45.4348 43.6428 41.2832 46.6591C37.4964 49.4104 33.0039 51.0037 28.3494 51.2625C27.6049 51.3039 27 51.9044 27 52.65Z" stroke="white" stroke-width="8" mask="url(#path-2-inside-1)"/>
</svg>
