<svg width="45" height="46" viewBox="0 0 45 46" fill="none" xmlns="http://www.w3.org/2000/svg">
<path d="M30.2697 18.762C30.3841 18.3725 30.2697 18.0869 29.7287 18.0869H27.9363C27.4803 18.0869 27.2719 18.334 27.1575 18.6054C27.1575 18.6054 26.2462 20.8827 24.9549 22.3594C24.538 22.789 24.3476 22.9247 24.1204 22.9247C24.0068 22.9247 23.8417 22.789 23.8417 22.3996V18.762C23.8417 18.2946 23.7101 18.0869 23.3301 18.0869H20.5137C20.2293 18.0869 20.0576 18.303 20.0576 18.5091C20.0576 18.9513 20.7033 19.0535 20.7695 20.2998V23.0035C20.7695 23.5956 20.6657 23.7037 20.4369 23.7037C19.8296 23.7037 18.3519 21.4179 17.475 18.8014C17.3042 18.293 17.1317 18.0878 16.674 18.0878H14.8825C14.3701 18.0878 14.2679 18.3348 14.2679 18.6062C14.2679 19.0937 14.8752 21.5059 17.0966 24.6962C18.5775 26.8747 20.6624 28.0557 22.5618 28.0557C23.7003 28.0557 23.8409 27.7935 23.8409 27.3413V25.6946C23.8409 25.1703 23.9496 25.0647 24.31 25.0647C24.5748 25.0647 25.0309 25.2021 26.0942 26.2516C27.3087 27.4962 27.5097 28.0549 28.1922 28.0549H29.9837C30.4953 28.0549 30.7511 27.7927 30.604 27.2751C30.443 26.76 29.8627 26.0103 29.0928 25.1234C28.6744 24.6175 28.0491 24.073 27.8587 23.8008C27.5931 23.4499 27.6699 23.2949 27.8587 22.9834C27.8595 22.9842 30.0425 19.8333 30.2697 18.762Z" fill="white"/>
</svg>
