<svg width="160" height="72" viewBox="0 0 160 72" fill="none" xmlns="http://www.w3.org/2000/svg">
<path d="M78.7429 33.9556V37.1201C84.2404 37.9042 87.4379 37.8902 93.3253 37.1201V33.9556C87.3219 35.0586 84.1228 35.061 78.7429 33.9556Z" fill="white"/>
<path d="M78.7429 33.9556V37.1201C84.2404 37.9042 87.4379 37.8902 93.3253 37.1201V33.9556C87.3219 35.0586 84.1228 35.061 78.7429 33.9556Z" fill="url(#paint0_radial)"/>
<path d="M103.148 46.8203C104.264 47.4076 105.522 47.7013 106.922 47.7013C107.956 47.7013 108.92 47.519 109.813 47.1545C110.706 46.7899 111.466 46.2937 112.095 45.6659V41.0178C112.095 41.7469 111.892 42.4051 111.487 42.9924C111.081 43.5798 110.533 44.0456 109.843 44.3899C109.174 44.7342 108.403 44.9064 107.53 44.9064C106.151 44.9064 104.994 44.5114 104.061 43.7216C103.148 42.9114 102.692 41.6456 102.692 39.9241V32.4507C102.692 32.0051 102.539 31.6405 102.235 31.357C101.951 31.0532 101.586 30.9013 101.139 30.9013C100.693 30.9013 100.318 31.0532 100.013 31.357C99.7294 31.6405 99.5874 32.0051 99.5874 32.4507V39.9241C99.5874 41.6051 99.9019 43.0228 100.531 44.1772C101.18 45.3317 102.052 46.2127 103.148 46.8203Z" fill="white"/>
<path d="M103.148 46.8203C104.264 47.4076 105.522 47.7013 106.922 47.7013C107.956 47.7013 108.92 47.519 109.813 47.1545C110.706 46.7899 111.466 46.2937 112.095 45.6659V41.0178C112.095 41.7469 111.892 42.4051 111.487 42.9924C111.081 43.5798 110.533 44.0456 109.843 44.3899C109.174 44.7342 108.403 44.9064 107.53 44.9064C106.151 44.9064 104.994 44.5114 104.061 43.7216C103.148 42.9114 102.692 41.6456 102.692 39.9241V32.4507C102.692 32.0051 102.539 31.6405 102.235 31.357C101.951 31.0532 101.586 30.9013 101.139 30.9013C100.693 30.9013 100.318 31.0532 100.013 31.357C99.7294 31.6405 99.5874 32.0051 99.5874 32.4507V39.9241C99.5874 41.6051 99.9019 43.0228 100.531 44.1772C101.18 45.3317 102.052 46.2127 103.148 46.8203Z" fill="url(#paint1_radial)"/>
<path d="M103.148 46.8203C104.264 47.4076 105.522 47.7013 106.922 47.7013C107.956 47.7013 108.92 47.519 109.813 47.1545C110.706 46.7899 111.466 46.2937 112.095 45.6659V41.0178C112.095 41.7469 111.892 42.4051 111.487 42.9924C111.081 43.5798 110.533 44.0456 109.843 44.3899C109.174 44.7342 108.403 44.9064 107.53 44.9064C106.151 44.9064 104.994 44.5114 104.061 43.7216C103.148 42.9114 102.692 41.6456 102.692 39.9241V32.4507C102.692 32.0051 102.539 31.6405 102.235 31.357C101.951 31.0532 101.586 30.9013 101.139 30.9013C100.693 30.9013 100.318 31.0532 100.013 31.357C99.7294 31.6405 99.5874 32.0051 99.5874 32.4507V39.9241C99.5874 41.6051 99.9019 43.0228 100.531 44.1772C101.18 45.3317 102.052 46.2127 103.148 46.8203Z" fill="url(#paint2_radial)"/>
<path d="M103.148 46.8203C104.264 47.4076 105.522 47.7013 106.922 47.7013C107.956 47.7013 108.92 47.519 109.813 47.1545C110.706 46.7899 111.466 46.2937 112.095 45.6659V41.0178C112.095 41.7469 111.892 42.4051 111.487 42.9924C111.081 43.5798 110.533 44.0456 109.843 44.3899C109.174 44.7342 108.403 44.9064 107.53 44.9064C106.151 44.9064 104.994 44.5114 104.061 43.7216C103.148 42.9114 102.692 41.6456 102.692 39.9241V32.4507C102.692 32.0051 102.539 31.6405 102.235 31.357C101.951 31.0532 101.586 30.9013 101.139 30.9013C100.693 30.9013 100.318 31.0532 100.013 31.357C99.7294 31.6405 99.5874 32.0051 99.5874 32.4507V39.9241C99.5874 41.6051 99.9019 43.0228 100.531 44.1772C101.18 45.3317 102.052 46.2127 103.148 46.8203Z" fill="url(#paint3_radial)"/>
<path d="M123.527 31.2355C122.797 31.519 122.168 31.9241 121.64 32.4507V37.4633C121.64 36.3292 121.985 35.3975 122.675 34.6684C123.365 33.9393 124.237 33.5747 125.292 33.5747C126.307 33.5747 127.128 33.8886 127.757 34.5165C128.386 35.1241 128.701 36.0659 128.701 37.3418V46.0304C128.701 46.476 128.843 46.8507 129.127 47.1545C129.431 47.438 129.806 47.5798 130.253 47.5798C130.719 47.5798 131.095 47.438 131.379 47.1545C131.663 46.8507 131.805 46.476 131.805 46.0304V37.4633C131.805 36.3292 132.14 35.3975 132.809 34.6684C133.499 33.9393 134.371 33.5747 135.426 33.5747C136.441 33.5747 137.262 33.8886 137.891 34.5165C138.52 35.1241 138.835 36.0659 138.835 37.3418V46.0304C138.835 46.476 138.977 46.8507 139.261 47.1545C139.565 47.438 139.941 47.5798 140.387 47.5798C140.854 47.5798 141.229 47.438 141.513 47.1545C141.797 46.8507 141.939 46.476 141.939 46.0304V37.3418C141.939 35.2355 141.391 33.6152 140.296 32.4811C139.2 31.3469 137.78 30.7798 136.035 30.7798C134.899 30.7798 133.874 30.9924 132.961 31.4178C132.048 31.8431 131.298 32.4304 130.709 33.1798C129.634 31.5798 128.031 30.7798 125.901 30.7798C125.049 30.7798 124.257 30.9317 123.527 31.2355Z" fill="white"/>
<path d="M123.527 31.2355C122.797 31.519 122.168 31.9241 121.64 32.4507V37.4633C121.64 36.3292 121.985 35.3975 122.675 34.6684C123.365 33.9393 124.237 33.5747 125.292 33.5747C126.307 33.5747 127.128 33.8886 127.757 34.5165C128.386 35.1241 128.701 36.0659 128.701 37.3418V46.0304C128.701 46.476 128.843 46.8507 129.127 47.1545C129.431 47.438 129.806 47.5798 130.253 47.5798C130.719 47.5798 131.095 47.438 131.379 47.1545C131.663 46.8507 131.805 46.476 131.805 46.0304V37.4633C131.805 36.3292 132.14 35.3975 132.809 34.6684C133.499 33.9393 134.371 33.5747 135.426 33.5747C136.441 33.5747 137.262 33.8886 137.891 34.5165C138.52 35.1241 138.835 36.0659 138.835 37.3418V46.0304C138.835 46.476 138.977 46.8507 139.261 47.1545C139.565 47.438 139.941 47.5798 140.387 47.5798C140.854 47.5798 141.229 47.438 141.513 47.1545C141.797 46.8507 141.939 46.476 141.939 46.0304V37.3418C141.939 35.2355 141.391 33.6152 140.296 32.4811C139.2 31.3469 137.78 30.7798 136.035 30.7798C134.899 30.7798 133.874 30.9924 132.961 31.4178C132.048 31.8431 131.298 32.4304 130.709 33.1798C129.634 31.5798 128.031 30.7798 125.901 30.7798C125.049 30.7798 124.257 30.9317 123.527 31.2355Z" fill="url(#paint4_radial)"/>
<path d="M123.527 31.2355C122.797 31.519 122.168 31.9241 121.64 32.4507V37.4633C121.64 36.3292 121.985 35.3975 122.675 34.6684C123.365 33.9393 124.237 33.5747 125.292 33.5747C126.307 33.5747 127.128 33.8886 127.757 34.5165C128.386 35.1241 128.701 36.0659 128.701 37.3418V46.0304C128.701 46.476 128.843 46.8507 129.127 47.1545C129.431 47.438 129.806 47.5798 130.253 47.5798C130.719 47.5798 131.095 47.438 131.379 47.1545C131.663 46.8507 131.805 46.476 131.805 46.0304V37.4633C131.805 36.3292 132.14 35.3975 132.809 34.6684C133.499 33.9393 134.371 33.5747 135.426 33.5747C136.441 33.5747 137.262 33.8886 137.891 34.5165C138.52 35.1241 138.835 36.0659 138.835 37.3418V46.0304C138.835 46.476 138.977 46.8507 139.261 47.1545C139.565 47.438 139.941 47.5798 140.387 47.5798C140.854 47.5798 141.229 47.438 141.513 47.1545C141.797 46.8507 141.939 46.476 141.939 46.0304V37.3418C141.939 35.2355 141.391 33.6152 140.296 32.4811C139.2 31.3469 137.78 30.7798 136.035 30.7798C134.899 30.7798 133.874 30.9924 132.961 31.4178C132.048 31.8431 131.298 32.4304 130.709 33.1798C129.634 31.5798 128.031 30.7798 125.901 30.7798C125.049 30.7798 124.257 30.9317 123.527 31.2355Z" fill="url(#paint5_radial)"/>
<path d="M123.527 31.2355C122.797 31.519 122.168 31.9241 121.64 32.4507V37.4633C121.64 36.3292 121.985 35.3975 122.675 34.6684C123.365 33.9393 124.237 33.5747 125.292 33.5747C126.307 33.5747 127.128 33.8886 127.757 34.5165C128.386 35.1241 128.701 36.0659 128.701 37.3418V46.0304C128.701 46.476 128.843 46.8507 129.127 47.1545C129.431 47.438 129.806 47.5798 130.253 47.5798C130.719 47.5798 131.095 47.438 131.379 47.1545C131.663 46.8507 131.805 46.476 131.805 46.0304V37.4633C131.805 36.3292 132.14 35.3975 132.809 34.6684C133.499 33.9393 134.371 33.5747 135.426 33.5747C136.441 33.5747 137.262 33.8886 137.891 34.5165C138.52 35.1241 138.835 36.0659 138.835 37.3418V46.0304C138.835 46.476 138.977 46.8507 139.261 47.1545C139.565 47.438 139.941 47.5798 140.387 47.5798C140.854 47.5798 141.229 47.438 141.513 47.1545C141.797 46.8507 141.939 46.476 141.939 46.0304V37.3418C141.939 35.2355 141.391 33.6152 140.296 32.4811C139.2 31.3469 137.78 30.7798 136.035 30.7798C134.899 30.7798 133.874 30.9924 132.961 31.4178C132.048 31.8431 131.298 32.4304 130.709 33.1798C129.634 31.5798 128.031 30.7798 125.901 30.7798C125.049 30.7798 124.257 30.9317 123.527 31.2355Z" fill="url(#paint6_radial)"/>
<path d="M148.497 47.0026C149.633 47.5494 150.962 47.8228 152.483 47.8228C154.025 47.8228 155.354 47.5595 156.47 47.0329C157.586 46.4861 158.448 45.7469 159.057 44.8152C159.686 43.8836 160 42.8203 160 41.6254C160 40.4304 159.696 39.4076 159.087 38.557C158.478 37.6861 157.647 37.0279 156.592 36.5823C155.557 36.1165 154.38 35.8836 153.061 35.8836H148.07V38.4962H153.061C154.198 38.4962 155.141 38.7595 155.892 39.2861C156.642 39.7924 157.018 40.5722 157.018 41.6254C157.018 42.7393 156.582 43.5798 155.709 44.1469C154.837 44.6937 153.751 44.9671 152.453 44.9671C151.621 44.9671 150.87 44.795 150.201 44.4507C149.552 44.1064 149.034 43.6405 148.649 43.0532L145.879 44.6937C146.508 45.6861 147.381 46.4557 148.497 47.0026Z" fill="white"/>
<path d="M148.497 47.0026C149.633 47.5494 150.962 47.8228 152.483 47.8228C154.025 47.8228 155.354 47.5595 156.47 47.0329C157.586 46.4861 158.448 45.7469 159.057 44.8152C159.686 43.8836 160 42.8203 160 41.6254C160 40.4304 159.696 39.4076 159.087 38.557C158.478 37.6861 157.647 37.0279 156.592 36.5823C155.557 36.1165 154.38 35.8836 153.061 35.8836H148.07V38.4962H153.061C154.198 38.4962 155.141 38.7595 155.892 39.2861C156.642 39.7924 157.018 40.5722 157.018 41.6254C157.018 42.7393 156.582 43.5798 155.709 44.1469C154.837 44.6937 153.751 44.9671 152.453 44.9671C151.621 44.9671 150.87 44.795 150.201 44.4507C149.552 44.1064 149.034 43.6405 148.649 43.0532L145.879 44.6937C146.508 45.6861 147.381 46.4557 148.497 47.0026Z" fill="url(#paint7_radial)"/>
<path d="M148.497 47.0026C149.633 47.5494 150.962 47.8228 152.483 47.8228C154.025 47.8228 155.354 47.5595 156.47 47.0329C157.586 46.4861 158.448 45.7469 159.057 44.8152C159.686 43.8836 160 42.8203 160 41.6254C160 40.4304 159.696 39.4076 159.087 38.557C158.478 37.6861 157.647 37.0279 156.592 36.5823C155.557 36.1165 154.38 35.8836 153.061 35.8836H148.07V38.4962H153.061C154.198 38.4962 155.141 38.7595 155.892 39.2861C156.642 39.7924 157.018 40.5722 157.018 41.6254C157.018 42.7393 156.582 43.5798 155.709 44.1469C154.837 44.6937 153.751 44.9671 152.453 44.9671C151.621 44.9671 150.87 44.795 150.201 44.4507C149.552 44.1064 149.034 43.6405 148.649 43.0532L145.879 44.6937C146.508 45.6861 147.381 46.4557 148.497 47.0026Z" fill="url(#paint8_radial)"/>
<path d="M148.497 47.0026C149.633 47.5494 150.962 47.8228 152.483 47.8228C154.025 47.8228 155.354 47.5595 156.47 47.0329C157.586 46.4861 158.448 45.7469 159.057 44.8152C159.686 43.8836 160 42.8203 160 41.6254C160 40.4304 159.696 39.4076 159.087 38.557C158.478 37.6861 157.647 37.0279 156.592 36.5823C155.557 36.1165 154.38 35.8836 153.061 35.8836H148.07V38.4962H153.061C154.198 38.4962 155.141 38.7595 155.892 39.2861C156.642 39.7924 157.018 40.5722 157.018 41.6254C157.018 42.7393 156.582 43.5798 155.709 44.1469C154.837 44.6937 153.751 44.9671 152.453 44.9671C151.621 44.9671 150.87 44.795 150.201 44.4507C149.552 44.1064 149.034 43.6405 148.649 43.0532L145.879 44.6937C146.508 45.6861 147.381 46.4557 148.497 47.0026Z" fill="url(#paint9_radial)"/>
<path d="M144.965 41.1397C145 42.9122 145.22 43.6672 145.878 44.6941L148.647 43.0536C148.23 42.3262 148.114 41.8913 148.069 41.079V38.4967V32.4815C148.069 32.0359 147.917 31.6714 147.612 31.3878C147.328 31.084 146.963 30.9321 146.517 30.9321C146.111 30.9321 145.756 31.084 145.452 31.3878C145.168 31.6714 145.005 32.0258 144.965 32.4511V41.1397Z" fill="white"/>
<path d="M112.521 31.3277C112.237 31.6112 112.094 31.9859 112.094 32.4517V46.0011C112.094 46.4466 112.237 46.8213 112.521 47.1251C112.825 47.4087 113.2 47.5504 113.647 47.5504C114.113 47.5504 114.489 47.4087 114.773 47.1251C115.057 46.8213 115.199 46.4466 115.199 46.0011V32.4517C115.199 31.9859 115.057 31.6112 114.773 31.3277C114.489 31.0441 114.113 30.9023 113.647 30.9023C113.2 30.9023 112.825 31.0441 112.521 31.3277Z" fill="white"/>
<path d="M119.113 31.2173C118.829 31.5009 118.687 31.8755 118.687 32.3414V45.8907C118.687 46.3363 118.829 46.711 119.113 47.0148C119.417 47.2983 119.792 47.4401 120.239 47.4401C120.705 47.4401 121.081 47.2983 121.365 47.0148C121.649 46.711 121.791 46.3363 121.791 45.8907V32.3414C121.791 31.8755 121.649 31.5009 121.365 31.2173C121.081 30.9338 120.705 30.792 120.239 30.792C119.792 30.792 119.417 30.9338 119.113 31.2173Z" fill="white"/>
<path d="M76.3011 47.0941C76.6054 47.3979 76.9808 47.5498 77.4271 47.5498C77.8937 47.5498 78.2691 47.3979 78.5531 47.0941C78.8575 46.7903 79.0096 46.4156 79.0096 45.9701V25.403C79.0096 24.9372 78.8575 24.5625 78.5531 24.2789C78.2691 23.9751 77.8937 23.8232 77.4271 23.8232C76.9808 23.8232 76.6054 23.9751 76.3011 24.2789C75.9968 24.5625 75.8446 24.9372 75.8446 25.403V45.9701C75.8446 46.4156 75.9968 46.7903 76.3011 47.0941Z" fill="white"/>
<path d="M93.5869 24.2789C93.2826 24.5625 93.1304 24.9372 93.1304 25.403V45.9701C93.1304 46.4156 93.2826 46.7903 93.5869 47.0941C93.8913 47.3979 94.2666 47.5498 94.713 47.5498C95.1796 47.5498 95.5549 47.3979 95.839 47.0941C96.123 46.7903 96.265 46.4156 96.265 45.9701V25.403C96.265 24.9372 96.123 24.5625 95.839 24.2789C95.5549 23.9751 95.1796 23.8232 94.713 23.8232C94.2666 23.8232 93.8913 23.9751 93.5869 24.2789Z" fill="white"/>
<path d="M56.7395 69.451C56.126 62.3096 53.2216 1.52621 34.161 24.7623C30.8098 28.8467 25.7884 41.8667 20.1358 42.9467C9.92995 44.8957 6.12496 7.454 5.22423 1.90969C4.68167 -1.43589 -0.446151 -0.0146538 0.0964134 3.31334C1.75957 13.5647 8.8555 65.824 28.6467 42.032C31.0829 39.1016 37.7213 24.5161 41.8455 24.4915C49.6081 24.4457 51.0478 65.1345 51.4202 69.4546C51.711 72.8107 57.0302 72.8388 56.7395 69.451Z" fill="white"/>
<path d="M56.7395 69.451C56.126 62.3096 53.2216 1.52621 34.161 24.7623C30.8098 28.8467 25.7884 41.8667 20.1358 42.9467C9.92995 44.8957 6.12496 7.454 5.22423 1.90969C4.68167 -1.43589 -0.446151 -0.0146538 0.0964134 3.31334C1.75957 13.5647 8.8555 65.824 28.6467 42.032C31.0829 39.1016 37.7213 24.5161 41.8455 24.4915C49.6081 24.4457 51.0478 65.1345 51.4202 69.4546C51.711 72.8107 57.0302 72.8388 56.7395 69.451Z" fill="url(#paint10_radial)"/>
<path d="M51.4199 2.61029C51.2462 13.1853 51.1788 29.1287 38.5934 32.6572C32.5401 34.3564 25.9229 32.8472 19.7455 33.79C2.09976 36.4847 0.245137 54.648 0.000450695 69.4516C-0.0562881 72.8499 5.26297 72.8499 5.31971 69.4516C5.49347 58.8766 5.56087 42.9332 18.1462 39.4046C24.1995 37.7055 30.8167 39.2147 36.9941 38.2719C54.6399 35.5771 56.4945 17.4139 56.7392 2.61029C56.7959 -0.788064 51.4767 -0.788064 51.4199 2.61029Z" fill="white"/>
<path d="M51.4199 2.61029C51.2462 13.1853 51.1788 29.1287 38.5934 32.6572C32.5401 34.3564 25.9229 32.8472 19.7455 33.79C2.09976 36.4847 0.245137 54.648 0.000450695 69.4516C-0.0562881 72.8499 5.26297 72.8499 5.31971 69.4516C5.49347 58.8766 5.56087 42.9332 18.1462 39.4046C24.1995 37.7055 30.8167 39.2147 36.9941 38.2719C54.6399 35.5771 56.4945 17.4139 56.7392 2.61029C56.7959 -0.788064 51.4767 -0.788064 51.4199 2.61029Z" fill="url(#paint11_radial)"/>
<path d="M51.4199 2.61029C51.2462 13.1853 51.1788 29.1287 38.5934 32.6572C32.5401 34.3564 25.9229 32.8472 19.7455 33.79C2.09976 36.4847 0.245137 54.648 0.000450695 69.4516C-0.0562881 72.8499 5.26297 72.8499 5.31971 69.4516C5.49347 58.8766 5.56087 42.9332 18.1462 39.4046C24.1995 37.7055 30.8167 39.2147 36.9941 38.2719C54.6399 35.5771 56.4945 17.4139 56.7392 2.61029C56.7959 -0.788064 51.4767 -0.788064 51.4199 2.61029Z" fill="url(#paint12_radial)"/>
<path d="M5.22423 1.90969C6.12496 7.454 9.92995 44.8957 20.1358 42.9467C20.1358 42.9467 27.5508 47.3096 19.1953 48.02C6.18115 49.1264 1.47664 11.8207 0.0964134 3.31334C-0.446151 -0.0146537 4.68167 -1.43589 5.22423 1.90969Z" fill="white"/>
<path d="M51.4193 69.4541C51.0469 65.134 49.6072 24.4453 41.8446 24.491L42.5624 19.521C54.1437 20.6764 56.2295 63.5255 56.7385 69.4506C57.0293 72.8383 51.7101 72.8102 51.4193 69.4541Z" fill="white"/>
<defs>
<radialGradient id="paint0_radial" cx="0" cy="0" r="1" gradientUnits="userSpaceOnUse" gradientTransform="translate(94.2763 35.5378) rotate(81.4546) scale(6.40016 3.09374)">
<stop stop-opacity="0.4"/>
<stop offset="1" stop-color="white" stop-opacity="0"/>
</radialGradient>
<radialGradient id="paint1_radial" cx="0" cy="0" r="1" gradientUnits="userSpaceOnUse" gradientTransform="translate(113.456 42.0246) rotate(96.666) scale(9.55828 3.43024)">
<stop stop-opacity="0.4"/>
<stop offset="1" stop-color="white" stop-opacity="0"/>
</radialGradient>
<radialGradient id="paint2_radial" cx="0" cy="0" r="1" gradientUnits="userSpaceOnUse" gradientTransform="translate(120.748 32.6892) rotate(75.5945) scale(6.3712 2.58964)">
<stop stop-opacity="0.4"/>
<stop offset="1" stop-color="white" stop-opacity="0"/>
</radialGradient>
<radialGradient id="paint3_radial" cx="0" cy="0" r="1" gradientUnits="userSpaceOnUse" gradientTransform="translate(147.376 36.9613) rotate(90.0001) scale(3.9557 2.47563)">
<stop stop-opacity="0.4"/>
<stop offset="1" stop-color="white" stop-opacity="0"/>
</radialGradient>
<radialGradient id="paint4_radial" cx="0" cy="0" r="1" gradientUnits="userSpaceOnUse" gradientTransform="translate(113.456 42.0246) rotate(96.666) scale(9.55828 3.43024)">
<stop stop-opacity="0.4"/>
<stop offset="1" stop-color="white" stop-opacity="0"/>
</radialGradient>
<radialGradient id="paint5_radial" cx="0" cy="0" r="1" gradientUnits="userSpaceOnUse" gradientTransform="translate(120.748 32.6892) rotate(75.5945) scale(6.3712 2.58964)">
<stop stop-opacity="0.4"/>
<stop offset="1" stop-color="white" stop-opacity="0"/>
</radialGradient>
<radialGradient id="paint6_radial" cx="0" cy="0" r="1" gradientUnits="userSpaceOnUse" gradientTransform="translate(147.376 36.9613) rotate(90.0001) scale(3.9557 2.47563)">
<stop stop-opacity="0.4"/>
<stop offset="1" stop-color="white" stop-opacity="0"/>
</radialGradient>
<radialGradient id="paint7_radial" cx="0" cy="0" r="1" gradientUnits="userSpaceOnUse" gradientTransform="translate(113.456 42.0246) rotate(96.666) scale(9.55828 3.43024)">
<stop stop-opacity="0.4"/>
<stop offset="1" stop-color="white" stop-opacity="0"/>
</radialGradient>
<radialGradient id="paint8_radial" cx="0" cy="0" r="1" gradientUnits="userSpaceOnUse" gradientTransform="translate(120.748 32.6892) rotate(75.5945) scale(6.3712 2.58964)">
<stop stop-opacity="0.4"/>
<stop offset="1" stop-color="white" stop-opacity="0"/>
</radialGradient>
<radialGradient id="paint9_radial" cx="0" cy="0" r="1" gradientUnits="userSpaceOnUse" gradientTransform="translate(147.376 36.9613) rotate(90.0001) scale(3.9557 2.47563)">
<stop stop-opacity="0.4"/>
<stop offset="1" stop-color="white" stop-opacity="0"/>
</radialGradient>
<radialGradient id="paint10_radial" cx="0" cy="0" r="1" gradientUnits="userSpaceOnUse" gradientTransform="translate(29.7496 37.0441) rotate(24.3789) scale(11.3835 5.16084)">
<stop stop-opacity="0.5"/>
<stop offset="1" stop-color="white" stop-opacity="0"/>
</radialGradient>
<radialGradient id="paint11_radial" cx="0" cy="0" r="1" gradientUnits="userSpaceOnUse" gradientTransform="translate(11.3719 40.3252) rotate(80.3647) scale(4.93929 4.50091)">
<stop stop-opacity="0.5"/>
<stop offset="1" stop-color="white" stop-opacity="0"/>
</radialGradient>
<radialGradient id="paint12_radial" cx="0" cy="0" r="1" gradientUnits="userSpaceOnUse" gradientTransform="translate(47.386 29.39) rotate(70.1214) scale(6.68617 4.35544)">
<stop stop-opacity="0.4"/>
<stop offset="1" stop-color="white" stop-opacity="0"/>
</radialGradient>
</defs>
</svg>
