<svg width="752" height="429" viewBox="0 0 752 429" fill="none" xmlns="http://www.w3.org/2000/svg">
<rect x="7.99854" y="13" width="737" height="400" rx="53" fill="#09090A"/>
<rect x="7.99854" y="13" width="737" height="400" rx="53" stroke="#FF4D05" stroke-width="14"/>
<rect x="7.99854" y="13" width="737" height="400" rx="53" stroke="url(#paint0_linear)" stroke-opacity="0.4" stroke-width="14"/>
<rect x="7.99854" y="13" width="737" height="400" rx="53" stroke="url(#paint1_radial)" stroke-width="14"/>
<path d="M204.999 -2.62268e-07C201.685 -1.17422e-07 198.999 2.68629 198.999 6L244.999 6C244.999 2.68629 242.312 -1.8933e-06 238.999 -1.74846e-06L204.999 -2.62268e-07Z" fill="#DB267E"/>
<path d="M182.999 429C178.028 429 173.999 424.971 173.999 420L229.999 420C229.999 424.971 225.969 429 220.999 429L182.999 429Z" fill="#DB267E"/>
<path d="M240.999 429C236.028 429 231.999 424.971 231.999 420L287.999 420C287.999 424.971 283.969 429 278.999 429L240.999 429Z" fill="#DB267E"/>
<defs>
<linearGradient id="paint0_linear" x1="471.929" y1="938.958" x2="-436.458" y2="451.713" gradientUnits="userSpaceOnUse">
<stop stop-color="#FF1111"/>
<stop offset="1" stop-color="#FF510A" stop-opacity="0"/>
</linearGradient>
<radialGradient id="paint1_radial" cx="0" cy="0" r="1" gradientUnits="userSpaceOnUse" gradientTransform="translate(0.998588 -638.324) rotate(91.2985) scale(3158.29 1127.66)">
<stop stop-color="#AD00FF"/>
<stop offset="1" stop-color="#F53255" stop-opacity="0"/>
</radialGradient>
</defs>
</svg>
