<svg width="66" height="66" viewBox="0 0 66 66" fill="none" xmlns="http://www.w3.org/2000/svg">
<rect width="14.887" height="3.50269" rx="1.75135" transform="matrix(0.707107 -0.707107 -0.707107 -0.707107 27.5381 34.9967)" fill="#FF4D05"/>
<rect width="14.887" height="3.50269" rx="1.75135" transform="matrix(0.707107 -0.707107 -0.707107 -0.707107 27.5381 34.9967)" fill="url(#paint0_linear)" fill-opacity="0.4"/>
<rect width="14.887" height="3.50269" rx="1.75135" transform="matrix(0.707107 -0.707107 -0.707107 -0.707107 27.5381 34.9967)" fill="url(#paint1_radial)"/>
<rect x="27.5381" y="30.0503" width="14.887" height="3.50269" rx="1.75135" transform="rotate(45 27.5381 30.0503)" fill="#FF4D05"/>
<rect x="27.5381" y="30.0503" width="14.887" height="3.50269" rx="1.75135" transform="rotate(45 27.5381 30.0503)" fill="url(#paint2_linear)" fill-opacity="0.4"/>
<rect x="27.5381" y="30.0503" width="14.887" height="3.50269" rx="1.75135" transform="rotate(45 27.5381 30.0503)" fill="url(#paint3_radial)"/>
<circle r="30.4517" transform="matrix(-1 0 0 1 32.5664 32.5664)" stroke="#FF4D05" stroke-width="4.2294"/>
<circle r="30.4517" transform="matrix(-1 0 0 1 32.5664 32.5664)" stroke="url(#paint4_linear)" stroke-opacity="0.4" stroke-width="4.2294"/>
<circle r="30.4517" transform="matrix(-1 0 0 1 32.5664 32.5664)" stroke="url(#paint5_radial)" stroke-width="4.2294"/>
<defs>
<linearGradient id="paint0_linear" x1="9.33523" y1="7.89339" x2="0.345596" y2="-3.40417" gradientUnits="userSpaceOnUse">
<stop stop-color="#FF1111"/>
<stop offset="1" stop-color="#FF510A" stop-opacity="0"/>
</linearGradient>
<radialGradient id="paint1_radial" cx="0" cy="0" r="1" gradientUnits="userSpaceOnUse" gradientTransform="translate(1.05526e-06 -5.45138) rotate(93.0401) scale(26.7518 22.3278)">
<stop stop-color="#AD00FF"/>
<stop offset="1" stop-color="#F53255" stop-opacity="0"/>
</radialGradient>
<linearGradient id="paint2_linear" x1="36.8733" y1="37.9436" x2="27.8837" y2="26.6461" gradientUnits="userSpaceOnUse">
<stop stop-color="#FF1111"/>
<stop offset="1" stop-color="#FF510A" stop-opacity="0"/>
</linearGradient>
<radialGradient id="paint3_radial" cx="0" cy="0" r="1" gradientUnits="userSpaceOnUse" gradientTransform="translate(27.5381 24.5989) rotate(93.0401) scale(26.7518 22.3278)">
<stop stop-color="#AD00FF"/>
<stop offset="1" stop-color="#F53255" stop-opacity="0"/>
</radialGradient>
<linearGradient id="paint4_linear" x1="40.8429" y1="146.778" x2="-52.4494" y2="119.193" gradientUnits="userSpaceOnUse">
<stop stop-color="#FF1111"/>
<stop offset="1" stop-color="#FF510A" stop-opacity="0"/>
</linearGradient>
<radialGradient id="paint5_radial" cx="0" cy="0" r="1" gradientUnits="userSpaceOnUse" gradientTransform="translate(4.61692e-06 -101.369) rotate(90.7159) scale(496.791 97.8172)">
<stop stop-color="#AD00FF"/>
<stop offset="1" stop-color="#F53255" stop-opacity="0"/>
</radialGradient>
</defs>
</svg>
