<svg width="580" height="1080" viewBox="0 0 580 1080" fill="none" xmlns="http://www.w3.org/2000/svg">
<g opacity="0.05">
<path d="M579.764 1273.14C567.225 1127.52 507.861 -111.88 118.263 361.916C49.7661 445.198 -52.8704 710.681 -168.409 732.703C-377.016 772.443 -454.789 8.99046 -473.2 -104.061C-484.29 -172.278 -589.102 -143.299 -578.012 -75.4395C-544.017 133.59 -398.978 1199.18 5.55182 714.053C55.3478 654.299 191.037 356.895 275.335 356.393C434.001 355.46 463.429 1185.12 471.039 1273.21C476.983 1341.64 585.708 1342.22 579.764 1273.14Z" fill="white"/>
<path d="M579.764 1273.14C567.225 1127.52 507.861 -111.88 118.263 361.916C49.7661 445.198 -52.8704 710.681 -168.409 732.703C-377.016 772.443 -454.789 8.99046 -473.2 -104.061C-484.29 -172.278 -589.102 -143.299 -578.012 -75.4395C-544.017 133.59 -398.978 1199.18 5.55182 714.053C55.3478 654.299 191.037 356.895 275.335 356.393C434.001 355.46 463.429 1185.12 471.039 1273.21C476.983 1341.64 585.708 1342.22 579.764 1273.14Z" fill="url(#paint0_radial)"/>
<path d="M471.017 -89.7522C467.466 125.877 466.088 450.97 208.845 522.918C85.1158 557.565 -50.1381 526.792 -176.404 546.016C-537.081 600.963 -574.989 971.32 -579.991 1273.17C-581.151 1342.47 -472.426 1342.47 -471.266 1273.17C-467.714 1057.54 -466.337 732.45 -209.093 660.502C-85.3642 625.855 49.8898 656.628 176.156 637.404C536.833 582.457 574.741 212.1 579.743 -89.7522C580.902 -159.046 472.177 -159.046 471.017 -89.7522Z" fill="white"/>
<path d="M471.017 -89.7522C467.466 125.877 466.088 450.97 208.845 522.918C85.1158 557.565 -50.1381 526.792 -176.404 546.016C-537.081 600.963 -574.989 971.32 -579.991 1273.17C-581.151 1342.47 -472.426 1342.47 -471.266 1273.17C-467.714 1057.54 -466.337 732.45 -209.093 660.502C-85.3642 625.855 49.8898 656.628 176.156 637.404C536.833 582.457 574.741 212.1 579.743 -89.7522C580.902 -159.046 472.177 -159.046 471.017 -89.7522Z" fill="url(#paint1_radial)"/>
<path d="M471.017 -89.7522C467.466 125.877 466.088 450.97 208.845 522.918C85.1158 557.565 -50.1381 526.792 -176.404 546.016C-537.081 600.963 -574.989 971.32 -579.991 1273.17C-581.151 1342.47 -472.426 1342.47 -471.266 1273.17C-467.714 1057.54 -466.337 732.45 -209.093 660.502C-85.3642 625.855 49.8898 656.628 176.156 637.404C536.833 582.457 574.741 212.1 579.743 -89.7522C580.902 -159.046 472.177 -159.046 471.017 -89.7522Z" fill="url(#paint2_radial)"/>
<path d="M471.025 1273.21C463.414 1185.12 433.986 355.459 275.32 356.392L289.991 255.051C526.711 278.61 569.346 1152.32 579.75 1273.14C585.693 1342.22 476.968 1341.64 471.025 1273.21Z" fill="white"/>
</g>
<defs>
<radialGradient id="paint0_radial" cx="0" cy="0" r="1" gradientUnits="userSpaceOnUse" gradientTransform="translate(28.0945 612.346) rotate(24.3268) scale(232.581 105.275)">
<stop stop-opacity="0.5"/>
<stop offset="1" stop-color="white" stop-opacity="0"/>
</radialGradient>
<radialGradient id="paint1_radial" cx="0" cy="0" r="1" gradientUnits="userSpaceOnUse" gradientTransform="translate(-347.559 679.273) rotate(80.3418) scale(100.721 91.9918)">
<stop stop-opacity="0.5"/>
<stop offset="1" stop-color="white" stop-opacity="0"/>
</radialGradient>
<radialGradient id="paint2_radial" cx="0" cy="0" r="1" gradientUnits="userSpaceOnUse" gradientTransform="translate(388.564 456.298) rotate(70.0771) scale(136.372 88.9997)">
<stop stop-opacity="0.4"/>
<stop offset="1" stop-color="white" stop-opacity="0"/>
</radialGradient>
</defs>
</svg>
