<svg width="390" height="501" viewBox="0 0 390 501" fill="none" xmlns="http://www.w3.org/2000/svg">
<g clip-path="url(#clip0)">
<path fill-rule="evenodd" clip-rule="evenodd" d="M368.355 41.2387C366.281 35.7105 362.999 30.715 358.748 26.6168C354.498 22.5185 349.386 19.4208 343.786 17.5497C338.356 15.7245 332.621 15.1049 326.973 15.7023C323.717 16.0469 322.143 19.618 323.643 22.5287C324.695 24.5682 326.969 25.6184 329.259 25.4675C333.071 25.2162 336.908 25.7008 340.558 26.9081C344.751 28.2999 348.58 30.6077 351.769 33.664C354.958 36.7203 357.427 40.4484 358.996 44.5776C360.564 48.7069 361.194 53.1336 360.838 57.5364C360.483 61.9393 359.152 66.2077 356.941 70.0319C353.577 75.9325 348.261 80.4759 341.908 82.8802C334.634 85.5085 328.422 90.4498 324.225 96.9467L315.637 91.9884L323.075 79.1063C323.732 77.9674 323.911 76.614 323.57 75.3438C323.23 74.0736 322.399 72.9906 321.26 72.3331C320.121 71.6755 318.768 71.4974 317.498 71.8377C316.227 72.1781 315.144 73.0091 314.487 74.1479L307.049 87.0301L298.461 82.0717C302.146 75.4283 303.365 67.6968 301.904 60.2418C301.025 55.1767 301.473 49.9702 303.205 45.1298C304.023 42.8441 305.114 40.6768 306.448 38.6723C308.419 35.7094 307.479 31.2082 304.098 30.0976C302.34 29.5202 300.387 30.0444 299.292 31.5355C296.42 35.4432 294.278 39.8476 292.977 44.5369C291.404 50.2099 291.102 56.1601 292.093 61.9632C293.146 67.1176 292.361 72.4779 289.873 77.1134L282.436 89.9955C280.463 93.4121 279.929 97.4723 280.95 101.283C281.971 105.094 284.464 108.343 287.88 110.315L305.056 120.232C308.473 122.204 312.533 122.739 316.344 121.718C320.155 120.697 323.404 118.204 325.376 114.787L332.343 102.721C335.389 97.7765 340.025 94.0133 345.49 92.0475C355.244 88.2938 363.122 80.8423 367.413 71.3123C371.704 61.7823 372.06 50.944 368.404 41.1528L368.355 41.2387ZM313.777 112.139C315.047 111.799 316.13 110.968 316.788 109.829L319.267 105.535L293.503 90.6598L291.024 94.9539C290.366 96.0927 290.188 97.4461 290.528 98.7163C290.869 99.9866 291.7 101.07 292.839 101.727L310.015 111.644C311.154 112.301 312.507 112.479 313.777 112.139Z" fill="white"/>
<path fill-rule="evenodd" clip-rule="evenodd" d="M344.162 200.515C340.19 198.71 335.866 197.815 331.504 197.895C327.143 197.974 322.854 199.027 318.951 200.975C315.161 202.858 311.84 205.53 309.202 208.793C307.681 210.674 308.724 213.362 311.029 214.099C312.644 214.615 314.38 213.975 315.498 212.7C317.358 210.578 319.616 208.826 322.154 207.55C325.071 206.087 328.277 205.292 331.54 205.222C334.803 205.153 338.04 205.811 341.016 207.149C343.993 208.486 346.635 210.47 348.749 212.956C350.864 215.442 352.398 218.367 353.241 221.52C354.566 226.36 354.162 231.511 352.1 236.086C349.673 241.259 349.009 247.086 350.211 252.672L343.134 254.569L340.289 243.953C340.038 243.015 339.424 242.214 338.582 241.729C337.741 241.243 336.741 241.111 335.803 241.363C334.864 241.614 334.064 242.228 333.578 243.07C333.092 243.911 332.961 244.911 333.212 245.849L336.057 256.465L328.98 258.361C327.434 252.965 324.032 248.289 319.374 245.158C316.268 242.971 313.783 240.017 312.159 236.584C311.392 234.962 310.83 233.26 310.479 231.516C309.961 228.938 307.119 227.078 304.772 228.264C303.552 228.881 302.806 230.175 303.012 231.526C303.554 235.068 304.735 238.488 306.506 241.617C308.648 245.402 311.598 248.669 315.148 251.183C318.391 253.325 320.781 256.536 321.903 260.257L324.747 270.873C325.502 273.688 327.343 276.089 329.868 277.546C332.392 279.003 335.392 279.398 338.207 278.644L352.361 274.851C355.176 274.097 357.577 272.255 359.034 269.731C360.491 267.207 360.886 264.207 360.132 261.391L357.468 251.448C356.476 247.274 356.932 242.886 358.76 239.004C361.895 231.947 362.118 223.938 359.381 216.718C356.644 209.498 351.168 203.65 344.143 200.444L344.162 200.515ZM352.689 266.067C353.175 265.226 353.306 264.226 353.055 263.288L352.107 259.749L330.876 265.438L331.824 268.976C332.076 269.915 332.69 270.715 333.531 271.201C334.372 271.687 335.372 271.818 336.311 271.567L350.465 267.774C351.403 267.523 352.203 266.909 352.689 266.067Z" fill="white"/>
<path fill-rule="evenodd" clip-rule="evenodd" d="M85.4063 263.147C83.395 260.627 80.8463 258.587 77.9462 257.176C75.0461 255.766 71.8678 255.021 68.6431 254.996C65.5147 254.965 62.4311 255.612 59.599 256.877C57.9658 257.606 57.7516 259.727 59.0229 260.985C59.9137 261.867 61.2723 262.028 62.4361 261.563C64.3735 260.788 66.4484 260.391 68.5482 260.401C70.9606 260.416 73.3396 260.967 75.5124 262.016C77.6852 263.064 79.5972 264.584 81.1097 266.463C82.6221 268.343 83.6971 270.535 84.2565 272.882C84.8159 275.229 84.8457 277.671 84.3437 280.031C83.5934 283.664 81.6003 286.922 78.7072 289.244C75.3732 291.838 72.982 295.454 71.9002 299.538L66.6019 298.413L68.288 290.466C68.437 289.763 68.3009 289.03 67.9095 288.428C67.5181 287.826 66.9034 287.404 66.2009 287.255C65.4983 287.106 64.7652 287.242 64.163 287.633C63.5608 288.025 63.1388 288.639 62.9897 289.342L61.3036 297.289L56.0054 296.165C56.7964 292.092 56.1233 287.871 54.1048 284.246C52.7922 281.764 52.1452 278.984 52.2268 276.177C52.2654 274.852 52.4659 273.542 52.8199 272.275C53.3432 270.403 52.0943 268.224 50.1505 268.219C49.14 268.216 48.2143 268.818 47.8972 269.778C47.0661 272.293 46.6977 274.942 46.8147 277.597C46.9563 280.81 47.8049 283.951 49.3001 286.798C50.718 289.297 51.2158 292.213 50.7071 295.041L49.0211 302.989C48.5739 305.097 48.9824 307.296 50.1566 309.102C51.3308 310.909 53.1746 312.175 55.2824 312.622L65.8789 314.87C67.9867 315.317 70.1858 314.909 71.9924 313.735C73.799 312.561 75.0652 310.717 75.5124 308.609L77.0916 301.165C77.8386 298.082 79.6102 295.344 82.1164 293.4C86.5481 289.802 89.3808 284.601 89.999 278.926C90.6171 273.251 88.9707 267.562 85.4175 263.094L85.4063 263.147ZM69.0408 309.194C69.643 308.802 70.0651 308.187 70.2141 307.485L70.7761 304.836L54.8813 301.464L54.3193 304.113C54.1703 304.815 54.3064 305.548 54.6978 306.151C55.0892 306.753 55.7038 307.175 56.4064 307.324L67.003 309.572C67.7056 309.721 68.4386 309.585 69.0408 309.194Z" fill="white"/>
<path fill-rule="evenodd" clip-rule="evenodd" d="M55.8449 92.8312C53.3296 89.6789 50.1423 87.1278 46.5155 85.3641C42.8887 83.6004 38.914 82.6686 34.8812 82.6367C30.9689 82.5986 27.1126 83.4082 23.5709 84.9896C21.5284 85.9016 21.2606 88.5537 22.8505 90.1271C23.9645 91.2296 25.6635 91.4311 27.1189 90.8492C29.5418 89.8805 32.1366 89.3843 34.7625 89.3972C37.7795 89.4153 40.7546 90.1049 43.4718 91.4161C46.189 92.7274 48.5802 94.6272 50.4717 96.9777C52.3631 99.3282 53.7074 102.07 54.407 105.005C55.1066 107.94 55.1438 110.994 54.5161 113.945C53.5778 118.488 51.0852 122.563 47.4672 125.467C43.2978 128.711 40.3074 133.233 38.9545 138.34L32.3286 136.934L34.4371 126.995C34.6235 126.117 34.4533 125.2 33.9638 124.447C33.4743 123.694 32.7057 123.166 31.827 122.979C30.9484 122.793 30.0317 122.963 29.2786 123.453C28.5255 123.942 27.9977 124.711 27.8112 125.59L25.7027 135.528L19.0768 134.123C20.0661 129.029 19.2243 123.75 16.7 119.216C15.0584 116.112 14.2493 112.636 14.3515 109.126C14.3997 107.468 14.6504 105.83 15.0931 104.246C15.7475 101.905 14.1857 99.1804 11.7549 99.1736C10.4911 99.17 9.33342 99.9232 8.93687 101.123C7.89761 104.268 7.43682 107.582 7.58318 110.902C7.76024 114.919 8.82152 118.848 10.6914 122.408C12.4645 125.533 13.0871 129.181 12.4509 132.717L10.3424 142.656C9.78316 145.292 10.294 148.042 11.7624 150.301C13.2309 152.561 15.5367 154.144 18.1727 154.703L31.4244 157.515C34.0604 158.074 36.8105 157.563 39.0698 156.095C41.3291 154.626 42.9126 152.32 43.4718 149.684L45.4468 140.375C46.3809 136.52 48.5965 133.096 51.7307 130.664C57.2729 126.165 60.8154 119.66 61.5884 112.564C62.3614 105.467 60.3025 98.352 55.859 92.765L55.8449 92.8312ZM35.3786 150.415C36.1317 149.926 36.6595 149.157 36.8459 148.279L37.5488 144.966L17.6711 140.749L16.9683 144.062C16.7819 144.94 16.9521 145.857 17.4416 146.61C17.9311 147.363 18.6997 147.891 19.5784 148.077L32.8301 150.889C33.7088 151.075 34.6255 150.905 35.3786 150.415Z" fill="white"/>
</g>
<defs>
<clipPath id="clip0">
<rect y="0.96582" width="390" height="500" rx="16" fill="white"/>
</clipPath>
</defs>
</svg>
