<svg width="390" height="501" viewBox="0 0 390 501" fill="none" xmlns="http://www.w3.org/2000/svg">
<path fill-rule="evenodd" clip-rule="evenodd" d="M121.281 212.533L61.6654 197.615C58.2773 196.767 54.6912 197.3 51.696 199.096C48.7007 200.892 46.5417 203.805 45.6939 207.193L35.0383 249.775C34.1905 253.163 34.7233 256.749 36.5195 259.745C38.3157 262.74 41.2283 264.899 44.6163 265.747L57.3911 268.943L55.26 277.46L42.4852 274.263C41.3559 273.981 40.1605 274.158 39.1621 274.757C38.1637 275.356 37.444 276.327 37.1614 277.456C36.8788 278.585 37.0564 279.781 37.6551 280.779C38.2539 281.777 39.2247 282.497 40.3541 282.78L99.9696 297.698C101.099 297.98 102.294 297.803 103.293 297.204C104.291 296.605 105.011 295.634 105.293 294.505C105.576 293.376 105.398 292.18 104.8 291.182C104.201 290.183 103.23 289.464 102.101 289.181L89.326 285.984L91.4571 277.468L104.232 280.665C107.62 281.512 111.206 280.98 114.201 279.183C117.197 277.387 119.356 274.475 120.203 271.087L129.793 232.762C130.382 230.411 128.953 228.027 126.601 227.438C124.249 226.85 121.865 228.279 121.277 230.631L114.884 256.181L46.7515 239.132L54.2104 209.324C54.493 208.194 55.2127 207.224 56.2111 206.625C57.2095 206.026 58.4049 205.849 59.5343 206.131L119.15 221.049C121.194 221.561 123.301 220.632 124.212 218.731C125.4 216.25 124.117 213.244 121.448 212.575C121.393 212.561 121.338 212.547 121.281 212.533ZM63.7765 279.591L80.8095 283.853L82.9406 275.337L65.9076 271.075L63.7765 279.591ZM109.686 271.654C110.685 271.056 111.404 270.085 111.687 268.955L112.752 264.697L44.6203 247.648L43.5548 251.906C43.2722 253.036 43.4498 254.231 44.0485 255.23C44.6473 256.228 45.6181 256.948 46.7475 257.23L106.363 272.148C107.492 272.431 108.688 272.253 109.686 271.654Z" fill="white"/>
<path fill-rule="evenodd" clip-rule="evenodd" d="M70.5041 22.8681L35.1541 43.2774C33.1451 44.4374 31.6791 46.3478 31.0787 48.5886C30.4783 50.8294 30.7926 53.2169 31.9525 55.2259L46.5306 80.4759C47.6905 82.4849 49.601 83.9509 51.8418 84.5513C54.0826 85.1517 56.4701 84.8374 58.4791 83.6775L66.0541 79.304L68.9697 84.354L61.3947 88.7275C60.725 89.1141 60.2364 89.7509 60.0362 90.4979C59.8361 91.2448 59.9409 92.0406 60.3275 92.7103C60.7141 93.38 61.351 93.8686 62.0979 94.0688C62.8448 94.2689 63.6406 94.1641 64.3103 93.7775L99.6603 73.3681C100.33 72.9815 100.819 72.3447 101.019 71.5977C101.219 70.8508 101.114 70.055 100.728 69.3853C100.341 68.7156 99.7041 68.227 98.9571 68.0268C98.2102 67.8267 97.4144 67.9315 96.7447 68.3181L89.1697 72.6916L86.2541 67.6416L93.8291 63.2681C95.8381 62.1082 97.3041 60.1977 97.9045 57.957C98.5049 55.7162 98.1906 53.3287 97.0307 51.3197L83.9104 28.5947C83.1053 27.2002 81.3221 26.7224 79.9276 27.5275C78.533 28.3326 78.0552 30.1158 78.8604 31.5103L87.6072 46.6603L47.2072 69.9853L37.0025 52.3103C36.6159 51.6406 36.5111 50.8448 36.7113 50.0978C36.9114 49.3509 37.4001 48.7141 38.0697 48.3274L73.4198 27.9181C74.632 27.2182 75.2089 25.8019 74.7659 24.4741C74.1875 22.7405 72.1866 21.8981 70.6034 22.8108C70.5708 22.8296 70.5378 22.8487 70.5041 22.8681ZM74.0197 81.4384L84.1197 75.6072L81.2041 70.5572L71.1041 76.3884L74.0197 81.4384ZM92.2719 56.4477C92.4721 55.7008 92.3673 54.905 91.9807 54.2353L90.5229 51.7103L50.1228 75.0353L51.5806 77.5603C51.9673 78.23 52.6041 78.7186 53.351 78.9187C54.0979 79.1189 54.8938 79.0141 55.5635 78.6275L90.9135 58.2181C91.5832 57.8315 92.0718 57.1947 92.2719 56.4477Z" fill="white"/>
<path fill-rule="evenodd" clip-rule="evenodd" d="M366.191 24.2985L347.372 17.3462C346.302 16.9511 345.119 16.9971 344.084 17.474C343.048 17.9509 342.244 18.8196 341.849 19.8892L336.883 33.3317C336.488 34.4013 336.534 35.584 337.011 36.6196C337.488 37.6553 338.357 38.4591 339.426 38.8542L343.459 40.344L342.466 43.0325L338.433 41.5427C338.076 41.411 337.682 41.4264 337.337 41.5853C336.992 41.7443 336.724 42.0339 336.592 42.3904C336.46 42.7469 336.476 43.1412 336.635 43.4864C336.794 43.8316 337.083 44.0995 337.44 44.2312L356.259 51.1836C356.616 51.3153 357.01 51.3 357.355 51.141C357.7 50.982 357.968 50.6924 358.1 50.3359C358.232 49.9794 358.216 49.5852 358.058 49.2399C357.899 48.8947 357.609 48.6268 357.252 48.4951L353.22 47.0053L354.213 44.3168L358.246 45.8066C359.315 46.2017 360.498 46.1557 361.534 45.6788C362.569 45.2019 363.373 44.3331 363.768 43.2636L368.238 31.1653C368.512 30.4229 368.132 29.5987 367.39 29.3245C366.647 29.0502 365.823 29.4297 365.549 30.1721L362.569 38.2376L341.061 30.2921L344.538 20.8824C344.669 20.5259 344.937 20.2363 345.282 20.0773C345.628 19.9183 346.022 19.903 346.378 20.0347L365.198 26.987C365.843 27.2255 366.56 26.9986 366.923 26.4141C367.396 25.6509 367.086 24.6299 366.244 24.3181C366.227 24.3117 366.209 24.3052 366.191 24.2985ZM345.154 44.0257L350.531 46.0121L351.524 43.3236L346.147 41.3372L345.154 44.0257ZM360.335 43.0755C360.68 42.9165 360.948 42.6269 361.08 42.2704L361.576 40.9261L340.068 32.9806L339.572 34.3249C339.44 34.6814 339.455 35.0757 339.614 35.4209C339.773 35.7661 340.063 36.034 340.419 36.1657L359.239 43.1181C359.595 43.2498 359.99 43.2344 360.335 43.0755Z" fill="white"/>
<path fill-rule="evenodd" clip-rule="evenodd" d="M60.9885 404.118L21.6849 414.249C19.4512 414.824 17.5377 416.264 16.3653 418.25C15.1929 420.237 14.8578 422.608 15.4335 424.842L22.6694 452.916C23.2451 455.149 24.6846 457.063 26.6712 458.235C28.6578 459.408 31.0287 459.743 33.2624 459.167L41.6846 456.996L43.1318 462.611L34.7096 464.782C33.965 464.974 33.3272 465.454 32.9364 466.116C32.5456 466.778 32.4339 467.568 32.6258 468.313C32.8177 469.057 33.2975 469.695 33.9597 470.086C34.6219 470.477 35.4122 470.589 36.1568 470.397L75.4604 460.266C76.2049 460.074 76.8428 459.595 77.2336 458.932C77.6244 458.27 77.7361 457.48 77.5442 456.735C77.3523 455.991 76.8724 455.353 76.2102 454.962C75.5481 454.571 74.7577 454.46 74.0132 454.651L65.591 456.822L64.1438 451.207L72.566 449.037C74.7997 448.461 76.7132 447.021 77.8856 445.035C79.0579 443.048 79.3931 440.677 78.8174 438.444L72.3051 413.177C71.9054 411.627 70.3245 410.694 68.7741 411.093C67.2236 411.493 66.2906 413.074 66.6903 414.624L71.0318 431.469L26.1134 443.046L21.0483 423.394C20.8564 422.65 20.9681 421.86 21.3589 421.197C21.7497 420.535 22.3875 420.055 23.1321 419.863L62.4357 409.733C63.7835 409.386 64.7136 408.183 64.6431 406.793C64.5511 404.978 62.8588 403.637 61.0988 404.09C61.0626 404.099 61.0259 404.109 60.9885 404.118ZM48.7466 461.164L59.9762 458.269L58.529 452.655L47.2994 455.549L48.7466 461.164ZM72.892 442.088C73.2828 441.426 73.3945 440.635 73.2026 439.891L72.479 437.084L27.5606 448.661L28.2842 451.468C28.4761 452.213 28.956 452.851 29.6181 453.242C30.2803 453.632 31.0706 453.744 31.8152 453.552L71.1188 443.422C71.8634 443.23 72.5012 442.75 72.892 442.088Z" fill="white"/>
</svg>
