<svg width="390" height="500" viewBox="0 0 390 500" fill="none" xmlns="http://www.w3.org/2000/svg">
<path d="M308.056 287.483C308.056 287.483 308.056 287.483 308.056 287.483L316.778 288.797C318.066 288.991 318.938 290.212 318.704 291.493C318.48 292.718 317.323 293.544 316.091 293.359L311.317 292.639L319.057 312.363L332.27 295.797L323.968 294.546C322.647 294.347 321.771 293.07 322.06 291.766C322.322 290.582 323.456 289.803 324.656 289.983L336.898 291.828C336.899 291.828 336.9 291.828 336.9 291.828C337.303 291.886 337.683 292.049 338.003 292.302C338.322 292.555 338.569 292.888 338.718 293.267C338.867 293.647 338.913 294.059 338.85 294.462C338.788 294.864 338.62 295.242 338.364 295.559C338.364 295.559 338.363 295.56 338.363 295.561L320.172 318.361C319.92 318.677 319.589 318.921 319.212 319.069C318.836 319.217 318.427 319.263 318.027 319.203C317.625 319.142 317.247 318.977 316.93 318.723C316.613 318.469 316.369 318.136 316.222 317.758M308.056 287.483L316.688 317.576M308.056 287.483C307.656 287.423 307.247 287.469 306.87 287.617C306.494 287.764 306.163 288.009 305.91 288.325C305.657 288.642 305.492 289.021 305.433 289.423C305.373 289.824 305.42 290.234 305.57 290.611M308.056 287.483L306.035 290.428M316.222 317.758C316.222 317.758 316.222 317.757 316.222 317.757L316.688 317.576M316.222 317.758L316.223 317.759L316.688 317.576M316.222 317.758L305.57 290.611M316.688 317.576L306.035 290.428M305.57 290.611C305.57 290.612 305.57 290.612 305.57 290.612L306.035 290.428M305.57 290.611L305.569 290.611L306.035 290.428M332.63 295.346L333.201 295.432L332.841 295.884L332.63 295.346Z" fill="white" stroke="white"/>
<circle cx="323.312" cy="299.312" r="35.0444" transform="rotate(-21.4251 323.312 299.312)" stroke="white" stroke-width="6"/>
<path d="M49.4241 284.186C49.4241 284.186 49.4241 284.186 49.4241 284.186L54.3088 282.043C55.0663 281.71 55.9486 282.071 56.2571 282.838C56.5522 283.572 56.2108 284.409 55.486 284.726L52.9241 285.85L63.0511 293.295L64.436 280.801L59.8979 282.791C59.1206 283.132 58.2171 282.744 57.9301 281.945C57.6696 281.22 58.015 280.417 58.7205 280.107L65.5762 277.1C65.5767 277.099 65.5772 277.099 65.5776 277.099C65.8136 276.994 66.0733 276.952 66.3303 276.98C66.5878 277.007 66.8335 277.103 67.0421 277.256C67.2508 277.41 67.415 277.616 67.5181 277.853C67.6209 278.09 67.6592 278.35 67.6289 278.607C67.6289 278.608 67.6288 278.608 67.6288 278.609L65.6839 296.139C65.6839 296.139 65.6838 296.139 65.6838 296.139C65.6555 296.395 65.5605 296.638 65.4083 296.845C65.2561 297.052 65.052 297.215 64.8167 297.319C64.5804 297.422 64.3209 297.462 64.0646 297.433C63.8085 297.404 63.5646 297.308 63.3574 297.155M49.4241 284.186L63.5788 296.855M49.4241 284.186C49.1887 284.289 48.9847 284.452 48.8325 284.659C48.6803 284.866 48.5852 285.11 48.5569 285.365C48.5285 285.622 48.5684 285.881 48.6724 286.117C48.7764 286.353 48.9408 286.557 49.1489 286.709M49.4241 284.186L49.3691 286.408M63.3574 297.155C63.3572 297.154 63.357 297.154 63.3568 297.154L63.5788 296.855M63.3574 297.155L63.358 297.155L63.5788 296.855M63.3574 297.155L49.1489 286.709M63.5788 296.855L49.3691 286.408M49.1489 286.709C49.1491 286.709 49.1494 286.709 49.1496 286.709L49.3691 286.408M49.1489 286.709L49.1484 286.709L49.3691 286.408M64.4834 280.373L64.8776 280.2L64.8302 280.628L64.4834 280.373Z" fill="white" stroke="white" stroke-width="0.745414"/>
<circle cx="61.0722" cy="285.376" r="20.7705" transform="rotate(-53.6782 61.0722 285.376)" stroke="white" stroke-width="4.47249"/>
<path d="M48.6279 49.0065C48.6279 49.0065 48.628 49.0065 48.628 49.0065L54.6795 49.918C55.5729 50.0526 56.1778 50.8995 56.0154 51.7883C55.86 52.6387 55.0574 53.2119 54.2025 53.0831L50.8906 52.5839L56.2603 66.2681L65.428 54.7751L59.668 53.9069C58.7512 53.7687 58.1433 52.883 58.3438 51.9779C58.5258 51.1563 59.3129 50.6159 60.145 50.7413L68.6389 52.0207C68.6394 52.0208 68.6399 52.0208 68.6404 52.0209C68.9198 52.061 69.1837 52.1744 69.4052 52.3496C69.627 52.5251 69.7983 52.7563 69.9017 53.0196C70.005 53.2829 70.0366 53.5689 69.9933 53.8484L69.6505 53.7953L69.9933 53.8484C69.9501 54.1275 69.8338 54.3901 69.6561 54.6096C69.6558 54.6099 69.6555 54.6103 69.6552 54.6107L57.0345 70.4296C56.8594 70.6491 56.6297 70.8186 56.3685 70.9211C56.1072 71.0236 55.8235 71.0556 55.5459 71.0137C55.2673 70.9717 55.0048 70.8568 54.7848 70.6807C54.5651 70.5047 54.3957 70.2739 54.2938 70.0115M48.6279 49.0065L54.617 69.8853M48.6279 49.0065C48.3504 48.9646 48.0667 48.9966 47.8055 49.0991C47.5442 49.2016 47.3145 49.3711 47.1395 49.5906M48.6279 49.0065L47.2258 51.0496M54.2938 70.0115C54.2937 70.0112 54.2936 70.011 54.2935 70.0108L54.617 69.8853M54.2938 70.0115L54.294 70.0121L54.617 69.8853M54.2938 70.0115L46.9031 51.1769M54.617 69.8853L47.2258 51.0496M46.9031 51.1769C46.9032 51.1771 46.9033 51.1774 46.9034 51.1776L47.2258 51.0496M46.9031 51.1769L46.9029 51.1763L47.2258 51.0496M46.9031 51.1769C46.7994 50.9152 46.7665 50.6308 46.808 50.3523C46.8494 50.0736 46.9638 49.8108 47.1395 49.5906M47.1395 49.5906L47.4107 49.8069L47.1395 49.5906Z" fill="white" stroke="white" stroke-width="0.693806"/>
<circle cx="59.2132" cy="57.2132" r="24.314" transform="rotate(-21.4251 59.2132 57.2132)" stroke="white" stroke-width="4.16284"/>
</svg>
