<svg width="390" height="500" viewBox="0 0 390 500" fill="none" xmlns="http://www.w3.org/2000/svg">
<path fill-rule="evenodd" clip-rule="evenodd" d="M315.616 302.776C314.016 302.906 312.841 304.333 313.021 305.928C313.539 310.717 314.017 315.305 314.536 316.007C314.828 316.403 315.219 316.716 315.671 316.913C316.124 317.11 316.621 317.185 317.112 317.128C317.363 317.1 317.597 316.998 317.732 316.934C317.895 316.858 318.061 316.765 318.21 316.676C318.506 316.5 318.793 316.303 318.948 316.188L341.926 299.28C343.027 298.47 343.139 297.225 343.057 296.703C343.002 296.214 342.819 295.748 342.527 295.352C342.235 294.955 341.843 294.643 341.392 294.446L314.664 282.778L314.66 282.776C314.208 282.576 313.711 282.498 313.219 282.551C312.726 282.605 312.256 282.788 311.856 283.083C311.457 283.378 311.143 283.773 310.947 284.228C310.751 284.683 310.678 285.18 310.737 285.672L312.124 297.975C312.29 299.441 313.562 300.529 315.037 300.464C316.661 300.393 317.885 298.961 317.703 297.346L316.86 289.864L334.705 297.652L319.278 309.189L318.656 305.174C318.428 303.702 317.101 302.655 315.616 302.776Z" fill="white"/>
<circle cx="323.312" cy="299.312" r="35.0444" transform="rotate(-21.4251 323.312 299.312)" stroke="white" stroke-width="6"/>
<circle cx="61.0722" cy="285.376" r="20.7705" transform="rotate(-53.6782 61.0722 285.376)" stroke="white" stroke-width="4.47249"/>
<path fill-rule="evenodd" clip-rule="evenodd" d="M57.7682 288.462C56.9312 288.761 56.5073 289.693 56.832 290.52C57.7953 293.007 58.7084 295.392 59.0864 295.694C59.2995 295.864 59.5536 295.975 59.8232 296.015C60.0938 296.056 60.3703 296.025 60.6248 295.924C60.7552 295.873 60.8654 295.785 60.9287 295.731C61.0048 295.667 61.0806 295.594 61.1476 295.525C61.2807 295.388 61.4059 295.242 61.4722 295.158L71.3385 282.823C71.8111 282.232 71.6923 281.549 71.5738 281.282C71.4743 281.028 71.3097 280.805 71.0965 280.635C70.8835 280.465 70.6293 280.355 70.3598 280.314L54.3932 277.904L54.3909 277.903C54.1203 277.861 53.8433 277.891 53.5879 277.99C53.3318 278.089 53.1066 278.254 52.9354 278.469C52.7641 278.684 52.6528 278.94 52.6129 279.212C52.5732 279.483 52.6058 279.76 52.7075 280.014L55.2126 286.395C55.5112 287.156 56.3477 287.555 57.1269 287.309C57.9854 287.039 58.435 286.097 58.1061 285.259L56.583 281.378L67.2429 282.986L60.6455 291.368L59.7375 289.31C59.4045 288.555 58.5452 288.185 57.7682 288.462Z" fill="white"/>
<circle cx="59.2132" cy="57.2132" r="24.314" transform="rotate(-21.4251 59.2132 57.2132)" stroke="white" stroke-width="4.16284"/>
<path fill-rule="evenodd" clip-rule="evenodd" d="M54.5562 60.2574C53.4654 60.3459 52.6641 61.3193 52.7867 62.4068C53.1399 65.6721 53.4658 68.8002 53.8194 69.2793C54.0187 69.5494 54.2857 69.7623 54.5933 69.8966C54.9022 70.0313 55.2412 70.0821 55.576 70.0437C55.7474 70.0241 55.9065 69.9547 55.9988 69.9114C56.1098 69.8593 56.2234 69.796 56.325 69.7355C56.5269 69.6152 56.7225 69.4812 56.8281 69.4027L72.496 57.8738C73.2466 57.3215 73.3228 56.4722 73.267 56.1165C73.2294 55.7829 73.1047 55.4651 72.9054 55.195C72.7061 54.9249 72.4391 54.712 72.1315 54.5778L53.907 46.6218L53.9043 46.6206C53.596 46.4837 53.2571 46.4308 52.9217 46.4672C52.5854 46.5037 52.2648 46.6288 51.9926 46.8296C51.7204 47.0305 51.5063 47.3 51.3723 47.6106C51.2386 47.9203 51.1892 48.2598 51.2292 48.5947L52.1752 56.9836C52.2879 57.9835 53.1556 58.7254 54.1609 58.6813C55.2685 58.6328 56.1033 57.6564 55.9791 56.5548L55.4043 51.453L67.572 56.7634L57.0528 64.6303L56.6288 61.8928C56.4732 60.8887 55.5689 60.1751 54.5562 60.2574Z" fill="white"/>
</svg>
