<svg width="390" height="501" viewBox="0 0 390 501" fill="none" xmlns="http://www.w3.org/2000/svg">
<g opacity="0.34">
<path fill-rule="evenodd" clip-rule="evenodd" d="M301.162 87.8328L315.427 91.9232C315.869 92.0527 316.333 92.0938 316.791 92.0439C317.249 91.9941 317.692 91.8544 318.096 91.6328L348.061 75.0001L360.297 68.3895C360.702 68.1673 361.059 67.8671 361.348 67.5062C361.636 67.1453 361.85 66.7309 361.977 66.2869C362.105 65.8428 362.143 65.378 362.089 64.9192C362.036 64.4603 361.893 64.0165 361.667 63.6134L351.539 45.0938C351.317 44.6889 351.017 44.332 350.656 44.0437C350.294 43.7553 349.88 43.5413 349.436 43.414C348.992 43.2866 348.527 43.2484 348.068 43.3016C347.609 43.3548 347.165 43.4983 346.762 43.7239L334.545 50.5219L324.417 56.1241C322.679 57.0858 322.091 59.3021 323.125 60.9987C324.1 62.5982 326.163 63.1442 327.802 62.2363L334.855 58.3277L341.647 70.5764L315.977 84.8008L306.456 82.0706L309.185 72.5521L316.568 68.4612C318.241 67.5342 318.859 65.4352 317.955 63.7493C317.034 62.0306 314.885 61.397 313.179 62.3409L304.512 67.1353C304.11 67.3602 303.757 67.6622 303.472 68.024C303.187 68.3857 302.976 68.8002 302.852 69.2436L298.762 83.5046C298.507 84.3966 298.616 85.3538 299.066 86.1655C299.516 86.9771 300.27 87.5769 301.162 87.8328ZM353.898 63.7881L347.106 51.5394L340.959 54.9455L347.751 67.1943L353.898 63.7881Z" fill="black"/>
<path fill-rule="evenodd" clip-rule="evenodd" d="M292.505 92.6302L353.064 109.995C353.956 110.251 354.71 110.851 355.161 111.663C355.611 112.474 355.72 113.431 355.464 114.324C355.208 115.216 354.608 115.969 353.797 116.419C352.985 116.869 352.027 116.978 351.135 116.722L290.576 99.3571C289.683 99.1012 288.929 98.5014 288.479 97.6898C288.029 96.8781 287.92 95.9209 288.176 95.0289C288.431 94.1368 289.031 93.383 289.843 92.9331C290.655 92.4833 291.612 92.3743 292.505 92.6302Z" fill="black"/>
</g>
<path opacity="0.34" fill-rule="evenodd" clip-rule="evenodd" d="M287.787 252.738L303.844 261.811C304.341 262.096 304.889 262.279 305.457 262.352C306.025 262.424 306.601 262.383 307.153 262.232L348.185 250.802L364.887 246.354C365.441 246.203 365.959 245.943 366.412 245.59C366.865 245.238 367.244 244.799 367.526 244.299C367.809 243.799 367.989 243.248 368.058 242.678C368.126 242.108 368.081 241.53 367.925 240.978L361.044 215.663C360.893 215.109 360.633 214.591 360.28 214.138C359.927 213.685 359.488 213.306 358.988 213.024C358.488 212.741 357.937 212.561 357.367 212.492C356.797 212.424 356.219 212.469 355.666 212.625L338.933 217.305L325.071 221.145C322.692 221.804 321.34 224.313 322.099 226.663C322.814 228.878 325.149 230.135 327.392 229.512L337.049 226.829L341.713 243.599L306.57 253.362L295.852 247.306L301.906 236.592L312.013 233.784C314.303 233.148 315.658 230.79 315.054 228.491C314.438 226.147 312.024 224.759 309.689 225.406L297.826 228.692C297.275 228.848 296.76 229.11 296.311 229.465C295.862 229.82 295.487 230.26 295.209 230.76L286.139 246.813C285.571 247.817 285.426 249.005 285.735 250.117C286.044 251.228 286.782 252.171 287.787 252.738ZM358.484 238.94L353.82 222.17L345.405 224.508L350.069 241.278L358.484 238.94Z" fill="black"/>
<path opacity="0.34" fill-rule="evenodd" clip-rule="evenodd" d="M30.3336 109.255L37.2653 106.685C37.4809 106.606 37.679 106.486 37.848 106.331C38.017 106.176 38.1537 105.989 38.2503 105.781L45.3643 90.2601L48.3227 83.9952C48.4196 83.7864 48.4742 83.5605 48.4834 83.3306C48.4925 83.1007 48.4561 82.8712 48.3761 82.6555C48.2961 82.4397 48.1741 82.2419 48.0173 82.0735C47.8605 81.9051 47.6718 81.7695 47.4623 81.6743L37.931 77.2328C37.7222 77.136 37.4963 77.0815 37.2663 77.0723C37.0363 77.0632 36.8068 77.0997 36.591 77.1797C36.3752 77.2598 36.1773 77.3817 36.0089 77.5385C35.8404 77.6954 35.7047 77.884 35.6095 78.0935L32.7141 84.4281L30.3042 89.6658C29.8904 90.565 30.309 91.6278 31.2248 92.0033C32.0882 92.3574 33.0771 91.9675 33.4665 91.1195L35.1431 87.4687L41.4845 90.3786L35.3831 103.665L30.7565 105.38L29.0417 100.755L30.7964 96.9338C31.194 96.0679 30.8224 95.0432 29.9622 94.6334C29.0851 94.2157 28.0359 94.5958 27.6298 95.4783L25.5674 99.9608C25.4725 100.17 25.4198 100.395 25.4123 100.625C25.4047 100.854 25.4426 101.082 25.5236 101.297L28.0928 108.227C28.2535 108.66 28.5799 109.012 29.0001 109.205C29.4203 109.398 29.9 109.416 30.3336 109.255ZM44.3963 84.038L38.0548 81.1281L36.5938 84.3096L42.9353 87.2195L44.3963 84.038Z" fill="black"/>
</svg>
