<svg width="390" height="501" viewBox="0 0 390 501" fill="none" xmlns="http://www.w3.org/2000/svg">
<path fill-rule="evenodd" clip-rule="evenodd" d="M94.2096 51.9081L88.3037 44.4086C82.5556 37.1095 74.1434 32.3928 64.9177 31.2961C57.1497 30.3727 49.3407 32.0793 42.7098 36.073C40.6382 37.3207 40.3224 40.1007 41.8186 42.0007C43.3148 43.9006 46.0555 44.1903 48.1773 43.03C52.9383 40.4266 58.4246 39.3435 63.8839 39.9925C70.8032 40.815 77.1123 44.3526 81.4234 49.8269L86.8417 56.7071L79.9614 62.1254C79.049 62.8439 78.4594 63.8954 78.3223 65.0487C78.1852 66.2019 78.5119 67.3623 79.2304 68.2747L95.4852 88.9156C96.2037 89.8279 97.2552 90.4175 98.4084 90.5546C99.5616 90.6917 100.722 90.3651 101.634 89.6466L111.955 81.5192C114.692 79.3636 116.461 76.2091 116.872 72.7494C117.283 69.2898 116.303 65.8085 114.148 63.0713L108.73 56.191C107.047 54.0665 104.748 52.5144 102.149 51.7477C99.5491 50.9809 96.776 51.0369 94.2096 51.9081ZM108.176 71.7156C108.313 70.5624 107.986 69.402 107.268 68.4896L101.849 61.6093C101.131 60.6969 100.079 60.1073 98.9261 59.9702C97.7729 59.8332 96.6125 60.1598 95.7001 60.8783L88.8198 66.2966L99.6563 80.0571L106.537 74.6389C107.449 73.9204 108.039 72.8689 108.176 71.7156Z" fill="#FFFEFF"/>
<path fill-rule="evenodd" clip-rule="evenodd" d="M30.3451 62.4634C27.9437 62.1779 25.7366 63.8974 25.7527 66.3157C25.8042 74.0562 28.4215 81.6089 33.2614 87.7547L39.1673 95.2543C37.7187 97.5449 37.0141 100.228 37.1501 102.934C37.2861 105.641 38.2559 108.24 39.9268 110.374L45.345 117.254C47.5005 119.991 50.6551 121.76 54.1148 122.171C57.5744 122.582 61.0557 121.603 63.7929 119.447L74.1133 111.32C75.0257 110.601 75.6153 109.55 75.7524 108.396C75.8894 107.243 75.5628 106.083 74.8443 105.17L58.5895 84.5295C57.871 83.6171 56.8195 83.0275 55.6663 82.8904C54.513 82.7533 53.3526 83.08 52.4402 83.7985L45.5599 89.2168L40.1417 82.3365C36.7402 78.0172 34.8025 72.7715 34.5402 67.3515C34.4234 64.936 32.7466 62.7488 30.3451 62.4634ZM65.2549 107.148L54.4183 93.3879L47.5381 98.8062C46.6257 99.5247 46.0361 100.576 45.899 101.729C45.7619 102.883 46.0885 104.043 46.807 104.955L52.2253 111.836C52.9438 112.748 53.9953 113.338 55.1486 113.475C56.3018 113.612 57.4622 113.285 58.3746 112.567L65.2549 107.148Z" fill="#FFFEFF"/>
<path fill-rule="evenodd" clip-rule="evenodd" d="M86.9564 241.814L88.7402 235.157C90.4763 228.678 89.5675 221.774 86.2135 215.965C83.3895 211.073 79.0269 207.295 73.851 205.187C72.2339 204.529 70.4897 205.548 70.0378 207.234C69.5859 208.921 70.6031 210.631 72.1914 211.356C75.755 212.984 78.753 215.689 80.7377 219.126C83.2531 223.483 83.9348 228.661 82.6327 233.52L80.9962 239.628L74.8886 237.991C74.0787 237.774 73.2158 237.888 72.4896 238.307C71.7635 238.726 71.2336 239.417 71.0166 240.227L66.1071 258.55C65.89 259.359 66.0036 260.222 66.4229 260.949C66.8421 261.675 67.5327 262.205 68.3426 262.422L77.5039 264.876C79.9336 265.527 82.5225 265.187 84.7009 263.929C86.8793 262.671 88.4689 260.599 89.12 258.17L90.7565 252.062C91.2576 250.171 91.1614 248.17 90.4811 246.336C89.8008 244.501 88.5696 242.922 86.9564 241.814ZM81.5394 258.453C82.2655 258.034 82.7954 257.343 83.0124 256.533L84.6489 250.426C84.8659 249.616 84.7523 248.753 84.3331 248.027C83.9139 247.301 83.2233 246.771 82.4134 246.554L76.3059 244.917L73.0328 257.132L79.1404 258.769C79.9503 258.986 80.8133 258.872 81.5394 258.453Z" fill="#FFFEFF"/>
<path fill-rule="evenodd" clip-rule="evenodd" d="M53.2448 209.445C52.3718 207.933 50.4233 207.4 49.0318 208.455C44.5779 211.831 41.3417 216.609 39.8799 222.065L38.0961 228.722C36.1452 228.875 34.2893 229.627 32.7828 230.875C31.2762 232.124 30.1928 233.808 29.681 235.697L28.0445 241.805C27.3935 244.234 27.7343 246.823 28.992 249.002C30.2497 251.18 32.3213 252.77 34.7511 253.421L43.9124 255.875C44.7223 256.092 45.5852 255.979 46.3114 255.56C47.0375 255.14 47.5674 254.45 47.7844 253.64L52.694 235.317C52.911 234.507 52.7974 233.644 52.3781 232.918C51.9589 232.192 51.2683 231.662 50.4584 231.445L44.3509 229.809L45.9874 223.701C47.0148 219.867 49.2106 216.479 52.2315 213.984C53.5779 212.872 54.1178 210.957 53.2448 209.445ZM42.4951 248.95L45.7682 236.735L39.6606 235.098C38.8507 234.881 37.9877 234.995 37.2616 235.414C36.5355 235.833 36.0056 236.524 35.7886 237.334L34.1521 243.441C33.9351 244.251 34.0487 245.114 34.4679 245.84C34.8871 246.566 35.5777 247.096 36.3876 247.313L42.4951 248.95Z" fill="#FFFEFF"/>
<path fill-rule="evenodd" clip-rule="evenodd" d="M362.573 28.5123L361.581 24.2045C360.614 20.0119 358.022 16.3748 354.375 14.0934C351.303 12.1724 347.695 11.345 344.129 11.7083C343.015 11.8218 342.333 12.9239 342.585 14.0152C342.836 15.1065 343.927 15.7692 345.045 15.7022C347.553 15.552 350.065 16.1819 352.224 17.5319C354.96 19.243 356.904 21.9708 357.628 25.1153L358.539 29.0673L354.587 29.978C354.063 30.0988 353.608 30.4228 353.323 30.8788C353.038 31.3348 352.946 31.8853 353.066 32.4094L355.799 44.2656C355.919 44.7897 356.243 45.2443 356.699 45.5295C357.155 45.8147 357.706 45.907 358.23 45.7863L364.158 44.4202C365.73 44.0579 367.094 43.0859 367.95 41.7179C368.805 40.35 369.082 38.6983 368.72 37.126L367.809 33.174C367.524 31.9517 366.868 30.8476 365.93 30.013C364.993 29.1784 363.82 28.6542 362.573 28.5123ZM364.511 39.5674C364.796 39.1114 364.889 38.5608 364.768 38.0367L363.857 34.0847C363.737 33.5606 363.413 33.106 362.957 32.8208C362.501 32.5356 361.95 32.4432 361.426 32.564L357.474 33.4747L359.295 41.3789L363.247 40.4681C363.771 40.3474 364.226 40.0234 364.511 39.5674Z" fill="#FFFEFF"/>
<path fill-rule="evenodd" clip-rule="evenodd" d="M333.738 20.3205C332.788 19.7266 331.524 20.011 331.053 21.0271C329.546 24.2796 329.151 27.9601 329.964 31.4903L330.957 35.798C329.898 36.4714 329.073 37.456 328.595 38.6166C328.117 39.7773 328.01 41.0573 328.289 42.2812L329.2 46.2332C329.562 47.8054 330.534 49.1694 331.902 50.0249C333.27 50.8804 334.921 51.1575 336.494 50.7952L342.422 49.4292C342.946 49.3084 343.401 48.9844 343.686 48.5284C343.971 48.0724 344.063 47.5218 343.942 46.9978L341.21 35.1416C341.09 34.6175 340.766 34.1629 340.31 33.8777C339.854 33.5925 339.303 33.5001 338.779 33.6209L334.827 34.5316L333.916 30.5796C333.344 28.0986 333.569 25.5186 334.529 23.1965C334.957 22.1616 334.687 20.9143 333.738 20.3205ZM339.535 45.9325L337.714 38.0283L333.762 38.939C333.237 39.0598 332.783 39.3838 332.498 39.8398C332.212 40.2958 332.12 40.8464 332.241 41.3704L333.152 45.3225C333.272 45.8466 333.596 46.3012 334.052 46.5864C334.508 46.8716 335.059 46.9639 335.583 46.8432L339.535 45.9325Z" fill="#FFFEFF"/>
<path fill-rule="evenodd" clip-rule="evenodd" d="M352.942 244.56L354.175 240.315C355.376 236.184 354.886 231.745 352.814 227.974C351.069 224.799 348.322 222.318 345.032 220.896C344.004 220.452 342.871 221.082 342.559 222.157C342.246 223.233 342.876 224.343 343.884 224.83C346.148 225.922 348.034 227.696 349.26 229.928C350.814 232.755 351.181 236.085 350.281 239.184L349.149 243.078L345.255 241.946C344.738 241.796 344.183 241.857 343.712 242.116C343.241 242.375 342.891 242.811 342.741 243.328L339.346 255.011C339.196 255.528 339.257 256.082 339.516 256.554C339.775 257.025 340.211 257.374 340.727 257.524L346.569 259.222C348.118 259.672 349.783 259.489 351.197 258.712C352.611 257.934 353.658 256.627 354.108 255.078L355.24 251.184C355.587 249.977 355.552 248.693 355.141 247.508C354.729 246.322 353.961 245.292 352.942 244.56ZM349.243 255.157C349.715 254.898 350.064 254.463 350.214 253.946L351.346 250.052C351.496 249.535 351.435 248.98 351.176 248.509C350.916 248.038 350.481 247.689 349.964 247.539L346.07 246.407L343.806 254.196L347.701 255.328C348.217 255.478 348.772 255.416 349.243 255.157Z" fill="#FFFEFF"/>
<path fill-rule="evenodd" clip-rule="evenodd" d="M331.76 223.348C331.221 222.367 329.978 221.999 329.072 222.656C326.17 224.761 324.03 227.782 323.019 231.261L321.786 235.506C320.533 235.577 319.332 236.034 318.349 236.815C317.366 237.595 316.649 238.661 316.295 239.865L315.163 243.759C314.713 245.309 314.897 246.974 315.674 248.387C316.451 249.801 317.758 250.849 319.307 251.299L325.149 252.997C325.666 253.147 326.22 253.086 326.692 252.827C327.163 252.568 327.512 252.132 327.662 251.615L331.058 239.932C331.208 239.416 331.147 238.861 330.888 238.389C330.629 237.918 330.193 237.569 329.677 237.419L325.782 236.287L326.914 232.392C327.624 229.948 329.078 227.804 331.049 226.246C331.928 225.551 332.3 224.33 331.76 223.348ZM324.334 248.536L326.597 240.747L322.703 239.616C322.186 239.465 321.632 239.527 321.16 239.786C320.689 240.045 320.34 240.48 320.19 240.997L319.058 244.891C318.908 245.408 318.969 245.963 319.228 246.434C319.487 246.905 319.923 247.254 320.439 247.405L324.334 248.536Z" fill="#FFFEFF"/>
</svg>
