<svg width="390" height="501" viewBox="0 0 390 501" fill="none" xmlns="http://www.w3.org/2000/svg">
<g opacity="0.34">
<path fill-rule="evenodd" clip-rule="evenodd" d="M120.639 64.3323L94.5643 48.8179C91.971 47.2749 88.8709 46.8253 85.9461 47.568C83.0212 48.3107 80.5112 50.1848 78.9682 52.7782L74.0533 61.0386C73.0087 62.7944 73.5425 65.0621 75.2607 66.1675C77.066 67.329 79.4745 66.762 80.5721 64.9172L85.487 56.6568C86.0013 55.7923 86.838 55.1676 87.8129 54.92C88.7879 54.6725 89.8212 54.8223 90.6857 55.3367L116.761 70.8511C117.625 71.3654 118.25 72.2021 118.498 73.177C118.745 74.152 118.595 75.1853 118.081 76.0498L96.7485 111.903L96.4226 111.709C97.2936 109.168 97.6149 106.471 97.365 103.796C97.1152 101.122 96.3 98.5306 94.9734 96.1948C97.0335 95.2339 98.7586 93.678 99.9263 91.7275C101.469 89.1342 101.919 86.0341 101.176 83.1093C100.434 80.1844 98.5594 77.6744 95.966 76.1314C93.3727 74.5884 90.2726 74.1388 87.3478 74.8815C84.423 75.6242 81.913 77.4984 80.37 80.0917C79.2129 82.0484 78.6684 84.3069 78.8068 86.5759C76.1211 86.5244 73.455 87.0441 70.9852 88.1005C68.5155 89.157 66.2983 90.7261 64.4806 92.7039L64.1547 92.51L69.8322 82.9678C70.8507 81.2559 70.3714 79.0478 68.7348 77.9123C66.9282 76.6589 64.4378 77.1995 63.3134 79.0892L51.818 98.4096C50.275 101.003 49.8254 104.103 50.5681 107.028C51.3108 109.953 53.1849 112.463 55.7782 114.006L81.8533 129.52C84.4467 131.063 87.5467 131.513 90.4716 130.77C93.3964 130.027 95.9064 128.153 97.4494 125.56L124.6 79.9284C126.143 77.3351 126.592 74.235 125.85 71.3102C125.107 68.3853 123.233 65.8753 120.639 64.3323ZM88.6047 123.418C89.5796 123.17 90.4163 122.546 90.9306 121.681L92.8699 118.422L60.2761 99.0288L58.3368 102.288C57.8224 103.153 57.6726 104.186 57.9201 105.161C58.1677 106.136 58.7924 106.973 59.6568 107.487L85.7319 123.001C86.5964 123.516 87.6297 123.665 88.6047 123.418ZM88.8871 100.839C87.9359 98.6932 86.3442 96.8937 84.3302 95.6878C82.3095 94.4931 79.9687 93.9527 77.6287 94.1407C75.2888 94.3287 73.0643 95.2358 71.2601 96.7377L89.6431 107.675C90.1023 105.373 89.8382 102.985 88.8871 100.839ZM88.5155 82.4863C87.8384 82.8092 87.2723 83.3256 86.8887 83.9703C86.3744 84.8347 86.2245 85.8681 86.4721 86.843C86.7197 87.818 87.3444 88.6546 88.2088 89.169C88.8535 89.5525 89.5974 89.7363 90.3465 89.6971C91.0956 89.6579 91.8162 89.3974 92.4173 88.9486C93.0183 88.4998 93.4728 87.8828 93.7232 87.1758C93.9736 86.4687 94.0088 85.7032 93.8241 84.9762C93.6395 84.2491 93.2435 83.5931 92.686 83.0912C92.1286 82.5892 91.4348 82.2638 90.6925 82.1562C89.9501 82.0485 89.1925 82.1634 88.5155 82.4863Z" fill="black"/>
<path fill-rule="evenodd" clip-rule="evenodd" d="M99.6463 65.8252C100.395 65.7859 101.139 65.9697 101.784 66.3533C102.648 66.8676 103.273 67.7043 103.521 68.6792C103.768 69.6542 103.618 70.6875 103.104 71.552C102.72 72.1966 102.154 72.713 101.477 73.036C100.8 73.3589 100.043 73.4738 99.3003 73.3661C98.5579 73.2584 97.8641 72.933 97.3067 72.4311C96.7493 71.9291 96.3532 71.2732 96.1686 70.5461C95.984 69.8191 96.0191 69.0536 96.2695 68.3465C96.52 67.6394 96.9744 67.0225 97.5755 66.5737C98.1765 66.1249 98.8972 65.8644 99.6463 65.8252Z" fill="black"/>
</g>
<g opacity="0.34">
<path fill-rule="evenodd" clip-rule="evenodd" d="M66.7767 181.14L48.03 186.848C46.1655 187.415 44.6029 188.7 43.6859 190.42C42.7689 192.14 42.5726 194.153 43.1403 196.018L44.9484 201.957C45.3327 203.219 46.6478 203.95 47.9228 203.61C49.2624 203.253 50.0388 201.856 49.635 200.53L47.827 194.591C47.6377 193.969 47.7032 193.298 48.0088 192.725C48.3145 192.152 48.8354 191.723 49.4569 191.534L68.2035 185.827C68.825 185.638 69.4962 185.703 70.0695 186.009C70.6427 186.314 71.0711 186.835 71.2603 187.457L79.108 213.233L78.8737 213.305C78.0388 211.784 76.8904 210.458 75.5044 209.414C74.1184 208.371 72.5266 207.633 70.8342 207.251C71.2711 205.85 71.278 204.349 70.8542 202.944C70.2866 201.079 69.0015 199.516 67.2818 198.599C65.562 197.682 63.5484 197.486 61.6839 198.054C59.8194 198.621 58.2568 199.906 57.3398 201.626C56.4228 203.346 56.2266 205.36 56.7942 207.224C57.2256 208.627 58.0675 209.869 59.2113 210.79C58.019 212.05 57.108 213.549 56.5387 215.188C55.9694 216.827 55.7547 218.568 55.909 220.296L55.6747 220.368L53.586 213.507C53.2113 212.276 51.9484 211.545 50.6945 211.833C49.3104 212.151 48.4857 213.576 48.8994 214.934L53.1283 228.824C53.6959 230.689 54.981 232.252 56.7008 233.169C58.4205 234.086 60.4341 234.282 62.2986 233.714L81.0453 228.007C82.9097 227.439 84.4724 226.154 85.3894 224.434C86.3064 222.715 86.5026 220.701 85.935 218.836L75.947 186.03C75.3793 184.165 74.0943 182.603 72.3745 181.686C70.6548 180.769 68.6411 180.572 66.7767 181.14ZM81.0664 222.129C81.3721 221.556 81.4375 220.885 81.2483 220.263L80.5349 217.92L57.1015 225.054L57.815 227.398C58.0042 228.019 58.4325 228.54 59.0058 228.846C59.579 229.151 60.2502 229.217 60.8717 229.028L79.6184 223.32C80.2399 223.131 80.7608 222.703 81.0664 222.129ZM70.4061 212.177C68.9676 211.699 67.4161 211.676 65.9645 212.114C64.5153 212.559 63.2395 213.442 62.3119 214.642C61.3843 215.841 60.8503 217.298 60.7831 218.812L73.9996 214.789C73.0998 213.568 71.8446 212.656 70.4061 212.177ZM61.4794 204.375C61.3393 204.839 61.3398 205.334 61.4809 205.797C61.6701 206.419 62.0984 206.94 62.6717 207.245C63.2449 207.551 63.9161 207.616 64.5376 207.427C65.0011 207.286 65.4123 207.011 65.7193 206.636C66.0263 206.261 66.2152 205.804 66.2622 205.321C66.3092 204.839 66.2121 204.354 65.9833 203.927C65.7545 203.5 65.4042 203.15 64.9767 202.922C64.5492 202.694 64.0637 202.598 63.5816 202.646C63.0996 202.694 62.6425 202.884 62.2683 203.192C61.8941 203.5 61.6196 203.911 61.4794 204.375Z" fill="black"/>
<path fill-rule="evenodd" clip-rule="evenodd" d="M58.362 191.815C58.6689 191.44 59.0802 191.165 59.5436 191.024C60.1651 190.835 60.8363 190.9 61.4096 191.206C61.9828 191.511 62.4112 192.032 62.6004 192.654C62.7415 193.117 62.742 193.612 62.6018 194.076C62.4617 194.54 62.1871 194.951 61.8129 195.259C61.4387 195.567 60.9817 195.757 60.4996 195.805C60.0175 195.853 59.532 195.757 59.1045 195.529C58.677 195.301 58.3267 194.951 58.0979 194.524C57.8691 194.097 57.7721 193.612 57.8191 193.129C57.8661 192.647 58.055 192.19 58.362 191.815Z" fill="black"/>
</g>
<g opacity="0.34">
<path fill-rule="evenodd" clip-rule="evenodd" d="M69.8083 307.931L44.8653 298.527C42.3846 297.591 39.6339 297.68 37.2184 298.773C34.8028 299.865 32.9203 301.873 31.985 304.354L29.0057 312.255C28.3724 313.935 29.1833 315.814 30.8397 316.506C32.58 317.233 34.576 316.371 35.2414 314.607L38.2207 306.705C38.5325 305.878 39.16 305.209 39.9652 304.844C40.7704 304.48 41.6873 304.451 42.5142 304.762L67.4572 314.167C68.2841 314.479 68.9533 315.106 69.3175 315.912C69.6818 316.717 69.7113 317.634 69.3995 318.461L56.4681 352.757L56.1564 352.64C56.5185 350.308 56.3811 347.925 55.7532 345.65C55.1252 343.375 54.0211 341.26 52.514 339.443C54.148 338.295 55.4006 336.684 56.1103 334.817C57.0456 332.336 56.9572 329.585 55.8644 327.17C54.7717 324.754 52.7641 322.872 50.2834 321.936C47.8026 321.001 45.0519 321.089 42.6364 322.182C40.2209 323.275 38.3384 325.282 37.403 327.763C36.7035 329.634 36.5803 331.671 37.0494 333.613C34.7183 333.981 32.4923 334.842 30.5187 336.136C28.5451 337.43 26.8689 339.128 25.6012 341.119L25.2894 341.001L28.731 331.873C29.3485 330.236 28.5939 328.4 27.0034 327.67C25.2478 326.864 23.1768 327.715 22.4953 329.522L15.5269 348.004C14.5916 350.485 14.68 353.235 15.7727 355.651C16.8655 358.066 18.8731 359.949 21.3538 360.884L46.2968 370.289C48.7775 371.224 51.5282 371.136 53.9438 370.043C56.3593 368.95 58.2418 366.943 59.1772 364.462L75.6352 320.812C76.5706 318.331 76.4822 315.58 75.3894 313.165C74.2966 310.749 72.2891 308.867 69.8083 307.931ZM51.197 363.971C52.0021 363.607 52.6296 362.938 52.9414 362.111L54.117 358.993L22.9382 347.237L21.7627 350.355C21.4509 351.182 21.4804 352.099 21.8446 352.904C22.2089 353.709 22.878 354.337 23.705 354.648L48.648 364.053C49.4749 364.365 50.3918 364.335 51.197 363.971ZM47.9647 344.398C46.8115 342.688 45.1577 341.377 43.2299 340.644C41.2981 339.921 39.1902 339.814 37.1951 340.337C35.2001 340.86 33.4156 341.987 32.0864 343.564L49.6712 350.194C49.7139 348.132 49.1179 346.108 47.9647 344.398ZM44.8173 328.58C44.2814 328.964 43.8713 329.498 43.6388 330.114C43.327 330.941 43.3565 331.858 43.7207 332.663C44.085 333.469 44.7542 334.096 45.5811 334.408C46.1977 334.64 46.8695 334.685 47.5114 334.535C48.1533 334.386 48.7365 334.05 49.1873 333.569C49.6381 333.088 49.9362 332.485 50.044 331.835C50.1517 331.184 50.0642 330.517 49.7926 329.917C49.5209 329.316 49.0774 328.81 48.5179 328.461C47.9585 328.113 47.3083 327.938 46.6496 327.959C45.9909 327.981 45.3533 328.197 44.8173 328.58Z" fill="black"/>
<path fill-rule="evenodd" clip-rule="evenodd" d="M51.8798 312.455C52.5217 312.306 53.1935 312.35 53.8101 312.583C54.637 312.894 55.3062 313.522 55.6705 314.327C56.0347 315.132 56.0642 316.049 55.7524 316.876C55.5199 317.493 55.1098 318.027 54.5738 318.41C54.0379 318.794 53.4003 319.01 52.7416 319.031C52.0829 319.052 51.4327 318.878 50.8733 318.529C50.3138 318.181 49.8702 317.674 49.5986 317.074C49.327 316.474 49.2395 315.806 49.3472 315.156C49.455 314.506 49.7531 313.902 50.2039 313.421C50.6547 312.941 51.2379 312.604 51.8798 312.455Z" fill="black"/>
</g>
</svg>
