<svg width="390" height="501" viewBox="0 0 390 501" fill="none" xmlns="http://www.w3.org/2000/svg">
<path d="M320.992 24.7292C319.041 25.1862 317.944 27.3261 318.371 29.3263L321.73 41.069L312.768 47.7307L303.807 54.3924L294.047 47.408C292.339 46.3595 290.022 46.7574 288.986 48.521C287.95 50.2845 288.316 52.661 290.024 53.7095L300.455 61.1886L300.221 85.8677C300.343 87.4323 301.259 88.7389 302.661 89.3518L343.647 105.246C344.684 105.799 346.209 105.66 347.123 104.649L354.378 99.2561C355.231 98.6216 355.78 97.5517 355.902 96.7989L356.023 96.0462L354.298 50.9678C354.176 49.4032 353.26 48.0966 351.858 47.4837L329.047 39.9346L325.445 27.3799C325.017 25.3798 322.943 24.2722 320.992 24.7292ZM347.043 54.0432L348.399 92.1104L337.111 75.9963C340.585 70.7648 339.485 63.6352 334.422 60.1134C329.359 56.5917 322.407 57.7853 318.933 63.0168C316.435 66.8611 316.315 72.2486 319.06 76.1682C321.806 80.0879 326.807 81.6687 331.137 80.4374L342.424 96.5515L307.782 83.2278L307.651 60.8069L317.039 53.828L326.428 46.849L347.043 54.0432ZM327.414 73.2702C326.316 73.0928 325.645 72.5981 325.035 71.7271C323.815 69.985 324.18 67.7268 325.887 66.4579C327.594 65.189 329.789 65.5439 331.009 67.286C332.23 69.028 331.865 71.2863 330.158 72.5551C329.304 73.1896 328.146 73.3885 327.414 73.2702Z" fill="white"/>
<path d="M132.529 35.8565C131.498 35.0614 129.97 35.3874 129.138 36.4238L124.603 42.9356L117.569 41.1567L110.535 39.3778L110.047 31.5954C109.874 30.3048 108.722 29.3012 107.409 29.5033C106.095 29.7055 105.049 30.8657 105.222 32.1563L105.737 40.4796L93.2114 50.4921C92.4737 51.1961 92.1914 52.1933 92.4585 53.1515L101.278 80.3176C101.425 81.0672 102.121 81.7776 103.005 81.8231L108.699 83.2632C109.369 83.4326 110.133 83.2696 110.562 83.0219L110.991 82.7742L132.986 63.4013C133.724 62.6973 134.006 61.7001 133.739 60.742L128.178 46.1552L133.022 39.1872C133.854 38.1508 133.56 36.6517 132.529 35.8565ZM128.459 61.0096L109.844 77.3188L113.326 65.0192C117.387 64.6213 120.526 61.1405 120.221 57.145C119.917 53.1495 116.462 50.1385 112.401 50.5364C109.439 50.8559 106.677 53.0071 105.83 55.9989C104.983 58.9906 106.24 62.1583 108.637 63.8332L105.155 76.1328L97.6445 53.2163L108.883 43.947L116.252 45.8106L123.62 47.6742L128.459 61.0096ZM110.718 59.0163C110.357 58.3906 110.331 57.8496 110.519 57.1848C110.895 55.8551 112.183 55.112 113.522 55.4508C114.862 55.7896 115.585 57.041 115.208 58.3707C114.832 59.7004 113.545 60.4436 112.205 60.1047C111.535 59.9353 110.959 59.4334 110.718 59.0163Z" fill="white"/>
<path d="M355.092 207.126C355.768 206.649 355.855 205.661 355.382 204.963L352.28 200.994L354.674 197.059L357.068 193.125L361.881 194.283C362.696 194.419 363.52 193.908 363.643 193.074C363.766 192.239 363.258 191.388 362.443 191.251L357.297 190.008L353.564 180.537C353.275 179.958 352.723 179.6 352.092 179.583L333.962 179.855C333.48 179.803 332.919 180.093 332.726 180.621L330.788 183.806C330.56 184.181 330.516 184.675 330.586 184.981L330.656 185.288L338.296 202.253C338.586 202.833 339.138 203.19 339.769 203.207L349.658 202.561L352.98 206.802C353.453 207.5 354.417 207.603 355.092 207.126ZM340.594 199.954L334.18 185.612L340.991 190.024C340.473 192.562 341.998 195.117 344.479 195.679C346.959 196.241 349.432 194.708 349.95 192.17C350.31 190.314 349.521 188.236 347.864 187.162C346.208 186.089 344.051 186.26 342.587 187.401L335.776 182.989L351.083 182.717L354.605 191.268L352.097 195.39L349.589 199.512L340.594 199.954ZM345.12 189.564C345.567 189.462 345.9 189.547 346.268 189.786C347.005 190.262 347.215 191.182 346.759 191.932C346.303 192.681 345.408 192.886 344.672 192.409C343.936 191.932 343.726 191.012 344.182 190.262C344.41 189.888 344.822 189.632 345.12 189.564Z" fill="white"/>
</svg>
