<svg width="390" height="501" viewBox="0 0 390 501" fill="none" xmlns="http://www.w3.org/2000/svg">
<path d="M345.254 325.768C345.946 326.143 346.757 326.229 347.512 326.007C348.266 325.785 348.902 325.273 349.281 324.584C349.471 324.24 349.59 323.862 349.633 323.471C349.676 323.08 349.641 322.685 349.53 322.308C349.419 321.931 349.234 321.58 348.987 321.274C348.74 320.969 348.434 320.715 348.089 320.528C347.397 320.154 346.585 320.068 345.831 320.29C345.076 320.512 344.44 321.023 344.061 321.713C343.872 322.057 343.752 322.435 343.71 322.826C343.667 323.217 343.702 323.612 343.813 323.989C343.924 324.366 344.108 324.717 344.356 325.023C344.603 325.328 344.908 325.581 345.254 325.768ZM321.006 332.898C321.697 333.273 322.509 333.358 323.263 333.137C324.018 332.915 324.654 332.403 325.033 331.714C325.222 331.37 325.342 330.991 325.385 330.601C325.427 330.21 325.392 329.815 325.281 329.438C325.17 329.061 324.986 328.709 324.739 328.404C324.491 328.099 324.186 327.845 323.84 327.658C323.149 327.284 322.337 327.198 321.582 327.42C320.828 327.642 320.192 328.153 319.813 328.842C319.623 329.187 319.504 329.565 319.461 329.956C319.419 330.346 319.454 330.742 319.564 331.119C319.675 331.496 319.86 331.847 320.107 332.152C320.354 332.458 320.66 332.711 321.006 332.898ZM345.41 310.362C345.576 310.927 345.906 311.43 346.358 311.808C346.81 312.185 347.363 312.42 347.949 312.483C348.534 312.545 349.125 312.433 349.647 312.16C350.168 311.887 350.597 311.465 350.879 310.948C351.161 310.431 351.284 309.843 351.231 309.256C351.178 308.67 350.953 308.112 350.583 307.654C350.214 307.195 349.716 306.857 349.154 306.681C348.592 306.506 347.991 306.5 347.426 306.667C347.033 306.761 346.664 306.934 346.341 307.176C346.017 307.417 345.746 307.722 345.544 308.072C345.342 308.422 345.213 308.809 345.166 309.21C345.118 309.611 345.153 310.017 345.267 310.404L345.41 310.362ZM333.312 332.538C333.478 333.103 333.808 333.606 334.26 333.983C334.712 334.36 335.265 334.595 335.851 334.658C336.436 334.721 337.027 334.609 337.549 334.335C338.07 334.062 338.499 333.641 338.781 333.124C339.063 332.607 339.186 332.018 339.133 331.432C339.08 330.845 338.855 330.288 338.485 329.829C338.116 329.371 337.618 329.032 337.056 328.857C336.494 328.681 335.893 328.676 335.328 328.842C334.936 328.936 334.566 329.11 334.243 329.351C333.919 329.593 333.648 329.898 333.446 330.247C333.244 330.597 333.115 330.984 333.068 331.385C333.02 331.786 333.055 332.193 333.169 332.58L333.312 332.538ZM311.136 320.44C311.302 321.005 311.632 321.508 312.084 321.885C312.536 322.263 313.09 322.497 313.675 322.56C314.261 322.623 314.852 322.511 315.373 322.237C315.895 321.964 316.324 321.543 316.606 321.026C316.888 320.509 317.01 319.92 316.958 319.334C316.905 318.747 316.679 318.19 316.31 317.731C315.94 317.273 315.443 316.934 314.881 316.759C314.319 316.583 313.718 316.578 313.153 316.744C312.76 316.838 312.391 317.012 312.067 317.253C311.744 317.495 311.473 317.8 311.271 318.149C311.069 318.499 310.94 318.886 310.892 319.287C310.845 319.688 310.879 320.095 310.994 320.482L311.136 320.44ZM314.019 308.608C314.535 308.892 315.125 309.016 315.712 308.964C316.299 308.913 316.858 308.688 317.317 308.319C317.777 307.949 318.116 307.452 318.293 306.889C318.469 306.327 318.474 305.724 318.308 305.159C318.142 304.593 317.811 304.09 317.359 303.712C316.906 303.335 316.351 303.1 315.765 303.038C315.179 302.976 314.587 303.09 314.065 303.364C313.544 303.639 313.115 304.062 312.834 304.581C312.435 305.259 312.32 306.067 312.515 306.83C312.71 307.593 313.199 308.247 313.876 308.65L314.019 308.608ZM328.13 315.443C328.296 316.008 328.626 316.511 329.078 316.888C329.53 317.266 330.084 317.501 330.669 317.563C331.255 317.626 331.846 317.514 332.367 317.241C332.889 316.968 333.318 316.546 333.6 316.029C333.882 315.512 334.004 314.923 333.951 314.337C333.899 313.75 333.673 313.193 333.304 312.734C332.934 312.276 332.437 311.938 331.875 311.762C331.313 311.586 330.711 311.581 330.147 311.747C329.389 311.97 328.751 312.484 328.373 313.178C327.995 313.871 327.908 314.686 328.13 315.443Z" fill="white"/>
<path d="M302.318 306.723C300.741 306.287 299.095 307.213 298.807 308.825C297.917 313.811 298.194 318.951 299.633 323.836C301.353 329.672 304.664 334.913 309.196 338.972C313.728 343.031 319.301 345.748 325.29 346.817C331.279 347.886 337.448 347.266 343.104 345.025C348.76 342.785 353.681 339.013 357.313 334.133C360.946 329.253 363.148 323.457 363.671 317.396C364.194 311.334 363.018 305.247 360.275 299.816C359.579 298.453 358.618 297.241 357.449 296.253C356.279 295.265 354.924 294.52 353.463 294.062C351.878 293.571 350.21 293.401 348.558 293.562C346.905 293.723 345.302 294.211 343.84 294.998C342.951 295.455 342.024 295.832 341.068 296.124C338.297 296.925 335.352 296.904 332.593 296.062C329.833 295.221 327.378 293.596 325.525 291.385C324.51 290.197 323.263 289.23 321.86 288.543C320.457 287.856 318.929 287.464 317.369 287.391C315.776 287.321 314.185 287.572 312.691 288.129C311.197 288.685 309.83 289.536 308.671 290.631L308.728 290.614C307.019 292.205 305.493 293.967 304.171 295.866C303.211 297.246 303.765 299.112 305.251 299.898C306.67 300.648 308.414 300.13 309.361 298.834C310.376 297.444 311.527 296.15 312.802 294.971C313.966 293.917 315.499 293.366 317.067 293.437L317.124 293.42C317.88 293.463 318.619 293.657 319.298 293.99C319.977 294.324 320.582 294.79 321.077 295.361C323.683 298.412 327.114 300.646 330.958 301.794C334.802 302.943 338.896 302.957 342.748 301.836C344.089 301.437 345.389 300.909 346.629 300.26C347.382 299.849 348.21 299.593 349.064 299.507C349.919 299.422 350.781 299.507 351.601 299.76C352.316 299.968 352.978 300.323 353.547 300.803C354.115 301.282 354.577 301.876 354.903 302.544C355.638 303.986 356.237 305.492 356.691 307.045C357.706 310.489 358.018 314.101 357.609 317.667C357.2 321.234 356.079 324.682 354.311 327.806C352.544 330.931 350.167 333.669 347.321 335.857C344.475 338.045 341.219 339.639 337.745 340.544C331.261 342.209 324.39 341.401 318.47 338.278C312.549 335.154 308.003 329.938 305.718 323.647L305.29 322.19C304.162 318.353 303.912 314.324 304.541 310.399C304.799 308.786 303.893 307.158 302.318 306.723Z" fill="white"/>
<path d="M71.3458 83.6813C71.5545 84.6013 72.1187 85.4014 72.9152 85.9068C73.7118 86.4121 74.676 86.5818 75.5972 86.3786C76.0576 86.2776 76.4935 86.0865 76.8797 85.8162C77.2659 85.5459 77.5947 85.2018 77.8473 84.8037C78.0998 84.4057 78.271 83.9616 78.3511 83.4971C78.4311 83.0325 78.4184 82.5567 78.3136 82.0971C78.105 81.1771 77.5408 80.3771 76.7442 79.8717C75.9477 79.3663 74.9835 79.1967 74.0623 79.3998C73.6018 79.5008 73.1659 79.692 72.7797 79.9623C72.3936 80.2326 72.0647 80.5767 71.8122 80.9747C71.5596 81.3728 71.3884 81.8169 71.3084 82.2814C71.2283 82.7459 71.2411 83.2217 71.3458 83.6813ZM45.7473 67.4402C45.9559 68.3602 46.5201 69.1602 47.3167 69.6656C48.1133 70.171 49.0774 70.3406 49.9987 70.1375C50.4591 70.0365 50.895 69.8453 51.2812 69.575C51.6674 69.3047 51.9962 68.9606 52.2487 68.5626C52.5013 68.1645 52.6725 67.7204 52.7525 67.2559C52.8326 66.7914 52.8198 66.3156 52.7151 65.856C52.5064 64.936 51.9422 64.1359 51.1457 63.6305C50.3491 63.1252 49.3849 62.9555 48.4637 63.1587C48.0033 63.2597 47.5674 63.4508 47.1812 63.7211C46.795 63.9914 46.4662 64.3355 46.2136 64.7336C45.9611 65.1316 45.7899 65.5757 45.7098 66.0402C45.6298 66.5048 45.6425 66.9806 45.7473 67.4402ZM85.3679 71.645C84.9896 72.2413 84.7965 72.9365 84.8133 73.6425C84.83 74.3485 85.0557 75.0338 85.4618 75.6115C85.868 76.1893 86.4364 76.6336 87.0951 76.8884C87.7538 77.1431 88.4732 77.1968 89.1624 77.0427C89.8516 76.8885 90.4796 76.5335 90.9671 76.0224C91.4545 75.5113 91.7794 74.8672 91.9007 74.1715C92.0221 73.4757 91.9344 72.7597 91.6488 72.1138C91.3631 71.4679 90.8924 70.9212 90.296 70.5428C89.9005 70.2632 89.4523 70.067 88.9786 69.9661C88.5049 69.8652 88.0156 69.8617 87.5405 69.9559C87.0654 70.05 86.6145 70.2398 86.2151 70.5138C85.8156 70.7877 85.4761 71.14 85.2172 71.5493L85.3679 71.645ZM55.7992 78.258C55.4209 78.8543 55.2279 79.5495 55.2446 80.2555C55.2613 80.9615 55.487 81.6467 55.8932 82.2245C56.2993 82.8023 56.8677 83.2466 57.5264 83.5014C58.1851 83.7561 58.9045 83.8098 59.5937 83.6556C60.2829 83.5015 60.911 83.1465 61.3984 82.6354C61.8858 82.1243 62.2107 81.4802 62.3321 80.7845C62.4534 80.0887 62.3657 79.3726 62.0801 78.7267C61.7944 78.0808 61.3237 77.5342 60.7273 77.1558C60.3319 76.8762 59.8836 76.68 59.4099 76.5791C58.9362 76.4782 58.447 76.4747 57.9719 76.5689C57.4968 76.663 57.0458 76.8528 56.6464 77.1268C56.247 77.4007 55.9074 77.753 55.6485 78.1623L55.7992 78.258ZM49.1862 48.6893C48.8079 49.2856 48.6149 49.9808 48.6316 50.6868C48.6483 51.3928 48.874 52.0781 49.2802 52.6558C49.6863 53.2336 50.2547 53.6779 50.9134 53.9327C51.5721 54.1874 52.2915 54.2411 52.9807 54.087C53.6699 53.9328 54.298 53.5778 54.7854 53.0667C55.2728 52.5556 55.5977 51.9115 55.7191 51.2158C55.8404 50.5201 55.7527 49.804 55.4671 49.1581C55.1815 48.5122 54.7107 47.9655 54.1144 47.5871C53.7189 47.3075 53.2707 47.1113 52.797 47.0104C52.3232 46.9095 51.834 46.906 51.3589 47.0002C50.8838 47.0943 50.4328 47.2842 50.0334 47.5581C49.634 47.832 49.2945 48.1844 49.0355 48.5936L49.1862 48.6893ZM62.1392 41.9373C62.2915 42.6279 62.6454 43.2576 63.156 43.7468C63.6666 44.236 64.311 44.5626 65.0075 44.6851C65.7039 44.8076 66.4211 44.7206 67.068 44.4351C67.7149 44.1496 68.2625 43.6784 68.6414 43.0813C69.0202 42.4842 69.2132 41.7881 69.1959 41.0811C69.1787 40.3742 68.9519 39.6883 68.5444 39.1104C68.1368 38.5325 67.5669 38.0886 66.9068 37.8351C66.2467 37.5815 65.5261 37.5296 64.8365 37.686C63.9088 37.8614 63.0884 38.3971 62.5547 39.1759C62.0209 39.9547 61.8174 40.9132 61.9885 41.8417L62.1392 41.9373ZM67.1263 60.0715C66.748 60.6678 66.555 61.363 66.5717 62.069C66.5884 62.775 66.8141 63.4603 67.2203 64.038C67.6264 64.6158 68.1948 65.0601 68.8535 65.3149C69.5122 65.5696 70.2316 65.6233 70.9208 65.4692C71.61 65.315 72.238 64.96 72.7255 64.4489C73.2129 63.9378 73.5378 63.2937 73.6591 62.598C73.7805 61.9022 73.6928 61.1862 73.4072 60.5403C73.1215 59.8944 72.6508 59.3477 72.0544 58.9693C71.2548 58.462 70.2863 58.2931 69.3621 58.4998C68.4379 58.7065 67.6337 59.2718 67.1263 60.0715Z" fill="white"/>
<path d="M54.5919 29.8917C53.7383 28.1237 51.6012 27.3713 49.9202 28.3854C44.7176 31.5238 40.2994 35.8357 37.0302 40.9954C33.1245 47.1595 31.0131 54.2898 30.9329 61.5866C30.8528 68.8835 32.8069 76.0585 36.5762 82.3069C40.3455 88.5554 45.7809 93.6303 52.273 96.9626C58.765 100.295 66.057 101.753 73.3312 101.173C80.6055 100.593 87.5743 97.9977 93.4563 93.6788C99.3383 89.3599 103.901 83.4878 106.632 76.721C107.313 75.0151 107.646 73.1907 107.613 71.3545C107.58 69.5183 107.181 67.7071 106.44 66.0267C105.629 64.2082 104.464 62.5695 103.013 61.206C101.562 59.8425 99.8538 58.7815 97.9885 58.0851C96.8739 57.6443 95.8009 57.105 94.782 56.4736C91.8686 54.6067 89.5605 51.9334 88.1384 48.7788C86.7164 45.6243 86.2416 42.1245 86.7719 38.7051C87.0415 36.8511 86.9283 34.9615 86.4393 33.1529C85.9502 31.3444 85.0958 29.6552 83.9286 28.1897C82.7325 26.6975 81.2489 25.4608 79.5658 24.5528C77.8828 23.6448 76.0345 23.084 74.1306 22.9037L74.191 22.9419C71.4047 22.658 68.6093 22.6742 65.8511 22.9821C63.8473 23.2058 62.6014 25.1816 63.067 27.1433C63.5116 29.0164 65.3582 30.1805 67.2757 30.0103C69.3318 29.8277 71.4095 29.8428 73.4804 30.0607C75.351 30.2781 77.0601 31.2257 78.2355 32.6971L78.2958 32.7353C78.8542 33.4504 79.2634 34.2703 79.4993 35.1463C79.7352 36.0223 79.7931 36.9368 79.6694 37.8356C78.9765 42.5976 79.6729 47.4583 81.675 51.8341C83.6772 56.21 86.8998 59.9149 90.9561 62.5039C92.3763 63.3987 93.8796 64.1542 95.4451 64.76C96.4116 65.1149 97.2972 65.6597 98.0498 66.3624C98.8024 67.065 99.4067 67.9112 99.827 68.8511C100.204 69.6597 100.407 70.5382 100.424 71.4301C100.441 72.322 100.271 73.2076 99.9245 74.0298C99.2053 75.8323 98.3192 77.5637 97.2777 79.2012C94.9727 82.8381 91.9604 85.9747 88.4197 88.4248C84.879 90.8748 80.882 92.5884 76.6661 93.4637C72.4502 94.339 68.1015 94.3582 63.878 93.5201C59.6546 92.682 55.6427 91.0038 52.0805 88.5851C45.4533 84.0522 40.7509 77.2146 38.8893 69.4043C37.0278 61.594 38.1404 53.3704 42.0105 46.3356L42.9861 44.7979C45.5572 40.7477 48.9938 37.3375 53.0319 34.8027C54.6914 33.761 55.4438 31.6561 54.5919 29.8917Z" fill="white"/>
<path d="M48.495 260.614C48.7135 261.088 49.1107 261.456 49.5998 261.638C50.0889 261.82 50.6302 261.801 51.1054 261.585C51.343 261.478 51.5569 261.324 51.7349 261.134C51.9128 260.943 52.0513 260.719 52.1423 260.475C52.2332 260.23 52.2749 259.97 52.2649 259.71C52.2549 259.449 52.1934 259.193 52.0839 258.956C51.8654 258.482 51.4682 258.114 50.9791 257.932C50.4901 257.75 49.9488 257.769 49.4736 257.985C49.236 258.092 49.022 258.246 48.8441 258.436C48.6661 258.627 48.5277 258.851 48.4367 259.095C48.3457 259.34 48.304 259.6 48.314 259.86C48.324 260.121 48.3856 260.377 48.495 260.614ZM32.7773 254.763C32.9959 255.237 33.393 255.605 33.8821 255.787C34.3712 255.969 34.9125 255.95 35.3877 255.735C35.6253 255.627 35.8392 255.474 36.0172 255.283C36.1952 255.092 36.3336 254.868 36.4246 254.624C36.5156 254.38 36.5573 254.12 36.5472 253.859C36.5372 253.598 36.4757 253.342 36.3663 253.106C36.1477 252.632 35.7506 252.264 35.2615 252.082C34.7724 251.899 34.2311 251.918 33.7559 252.134C33.5183 252.242 33.3044 252.395 33.1264 252.586C32.9484 252.776 32.81 253 32.719 253.245C32.628 253.489 32.5864 253.749 32.5964 254.01C32.6064 254.27 32.6679 254.526 32.7773 254.763ZM54.7017 252.49C54.5654 252.856 54.5407 253.255 54.6308 253.635C54.7209 254.015 54.9217 254.36 55.2079 254.626C55.494 254.892 55.8526 255.067 56.2383 255.129C56.624 255.192 57.0195 255.138 57.3748 254.976C57.7301 254.813 58.0292 254.549 58.2343 254.216C58.4394 253.884 58.5413 253.498 58.5271 253.108C58.5129 252.717 58.3832 252.34 58.1545 252.023C57.9258 251.706 57.6083 251.464 57.2421 251.328C56.996 251.222 56.7309 251.167 56.463 251.167C56.195 251.167 55.9298 251.221 55.6835 251.327C55.4372 251.432 55.215 251.587 55.0303 251.781C54.8456 251.975 54.7023 252.205 54.6091 252.456L54.7017 252.49ZM39.459 259.463C39.3227 259.829 39.2981 260.228 39.3882 260.608C39.4783 260.988 39.6791 261.333 39.9652 261.599C40.2513 261.865 40.6099 262.04 40.9956 262.103C41.3813 262.165 41.7768 262.111 42.1321 261.949C42.4874 261.786 42.7865 261.522 42.9916 261.189C43.1968 260.857 43.2987 260.471 43.2845 260.081C43.2703 259.69 43.1406 259.313 42.9119 258.996C42.6831 258.679 42.3656 258.437 41.9995 258.301C41.7533 258.195 41.4883 258.14 41.2203 258.14C40.9524 258.14 40.6872 258.194 40.4409 258.3C40.1946 258.405 39.9723 258.56 39.7876 258.754C39.6029 258.948 39.4596 259.178 39.3665 259.429L39.459 259.463ZM32.4859 244.221C32.3496 244.587 32.3249 244.985 32.415 245.365C32.5051 245.746 32.7059 246.09 32.9921 246.356C33.2782 246.623 33.6368 246.798 34.0225 246.86C34.4082 246.922 34.8037 246.869 35.159 246.706C35.5143 246.544 35.8134 246.279 36.0185 245.947C36.2236 245.614 36.3255 245.228 36.3113 244.838C36.2971 244.448 36.1675 244.07 35.9387 243.753C35.71 243.437 35.3925 243.195 35.0263 243.058C34.7802 242.953 34.5151 242.898 34.2472 242.898C33.9792 242.897 33.7141 242.952 33.4678 243.057C33.2215 243.163 32.9992 243.317 32.8145 243.511C32.6298 243.705 32.4865 243.935 32.3933 244.186L32.4859 244.221ZM38.7206 239.08C38.8823 239.436 39.1461 239.736 39.4786 239.942C39.8111 240.148 40.1973 240.251 40.5883 240.237C40.9792 240.224 41.3573 240.094 41.6747 239.866C41.992 239.637 42.2342 239.319 42.3707 238.952C42.5072 238.586 42.5317 238.187 42.4412 237.806C42.3507 237.426 42.1493 237.081 41.8624 236.815C41.5755 236.549 41.2161 236.374 40.8298 236.312C40.4434 236.251 40.0475 236.306 39.6923 236.469C39.2104 236.671 38.8279 237.055 38.6284 237.538C38.429 238.02 38.4289 238.562 38.628 239.045L38.7206 239.08ZM43.5012 248.321C43.3649 248.687 43.3403 249.085 43.4304 249.466C43.5205 249.846 43.7213 250.191 44.0074 250.457C44.2935 250.723 44.6521 250.898 45.0378 250.96C45.4235 251.023 45.819 250.969 46.1743 250.806C46.5296 250.644 46.8287 250.38 47.0338 250.047C47.2389 249.715 47.3408 249.329 47.3266 248.938C47.3124 248.548 47.1828 248.17 46.9541 247.854C46.7253 247.537 46.4078 247.295 46.0417 247.159C45.5507 246.976 45.0072 246.996 44.5307 247.214C44.0543 247.432 43.684 247.83 43.5012 248.321Z" fill="white"/>
<path d="M33.2534 233.427C32.5885 232.569 31.3456 232.407 30.5523 233.148C28.0971 235.444 26.201 238.285 25.0241 241.452C23.6181 245.237 23.294 249.338 24.0882 253.296C24.8825 257.254 26.7637 260.912 29.5208 263.861C32.278 266.81 35.802 268.932 39.6979 269.991C43.5938 271.049 47.7074 271 51.5774 269.852C55.4474 268.703 58.9209 266.498 61.6083 263.486C64.2957 260.473 66.0907 256.772 66.7921 252.796C66.9644 251.795 66.9353 250.769 66.7066 249.779C66.478 248.789 66.0543 247.855 65.4603 247.031C64.8127 246.14 63.9941 245.387 63.0523 244.815C62.1105 244.244 61.0644 243.866 59.975 243.703C59.3212 243.593 58.6786 243.424 58.0547 243.199C56.2638 242.523 54.7078 241.341 53.5761 239.798C52.4443 238.254 51.7857 236.414 51.6801 234.503C51.6132 233.468 51.335 232.459 50.8627 231.536C50.3905 230.614 49.7341 229.798 48.9343 229.139C48.1157 228.468 47.1708 227.969 46.1558 227.671C45.1407 227.373 44.0761 227.282 43.0251 227.403L43.0621 227.416C41.5217 227.583 40.0107 227.912 38.5534 228.396C37.4947 228.747 37.0472 229.959 37.5244 230.967C37.98 231.93 39.113 232.348 40.1312 232.035C41.2229 231.701 42.349 231.47 43.4947 231.351C44.5321 231.253 45.5657 231.57 46.3708 232.231L46.4078 232.245C46.792 232.568 47.1076 232.965 47.3359 233.412C47.5641 233.859 47.7004 234.347 47.7366 234.848C47.9083 237.504 48.8432 240.055 50.429 242.193C52.0148 244.331 54.1841 245.966 56.6765 246.902C57.5478 247.223 58.4481 247.459 59.3648 247.607C59.9286 247.689 60.4704 247.882 60.9584 248.176C61.4463 248.469 61.8705 248.858 62.2058 249.318C62.5025 249.713 62.7134 250.165 62.8249 250.646C62.9363 251.126 62.9459 251.625 62.8531 252.11C62.6708 253.168 62.39 254.206 62.0144 255.212C61.1845 257.445 59.9144 259.488 58.2795 261.221C56.6446 262.953 54.6782 264.339 52.4972 265.297C50.3161 266.254 47.9649 266.764 45.5831 266.795C43.2013 266.827 40.8375 266.379 38.632 265.479C34.5252 263.787 31.1955 260.626 29.2915 256.613C27.3875 252.6 27.0455 248.022 28.3324 243.771L28.6838 242.826C29.6103 240.339 31.0786 238.099 32.9729 236.264C33.7514 235.51 33.917 234.284 33.2534 233.427Z" fill="white"/>
<path d="M330.563 120.96C330.213 121.698 330.17 122.544 330.442 123.313C330.714 124.082 331.279 124.713 332.014 125.067C332.382 125.244 332.78 125.347 333.187 125.369C333.595 125.391 334.002 125.333 334.387 125.197C334.771 125.061 335.125 124.85 335.428 124.577C335.73 124.304 335.976 123.973 336.15 123.605C336.499 122.867 336.543 122.021 336.271 121.252C335.999 120.483 335.433 119.852 334.698 119.498C334.331 119.321 333.932 119.218 333.525 119.196C333.118 119.173 332.71 119.232 332.326 119.368C331.941 119.504 331.588 119.714 331.285 119.988C330.982 120.261 330.737 120.592 330.563 120.96ZM321.821 96.2347C321.471 96.9722 321.428 97.8179 321.7 98.5873C321.972 99.3567 322.537 99.9872 323.273 100.341C323.64 100.518 324.039 100.621 324.446 100.644C324.853 100.666 325.261 100.607 325.645 100.472C326.029 100.336 326.383 100.125 326.686 99.8516C326.988 99.5782 327.234 99.2477 327.408 98.879C327.758 98.1416 327.801 97.2958 327.529 96.5264C327.257 95.757 326.692 95.1265 325.956 94.7726C325.589 94.5954 325.19 94.4926 324.783 94.4702C324.376 94.4478 323.968 94.5063 323.584 94.6422C323.2 94.7782 322.846 94.9889 322.543 95.2622C322.241 95.5355 321.995 95.8661 321.821 96.2347ZM346.533 120.261C345.957 120.465 345.455 120.835 345.089 121.324C344.723 121.813 344.511 122.4 344.478 123.01C344.446 123.62 344.595 124.226 344.907 124.752C345.22 125.277 345.68 125.698 346.232 125.961C346.783 126.224 347.4 126.318 348.005 126.231C348.609 126.143 349.175 125.879 349.629 125.47C350.083 125.062 350.406 124.527 350.557 123.935C350.707 123.343 350.679 122.72 350.475 122.144C350.356 121.742 350.155 121.369 349.887 121.048C349.619 120.726 349.287 120.462 348.914 120.272C348.54 120.083 348.132 119.971 347.714 119.944C347.296 119.917 346.877 119.975 346.482 120.116L346.533 120.261ZM322.882 108.965C322.306 109.169 321.803 109.539 321.437 110.028C321.071 110.517 320.859 111.104 320.826 111.714C320.794 112.324 320.944 112.93 321.256 113.455C321.568 113.981 322.029 114.402 322.58 114.665C323.131 114.928 323.748 115.022 324.353 114.935C324.958 114.847 325.523 114.583 325.977 114.174C326.431 113.765 326.754 113.231 326.905 112.639C327.055 112.047 327.027 111.424 326.823 110.848C326.704 110.446 326.504 110.073 326.235 109.752C325.967 109.43 325.636 109.166 325.262 108.976C324.889 108.787 324.48 108.675 324.062 108.648C323.644 108.621 323.225 108.679 322.83 108.82L322.882 108.965ZM334.178 85.3133C333.602 85.517 333.099 85.8869 332.733 86.3762C332.367 86.8655 332.155 87.4523 332.123 88.0624C332.09 88.6725 332.24 89.2785 332.552 89.8037C332.864 90.3289 333.325 90.7498 333.876 91.013C334.427 91.2763 335.044 91.3702 335.649 91.2829C336.254 91.1955 336.819 90.9308 337.273 90.5223C337.727 90.1137 338.05 89.5796 338.201 88.9875C338.351 88.3955 338.323 87.772 338.119 87.196C338 86.7945 337.8 86.4215 337.531 86.0998C337.263 85.7781 336.932 85.5144 336.558 85.3246C336.185 85.1349 335.776 85.0232 335.358 84.9962C334.94 84.9692 334.521 85.0276 334.126 85.1677L334.178 85.3133ZM346.598 87.6386C346.333 88.1898 346.237 88.8074 346.323 89.413C346.409 90.0187 346.673 90.5851 347.082 91.0405C347.49 91.4959 348.025 91.8198 348.617 91.9711C349.21 92.1225 349.834 92.0944 350.411 91.8905C350.988 91.6866 351.491 91.316 351.857 90.8258C352.223 90.3356 352.435 89.7477 352.466 89.1368C352.498 88.5259 352.347 87.9194 352.033 87.3942C351.72 86.869 351.257 86.4488 350.704 86.1868C349.979 85.8106 349.135 85.7369 348.356 85.9817C347.577 86.2264 346.926 86.7698 346.546 87.493L346.598 87.6386ZM340.304 102.642C339.728 102.845 339.225 103.215 338.859 103.704C338.494 104.194 338.281 104.781 338.249 105.391C338.217 106.001 338.366 106.607 338.678 107.132C338.99 107.657 339.451 108.078 340.002 108.341C340.554 108.605 341.171 108.699 341.775 108.611C342.38 108.524 342.945 108.259 343.399 107.851C343.854 107.442 344.176 106.908 344.327 106.316C344.478 105.724 344.45 105.1 344.246 104.524C343.973 103.752 343.404 103.12 342.665 102.767C341.926 102.413 341.076 102.369 340.304 102.642Z" fill="white"/>
<path d="M347.897 75.4108C348.261 73.7518 347.209 72.0982 345.523 71.8902C340.307 71.2465 334.997 71.8202 330.016 73.5844C324.066 75.6922 318.82 79.4159 314.868 84.338C310.915 89.2601 308.412 95.186 307.639 101.451C306.866 107.716 307.853 114.073 310.49 119.808C313.127 125.544 317.31 130.431 322.57 133.922C327.829 137.414 333.957 139.371 340.266 139.574C346.576 139.778 352.817 138.22 358.29 135.074C359.665 134.277 360.866 133.214 361.824 131.947C362.783 130.68 363.479 129.234 363.872 127.695C364.292 126.024 364.375 124.287 364.116 122.584C363.857 120.881 363.261 119.247 362.364 117.777C361.841 116.881 361.399 115.941 361.043 114.967C360.058 112.141 359.916 109.089 360.634 106.183C361.351 103.276 362.898 100.641 365.085 98.5982C366.259 97.4807 367.191 96.1345 367.825 94.6427C368.458 93.1508 368.779 91.545 368.768 89.9244C368.751 88.2701 368.402 86.6361 367.742 85.1192C367.082 83.6022 366.124 82.2333 364.925 81.0936L364.946 81.1518C363.201 79.4703 361.291 77.9879 359.249 76.724C357.767 75.8058 355.863 76.4846 355.132 78.0682C354.434 79.5801 355.069 81.3587 356.464 82.2672C357.961 83.2413 359.366 84.3615 360.659 85.616C361.816 86.7633 362.473 88.321 362.486 89.9501L362.507 90.0083C362.505 90.7931 362.345 91.5696 362.038 92.2917C361.73 93.0138 361.281 93.6669 360.717 94.2124C357.702 97.0824 355.579 100.762 354.604 104.809C353.628 108.856 353.842 113.098 355.219 117.027C355.707 118.394 356.326 119.711 357.068 120.96C357.536 121.717 357.848 122.561 357.984 123.441C358.121 124.322 358.08 125.22 357.864 126.084C357.688 126.836 357.358 127.542 356.892 128.158C356.427 128.774 355.839 129.285 355.164 129.66C353.712 130.502 352.184 131.207 350.6 131.765C347.089 133.008 343.364 133.533 339.646 133.309C335.928 133.084 332.293 132.115 328.957 130.459C325.621 128.802 322.651 126.492 320.225 123.666C317.799 120.839 315.966 117.554 314.834 114.005C312.747 107.381 313.2 100.216 316.105 93.9076C319.011 87.5989 324.161 82.5978 330.552 79.8785L332.038 79.3534C335.951 77.971 340.111 77.4866 344.212 77.919C345.898 78.0967 347.534 77.0664 347.897 75.4108Z" fill="white"/>
</svg>
